<?xml version="1.0" encoding="utf-8"?>
<!-- Generator: Adobe Illustrator 16.0.3, SVG Export Plug-In . SVG Version: 6.00 Build 0)  -->
<!DOCTYPE svg PUBLIC "-//W3C//DTD SVG 1.1//EN" "http://www.w3.org/Graphics/SVG/1.1/DTD/svg11.dtd">
<svg version="1.1" id="Layer_1" xmlns="http://www.w3.org/2000/svg" xmlns:xlink="http://www.w3.org/1999/xlink" x="0px" y="0px"
	 width="595px" height="426px" viewBox="0 0 595 426" enable-background="new 0 0 595 426" xml:space="preserve">
<g>
	<g>
		<path fill="#D2D2D2" d="M217.662,310.104c-4.528,18.504-9.055,37.01-13.575,55.518c42.241,0,84.485,0,126.727,0
			c-4.527-18.508-9.053-37.014-13.58-55.518C284.047,310.104,250.855,310.104,217.662,310.104z"/>
		<path fill="#EFEFEF" d="M338.648,364.641H196.247c-3.617,0-6.548,3.439-6.548,7.689v2.885h155.498v-2.885
			C345.196,368.08,342.27,364.641,338.648,364.641z"/>
		<path fill="#EFEFEF" d="M53.319,288.494v30.592c0,5.895,4.766,10.664,10.66,10.664h406.938c5.887,0,10.659-4.77,10.659-10.664
			v-30.592H53.319z"/>
		<path fill="#212121" d="M481.576,288.494V29.434c0-5.896-4.772-10.666-10.659-10.666H63.979c-5.894,0-10.66,4.77-10.66,10.666
			v259.06H481.576z"/>
		<rect x="70.86" y="35.426" fill="#FFFFFF" width="393.176" height="235.378"/>
	</g>
	<g>
		<rect x="114.345" y="232.023" fill="#959595" width="18.012" height="24.016"/>
		<rect x="150.368" y="210.408" fill="#959595" width="18.011" height="45.631"/>
		<rect x="186.393" y="193.844" fill="#959595" width="18.01" height="62.195"/>
		<rect x="222.417" y="208.82" fill="#959595" width="18.011" height="47.219"/>
		<rect x="258.439" y="155.172" fill="#959595" width="18.012" height="100.867"/>
		<rect x="294.463" y="173.184" fill="#959595" width="18.013" height="82.855"/>
		<rect x="330.486" y="135.961" fill="#959595" width="18.014" height="120.078"/>
		<rect x="366.511" y="102.337" fill="#959595" width="18.013" height="153.702"/>
		<rect x="402.533" y="67.514" fill="#959595" width="18.014" height="188.525"/>
	</g>
	<g>
		<rect x="96.949" y="62.866" fill="#545454" width="73.484" height="7"/>
		<rect x="96.949" y="80.659" fill="#DDDDDD" width="132.809" height="4.307"/>
		<rect x="96.949" y="93.877" fill="#DDDDDD" width="112.87" height="4.307"/>
		<rect x="96.949" y="107.094" fill="#DDDDDD" width="125.073" height="4.31"/>
		<rect x="96.949" y="120.316" fill="#DDDDDD" width="97.339" height="4.307"/>
		<path fill="#545454" d="M96.949,137.08v12.577h42.988V137.08H96.949z M132.727,145.518h-28.57v-4.304h28.57V145.518z"/>
	</g>
</g>
<g>
	<path fill="#DDDDDD" d="M95.347,230.277c-0.635,0-1.255-0.311-1.626-0.885c-0.583-0.896-0.326-2.096,0.571-2.678l102.653-66.496
		c0.604-0.392,1.377-0.415,2-0.065l30.687,17.185l37.753-59.146c0.291-0.458,0.763-0.772,1.298-0.865
		c0.531-0.098,1.084,0.039,1.515,0.372l32.32,24.86l106.428-91.802c0.81-0.699,2.033-0.608,2.731,0.202
		c0.699,0.81,0.608,2.033-0.2,2.731l-107.623,92.834c-0.696,0.6-1.72,0.628-2.446,0.067l-31.895-24.535l-37.6,58.906
		c-0.551,0.864-1.684,1.15-2.578,0.646l-31.264-17.506L96.398,229.967C96.073,230.178,95.708,230.277,95.347,230.277L95.347,230.277
		z"/>
</g>
<circle fill="#545454" cx="98.061" cy="227.506" r="7.558"/>
<circle fill="#545454" cx="196.839" cy="162.624" r="7.558"/>
<circle fill="#545454" cx="230.088" cy="179.409" r="7.558"/>
<circle fill="#545454" cx="269.47" cy="119.69" r="7.558"/>
<circle fill="#545454" cx="304.01" cy="145.836" r="7.559"/>
<path fill="#545454" d="M417.77,52.224c0,4.175-3.384,7.559-7.561,7.559c-4.171,0-7.558-3.384-7.558-7.559s3.387-7.558,7.558-7.558
	C414.386,44.667,417.77,48.049,417.77,52.224z"/>
<g>
	<defs>
		<path id="SVGID_1_" d="M481.576,288.494V29.434c0-5.896-4.772-10.666-10.659-10.666H63.979c-5.894,0-10.66,4.77-10.66,10.666
			v259.06H481.576z"/>
	</defs>
	<clipPath id="SVGID_2_">
		<use xlink:href="#SVGID_1_"  overflow="visible"/>
	</clipPath>
	<path clip-path="url(#SVGID_2_)" fill="#D1D1D1" d="M578.267,297.055l-57.795-58.07c-5.045-5.074-12.248-6.686-18.671-4.84
		c-0.222-0.279-0.417-0.57-0.674-0.828l-9.352-9.652c10.052-12.9,15.536-28.646,15.564-45.226
		c0.036-19.762-7.646-38.367-21.631-52.404c-13.98-14.029-32.573-21.772-52.327-21.813c-19.813-0.029-38.451,7.682-52.489,21.721
		c-13.973,13.967-21.691,32.523-21.719,52.234c-0.072,40.839,33.09,74.126,73.936,74.205c16.567,0.029,32.308-5.375,45.233-15.35
		l9.355,9.656c0.32,0.324,0.68,0.582,1.033,0.85c-1.647,6.283-0.033,13.248,4.88,18.189l57.788,58.066
		c7.383,7.422,19.385,7.445,26.806,0.066c0.009-0.012,0.019-0.023,0.033-0.033C585.62,316.443,585.64,304.465,578.267,297.055z"/>
	<path clip-path="url(#SVGID_2_)" fill="#D1D1D1" d="M172.674,201.639H34.328c-5.578,0-10.089,4.518-10.089,10.09v182.139
		c0,5.563,4.511,10.076,10.089,10.076h138.347c5.561,0,10.077-4.514,10.077-10.076V211.729
		C182.751,206.156,178.235,201.639,172.674,201.639z"/>
</g>
<g>
	<path fill="#545454" d="M578.238,309.301c-0.015,0.01-0.024,0.02-0.033,0.031c-7.421,7.381-19.423,7.355-26.806-0.064
		l-57.788-58.066c-7.369-7.412-7.356-19.389,0.031-26.771c0.012-0.014,0.021-0.021,0.032-0.033
		c7.415-7.383,19.413-7.359,26.797,0.061l57.795,58.072C585.64,289.938,585.62,301.916,578.238,309.301L578.238,309.301z"/>
	<path fill="#727272" d="M569.989,308.943c-2.846,2.83-7.501,2.816-10.354-0.047l-57.791-58.072
		c-2.846-2.859-2.843-7.508,0.009-10.355c2.886-2.867,7.538-2.857,10.391,0.01l57.788,58.066c2.848,2.859,2.842,7.508-0.008,10.365
		L569.989,308.943z"/>
	<path d="M485.634,216.121h-0.004c-14.045,14.051-32.7,21.768-52.521,21.734c-40.846-0.078-74.008-33.365-73.936-74.206
		c0.027-19.71,7.746-38.267,21.719-52.233c14.038-14.041,32.676-21.751,52.489-21.722c19.754,0.04,38.347,7.784,52.327,21.813
		c13.984,14.035,21.667,32.641,21.631,52.402C507.306,183.615,499.595,202.154,485.634,216.121L485.634,216.121z"/>
	<g>
		<path fill="#212121" d="M433.12,233.658c-18.64-0.033-36.168-7.34-49.355-20.576c-13.188-13.236-20.432-30.789-20.4-49.425
			c0.036-18.602,7.313-36.101,20.49-49.279c13.215-13.213,30.747-20.484,49.381-20.484c0.044,0,0.088,0,0.133,0l-0.019,9.324
			c-0.037,0-0.076,0-0.114,0c-16.145,0-31.334,6.303-42.787,17.753c-11.421,11.423-17.727,26.588-17.759,42.702
			c-0.028,16.147,6.251,31.358,17.681,42.828c11.43,11.473,26.618,17.805,42.766,17.832L433.12,233.658L433.12,233.658z"/>
	</g>
	<g>
		<path fill="none" d="M479.369,209.865"/>
	</g>
	<path fill="#DDDDDD" d="M394.293,124.815c-10.398,10.404-16.143,24.211-16.169,38.871c-0.052,30.392,24.625,55.16,55.02,55.212
		c14.744,0.025,28.625-5.715,39.084-16.18l0.004,0.004c10.396-10.394,16.128-24.189,16.158-38.843
		c0.029-14.698-5.692-28.546-16.104-38.994c-10.41-10.445-24.241-16.209-38.942-16.234
		C418.612,108.623,404.746,114.368,394.293,124.815L394.293,124.815z"/>
	<path fill="#E8E8E8" d="M472.286,124.885c-10.41-10.445-24.241-16.209-38.942-16.234c-4.139-0.007-8.212,0.454-12.156,1.334
		c-5.997,2.712-11.531,6.508-16.335,11.313c-10.399,10.398-16.145,24.205-16.165,38.871c-0.055,30.391,24.624,55.16,55.019,55.212
		c4.146,0.012,8.218-0.455,12.172-1.34c6.008-2.711,11.541-6.512,16.35-11.322l0.004,0.004
		c10.396-10.394,16.128-24.189,16.158-38.843C488.419,149.181,482.697,135.333,472.286,124.885z"/>
	<g>
		<path d="M501.098,232.189c-3.707,3.691-9.706,3.686-13.399-0.027l-11.807-12.188c-3.688-3.699-3.68-9.688,0.011-13.381
			c0.006-0.006,0.012-0.01,0.021-0.018c3.705-3.689,9.702-3.682,13.398,0.029l11.805,12.186c3.688,3.703,3.68,9.691-0.017,13.383
			C501.11,232.174,501.1,232.186,501.098,232.189z"/>
	</g>
	<g>
		<defs>
			<path id="SVGID_3_" d="M394.293,124.815c-10.398,10.404-16.143,24.211-16.169,38.871c-0.052,30.392,24.625,55.16,55.02,55.212
				c14.744,0.025,28.625-5.715,39.084-16.18l0.004,0.004c10.396-10.394,16.128-24.189,16.158-38.843
				c0.029-14.698-5.692-28.546-16.104-38.994c-10.41-10.445-24.241-16.209-38.942-16.234
				C418.612,108.623,404.746,114.368,394.293,124.815L394.293,124.815z"/>
		</defs>
		<clipPath id="SVGID_4_">
			<use xlink:href="#SVGID_3_"  overflow="visible"/>
		</clipPath>
		<g clip-path="url(#SVGID_4_)">
			<rect x="359.5" y="29.131" fill="#959595" width="32.373" height="276.228"/>
			<rect x="410.198" y="-32" fill="#959595" width="32.37" height="338.81"/>
		</g>
	</g>
</g>
<rect x="24.239" y="271.307" fill="#D1D1D1" width="158.513" height="59.395"/>
<g>
	<g>
		<g>
			<path fill="#212121" d="M162.022,206.482H23.675c-5.578,0-10.089,4.516-10.089,10.088v182.141
				c0,5.563,4.511,10.074,10.089,10.074h138.347c5.561,0,10.077-4.512,10.077-10.074V216.57
				C172.099,210.998,167.583,206.482,162.022,206.482z"/>
			<path fill="#FFFFFF" d="M92.844,403.639c-2.241,0-4.059-1.814-4.059-4.053c0-2.25,1.818-4.053,4.059-4.053
				c2.236,0,4.054,1.803,4.054,4.053C96.898,401.824,95.08,403.639,92.844,403.639z"/>
			<rect x="31.574" y="226.033" fill="#FFFFFF" width="122.534" height="163.199"/>
		</g>
	</g>
	<g>
		<g>
			<path fill="#ABABAB" d="M108.133,312.619c-0.75,2.279-1.946,4.346-3.535,6.07l12.054,16.855
				c6.1-5.262,10.477-12.451,12.139-20.643L108.133,312.619z"/>
			<path fill="#ADADAD" d="M95.814,291.26c7.028,1.455,12.349,7.379,13.049,14.656l20.633,2.279
				c0.002-0.238,0.036-0.465,0.036-0.703c0-19.346-14.817-35.209-33.719-36.92V291.26z"/>
			<path fill="#B1B1B1" d="M80.221,296.375c2.311-2.539,5.358-4.391,8.852-5.115v-20.688c-11.002,0.996-20.594,6.797-26.704,15.279
				L80.221,296.375z"/>
			<path fill="#727272" d="M99.136,322.637c-2.051,0.91-4.305,1.432-6.694,1.432c-9.154,0-16.579-7.422-16.579-16.576
				c0-1.865,0.379-3.629,0.948-5.307L58.946,291.66c-2.276,4.807-3.586,10.16-3.586,15.832c0,20.482,16.6,37.086,37.082,37.086
				c6.843,0,13.227-1.883,18.728-5.113L99.136,322.637z"/>
		</g>
		<g>
			<rect x="93.686" y="366.387" fill="#D2D2D2" width="35.313" height="3.135"/>
			<rect x="46.87" y="356.355" fill="#D2D2D2" width="35.321" height="3.137"/>
			<rect x="39.669" y="263.248" fill="#D2D2D2" width="35.32" height="3.135"/>
			<g>
				<polygon fill="#D2D2D2" points="82.256,359.787 80.758,359.41 84.038,346.352 85.536,346.729 82.256,359.787 				"/>
			</g>
			<g>
				<polygon fill="#D2D2D2" points="78.227,271.096 73.531,264.029 74.817,263.174 79.514,270.24 78.227,271.096 				"/>
			</g>
			<rect x="110.361" y="260.549" fill="#D2D2D2" width="35.319" height="3.133"/>
			<g>
				<polygon fill="#D2D2D2" points="106.282,270.551 104.958,269.756 110.513,260.502 111.836,261.297 106.282,270.551 				"/>
			</g>
			<g>
				<polygon fill="#D2D2D2" points="127.441,367.227 119.787,334.889 121.288,334.533 128.942,366.871 127.441,367.227 				"/>
			</g>
		</g>
	</g>
</g>
<rect id="_x3C_Slice_x3E_" x="-0.141" y="-1" fill="none" width="595.28" height="426"/>
</svg>
