<?xml version="1.0" encoding="utf-8"?>
<!-- Generator: Adobe Illustrator 17.0.0, SVG Export Plug-In . SVG Version: 6.00 Build 0)  -->
<!DOCTYPE svg PUBLIC "-//W3C//DTD SVG 1.1//EN" "http://www.w3.org/Graphics/SVG/1.1/DTD/svg11.dtd">
<svg version="1.1" id="Layer_1" xmlns="http://www.w3.org/2000/svg" xmlns:xlink="http://www.w3.org/1999/xlink" x="0px" y="0px"
	 width="590.577px" height="99.473px" viewBox="0 0 590.577 99.473" enable-background="new 0 0 590.577 99.473"
	 xml:space="preserve">
<g>
	<circle fill="#FFFFFF" cx="540.795" cy="45.86" r="45.86"/>
	<path fill="#ED1C24" d="M563.751,64.957c0,1.861-1.509,3.37-3.37,3.37l0,0c-1.861,0-3.37-1.509-3.37-3.37V47.265
		c0-1.861,1.509-3.37,3.37-3.37l0,0c1.861,0,3.37,1.509,3.37,3.37V64.957z"/>
	<path fill="#ED1C24" d="M551.149,64.418c0,1.319-1.509,2.389-3.37,2.389l0,0c-1.861,0-3.37-1.069-3.37-2.389v-12.54
		c0-1.319,1.509-2.389,3.37-2.389l0,0c1.861,0,3.37,1.069,3.37,2.389V64.418z"/>
	<circle fill="#FFFFFF" cx="46.061" cy="51.721" r="45.86"/>
	<circle fill="#FFFFFF" cx="172.277" cy="48.454" r="45.86"/>
	<circle fill="#FFFFFF" cx="422.274" cy="48.676" r="45.86"/>
	<path fill="#030305" d="M508.773,77.975c-2.433-2.582-5.073-5-7.259-7.776c-5.955-7.566-7.255-16.288-5.752-25.576
		c0.81-5.009,2.28-9.973,5.002-14.124c3.504-5.343,7.951-9.981,12.812-14.332c5.624-5.035,11.873-7.039,19.091-8.134
		c3.883-0.589,7.389,0.223,11.061,0.365c0.995,0.039,2.34,0.279,1.942,1.968c-0.355,1.506-1.496,1.064-2.453,0.973
		c-5.778-0.553-11.553-0.712-17.166,1.025c-4.3,1.331-7.917,3.857-11.504,6.593c-4.15,3.166-7.628,7.024-10.555,11.091
		c-2.557,3.553-4.923,7.624-5.645,12.282c-1.197,7.722-1.448,15.219,2.714,22.34c3.52,6.022,8.307,10.621,13.945,14.647
		c7.522,5.371,15.849,7.884,24.882,9.292c5.702,0.889,10.962,0.069,16.301-1.228c6.064-1.474,11.054-4.742,15.584-9.097
		c4.505-4.331,7.074-9.409,8.931-15.279c2.06-6.512,2.025-13.083,0.622-19.381c-1.337-6.002-4.384-11.542-8.301-16.588
		c-1.945-2.505-3.427-5.382-5.744-7.696c-3.443-3.439-7.406-6.135-11.613-8.457c-3.902-2.153-7.921-4.115-11.99-5.934
		c-1.569-0.701-3.406-0.868-5.145-1.106c-1.566-0.214-3.057-0.419-4.094-1.868c5.986-2.007,11.071,2.211,16.709,2.057
		c3.844,0.437,6.64,3.119,9.976,4.652c0.948,0.922,2.1,1.579,3.25,2.152c5.897,2.942,9.24,8.386,13.345,13.152
		c4.817,5.594,7.184,12.303,9.595,19.012c1.636,4.553,1.235,9.387,0.927,14.111c-0.149,2.281,0.163,4.694-0.988,6.853
		c-0.898,1.081-1.493,2.271-1.316,3.736c-0.19,4.082-1.792,7.566-4.475,10.596c-6.88,7.556-14.908,13.087-25.058,15.565
		c-5.076,1.239-10.068,1.087-15.136,1.108c-0.888-0.25-1.696-0.738-2.642-0.832c-8.075-0.8-14.813-4.949-21.715-8.683
		c-1.128-1.738-3.175-2.096-4.761-3.148c-0.332-0.191-0.633-0.424-0.913-0.683C509.98,80.703,509.889,78.994,508.773,77.975z"/>
	<path fill="#04030B" d="M447.716,14.227c-1.324-2.287-3.94-2.989-5.862-4.53c-4.738-3.799-10.515-5.749-16.516-6.72
		c-2.736-0.443-5.542-0.311-8.314,0.058c-0.591,0.079-1.523,0.454-1.672-0.384c-0.142-0.795,0.384-1.355,1.42-1.574
		c4.632-0.979,9.157-1.328,13.67,0.676c2.297,1.02,4.996,0.102,7.363,1.105c3.723,0.568,7.018,2.088,9.941,4.445
		c5.913,4.301,10.607,9.793,14.591,15.814c2.265,3.423,5.017,6.689,5.916,10.896c3.57,4.778,2.988,10.805,4.845,16.098
		c0.938,3.738,0.504,7.482-0.124,11.186c-0.262,1.543-0.951,3.062-1.023,4.619c-0.197,4.253-2.448,7.478-4.933,10.626
		c-0.23,0.292-0.582,0.538-0.689,0.871c-1.362,4.232-5.13,6.438-7.884,9.505c-1.423,1.585-3.071,2.891-5.009,3.407
		c-4.966,1.32-9.465,4.009-14.385,5.17c-4.649,1.097-9.557,1.343-14.403,1.342c-1.682-0.045-3.326-0.334-4.942-0.795
		c-1.282-0.944-2.761-0.7-4.203-0.683c-0.789,0.031-1.509-0.16-2.138-0.65c-4.897-0.144-9.402-2.104-13.806-3.767
		c-5.161-1.949-9.798-5.275-13.864-9.145c-3.644-3.469-6.93-7.247-9.083-11.881c-0.614-1.321-1.444-2.531-1.539-4.065
		c-0.185-2.979-1.871-5.575-1.955-8.659c-0.243-8.92,2.866-16.596,7.651-23.934c4.317-6.621,9.916-12.01,15.94-16.829
		c5.396-4.317,11.314-7.964,18.474-9.39c3.485-0.694,6.879-1.059,10.372-1.193c1.76-0.067,2.613,0.627,2.513,2.406
		c-0.105,1.856-1.372,1.284-2.451,1.199c-6.819-0.536-13.438,0.775-19.29,4.015c-4.457,2.468-8.799,5.355-12.594,9.017
		c-2.945,2.843-6.247,5.474-8.73,8.635c-3.838,4.887-7.429,9.979-8.814,16.451c-1.009,4.717-1.664,9.297-0.456,13.874
		c1.295,4.908,2.776,9.792,6.523,13.681c1.763,1.829,2.708,4.456,5.55,5.102c3.164,1.615,6.219,3.413,9.164,5.402
		c1.828,0.629,3.625,1.104,5.631,1.103c2.672-0.001,5.076,1.405,7.602,2.189c4.057,0.476,8.032,1.404,12.036,2.161
		c7.911,0.759,15.566-0.232,22.912-3.342c2.075-1.26,4.505-1.754,6.568-3.04c2.012-2.13,4.445-3.762,6.339-6.102
		c2.48-3.063,5.073-5.935,6.209-9.822c0.397-1.358,1.026-2.649,1.549-3.97c0.353-4.014,1.209-8.001,1.08-12.038
		c-0.343-10.726-4.051-20.232-10.669-28.655c-1.13-1.438-2.598-2.613-3.395-4.312c-0.19-0.38-0.38-0.76-0.57-1.14
		C450.925,17.002,449.457,15.475,447.716,14.227z"/>
	<path fill="#030409" d="M282.864,90.038c-0.069-1.054-0.93-0.983-1.622-1.121c-2.618-0.525-5.273-0.912-7.843-1.612
		c-0.989-0.269-3.221-0.002-2.045-2.449c0.317-0.659-0.739-0.693-1.159-0.86c-6.318-2.518-11.208-6.852-14.781-12.466
		c-2.01-3.158-3.545-6.66-4.237-10.531c-0.961-5.371-0.533-10.707,0.989-15.694c1.708-5.599,4.598-10.787,8.279-15.55
		c3.083-3.989,6.374-7.786,9.857-11.363c3.077-3.159,6.153-6.442,9.986-8.798c2.276-1.399,4.491-2.91,6.839-4.176
		c3.44-1.854,7.212-1.45,10.91-1.184c2.03,0.146,4.041,0.542,6.087,0.24c6.535,0.6,12.767,1.986,18.072,6.244
		c9.31,7.472,16.832,16.437,22.751,26.775c0.662,1.157,0.677,2.507,0.97,3.771c0.585,2.532,0.78,5.15,1.83,7.581
		c0.407,0.943,0.496,2.074,0.183,3.03c-1.258,3.847-1.185,7.9-1.923,11.827c-0.447,2.38-1.242,4.462-2.82,6.237
		c-1.261,1.418-2.018,3.113-2.884,4.758c-3.43,6.516-8.708,11.008-15.371,13.966c-0.524,0.233-0.905,0.648-1.382,0.939
		c-10.482,4.041-21.142,6.678-32.221,2.705C288.531,91.307,285.617,91.03,282.864,90.038z"/>
	<path fill="#030308" d="M32.303,86.341c7.785,0.97,15.559,1.027,23.34-0.115c1.926-0.283,3.03-1.845,4.666-2.612
		c2.476-1.161,5.011-2.204,7.391-3.694c5.182-3.245,8.969-7.499,12.119-12.682c4.409-7.253,6.898-14.899,6.788-23.414
		c-0.045-3.49-0.659-6.769-2.667-9.65c-0.857-1.229-1.251-2.572-1.626-3.96c-2.108-1.116-2.585-3.526-4.105-5.154
		c-4.643-4.972-10.128-8.353-16.863-9.433c-2.358-0.378-4.449-1.131-6.363-2.493c-9.493-0.962-18.959-0.311-28.293,1.288
		c-4.613,0.79-9.121,2.639-12.697,6.039c-0.435,0.413-1.013,1.076-1.609,0.466c-0.45-0.461-0.13-1.016,0.254-1.664
		c2.291-3.867,6.139-5.297,10.062-6.37c10.1-2.762,20.424-2.987,30.802-2.221c1.202,0.089,2.412,0.072,3.618,0.105
		c1.084,0.765,2.309,0.371,3.476,0.408c4.265,0.133,8.361,0.807,11.847,3.538c0.603,0.557,1.307,0.783,2.121,0.656
		c1.261,0.752,2.496,1.538,3.553,2.572c1.476,1.315,2.952,2.629,4.428,3.944c2.664,2.702,4.765,5.752,6.588,9.119
		c2.642,4.879,3.269,10.116,3.245,15.398c-0.053,11.946-4.37,22.343-12.555,31.034c-3.549,3.768-8.145,6.137-12.656,8.571
		c-11.658,4.598-23.63,5.506-35.887,3.075c-1.049-1.614-2.866-0.935-4.272-1.257c-5.197-1.187-9.643-3.683-14.076-6.552
		c-5.313-3.438-8.891-8.195-11.223-13.769c-2.087-4.992-1.824-10.488-1.46-15.856c0.069-1.012,0.234-2.017,0.354-3.025
		c0.791-0.806,0.095-2.118,0.984-2.891c1.237-6.195,3.589-11.906,7.38-16.992c0.548-1.086,1.101-2.167,2.205-2.817
		c4.716-5.967,10.505-10.005,18.414-10.18c0.832-0.018,1.924-0.421,2.037,1.13c0.111,1.53-0.89,1.278-1.796,1.352
		c-8.271,0.67-13.864,5.336-18.722,11.725C6.804,35.616,3.97,41.773,2.691,48.621c-1.117,5.983-1.234,12.086,0.721,17.952
		c1.173,3.52,3.378,6.438,5.903,9.28c3.307,3.722,7.648,5.551,11.721,7.919c2.025,1.177,4.382,1.369,6.674,1.656
		C29.096,86.461,30.934,85.218,32.303,86.341z"/>
	<path fill="#03040D" d="M165.752,83.882c8.75,0.685,17.576,1.162,26.168-0.675c7.162-1.532,13.505-4.853,18.105-11.182
		c5.294-7.285,6.868-15.258,5.685-23.873c-0.498-3.627-1.873-7.134-2.842-10.698c-0.189-0.694-0.552-1.163-1.33-1.177
		c-2.254-4.783-4.796-9.316-8.977-12.802c-3.15-2.627-6.543-4.902-9.77-7.409c-0.773-0.6-1.848-0.357-2.513-1.105l0.01,0.005
		c-2.646-1.054-5.436-1.725-7.994-3.014c-6.25-2.575-12.684-1.736-19.101-0.979c-0.907,0.107-1.777,0.512-2.833,0.169
		c0.25-1.255,0.784-1.862,2.197-2.221c6.173-1.569,12.333-1.258,18.525-0.339c2.145,1.172,4.388-0.051,6.567,0.261
		c8.874,2.145,16.667,6.088,22.235,13.613c2.647,3.577,4.614,7.556,6.508,11.564c1.586,3.356,3.178,6.717,3.34,10.53
		c0.087,1.588-0.147,3.24,0.955,4.621c0.797,4.434,0.883,8.828-0.747,13.12c-0.086,5.077-3.025,8.977-5.928,12.604
		c-2.07,2.586-4.815,4.798-7.757,6.622c-2.921,1.81-6.132,3.022-9.093,4.731c-1.63,0.61-3.194,1.422-4.953,1.645
		c-1.24-0.087-2.288,0.447-3.326,1.029c-7.109,0.863-14.194,0.874-21.25-0.498c-1.092-0.212-2.208-0.265-3.322-0.242
		c-3.821,0.078-7.248-1.065-10.319-3.318c-1.299-2.941-4.479-2.754-6.788-3.782c-9.169-4.081-16.952-9.169-20.403-19.435
		c-1.569-4.67-2.185-9.214-1.125-13.766c1.18-5.067,2.567-10.028,5.277-14.787c3.406-5.982,7.888-10.729,13.059-14.802
		c4.255-3.351,9.517-4.982,15.138-4.715c1.25,0.06,2.199,0.379,2.046,1.944c-0.16,1.648-1.392,0.888-2.124,0.881
		c-6.423-0.062-11.674,2.58-16.646,6.453c-6.748,5.256-11.174,12.188-13.81,19.981c-2.08,6.151-2.347,13.048,0.299,19.158
		c2.321,5.359,6.033,9.906,11.095,13.456c6.451,4.524,13.501,6.663,21.121,7.561C162.534,84.036,164.354,82.847,165.752,83.882z"/>
	<path fill="#040404" d="M40.782,32.865c5.008-0.729,9.346,0.4,13.051,4.088c1.718,1.71,4.432,1.324,6.647,1.969
		c5.432,1.581,9.001,5.894,8.854,11.85c-0.144,5.807-3.158,9.932-8.655,11.731c-1.545,0.506-2.358,1.657-2.893,3.019
		c-1.672,4.265-4.715,6.031-9.315,6.068c-5.309,0.042-10.18-0.717-14.406-4.225c-2.447-2.031-4.121-4.4-4.132-7.642
		c-0.007-2.099-0.099-3.555-2.099-5.336c-2.904-2.587-3.958-6.592-3.274-10.839c1.059-6.575,6.585-10.431,12.59-10.587
		C38.361,32.928,39.572,32.896,40.782,32.865z"/>
	<path fill="#B1B2CB" d="M323.544,88.982c0.18-0.306,0.291-0.794,0.549-0.891c5.483-2.061,9.788-5.604,13.483-10.106
		c1.008-1.228,1.286-2.708,2.209-3.974c1.288-1.767,2.225-3.822,3.609-5.657c2.658-3.522,2.33-7.997,2.791-12.121
		c0.233-2.087,1.656-3.884,1.046-6.173c-1.018-3.817-1.15-7.992-2.779-11.492c-1.691-3.635-3.727-7.227-6.418-10.436
		c-2.543-3.032-5.365-5.817-7.777-8.959c-2.497-3.251-5.775-5.623-8.948-8.178c-3.797-3.058-8.109-4.093-12.644-5.057
		c-1.498-0.319-3.038-0.934-4.541-1.463c0.53-1.579,1.92-1.33,3.043-1.251c5.648,0.397,11.011,1.485,15.796,4.98
		c2.107,1.54,4.547,2.809,6.857,4.081c4.802,2.643,8.092,6.909,11.644,10.661c3.54,3.739,6.657,8.218,7.896,13.742
		c0.629,2.806,2.542,5.374,3.146,8.394c0.347,1.736-0.559,3.498,0.359,5.144c-2.5,2.183-2.498,2.26,0.064,3.853
		c-0.523,3.59-0.335,7.261-1.883,10.726c-2.304,5.155-4.413,10.401-8.313,14.619c-2.033,2.199-3.899,4.858-6.427,6.215
		c-2.977,1.599-5.822,3.653-9.196,4.501C325.697,90.442,324.559,89.901,323.544,88.982z"/>
	<path fill="#090507" d="M402.863,45.281c-0.576,6.408,0.358,12.682,1.644,18.929c0.147,0.714,0.924,1.76-0.204,2.124
		c-1.457,0.47-1.204-0.998-1.439-1.756c-0.719-2.317-1.108-4.711-1.18-7.128c-0.184-6.148-0.29-12.299-0.408-18.449
		c-0.015-0.799-0.343-1.704,0.548-2.3c1.346-0.801,1.948,0.076,2.491,1.093c1.531,1.818,3.514,0.489,5.269,0.75
		c8.508-1.614,17.154-1.717,25.744-2.419c1.724-0.141,2.472-0.918,2.431-2.664c-0.046-1.903-1.143-2.32-2.749-2.283
		c-7.533,0.175-15.065,0.379-22.597,0.584c-3.244,0.088-6.49,0.099-9.731,0.279c-1.567,0.655-2.442-0.257-3.452-1.63
		c2.739-0.639,5.321-1.013,7.946-1.082c7.509-0.198,15.018-0.524,22.526-0.489c3.782,0.018,7.563,0.189,11.349,0.043
		c0.847-0.033,2.039-0.296,2.003,1.241c-1.806,1.927-1.279,4.001-0.385,6.099l-0.033,0.065c0.889,1.355-0.679,1.934-0.924,2.931
		c-0.428,7.229,1.923,14.138,2.454,21.26c0.218,2.917,0.681,5.815,1.032,8.722c1.145,1.103,2.786,0.025,3.981,0.906
		c0.464,0.243,1.29-0.125,1.429,0.518c0.197,0.917-0.706,0.609-1.136,0.692c-12.613,2.422-25.4,1.816-38.131,2.022
		c-2.12,0.034-3.808-2.291-6.215-2.205c-0.197,0.007-0.656-0.937-0.588-1.376c0.105-0.675,0.871-0.571,1.395-0.551
		c9.206,0.357,18.412-0.48,27.619,0.022c2.227,0.121,4.469-0.061,6.699,0.031c1.505,0.062,1.847-0.553,1.868-1.963
		c0.04-2.743-0.942-5.296-1.223-7.97c-0.863-0.986-0.077-2.487-1.072-3.432c-0.362-4.114-0.724-8.228-1.086-12.342
		c-0.921-1.574-2.349-1.835-4.057-1.817c-7.459,0.08-14.895,0.53-22.313,1.269c-1.403,0.14-2.756,0.086-4.16-0.072
		C406.062,42.693,403.84,42.681,402.863,45.281z"/>
	<path fill="#A2A0BB" d="M67.363,85.348c1.231-2.121,3.743-2.345,5.581-3.521c4.695-3.002,8.356-6.765,11.473-11.327
		c3.133-4.585,5.082-9.657,6.302-14.913c1.592-6.854,1.517-13.964-0.694-20.638c-1.293-3.902-3.073-7.925-6.33-10.88
		c-0.642-0.582-0.964-1.345-1.15-2.175c6.545,3.335,10.274,9.046,12.852,15.6c0.849,2.158,2.532,3.857,3.015,6.173
		c0.188,0.904,1.111,0.393,1.645,0.662c0.48,1.48,1.658,1.391,2.898,1.412c1.497,0.026,3.128-0.573,4.44,0.697
		c-1.621,2.016-3.944,1.115-5.894,1.165c-2.211,0.056-2.7,0.768-2.456,2.78c0.957,7.899-1.873,14.467-6.895,20.457
		c-3.782,4.511-7.379,9.104-12.283,12.53c-0.947,0.662-1.613,1.882-2.81,2.399c-2.135,0.254-4.297,0.147-6.388,0.945
		C69.358,87.216,68.212,86.429,67.363,85.348z"/>
	<path fill="#C2C2D5" d="M580.968,77.619c2.315-2.976,4.266-6.108,4.3-10.059c0.415-1.194,0.892-2.361,1.478-3.482
		c1.088-6.735,1.952-13.544-0.064-20.185c-2.056-6.771-4.61-13.296-9.308-18.94c-3.013-3.62-5.616-7.684-9.152-10.767
		c-1.645-1.435-3.833-2.63-5.927-3.676c-0.702-0.35-1.725-0.397-1.585-1.592c1.134-1.455,1.506-1.661,2.76-0.272
		c1.292,1.43,2.182,0.692,3.273,0.025c0.151-0.092,0.816,0.349,0.251-0.388c-1.497-1.951,0.391-1.96,1.483-2.399
		c3.177,1.963,5.285,4.96,7.536,7.814c2.304,2.922,3.275,6.769,6.309,9.181c1.007,0.8,0.575,2.058,1.161,3.033
		c5.76,9.597,7.026,20.239,7.093,31.146c0.037,6.088-1.443,11.713-4.39,17.104c-1.416,2.59-2.499,5.257-5.035,6.974
		C579.984,80.021,580.728,78.807,580.968,77.619z"/>
	<path fill="#ED1C24" d="M164.727,61.993c0.683-1.183-0.542-2.404,0.073-3.589c0.125-2.47-0.519-4.371-3.145-5.344
		c-2.196-0.814-3.489-2.574-3.749-4.983c-0.056-1.032-0.089-2.062-0.089-3.095c0.155-2.925,1.172-5.503,2.954-7.835
		c0.888-1.162,1.858-2.001,3.369-2.054c2.073-0.077,4.146-0.13,6.219-0.171c5.839-0.247,10.471,10.878,6.632,15.089
		c-1.611-0.291-3.085-1.403-4.918-0.238c-0.791,0.503-1.159-1.257-1.996-1.51c-0.357,0.184-0.583,0.389-0.655,0.644
		c-0.319,1.133-2.203,1.741-1.501,3.027c0.72,1.32,1.991,0.003,3.021-0.039c1.461-0.059,2.299,0.536,2.472,2.001
		c0.153,1.291,0.139,2.591,0.216,3.892C173.256,61.514,168.261,63.869,164.727,61.993z"/>
	<path fill="#ED1C24" d="M402.681,32.041c-0.162-1.433,0.997-0.758,1.467-0.783c10.887-0.56,21.781-0.869,32.683-0.972
		c1.542-0.015,1.889,0.502,1.836,1.909c-0.167,4.487-0.133,4.426-4.79,4.765c-5.944,0.433-11.874,1.018-17.83,1.346
		c-2.225,0.122-4.426,1.087-6.754,0.814c-1.812-0.78-3.877,0.426-5.643-0.717c0.06-1.285-0.845-1.534-1.825-1.703
		c-0.561-1.613,1.416-2.355,1.329-3.887C403.125,32.297,402.809,32.303,402.681,32.041z"/>
	<path fill="#BBB8CC" d="M219.013,62.414c2.045-4.339,1.313-8.925,1.196-13.456c-1.189-1.304-0.058-3.19-1.133-4.523
		c-0.638-4.692-3.102-8.653-4.86-12.92c-1.692-4.106-4.356-7.383-6.782-10.866c-1.449-2.079-3.502-4.04-5.727-5.212
		c-4.433-2.336-8.759-5.063-13.818-6.01c-0.224-0.178-0.37-0.456-0.235-0.679c0.225-0.37,0.348-1.247,0.108-1.426
		c3.657-0.668,6.394,1.456,9.152,3.216c3.182,2.03,6.245,4.272,9.213,6.607c4.561,3.588,8.46,7.811,11.624,12.711
		c3.06,4.74,5.338,9.77,6.355,15.355c0.2,1.097,0.609,2.304,2.272,1.965c0.755-0.154,1.523-0.048,1.657,0.982
		c-0.474,0.683-1.231,0.703-1.937,0.78c-1.904,0.209-1.324,1.209-0.739,2.225c-0.307,0.584-1.548,0.842-0.855,1.756
		c1.454,1.919,0.797,3.643,0.064,5.644c-0.951,2.597-0.155,5.538-1.104,8.206C220.817,66.509,220.232,64.137,219.013,62.414z"/>
	<path fill="#080B05" d="M176.518,49.905c2.947-4.764-0.039-12.083-5.587-14.297c-2.464-0.466-4.921-0.681-7.345,0.214
		c-3.457,2.057-4.69,5.361-5.112,9.119c-0.705,1.159-0.613,2.302,0.069,3.434c0.746,2.209,2.077,3.725,4.469,4.317
		c2.322,0.575,3.257,3.798,1.785,5.711c-1.266-2.139-3.189-3.611-5.096-5.131c-3.517-2.804-4.765-8.921-2.269-12.718
		c1.292-1.965,1.71-4.368,3.928-5.97c3.069-2.216,9.295-3.082,12.441-0.945c4.759,3.232,7.146,7.729,7.172,13.48
		c-0.871,0.739-0.101,2.107-1.077,2.806c-0.393,0.978-0.745,1.778-1.785,2.514c-1.812,1.283-2.199,3.606-1.933,5.737
		c0.3,2.402,0.143,4.577-1.386,6.529c-0.46,1.161-0.99,2.265-2.273,2.747c-0.355,0.222-0.711,0.444-1.066,0.666
		c-1.094,0.779-2.202,0.821-3.327,0.067c-0.408-1.614-1.622-2.656-2.889-3.466c-1.321-0.845-1.199-1.656-0.511-2.724
		c2.834,1.246,4.86-1.407,7.457-1.601c1.235-0.092,0.179-1.995,0.755-2.932c0.281-0.373,0.531-0.81,0.426-1.257
		C172.656,53.21,174.416,51.477,176.518,49.905z"/>
	<path fill="#A8A4BB" d="M424.604,96.11c4.257-0.343,8.512-0.722,12.773-1.014c1.871-0.128,3.418-1.142,5.111-1.724
		c4.48-1.54,8.863-3.36,13.29-5.055c0.822-0.315,1.228-1.071,1.839-1.592c3.299-2.811,6.155-5.961,8.371-9.709
		c1.499-2.536,3.375-4.867,4.69-7.487c0.665-1.325,0.32-3.118,0.668-4.646c1.109-4.867,2.178-9.727,1.753-14.772
		c0.544,0.168,0.61,0.614,0.661,1.09c0.453,4.211-0.123,8.449,0.916,12.706c0.379,1.554-1.084,3.951-1.737,5.952
		c-1.411,4.319-4.717,7.484-7.027,11.225c-3.707,6.005-9.379,9.559-14.867,13.156c-3.621,2.373-8.157,3.616-12.677,4.348
		c-3.806,0.617-7.595,0.632-11.405,0.727c-1.007-1.23-0.069-1.753,0.709-2.216C426.659,96.973,425.223,97.959,424.604,96.11z"/>
	<path fill="#A2A2C1" d="M219.013,62.414c1.885,1.042,2.803,3.073,4.452,4.357c-0.946,4.4-2.419,8.418-6.295,11.277
		c-4.575,3.375-8.93,7.048-13.84,9.955c-0.835,0.543-1.886,0.523-2.641,0.256c-1.267-0.447-1.742,0.288-2.367,0.992l0,0
		c-0.958,0.546-1.783,0.407-2.269-0.608c-0.593-1.238,0.123-2.068,1.047-2.779c-0.028-1.14,0.95-1.367,1.672-1.543
		c3.704-0.9,6.619-3.216,9.638-5.304c4.311-2.983,7.209-7.262,9.788-11.688C218.979,65.988,218.769,64.069,219.013,62.414z"/>
	<path fill="#D3D3E1" d="M511.609,81.249c0.214,0.186,0.427,0.373,0.641,0.559c1.174,1.585,3.204,1.919,4.616,3.157
		c3.076,0.858,5.531,2.963,8.528,4.096c4.125,1.56,7.907,4.005,12.494,4.249c1.148,0.061,2.447-0.06,3.263,1.101
		c3.902,0.71,7.87-0.393,11.812,0.232c-0.187,1.051-0.845,1.097-1.488,1.15c0.955,0.397,2.122,0.657,1.565,2.169
		c-3.343,0.094-6.853,0.88-9.992,0.125c-5.084-1.223-10.378-2.169-15.006-4.803c-2.508-1.427-5.28-1.815-7.915-2.685
		c-2.573-0.85-4.471-2.731-6.895-3.825c-2.02-0.912-4.488-1.68-5.707-3.979c-0.655-1.235-1.281,0.572-2.099,0.04
		c-1.18-0.767-1.487-4.909-0.229-5.637c1.307-0.755,1.446,0.637,1.99,1.256c-0.388,0.516-0.019,0.804,0.353,1.032
		c0.619,0.378,0.963-0.092,1.313-0.493l-0.025,0.016C510.339,79.031,509.947,81.416,511.609,81.249z"/>
	<path fill="#070707" d="M552.326,33.229c-3.644,2.819-7.068,5.319-10.316,8.031c-2.248,1.877-4.352,3.954-6.338,6.11
		c-2.087,2.266-3.264,2.63-5.836,0.825c-3.063-2.15-6.007-4.473-8.979-6.75c-0.854-0.654-1.162-1.723-0.393-2.418
		c0.724-0.655,1.571,0.12,2.136,0.735c2.207,2.404,5.14,3.89,7.562,6.031c1.72,1.52,2.95-0.15,3.918-1.173
		c3.285-3.473,7.296-6.043,11.027-8.937c1.312-1.018,2.124-2.742,3.954-3.135c0.167-0.036,0.308-0.63,0.298-0.96
		c-0.021-0.641-0.575-0.618-1.024-0.625c-0.93-0.015-1.862,0.036-2.791,0.004c-0.938-0.032-1.587-0.403-1.633-1.488
		c-0.05-1.171,0.648-1.391,1.591-1.412c2.605-0.058,5.21-0.129,7.815-0.198c1.078-0.028,1.77,0.362,1.89,1.546
		c0.293,2.9-0.392,5.746-0.452,8.627c-0.013,0.626-0.474,1.212-1.278,1.236c-1.206,0.036-0.962-0.938-1.013-1.583
		C552.355,36.317,552.37,34.929,552.326,33.229z"/>
	<path fill="#B9BAD2" d="M67.363,85.348c1.979,0.889,3.967,0.99,5.852-0.172c1.507-0.929,2.469,1.042,3.843,0.594
		c-5.864,3.497-12.179,5.608-18.989,6.239c-1.922,0.178-3.423,2.079-5.468,1.601c-5.407-1.265-11.036-0.7-16.393-2.008
		c-1.686-0.411-3.09-2.021-4.928-2.51c8.483,0.775,16.98,1.048,25.362-0.692C60.263,87.648,63.689,86.025,67.363,85.348z"/>
	<path fill="#BEC2D8" d="M197.1,85.865c-0.55,1.474-1.912,3.241,1.222,3.387c-1.342,0.677-2.377,2.673-4.267,0.993
		c-7.641,2.707-15.62,1.473-23.445,1.891c-4.017,0.215-7.657-1.409-11.225-3.494c-1.943-1.136-4.171-1.655-5.392-3.781
		c11.468,4.025,23.347,3.793,35.241,3.406c0.832-0.746,2.11-0.214,2.921-1.019C193.94,87.275,195.229,85.529,197.1,85.865z"/>
	<path fill="#B5B2C3" d="M553.04,97.961c-0.211-1.287-1.083-1.541-2.232-1.562c-0.843-0.015-1.815,0.397-2.568-0.461
		c0.494-0.884,1.323-0.52,1.984-0.631c0.703-0.118,1.423-0.14,2.731-0.258c-4.322-0.852-8.129,0.704-11.803-0.638
		c3.535-0.077,7.158,0.315,10.584-0.334c5.965-1.131,11.76-2.723,17.042-6.24c3.684-2.453,7.053-5.13,10.374-7.991
		c0.811-0.699,1.063-1.623,1.815-2.227c0.061,1.172,0.121,2.344,0.183,3.516c-0.274,2.406-2.315,3.945-3.876,4.78
		c-3.771,2.018-6.087,5.568-9.493,7.838c-1.56,1.04-3.51,1.552-5.271,2.187C559.497,97.028,556.333,97.935,553.04,97.961z"/>
	<path fill="#AFAFC4" d="M452.834,19.8c7.211,6.856,12.085,14.906,13.734,24.926c0.446,2.712,1.099,5.366,1.097,8.139
		c-0.003,4.078-1.221,7.963-1.848,11.941c-0.755-2.549,0.683-5.087-0.154-7.715c-1.803-5.658-2.074-11.663-4.271-17.315
		c-1.315-3.383-2.39-7.012-4.089-10.133c-1.429-2.627-1.838-5.775-4.01-8.011C452.839,21.163,452.67,20.491,452.834,19.8z"/>
	<path fill="#080808" d="M564.333,62.56c-0.109,0.787,0.501,1.727-0.3,2.344c-0.664,0.511-1.489,0.696-2.375,0.47
		c-1.231-0.314-0.816-1.256-0.836-2.035c-0.145-5.468-0.285-10.936-0.424-16.274c-0.861-0.202-1.272-0.022-1.273,0.36
		c-0.013,4.405-1.503,8.708-0.897,13.158c0.135,0.994,0.188,1.903,0.825,2.835c0.633,0.927,0.044,2.062-0.997,2.47
		c-1.418,0.555-1.909-0.816-1.912-1.639c-0.014-4.036-0.754-8.087,0.333-12.119c0.508-1.885,0.266-3.883,0-5.825
		c-0.022-0.163-0.201-0.304-0.306-0.456c-0.767-1.101,0.916-1.15,0.84-1.955c1.919-0.082,3.707-1.543,5.65-0.752
		c0.752,0.306,1.476,1.519,1.151,2.267c-1.642,3.781-0.654,7.647-0.637,11.479C564.417,58.605,563.096,60.844,564.333,62.56z"/>
	<path fill="#CCCED9" d="M323.544,88.982c1.401-0.273,2.385,0.741,3.563,1.157c-7.441,4.766-15.752,5.483-24.321,5.801
		c-3.064,0.114-6.014-0.194-8.888-0.691c-1.73-0.299-4.141-0.662-5.027-3.004c-0.355-0.937-1.41-0.796-2.166-0.951
		c-1.339-0.274-2.773-0.177-3.842-1.257c3.054,0.193,6.008,0.901,8.949,1.697c7.979,2.161,15.885,2.572,23.773-0.592
		C318.12,90.127,320.885,89.686,323.544,88.982z"/>
	<path fill="#080808" d="M225.359,51.165c-1.215,0.034-2.074-0.19-1.948-1.773c0.141-1.77,1.352-0.997,2.204-1.083
		c0.803-0.081,1.613-0.102,2.419-0.15c4.17,0.078,8.34,0.189,12.51,0.199c0.682,0.002,1.857,0.57,2.017-0.644
		c0.162-1.229-1.182-0.844-1.819-1.225c-0.375-0.225-0.888-0.205-1.315-0.362c-0.87-0.32-1.004-1.049-0.818-1.821
		c0.166-0.691,0.648-1.032,1.419-1.07c2.514-0.123,6.44,3.441,6.692,6.235c0.032,0.35-0.008,0.869-0.229,1.055
		c-2.674,2.249-5.122,4.854-8.688,5.759c-1.326-1.608-0.18-2.477,0.997-3.336c0.597-0.597,1.195-1.195,2.138-2.138
		C235.52,50.591,230.439,50.412,225.359,51.165z"/>
	<path fill="#050505" d="M547.47,53.544c-0.043,3.43-0.084,6.657,0.656,9.861c0.215,0.931,0.488,2.466-0.715,2.66
		c-1.354,0.218-1.438-1.146-1.589-2.336c-0.466-3.693-0.724-7.386-0.784-11.108c-0.06-3.719,2.972-2.226,4.64-2.667
		c1.594-0.422,2.94,0.248,2.877,2.533c-0.11,3.985-0.474,7.984,0.11,11.97c0.21,1.434-0.462,2.948-1.711,2.966
		c-1.12,0.015-2.118-1.343-2.184-2.825c-0.132-2.965-0.267-5.929-0.404-8.894C548.335,55.018,548.737,54.211,547.47,53.544z"/>
	<path fill="#080808" d="M107.396,46.439c-2.004,0.039-4.021-0.051-6.009,0.152c-2.35,0.24-2.265-0.699-1.329-2.261
		c4.078-0.225,8.156-0.466,12.237-0.66c0.771-0.037,1.587-0.012,1.903-0.808c0.311-0.783-0.441-1.262-0.874-1.785
		c-0.572-0.691-1.13-1.416-1.81-1.987c-0.579-0.486-0.696-1.074-0.02-1.158c0.799-0.1,0.763-1.974,1.827-0.891
		c1.873,1.907,3.931,3.566,5.99,5.259c1.801,1.48,1.076,4.045-1.193,5.071c-2.34,1.058-4.588,2.068-5.662,4.739
		c-0.465,1.155-1.736,0.858-2.598,0.18c-0.844-0.663-0.851-1.182,0.075-2.12c0.83-0.842,1.495-1.734,2.631-2.236
		c0.866-0.383,1.861-0.815,1.7-2.133C111.983,46.012,109.689,46.226,107.396,46.439z"/>
	<path fill="#ED1C24" d="M402.863,45.281c-0.067-2.894,0.924-4.034,4.662-3.329c4.157,0.784,8.07-0.405,12.102-0.413
		c5.579-0.011,11.164-0.343,16.733-0.733c2.335-0.164,2.789,0.793,2.377,2.75c-9.161,0.304-18.322,0.637-27.484,0.897
		C408.431,44.533,405.729,45.721,402.863,45.281z"/>
	<path fill="#9FA3B3" d="M568.477,5.883c-0.32,0.764-3.251,1.155-0.337,2.389c0.383,0.162,0.562,0.61,0.337,0.915
		c-0.158,0.214-0.618,0.247-0.952,0.284c-2.118,0.236-4.21,0.247-4.326-0.039c-0.587-1.449-1.403-1.585-2.489-0.514
		c-2.694-0.229-4.386-2.449-6.707-3.471c-0.915-0.403-2.137-0.508-2.855-1.414c0.197-0.565,1.888,0.878,1.263-1.105
		c-0.413-1.313,1.186-2.065,2.287-2.198c4.427-0.538,8.207,1.264,11.508,3.952C566.962,5.297,567.556,5.775,568.477,5.883z"/>
	<path fill="#ABA9B7" d="M54.984,13.135c5.763,2.089,12.217,2.129,17.388,6.005c3.571,2.676,7.275,5.182,8.926,9.614
		c0.218,0.585,1.294,0.549,1.017,1.46c-1.658,1.308-3.031-0.517-3.371-1.112c-2.172-3.807-6.784-4.489-9.308-7.643
		c-1.143-1.428-2.69-1.989-4.097-2.835c-1.301-0.782-2.657-1.465-4.382-1.391C56.601,17.429,56.53,17.282,54.984,13.135z"/>
	<path fill="#0F0F0F" d="M352.927,54.079c-1.268-0.042-2.913,0.537-2.936-1.655c-0.02-1.965,1.221-2.371,2.873-2.198
		c2.096,1.82,4.609,0.84,6.876,0.765c1.305-0.043,0.153-1.196-0.273-1.44c-0.997-0.57-1.811-1.247-1.136-2.357
		c0.755-1.241,1.721-0.452,2.574,0.118c1.983,1.325,4.005,2.594,5.953,3.968c0.972,0.685,0.793,1.937,0.105,2.411
		c-1.528,1.053-2.122,3.147-4.274,3.541c-0.816,0.149-1.916,0.49-2.177,1.77c-0.141,0.69-0.762,1.32-1.686,1.079
		c-0.699-0.183-1.056-0.76-1.204-1.399c-0.186-0.809,0.177-1.736,0.859-1.86c1.402-0.254,1.804-1.786,3.102-2.086
		c0.328-0.076,1.047-0.156,0.658-0.821c-0.21-0.359-0.788-0.904-0.947-0.829c-2.345,1.105-4.7-0.497-7.046,0.08
		C353.621,53.319,353.377,53.794,352.927,54.079z"/>
	<path fill="#BBBAC9" d="M468.254,34.013c-1.732-3.135-3.651-6.181-5.584-9.169c-1.506-2.327-2.794-4.898-5.054-6.817
		c-2.663-2.259-4.607-5.267-7.021-7.823c-0.993-1.051-3.241-0.299-3.205-2.467c0.352-1.996,1.65-1.336,2.646-0.794
		c0.869,0.472,1.742,1.003,2.523,1.642c4.33,0.801,5.872,4.339,7.654,7.697c1.189,2.24,2.687,4.321,3.815,6.588
		C465.802,26.436,468.337,29.737,468.254,34.013z"/>
	<path fill="#090909" d="M481.638,53.727c1.016,0.08,2.057,0.047,3.042,0.266c1.345,0.3,1.733-0.114,1.334-1.382
		c-0.192-0.61-0.583-1.317,0.245-1.675c0.666-0.287,1.369-0.265,2.097,0.187c1.56,0.969,2.345,2.675,3.817,3.774
		c0.731,0.546,0.744,2.062-0.446,2.883c-2.389,1.648-4.839,3.218-6.299,5.883c-0.279,0.51-0.958,0.517-1.521,0.359
		c-0.541-0.151-0.633-0.64-0.67-1.103c-0.106-1.355,0.344-2.468,1.477-3.276c1.005-0.717,2.1-1.353,2.914-3.215
		c-2.736,0.071-5.102,0.031-7.449,0.223c-2.12,0.173-2.947-0.571-2.434-2.67C478.986,53.01,480.297,53.138,481.638,53.727z"/>
	<path fill="#060606" d="M525.803,59.613c0.027,1.021-0.256,2.183,0.134,3.038c1.567,3.44-1.609,3.839-3.213,5.193
		c-0.367,0.31-0.938-0.07-1.224-0.702c-0.631-1.393-0.792-2.842-0.86-4.335c-0.131-2.872-0.408-5.743-0.406-8.614
		c0.001-1.139-0.873-3.019,1.532-3.093c2.12-0.065,3.962,0.344,4.064,2.946c0.072,1.851-0.081,3.711-0.133,5.567
		C525.733,59.613,525.768,59.613,525.803,59.613z"/>
	<path fill="#C4C6D0" d="M190.278,14.961c4.131,0.413,6.871,3.46,10.054,5.55c2.385,1.566,4.503,3.741,6.255,6.018
		c2.225,2.893,4.599,5.845,4.952,9.748c-3.593-4.483-7.025-9.183-11.393-12.883c-2.233-1.891-4.816-3.519-7.116-5.42
		C191.991,17.115,191.187,15.974,190.278,14.961z"/>
	<path fill="#080808" d="M538.711,60.107c-0.02,1.452-0.127,2.819,0.783,4.215c0.811,1.244-0.597,2.38-1.285,3.194
		c-0.52,0.616-1.451-0.774-2.058-0.966c-4.031-1.276-3.216-4.49-3.225-7.349c-0.006-1.722,2.392-3.786,4.046-3.719
		c1.025,0.042,1.53,0.675,1.638,1.571C538.733,58.059,538.686,59.087,538.711,60.107z"/>
	<path fill="#CFCBE1" d="M424.604,96.11c1.825,1.155,3.959-0.174,5.951,0.717c-0.639,1.737-3.96-0.453-3.593,2.49
		c-3.143,0.525-6.227-0.444-9.365-0.457c-1.251-0.005-2.512-0.984-4.086-1.148c-1.975-0.205-0.345-1.93-0.145-3.003
		c0.724-0.009,1.448-0.017,2.172-0.025c1.203,0.959,2.851-0.091,4.048,0.896C421.258,95.756,422.931,95.933,424.604,96.11z"/>
	<path fill="#9995AB" d="M452.56,8.587c-0.888,0.001-1.751,0.149-2.448-0.744c-0.778-0.996-1.771-1.228-2.721-0.104
		c-2.904-2.197-6.477-3.083-9.585-4.88c0.908-0.737,2.357-0.646,2.927-1.933c0.08-0.181,0.574-0.388,0.698-0.308
		C445.255,3.111,450.227,4.014,452.56,8.587z"/>
	<path fill="#A7A3B8" d="M396.33,86.191c-2.111-1.34-4.191-2.733-6.348-3.994c-0.89-0.521-1.571-1.182-2.175-1.971
		c1.912,0.34,3.644-2.175,5.629-0.394c1.706,1.531,3.877,2.524,5.197,4.498C398.724,86.013,398.055,86.755,396.33,86.191z"/>
	<path fill="#151515" d="M430.933,56.968c0.058-0.797-0.742-0.791-1.313-0.948c-0.934-0.258-1.702-0.754-2.198-1.547
		c-0.202-0.322-0.238-0.949-0.053-1.262c0.25-0.424,0.897-0.36,1.26-0.119c1.766,1.175,3.388,2.526,5.47,3.248
		c0.684,0.237,1.154,1.757-0.066,2.223c-2.132,0.814-3.694,2.243-5.282,3.773c-0.427,0.411-1.424,1.228-2.156,0.445
		c-0.597-0.638-0.349-1.489,0.178-2.28c0.8-1.201,2.092-1.669,3.204-2.393C430.4,57.831,431.097,57.936,430.933,56.968z"/>
	<path fill="#131314" d="M416.125,61.537c-2.346,0.157-4.335-0.814-6.092-2.012c-1.217-0.83-1.449-2.484-0.163-3.521
		c1.979-1.596,4.175-2.923,6.29-4.348c0.33-0.222,0.767-0.243,0.946,0.163c0.27,0.613,0.321,1.288-0.298,1.75
		c-1.21,0.904-2.367,1.939-3.708,2.584c-0.885,0.425-1.422,0.891-1.393,1.777c0.026,0.768,0.734,0.912,1.403,0.997
		C414.638,59.121,414.863,60.935,416.125,61.537z"/>
	<path fill="#141517" d="M424.836,48.849c1.344,1.674,1.085,2.613,0.228,4.278c-1.609,3.129-3.775,5.945-5.091,9.218
		c-0.195,0.485-0.084,1.292-0.82,1.216c-0.935-0.095-0.712-0.992-0.637-1.562c0.119-0.904,0.197-1.951,0.699-2.642
		C421.511,56.202,422.881,52.562,424.836,48.849z"/>
	<path fill="#A9A9AA" d="M72.444,14.723c-2.183,0.348-3.11-2.177-5.325-2.167c-2.72,0.012-5.442-0.617-8.166-0.942
		c-0.715-0.085-1.507,0.073-1.831-0.836c5.107-1.549,9.656,0.234,14.184,2.306C72.116,13.454,72.463,13.897,72.444,14.723z"/>
	<path fill="#3A3A3A" d="M181.903,27.122c0.864,0.039,1.602,0.019,1.919,0.674c0.396,0.82-0.541,1.171-0.922,1.466
		c-1.054,0.817-2.077,1.631-2.973,2.632c-0.629,0.702-1.518,0.723-2.201,0.1c-0.699-0.639-0.014-1.165,0.23-1.835
		C178.699,28.122,180.343,27.597,181.903,27.122z"/>
	<path fill="#1E1E1E" d="M187.812,42.088c1.112,0.023,2.398-0.008,2.091,1.069c-0.581,2.04-2.658,2.777-4.362,3.644
		c-1.004,0.511-1.423-0.381-1.434-1.377C184.078,42.671,186.455,42.838,187.812,42.088z"/>
	<path fill="#737082" d="M396.33,86.191c1.508,0.295,1.536-1.241,2.304-1.862c3.317,2.6,7.837,1.918,11.293,4.14
		c0.176,0.135,0.229,0.263,0.161,0.384c-0.065,0.116-0.129,0.174-0.194,0.176c-1.546-0.143-3.034-0.304-4.39-1.296
		c-0.68-0.497-1.938-0.874-2.617-0.578C400.415,88.232,398.48,86.663,396.33,86.191z"/>
	<path fill="#83828A" d="M409.894,89.029c0.011-0.186,0.021-0.373,0.032-0.56c4.141,0.698,8.513,0.308,12.314,2.611
		C417.916,91.649,413.957,90.024,409.894,89.029z"/>
	<path fill="#7D7A89" d="M187.761,7.323c0.418,0.629,1.185,0.417,1.804,0.74c-0.7,0.332-1.746,0.198-1.677,1.365
		c-1.716,0.059-3.432,0.131-5.149,0.171c-0.75,0.017-1.47-0.082-1.656-1.016C183.488,9.112,185.416,7.109,187.761,7.323z"/>
	<path fill="#2D2D2D" d="M153.392,54.051c-0.901,0.137-1.745,0.209-1.642-0.705c0.165-1.458,1.226-2.148,2.656-2.245
		c1.057-0.071,1.642,0.72,1.556,1.5C155.781,54.254,154.165,53.704,153.392,54.051z"/>
	<path fill="#242424" d="M163.738,24.259c1.075,1.114,1.24,2.11,0.732,3.236c-0.249,0.552-0.008,1.502-0.826,1.553
		c-0.51,0.032-1.225-0.382-1.543-0.819c-0.438-0.601-0.466-1.564,0.078-2.056C162.782,25.629,163.476,25.21,163.738,24.259z"/>
	<path fill="#0D0D0D" d="M151.126,36.244c2.022,0.338,1.993,2.227,2.323,3.563c0.121,0.49-1.315,1.583-2.34,0.322
		C150.397,38.831,150.232,37.535,151.126,36.244z"/>
	<path fill="#C4C6D0" d="M182.295,11.952c2.757,0.759,5.639,1.189,7.994,3.014C187.338,14.718,184.53,14.094,182.295,11.952z"/>
	<path fill="#989AA9" d="M442.669,36.224c-2.424-0.981-0.83-3.063-1.22-4.597c-0.304-1.197,0.488-1.619,1.606-1.502
		C442.426,32.127,442.493,34.172,442.669,36.224z"/>
	<path fill="#090507" d="M443.251,36.341c1.116-0.158,2.205-0.156,3.297,0.246c0.706,0.26,2.003-0.123,1.692,1.187
		c-0.253,1.066-1.37,0.518-2.139,0.537c-0.614-0.48-1.378-0.322-2.059-0.499C443.336,37.628,442.582,37.327,443.251,36.341z"/>
	<path fill="#817E8C" d="M451.72,84.7c-1.997,1.429-3.932,2.992-6.568,3.04C446.833,85.627,449.517,85.682,451.72,84.7z"/>
	<path fill="#AFAFC4" d="M447.716,14.227c2.637,0.327,3.438,2.539,4.548,4.433C450.485,17.453,448.842,16.105,447.716,14.227z"/>
	<path fill="#BBBBBB" d="M564.333,62.56c-2.047-1.551-0.88-3.758-1.158-5.671C565.247,58.435,564.011,60.657,564.333,62.56z"/>
	<path fill="#BEC2D8" d="M198.322,89.252c0.336-0.607,0.088-1.211,0.051-1.834c-0.052-0.878,0.872-1.259,1.181-0.646
		c0.92,1.821,2.434,1.119,3.775,1.231C201.77,88.859,200.021,88.954,198.322,89.252z"/>
	<path fill="#545859" d="M443.251,36.341c-0.024,0.924,0.611,0.945,1.278,0.947c0.737,0.003,1.5-0.013,1.571,1.022
		c-1.452,0.355-3.099-0.23-4.388,0.91c-0.695-1.293,1.125-1.794,0.924-2.931C442.841,36.306,443.046,36.324,443.251,36.341z"/>
	<path fill="#8E8B9D" d="M511.609,81.249c-2.703,1.458-1.786-1.578-2.781-2.24c-0.018-0.345-0.037-0.689-0.056-1.034
		C510.477,78.41,510.799,80.041,511.609,81.249z"/>
	<path fill="#A3ABAA" d="M165.752,83.882c-1.569-0.136-3.383,1.023-4.618-0.874C162.699,83.167,164.512,82.008,165.752,83.882z"/>
	<path fill="#A4A4A4" d="M449.179,70.109c-1.347-0.215-3.096,1.337-3.981-0.906C446.539,69.442,448.181,68.36,449.179,70.109z"/>
	<path fill="#B3B3B3" d="M151.126,36.244c-0.006,1.295-0.012,2.59-0.017,3.886C149.492,38.674,149.497,37.586,151.126,36.244z"/>
	<path fill="#A5A5A5" d="M238.803,52.95c-0.853,0.956-1.27,2.043-0.997,3.336c-1.046,0.144-1.248-0.436-1.211-1.324
		C236.655,53.52,237.732,53.253,238.803,52.95z"/>
	<path fill="#A9A9AA" d="M78.118,17.951c-1.228-0.797-3.11-0.69-3.553-2.572C76.514,15.18,77.37,16.49,78.118,17.951z"/>
	<path fill="#6D7F76" d="M168.127,68.184c1.109-0.022,2.218-0.044,3.327-0.067C170.099,69.83,169.18,69.848,168.127,68.184z"/>
	<path fill="#8E8B9D" d="M508.854,78.993c0.013,0.698,0.318,1.793-0.826,1.566c-0.8-0.159-1.919-0.865-0.84-2.104
		C507.6,79.076,508.272,78.896,508.854,78.993z"/>
	<path fill="#656273" d="M172.52,67.452c0.757-0.915,1.515-1.831,2.272-2.747C174.796,66.251,174.63,67.655,172.52,67.452z"/>
	<path fill="#898989" d="M11.172,25.933c-0.735,0.939-1.47,1.878-2.205,2.817C9.067,27.313,9.579,26.2,11.172,25.933z"/>
	<path fill="#638685" d="M179.896,49.925c0.099-1.035-0.408-2.302,1.077-2.806C180.981,48.195,181.635,49.519,179.896,49.925z"/>
	<path fill="#81849C" d="M516.867,84.965c-2.29,0.047-3.76-1.107-4.616-3.157C514.052,82.476,516.179,82.668,516.867,84.965z"/>
	<path fill="#555267" d="M586.746,64.078c0.463,1.567-0.705,2.441-1.478,3.482C585.272,66.192,585.049,64.727,586.746,64.078z"/>
	<path fill="#4D4A5E" d="M419.586,95.579c-1.405-0.049-3.003,0.777-4.048-0.896C416.945,94.722,418.573,93.761,419.586,95.579z"/>
	<path fill="#FEFEFE" d="M342.053,44.391c1.311,4.616,1.112,9.276,0.411,13.951c-1.044,0.899-0.016,2.456-1.065,3.354
		c-0.343,3.58-1.947,6.527-4.453,9.056c-1.079,1.09-1.467,2.692-2.08,3.985c-1.513,3.186-4.212,5.132-6.862,6.627
		c-2.854,1.609-5.751,3.305-8.978,4.441c-8.1,2.852-16.35,2.279-24.627,2.066c-1.563-0.04-3.085-0.32-4.398-1.272
		c-3.174-0.417-5.497-2.808-8.54-3.651c-1.566-0.434-2.728-0.851-4.033,0.395c-0.706,0.674-1.66,0.735-2.569,0.225
		c-5.573-2.919-11.281-5.433-15.518-10.561c-3.173-3.839-4.424-8.141-5.966-12.646c-2.075-6.062-0.162-11.598,1.522-16.9
		c1.709-5.383,5.457-9.983,9.053-14.518c4.606-5.808,10.507-10.27,15.414-15.75c2.96-3.307,11.865-6.213,17.298-6.197
		c0.214,0.274-0.033,0.386-0.143,0.602c-0.314,0.617-1.782,0.266-1.297,1.409c0.319,0.751,1.151,0.395,1.754,0.305
		c1.771-0.264,3.512-0.087,5.28,0.096c6.06,0.625,11.327,3.046,16.659,5.974c7.228,3.969,11.53,10.455,16.708,16.321
		c2.521,2.856,3.932,6.001,5.207,9.379C341.975,41.913,341.037,43.512,342.053,44.391z"/>
	<path fill="#6B677E" d="M219.076,44.436c1.86,1.136,0.895,2.98,1.133,4.523C218.193,47.861,219.244,45.996,219.076,44.436z"/>
	<path fill="#757B8B" d="M192.156,87.248c-0.502,1.691-1.868,0.906-2.921,1.019C189.733,86.566,191.102,87.357,192.156,87.248z"/>
	<path fill="#FCFCFC" d="M49.403,37.471c-3.991,1.244-6.314,3.73-8.18,6.753c-0.779,1.263-1.991,2.216-3.261,2.67
		c-2.598,0.93-3.987,2.996-5.405,5.034c-1.687,2.424-3.175,2.536-4.641-0.046c-1.956-3.443-1.702-9.091,0.647-12.019
		c2.922-3.643,10.433-6.037,15.191-4.924C45.664,35.386,47.394,36.243,49.403,37.471z"/>
	<path fill="#FAFAFA" d="M46.078,69.21c-4.047-1.336-8.981-0.425-12.052-4.564c-0.475-0.641-1.029-1.265-1.328-1.987
		c-1.432-3.458-0.299-4.743,3.296-5.051c2.936-0.251,5.086,0.407,6.878,2.666c1.682,2.12,4.162,2.444,6.624,2.783
		c0.612,0.084,1.309-0.205,1.829,0.379c0.603,0.678,2.082,0.412,2.127,1.477c0.045,1.067-1.027,1.766-1.885,2.237
		C49.886,68.072,48.448,69.791,46.078,69.21z"/>
	<path fill="#FBFBFB" d="M64.838,50.491c0.051,3.795-2.103,6.279-4.556,8.643c-0.952,0.917-1.522,0.591-1.78-0.424
		c-0.637-2.507-2.002-4.551-3.678-6.46c-2.097-2.388-0.255-4.669,0.349-6.952c0.094-0.354,0.565-0.649,0.679-1.138
		c0.285-1.224-0.584-3.526,1.064-3.417c1.725,0.114,3.802,0.696,5.161,2.568C63.7,45.548,64.519,47.942,64.838,50.491z"/>
	<path fill="#F4F3F6" d="M44.964,55.847c1.368-0.548,3.185-0.722,4.015-1.719c2.041-2.451,2.573-0.443,3.444,0.827
		c0.255,0.371,0.291,0.901,0.565,1.249c1.148,1.456,1.967,3.443,1.029,4.777c-0.983,1.397-3.344,0.783-4.697,0.119
		c-1.847-0.906-4.383-0.709-5.49-2.978C43.031,56.777,44.369,56.497,44.964,55.847z"/>
	<path fill="#EEEEEE" d="M49.835,40.445c1.39-0.247,1.961,0.456,1.886,1.703c-0.072,1.197-0.344,2.381-0.446,3.578
		c-0.137,1.606-1.123,2-2.484,1.776c-1.001-0.165-1.972-0.673-2.965-0.698c-2.232-0.057-2.39-1.182-1.233-2.539
		C46.008,42.606,47.436,40.793,49.835,40.445z"/>
	<path fill="#DEDEDE" d="M39.056,49.832c0.023,0.888-0.06,1.55,0.073,2.165c0.604,2.784-0.697,3.489-3.251,3.421
		c-1.97-0.053-2.064-0.888-1.196-2.126C35.683,51.868,36.771,50.411,39.056,49.832z"/>
	<path fill="#ED1C24" d="M41.351,50.756c0.002-1.115,0.534-2.067,1.633-1.469c1.259,0.686,3.341,0.226,3.776,1.649
		c0.584,1.909-1.922,1.522-2.683,2.551c-0.683,0.924-1.605,0.691-2.503,0.673C40.685,53.079,40.809,51.931,41.351,50.756z"/>
	<path fill="#030308" stroke="#ED1C24" stroke-miterlimit="10" d="M41.351,50.756c0.074,1.135,0.149,2.269,0.223,3.404
		C39.67,53.145,39.667,52.006,41.351,50.756z"/>
	<path fill="#9D939D" d="M44.964,55.847c0.123,1.008-1.505,1.144-1.134,2.276c-0.988,0.077-1.379-0.365-1.13-1.328
		C43.037,55.497,44.097,55.896,44.964,55.847z"/>
	<path fill="#ED1C24" d="M403.65,38.403c1.865,0.362,3.951-1.012,5.642,0.718c-1.459,0.57-3.005,0.318-4.509,0.471
		C403.924,39.68,403.355,39.44,403.65,38.403z"/>
	<path fill="#030308" d="M176.518,49.905c-0.286,1.02-0.225,2.217-1.661,2.548c-1.318,0.305-0.732,1.458-0.877,2.288
		c-0.169,0.969,0.625,2.322-1.042,2.72c0.003-0.928,0.015-1.857,0.006-2.785c-0.022-2.517-0.944-3.1-3.119-1.721
		c-1.129,0.716-2.007,1.03-2.852-0.133c-0.864-1.188-0.698-2.238,0.689-2.982c0.308-0.165,0.628-0.442,0.776-0.748
		c0.448-0.93,0.237-2.473,1.878-2.29c1.573,0.176,0.258,2.117,1.438,2.628C175.158,47.184,175.343,47.202,176.518,49.905z"/>
	<path fill="#DDDDDD" d="M163.586,35.823c2.396-1.846,4.86-1.381,7.345-0.214C168.483,35.68,166.035,35.751,163.586,35.823z"/>
	<path fill="#555555" d="M158.543,48.376c-1.665-1.112-1.626-2.258-0.069-3.434C158.497,46.086,158.52,47.231,158.543,48.376z"/>
	<path fill="#030308" d="M416.641,36.441c-1.037-0.392-1.033-1.319-0.937-2.214c0.038-0.355,0.238-1.184,0.725-0.765
		c0.648,0.558,2.082,0.569,1.714,2.057C417.935,36.36,417.352,36.384,416.641,36.441z"/>
	<path fill="#45221D" d="M409.063,35.734c0.028,0.872-0.303,1.328-1.11,1.273c-0.961-0.066-1.053-0.831-1.175-1.556
		c-0.145-0.865,0.311-1.161,1.08-1.089C408.736,34.445,409.117,34.975,409.063,35.734z"/>
	<path fill="#030308" d="M413.495,35.785c0.045,0.741-0.176,1.276-1.033,1.259c-0.954-0.02-1.152-0.702-1.284-1.473
		c-0.147-0.858,0.285-1.192,1.045-1.206C413.167,34.347,413.473,34.952,413.495,35.785z"/>
	<path fill="#DCDCE2" d="M171.614,64.579c-0.987,1.063-2.144,1.161-3.675,0.758C169.123,64.122,170.322,64.115,171.614,64.579z"/>
	<path fill="#929292" d="M523.05,55.198c0.072,2.783,0.145,5.567,0.217,8.35c-0.262-0.004-0.523-0.007-0.785-0.011
		C522.207,60.73,521.972,57.922,523.05,55.198z"/>
	<path fill="#BBBBBB" d="M535.519,63.884c-0.35-1.838-0.488-2.912,0.198-4.628C536.416,61.056,536.494,62.116,535.519,63.884z"/>
	<path fill="#060606" d="M317.688,29.58c1.868,0.199,3.114,1.279,4.344,2.318c3.087,2.608,7.004,3.988,9.95,6.799
		c1.414,1.349,1.515,2.201-0.356,3.494c-3.158,2.182-6.786,3.233-10.165,4.855c-3.564,1.711-4.492,1.554-8.108-0.14
		c-1.708-0.8-3.395-1.655-5.036-2.584c-2.226-1.26-2.251-2.98-0.566-4.788c2.084-2.236,4.542-4.017,6.744-6.098
		c0.845-0.799,2.054-1.296,1.897-2.844C316.301,29.677,317.346,29.934,317.688,29.58z"/>
	<path fill="#0A0A0A" d="M283.875,52.267c1.334,1.257,3.64,1.394,4.144,3.623c0.089,0.394,0.688,0.784,0.048,1.128
		c-0.389,0.209-0.899,0.243-1.18-0.296c-0.082-0.157-0.111-0.404-0.237-0.467c-1.116-0.559-2.436-1.689-3.467-0.647
		c-0.728,0.735-0.017,2.026,0.49,3.197c2.989,6.895,8.635,9.724,15.564,10.816c0.603,0.095,1.362-0.099,1.368,0.919
		c0.006,1.091-0.714,1.049-1.501,1.133c-3.377,0.359-6.235-1.295-9.004-2.695c-1.18-0.597-2.501-1.811-3.652-2.545
		c-4.247-2.708-5.367-6.493-5.204-11.077c0.018-0.514,0.175-1.147-0.478-1.395c-0.546-0.103-0.681,0.242-0.814,0.588
		c-0.431,1.125-1.127,1.927-2.441,1.865c-0.348-0.016-0.791-0.145-0.791-0.622c-0.001-1.214,0.576-2.262,1.655-2.628
		c1.612-0.546,0.501-3.142,2.588-3.158C283.481,48.768,282.97,51.43,283.875,52.267z"/>
	<path fill="#101108" d="M287.486,37.635c-2.409,4.533-9.165,5.822-13.437,2.564c-1.619-2.463-1.484-5.075,0.382-7.363
		c0.113-1.318,0.911-1.994,2.131-2.274c0.774-0.832,2.095-0.234,2.859-1.094c3.493,0.523,6.837,1.273,8.006,5.304
		C288.159,35.711,288.114,36.667,287.486,37.635z"/>
	<path fill="#070707" d="M312.905,69.255c3.042-0.45,5.421,1.487,8.109,2.226c1.011,0.278,1.391,1.289,1.311,2.232
		c-0.108,1.26-1.401,1.803-2.257,2.107c-2.063,0.731-4.279,1.031-6.434,1.499c-3.025,0.657-4.838-1.389-6.103-3.415
		c-1.322-2.118,0.922-3.182,2.417-4.052C310.77,69.372,311.909,69.436,312.905,69.255z"/>
	<path fill="#0A0A0A" d="M289.12,35.381c2.116-0.488,4.262-0.189,6.393-0.216c2.038-0.026,4.038,0.678,6.375,0.326
		c-1.286-1.079-2.366-2.182-3.639-2.98c-0.776-0.487-1.171-0.925-0.748-1.691c0.311-0.563,0.948-0.865,1.665-0.75
		c2.169,0.349,4.783,3.961,4.572,6.219c-0.076,0.811-0.479,1.313-1.003,1.88c-1.392,1.507-3.409,2.28-4.569,4.089
		c-0.373,0.582-1.472,1.235-2.118,0.477c-0.581-0.681-0.088-1.634,0.699-2.107c1.224-0.737,2.713-1.193,2.63-3.387
		c-1.915,0.05-3.836,0.1-5.757,0.15c-1.301-1.113-3.178,0.282-4.437-1.018l-0.062,0.029C288.744,36.062,288.73,35.722,289.12,35.381
		z"/>
	<path fill="#0B0B0B" d="M314.673,60.734c-0.594-1.746-0.45-3.426-0.51-5.087c-0.032-0.905,0.397-1.309,1.303-1.428
		c1.333-0.176,0.931,0.817,1.005,1.421c0.192,1.561,0.299,3.133,0.464,4.698c0.046,0.431-0.029,1.01,0.548,1.132
		c0.558,0.117,1.04-0.004,1.278-0.691c0.142-0.407,0.541-0.725,0.822-1.084c0.441-0.562,0.981-0.979,1.614-0.371
		c0.661,0.634,0.407,1.763-0.114,1.915c-1.693,0.495-1.995,2.29-3.357,3.111c-1.821,1.098-4.959,0.939-6.119-0.776
		c-0.298-0.441-0.934-1.084-0.448-1.724c0.391-0.515,0.982-0.243,1.523-0.033C313.834,62.262,314.965,62.572,314.673,60.734z"/>
	<path fill="#FAFAFA" d="M323.899,42.194c-2.048,1.047-4.247,1.847-5.751,3.748c-0.534,0.674-1.393,0.706-2.039,0.341
		c-2.162-1.223-4.251-2.577-6.388-3.846c-0.975-0.579-1.029-1.428-0.358-2.071c1.766-1.694,3.68-3.232,5.504-4.866
		c2.452-2.195,4.91-1.556,7.314,0.005c1.847,1.2,3.729,2.396,5.365,3.853c1.073,0.956-0.289,0.943-0.823,1.178
		C325.822,41.157,324.79,41.556,323.899,42.194z"/>
	<path fill="#ED1C24" d="M280.474,31.536c2.784-0.054,4.127,1.161,4.202,3.802c0.077,2.734-2.28,4.688-5.713,4.735
		c-2.569,0.036-4.001-1.226-4.033-3.554C274.889,33.663,277.186,31.6,280.474,31.536z"/>
	<path fill="#DFDFDF" d="M318.988,72.31c-2.55,2.262-5.073,2.273-7.657,1.974c-0.814-0.094-1.753-0.106-1.689-1.346
		c0.049-0.949,0.699-1.138,1.481-1.34C313.673,70.938,316.044,71.855,318.988,72.31z"/>
</g>
</svg>
