<?xml version="1.0" encoding="utf-8"?>
<!-- Generator: Adobe Illustrator 19.2.0, SVG Export Plug-In . SVG Version: 6.00 Build 0)  -->
<svg version="1.1" id="Layer_1" xmlns="http://www.w3.org/2000/svg" xmlns:xlink="http://www.w3.org/1999/xlink" x="0px" y="0px"
	 width="431px" height="247.1px" viewBox="0 0 431 247.1" style="enable-background:new 0 0 431 247.1;" xml:space="preserve">
<style type="text/css">
	.st0{fill:#F2F3F4;}
	.st1{fill:#EDEEF0;}
	.st2{fill:#E4E7E8;}
	.st3{fill:#E1E6E9;}
	.st4{fill:#F4F4F4;stroke:#9FA3A5;stroke-width:3;stroke-linecap:round;stroke-linejoin:round;stroke-miterlimit:10;}
	.st5{fill:#B8D500;stroke:#9FA3A5;stroke-width:3;stroke-linecap:round;stroke-linejoin:round;stroke-miterlimit:10;}
	.st6{fill:#B8D500;}
	.st7{fill:#435159;}
	.st8{fill:#AEB5B8;}
	.st9{opacity:0.2;}
	.st10{fill:#F1F1F2;}
	.st11{opacity:0.5;}
</style>
<g>
	
		<rect x="36.8" y="28.8" transform="matrix(0.9979 -6.429057e-02 6.429057e-02 0.9979 -7.7089 8.8298)" class="st0" width="193.1" height="190.8"/>
</g>
<g>
	
		<rect x="194.3" y="9.1" transform="matrix(6.198180e-02 -0.9981 0.9981 6.198180e-02 158.2217 395.8141)" class="st1" width="190.8" height="209.3"/>
</g>
<rect x="129.5" y="23.2" transform="matrix(6.560846e-03 -1 1 6.560846e-03 89.8083 364.0058)" class="st2" width="197.2" height="227.2"/>
<rect x="195.1" y="90.5" transform="matrix(0.9996 -2.856605e-02 2.856605e-02 0.9996 -2.8077 6.1703)" class="st3" width="38.9" height="21.7"/>
<rect x="247.4" y="89" transform="matrix(0.9996 -2.856605e-02 2.856605e-02 0.9996 -2.7435 7.6637)" class="st3" width="38.9" height="21.7"/>
<rect x="196.8" y="150.8" transform="matrix(0.9996 -2.856605e-02 2.856605e-02 0.9996 -4.5295 6.2434)" class="st3" width="38.9" height="21.7"/>
<rect x="249.2" y="149.3" transform="matrix(0.9996 -2.856605e-02 2.856605e-02 0.9996 -4.4652 7.7397)" class="st3" width="38.9" height="21.7"/>
<polyline class="st4" points="198.8,204.8 154.7,205.9 150.9,74 301,69.7 304.7,201.7 241.6,203.9 "/>
<polyline class="st5" points="184.1,205.3 155.2,206.1 151.4,74 180.4,73.2 "/>
<g>
	<g>
		<path class="st6" d="M232.7,111.7l-36.4,1c-0.4,0-0.8-0.3-0.8-0.7L195,92.2c0-0.4,0.3-0.8,0.7-0.8l36.4-1c0.4,0,0.8,0.3,0.8,0.7
			l0.6,19.8C233.5,111.4,233.1,111.7,232.7,111.7z"/>
		<line class="st4" x1="202" y1="128.4" x2="229" y2="127.6"/>
		<line class="st4" x1="203.6" y1="120.3" x2="226.9" y2="119.7"/>
	</g>
	<g>
		<path class="st6" d="M283.9,110.2l-36.4,1c-0.4,0-0.8-0.3-0.8-0.7l-0.6-19.8c0-0.4,0.3-0.8,0.7-0.8l36.4-1c0.4,0,0.8,0.3,0.8,0.7
			l0.6,19.8C284.7,109.9,284.3,110.2,283.9,110.2z"/>
		<line class="st4" x1="254.3" y1="126.9" x2="279.3" y2="126.2"/>
		<line class="st4" x1="252.6" y1="118.8" x2="280.6" y2="118.3"/>
	</g>
	<g>
		<path class="st6" d="M249.3,171l36.4-1c0.4,0,0.7-0.4,0.7-0.8l-0.6-19.8c0-0.4-0.4-0.7-0.8-0.7l-36.4,1c-0.4,0-0.7,0.4-0.7,0.8
			l0.6,19.8C248.5,170.7,248.9,171,249.3,171z"/>
		<line class="st4" x1="282" y1="185.9" x2="255" y2="186.6"/>
		<line class="st4" x1="279.9" y1="177.9" x2="256.7" y2="178.6"/>
	</g>
	<g>
		<path class="st6" d="M198.1,172.5l36.4-1c0.4,0,0.7-0.4,0.7-0.8l-0.6-19.8c0-0.4-0.4-0.7-0.8-0.7l-36.4,1c-0.4,0-0.7,0.4-0.7,0.8
			l0.6,19.8C197.3,172.1,197.7,172.5,198.1,172.5z"/>
		<line class="st4" x1="229.7" y1="187.4" x2="204.7" y2="188.1"/>
		<line class="st4" x1="231" y1="179.2" x2="203" y2="180.2"/>
	</g>
</g>
<g>
	<g>
		<path class="st7" d="M157.3,172.8c-1.2,1.2-1.3,3.2,0,4.5l17.6,17.7c1.2,1.2,3.6,2.7,5.3,3.2l15.2,4.8c1.7,0.5,2.6-0.4,2.1-2.1
			l-4.4-14.8c-0.5-1.7-1.9-4.1-3.1-5.3l-18-18.1c-1.2-1.2-3.3-1.2-4.5,0L157.3,172.8z"/>
	</g>
	<g>
		<path class="st8" d="M176.5,164c4.9,5,1.6,9.6-3.4,14.6l0,0c-5,4.9-9.6,8.3-14.6,3.3l-42.4-42.6l18-17.9L176.5,164z"/>
	</g>
	<g>
		<path class="st7" d="M68.5,89.4c1.5,5.4,4.5,10.9,7.6,14l37.8,38c0.2,0.2,0.4,0.2,0.6,0.2s0.4-0.1,0.6-0.2l21.3-21.1
			c0.1-0.1,0.2-0.3,0.2-0.6c0-0.2-0.1-0.4-0.2-0.6L98.5,81.2c-4.2-4.2-13.6-8.8-20.9-8.8c-3.3,0-5.8,0.9-7.5,2.6
			C67.2,77.8,66.7,82.9,68.5,89.4z"/>
	</g>
	<g>
		<g>
			<path class="st7" d="M133.5,111.3L103,80.7c-0.9-0.9-2.4-0.9-3.4,0l-3.8,3.8c-0.9,0.9-2.4,0.9-3.4,0c-0.9-0.9-0.9-2.4,0-3.4
				l3.8-3.8c2.8-2.8,7.3-2.8,10.1,0l30.5,30.6c0.9,0.9,0.9,2.4,0,3.4c-0.5,0.5-1.1,0.7-1.7,0.7C134.6,112,133.9,111.8,133.5,111.3z"
				/>
		</g>
	</g>
	<g>
		<path class="st7" d="M193.8,202.7c-0.6-0.6-0.6-1.6,0-2.2l1-1c0.6-0.6,1.6-0.6,2.2,0l3.5,3.5c0.6,0.6,0.6,1.6,0,2.2l-1,1
			c-0.6,0.6-1.6,0.6-2.2,0L193.8,202.7z"/>
	</g>
	<g class="st9">
		<g>
			<path class="st10" d="M126.8,118.6c0.6,0.6,0.6,1.5,0,2.1l-0.3,0.3c-0.6,0.6-1.5,0.6-2.1,0L91.3,87.7c-0.6-0.6-0.6-1.5,0-2.1
				l0.3-0.3c0.6-0.6,1.5-0.6,2.1,0"/>
		</g>
	</g>
	<g class="st9">
		<g>
			<path class="st10" d="M188.7,189.2c0.2,0.8-0.1,1-0.7,0.4l-9.2-9.2c-0.6-0.6-0.6-1.5,0-2.1l0.3-0.3c0.6-0.6,1.5-0.6,2.1,0
				l5.1,5.1"/>
		</g>
	</g>
	<g class="st11">
		<g>
			<path class="st10" d="M172.2,166.6c0.6,0.6,0.6,1.5,0,2.1l-0.3,0.3c-0.6,0.6-1.5,0.6-2.1,0l-36-36.2c-0.6-0.6-0.6-1.5,0-2.1
				l0.3-0.3c0.6-0.6,1.5-0.6,2.1,0"/>
		</g>
	</g>
</g>
</svg>
