<?xml version="1.0" encoding="utf-8"?>
<!-- Generator: Adobe Illustrator 17.0.0, SVG Export Plug-In . SVG Version: 6.00 Build 0)  -->
<!DOCTYPE svg PUBLIC "-//W3C//DTD SVG 1.1//EN" "http://www.w3.org/Graphics/SVG/1.1/DTD/svg11.dtd">
<svg version="1.1" xmlns="http://www.w3.org/2000/svg" xmlns:xlink="http://www.w3.org/1999/xlink" x="0px" y="0px" width="800px"
	 height="511px" viewBox="0 0 800 511" enable-background="new 0 0 800 511" xml:space="preserve">
<g id="Background">
</g>
<g id="Objects">
	<g id="E-learning">
		<g id="arrows">
			<g>
				
					<line fill="none" stroke="#1C75BC" stroke-width="2" stroke-miterlimit="10" x1="281.593" y1="240.001" x2="368.188" y2="275.646"/>
				<polyline fill="none" stroke="#1C75BC" stroke-width="4" stroke-miterlimit="10" points="287.893,254.334 280.517,239.508 
					297.727,237.909 				"/>
			</g>
			<g>
				
					<line fill="none" stroke="#1C75BC" stroke-width="2" stroke-miterlimit="10" x1="514.248" y1="358.334" x2="427.652" y2="322.689"/>
				<polyline fill="none" stroke="#1C75BC" stroke-width="4" stroke-miterlimit="10" points="507.947,344.002 515.323,358.828 
					498.113,360.427 				"/>
			</g>
			<g>
				
					<line fill="none" stroke="#1C75BC" stroke-width="2" stroke-miterlimit="10" x1="277.967" y1="400.177" x2="352.093" y2="342.952"/>
				<polyline fill="none" stroke="#1C75BC" stroke-width="4" stroke-miterlimit="10" points="295.335,401.876 277.002,400.863 
					283.88,385.876 				"/>
			</g>
			<g>
				
					<line fill="none" stroke="#1C75BC" stroke-width="2" stroke-miterlimit="10" x1="531.242" y1="200.552" x2="457.115" y2="257.777"/>
				<polyline fill="none" stroke="#1C75BC" stroke-width="4" stroke-miterlimit="10" points="516.697,200.552 532.207,199.866 
					530.717,215.576 				"/>
			</g>
		</g>
		<g id="books">
			<g>
				<path fill="#0A222B" d="M391.062,308.587l0.811-13.238l80.882,19.717c4.237,1.136,5.483,16.723,2.248,19.597l-71.592,32.046
					l3.255-3.442c-1.58,3.473-5.472,5.404-9.28,4.385l-75.172-29.985v-21.126"/>
				<polygon fill="#144151" points="391.873,295.349 471.488,314.728 400.233,347.025 322.213,316.541 				"/>
				<path fill="#FFFAC3" d="M322.213,316.541l78.439,30.598c3.934,1.053,6.269,10.035,5.215,13.967
					c-1.054,3.936-5.098,6.269-9.031,5.215l-74.623-29.757V316.541z"/>
			</g>
			<g>
				<path fill="#DA393C" d="M402.322,285.568l0.811-13.239l80.88,19.717c4.238,1.137,5.484,16.725,2.249,19.598l-71.59,32.044
					l3.255-3.44c-1.58,3.474-5.473,5.405-9.279,4.384l-75.173-29.984v-21.125"/>
				<polygon fill="#FF5255" points="403.132,272.329 482.748,291.71 411.493,324.005 333.473,293.523 				"/>
				<path fill="#FFFAC3" d="M333.473,293.523l78.439,30.596c3.935,1.054,6.269,10.034,5.216,13.97
					c-1.056,3.934-5.098,6.269-9.033,5.214l-74.622-29.758V293.523z"/>
			</g>
			<g>
				<path fill="#546D7F" d="M405.149,255.128l0.811-13.238l74.759,24.285c4.237,1.134,5.484,16.723,2.248,19.594l-71.591,32.046
					l3.254-3.443c-1.578,3.476-5.473,5.407-9.279,4.386l-75.173-29.984V267.65"/>
				<polygon fill="#7693A8" points="405.96,241.89 479.454,265.836 408.198,298.134 330.178,267.65 				"/>
				<path fill="#FFFAC3" d="M330.178,267.65l78.44,30.594c3.933,1.055,6.268,10.038,5.214,13.971
					c-1.055,3.937-5.098,6.267-9.032,5.215l-74.623-29.759V267.65z"/>
			</g>
			<g>
				<path fill="#0A222B" d="M408.443,231.447l0.811-13.24l74.759,24.285c4.238,1.136,5.483,16.724,2.25,19.596l-71.593,32.044
					l3.255-3.44c-1.58,3.475-5.471,5.405-9.28,4.386l-75.173-29.987v-21.123"/>
				<polygon fill="#144151" points="409.254,218.207 482.747,242.153 411.493,274.451 333.472,243.967 				"/>
				<path fill="#FFFAC3" d="M333.472,243.967l78.441,30.596c3.934,1.053,6.267,10.037,5.215,13.971
					c-1.056,3.935-5.099,6.268-9.032,5.215l-74.623-29.761V243.967z"/>
			</g>
		</g>
		
			<text transform="matrix(1 0.364 0 1 364.1503 192.0049)" fill="#FFFFFF" font-family="'TeXGyreAdventor-Bold'" font-size="32.6648" letter-spacing="-0.94">Galtec-Moodle</text>
		<g id="laptop">
			<path fill-rule="evenodd" clip-rule="evenodd" fill="#BABABA" d="M329.566,439.641l-0.543-4.338l-2.635,2.201l-67.997-27.692
				c-1.428-0.569-3.605-0.413-4.835,0.35l-96.27,59.421l-3.136-2.085l0.546,4.233l0.037-0.021c-0.06,0.52,0.328,1.033,1.164,1.365
				l76.484,30.43c1.428,0.569,3.601,0.412,4.831-0.348l91.498-62.067c0.552-0.343,0.824-0.819,0.844-1.292l0.032,0.004
				L329.566,439.641L329.566,439.641z"/>
			<g>
				<path fill="#0A222B" d="M250.468,320.315l3.376-2.141l-4.718-2.789c-0.071-0.048-0.144-0.091-0.22-0.13l-0.102-0.06
					l-0.003,0.017c-0.492-0.196-1.073-0.15-1.672,0.219l-96.063,57.548c-1.391,0.856-2.321,3.026-2.086,4.85l0.193,86.643
					l4.631,2.738l4.893-8.604l91.368-56.266L250.468,320.315z"/>
				<g>
					<path fill-rule="evenodd" clip-rule="evenodd" fill="#DCDCDC" d="M154.959,466.531l98.011-60.497
						c1.23-0.761,3.407-0.917,4.835-0.35l70.043,28.526c1.423,0.566,1.582,1.654,0.354,2.416l-91.575,62.404
						c-1.231,0.761-3.403,0.917-4.832,0.348l-76.483-30.43C153.886,468.382,153.725,467.292,154.959,466.531z"/>
					<path fill-rule="evenodd" clip-rule="evenodd" fill="#BCBEC0" d="M253.871,417.003l3.1-1.915
						c0.351-0.218,0.974-0.264,1.379-0.102l2.669,1.066c0.413,0.161,0.458,0.475,0.104,0.692l-3.101,1.915
						c-0.353,0.217-0.975,0.261-1.383,0.1l-2.67-1.065C253.561,417.534,253.518,417.221,253.871,417.003z M259.23,419.79
						l3.614,1.442c0.496,0.197,1.259,0.144,1.691-0.124l2.814-1.739c0.431-0.267,0.378-0.646-0.123-0.846l-3.617-1.441
						c-0.499-0.199-1.259-0.143-1.692,0.123l-2.815,1.739C258.674,419.211,258.726,419.592,259.23,419.79z M265.596,422.328
						l3.615,1.444c0.502,0.197,1.262,0.143,1.693-0.123l2.817-1.742c0.428-0.265,0.376-0.645-0.125-0.846l-3.615-1.44
						c-0.499-0.2-1.261-0.144-1.692,0.122l-2.814,1.74C265.042,421.748,265.1,422.13,265.596,422.328z M271.962,424.866l3.619,1.441
						c0.498,0.198,1.261,0.144,1.692-0.121l2.816-1.742c0.429-0.267,0.377-0.646-0.125-0.844l-3.615-1.441
						c-0.501-0.202-1.261-0.144-1.693,0.121l-2.812,1.74C271.411,424.287,271.465,424.669,271.962,424.866z M278.334,427.404
						l3.618,1.441c0.496,0.199,1.259,0.145,1.69-0.122l2.815-1.739c0.43-0.266,0.378-0.645-0.126-0.846l-3.615-1.441
						c-0.501-0.199-1.26-0.144-1.689,0.121l-2.816,1.742C277.781,426.824,277.836,427.206,278.334,427.404z M284.704,429.943
						l3.615,1.441c0.499,0.197,1.259,0.143,1.692-0.121l2.816-1.742c0.43-0.267,0.373-0.647-0.127-0.845l-3.612-1.441
						c-0.501-0.2-1.264-0.144-1.694,0.121l-2.815,1.743C284.148,429.363,284.206,429.744,284.704,429.943z M248.493,421.079
						l2.67,1.064c0.408,0.163,1.03,0.118,1.38-0.101l3.101-1.913c0.354-0.219,0.309-0.531-0.099-0.693l-2.672-1.064
						c-0.405-0.162-1.028-0.119-1.38,0.101l-3.105,1.917C248.041,420.607,248.085,420.917,248.493,421.079z M248.757,426.325
						l3.486,1.391c0.536,0.214,1.347,0.154,1.808-0.13l7.768-4.8c0.458-0.284,0.398-0.691-0.131-0.904l-3.492-1.391
						c-0.532-0.212-1.348-0.154-1.806,0.131l-7.768,4.799C248.162,425.708,248.221,426.113,248.757,426.325z M258.688,426.66
						l3.488,1.392c0.534,0.213,1.348,0.155,1.809-0.13l4.2-2.599c0.462-0.283,0.4-0.692-0.132-0.904l-3.491-1.391
						c-0.531-0.212-1.345-0.153-1.805,0.131l-4.202,2.596C258.094,426.041,258.152,426.447,258.688,426.66z M260.875,431.784
						l3.488,1.39c0.536,0.214,1.35,0.155,1.81-0.128l8.382-5.182c0.461-0.284,0.4-0.692-0.131-0.904l-3.492-1.391
						c-0.533-0.211-1.343-0.154-1.806,0.131l-8.384,5.179C260.282,431.165,260.341,431.571,260.875,431.784z M272.857,430.79
						l3.616,1.441c0.498,0.199,1.26,0.144,1.689-0.122l2.817-1.74c0.431-0.267,0.374-0.647-0.123-0.846l-3.616-1.441
						c-0.502-0.2-1.263-0.144-1.688,0.122l-2.82,1.74C272.301,430.21,272.357,430.59,272.857,430.79z M279.225,433.328l3.616,1.441
						c0.501,0.201,1.258,0.144,1.69-0.123l2.815-1.741c0.43-0.264,0.376-0.645-0.121-0.844l-3.618-1.441
						c-0.499-0.198-1.258-0.144-1.687,0.122l-2.82,1.742C278.67,432.747,278.726,433.129,279.225,433.328z M243.431,424.206
						l2.673,1.063c0.407,0.163,1.031,0.118,1.385-0.101l2.679-1.657c0.354-0.218,0.307-0.529-0.103-0.691l-2.666-1.064
						c-0.41-0.164-1.033-0.121-1.383,0.098l-2.684,1.657C242.979,423.733,243.026,424.044,243.431,424.206z M238.29,427.383
						l2.671,1.065c0.407,0.161,1.029,0.118,1.383-0.101l2.685-1.657c0.352-0.218,0.305-0.528-0.103-0.692l-2.674-1.063
						c-0.403-0.162-1.027-0.12-1.379,0.099l-2.684,1.656C237.834,426.909,237.884,427.222,238.29,427.383z M233.15,430.561
						l2.673,1.065c0.406,0.161,1.027,0.115,1.38-0.101l2.68-1.657c0.352-0.218,0.307-0.531-0.1-0.691l-2.67-1.066
						c-0.405-0.164-1.033-0.118-1.382,0.099l-2.682,1.66C232.695,430.085,232.741,430.396,233.15,430.561z M228.007,433.737
						l2.671,1.065c0.406,0.164,1.03,0.118,1.381-0.1l2.681-1.657c0.355-0.219,0.307-0.531-0.1-0.693l-2.671-1.063
						c-0.408-0.163-1.029-0.118-1.381,0.1l-2.683,1.657C227.553,433.264,227.6,433.576,228.007,433.737z M222.868,436.916
						l2.668,1.063c0.408,0.162,1.029,0.117,1.382-0.1l2.683-1.66c0.356-0.216,0.307-0.528-0.101-0.69l-2.67-1.064
						c-0.408-0.162-1.028-0.118-1.384,0.101l-2.681,1.656C222.411,436.443,222.459,436.754,222.868,436.916z M217.722,440.094
						l2.67,1.063c0.409,0.163,1.032,0.119,1.385-0.1l2.682-1.659c0.352-0.218,0.308-0.531-0.1-0.691l-2.669-1.063
						c-0.41-0.164-1.035-0.12-1.386,0.098l-2.682,1.659C217.271,439.62,217.315,439.931,217.722,440.094z M212.581,443.271
						l2.668,1.064c0.41,0.163,1.033,0.117,1.386-0.1l2.683-1.659c0.351-0.217,0.307-0.529-0.103-0.692l-2.67-1.062
						c-0.409-0.164-1.027-0.121-1.38,0.098l-2.684,1.659C212.129,442.797,212.174,443.108,212.581,443.271z M207.441,446.448
						l2.671,1.063c0.406,0.164,1.03,0.12,1.38-0.098l2.685-1.658c0.349-0.217,0.305-0.531-0.101-0.691l-2.672-1.065
						c-0.405-0.161-1.031-0.118-1.383,0.101l-2.684,1.658C206.985,445.974,207.033,446.284,207.441,446.448z M202.299,449.623
						l2.669,1.065c0.407,0.164,1.032,0.119,1.385-0.098l2.681-1.659c0.352-0.217,0.307-0.529-0.102-0.692l-2.669-1.065
						c-0.408-0.161-1.031-0.115-1.382,0.101l-2.685,1.657C201.846,449.152,201.89,449.461,202.299,449.623z M197.157,452.802
						l2.671,1.066c0.405,0.159,1.025,0.116,1.38-0.102l2.685-1.656c0.352-0.216,0.301-0.529-0.104-0.691l-2.671-1.063
						c-0.407-0.164-1.029-0.118-1.38,0.099l-2.685,1.658C196.701,452.329,196.747,452.639,197.157,452.802z M192.014,455.979
						l2.669,1.063c0.408,0.164,1.031,0.119,1.381-0.098l2.685-1.659c0.353-0.218,0.31-0.529-0.097-0.69l-2.67-1.065
						c-0.408-0.163-1.031-0.118-1.386,0.101l-2.683,1.658C191.561,455.506,191.604,455.82,192.014,455.979z M186.872,459.157
						l2.67,1.066c0.408,0.162,1.029,0.115,1.381-0.101l2.682-1.657c0.353-0.219,0.306-0.528-0.1-0.692l-2.67-1.063
						c-0.407-0.164-1.028-0.118-1.382,0.099l-2.681,1.657C186.417,458.684,186.463,458.996,186.872,459.157z M181.732,462.335
						l2.669,1.063c0.405,0.163,1.028,0.118,1.381-0.101l2.684-1.657c0.352-0.216,0.304-0.527-0.101-0.692l-2.671-1.063
						c-0.408-0.162-1.03-0.117-1.38,0.101l-2.683,1.657C181.275,461.862,181.322,462.173,181.732,462.335z M176.588,465.513
						l2.669,1.063c0.41,0.164,1.032,0.119,1.383-0.099l2.683-1.659c0.353-0.218,0.307-0.529-0.101-0.691l-2.667-1.063
						c-0.411-0.163-1.035-0.119-1.386,0.099l-2.684,1.66C176.134,465.037,176.181,465.351,176.588,465.513z M170.813,469.082
						l2.669,1.063c0.409,0.164,1.031,0.118,1.382-0.101l3.102-1.915c0.352-0.218,0.305-0.527-0.102-0.694l-2.669-1.063
						c-0.407-0.162-1.031-0.117-1.385,0.102l-3.097,1.915C170.359,468.609,170.406,468.92,170.813,469.082z M243.197,429.68
						l3.648,1.455c0.489,0.194,1.239,0.14,1.659-0.12l2.766-1.708c0.421-0.262,0.365-0.636-0.123-0.829l-3.648-1.456
						c-0.491-0.194-1.237-0.14-1.66,0.121l-2.764,1.708C242.649,429.11,242.705,429.486,243.197,429.68z M237.62,433.128
						l3.647,1.454c0.489,0.194,1.236,0.142,1.66-0.119l2.762-1.707c0.424-0.263,0.367-0.635-0.124-0.832l-3.647-1.453
						c-0.491-0.195-1.237-0.142-1.662,0.118l-2.762,1.71C237.072,432.559,237.126,432.931,237.62,433.128z M232.042,436.573
						l3.643,1.457c0.492,0.194,1.242,0.141,1.661-0.121l2.765-1.709c0.422-0.26,0.368-0.635-0.124-0.83l-3.647-1.455
						c-0.491-0.194-1.239-0.141-1.661,0.121l-2.764,1.708C231.494,436.006,231.55,436.379,232.042,436.573z M226.457,440.023
						l3.653,1.454c0.489,0.195,1.234,0.141,1.657-0.12l2.763-1.708c0.426-0.26,0.369-0.635-0.123-0.831l-3.643-1.454
						c-0.493-0.195-1.24-0.142-1.662,0.12l-2.766,1.708C225.917,439.454,225.969,439.829,226.457,440.023z M220.881,443.468
						l3.648,1.458c0.489,0.194,1.237,0.138,1.661-0.121l2.761-1.708c0.424-0.262,0.372-0.635-0.119-0.83l-3.653-1.454
						c-0.489-0.197-1.234-0.141-1.656,0.121l-2.765,1.708C220.338,442.901,220.392,443.274,220.881,443.468z M215.302,446.918
						l3.651,1.454c0.488,0.194,1.237,0.14,1.657-0.122l2.764-1.706c0.425-0.261,0.369-0.636-0.12-0.83l-3.65-1.455
						c-0.492-0.194-1.236-0.141-1.659,0.122l-2.764,1.705C214.76,446.349,214.812,446.723,215.302,446.918z M209.723,450.364
						l3.648,1.457c0.491,0.192,1.24,0.138,1.661-0.122l2.762-1.708c0.423-0.26,0.368-0.635-0.122-0.829l-3.651-1.453
						c-0.487-0.197-1.234-0.144-1.655,0.116l-2.765,1.71C209.179,449.796,209.231,450.17,209.723,450.364z M204.144,453.811
						l3.652,1.454c0.488,0.195,1.236,0.142,1.657-0.119l2.763-1.707c0.422-0.261,0.368-0.635-0.122-0.831l-3.651-1.454
						c-0.487-0.196-1.233-0.142-1.655,0.118l-2.765,1.708C203.603,453.242,203.657,453.617,204.144,453.811z M198.563,457.259
						l3.654,1.455c0.486,0.196,1.236,0.14,1.656-0.121l2.764-1.708c0.422-0.26,0.368-0.634-0.12-0.831l-3.651-1.454
						c-0.489-0.195-1.237-0.139-1.658,0.122l-2.764,1.706C198.02,456.691,198.075,457.063,198.563,457.259z M192.988,460.707
						l3.653,1.454c0.487,0.195,1.235,0.143,1.655-0.119l2.765-1.709c0.423-0.26,0.367-0.634-0.121-0.83l-3.651-1.454
						c-0.491-0.194-1.235-0.142-1.66,0.121l-2.762,1.707C192.443,460.137,192.499,460.512,192.988,460.707z M187.407,464.153
						l3.651,1.454c0.49,0.196,1.235,0.141,1.659-0.118l2.765-1.709c0.423-0.263,0.364-0.634-0.126-0.83l-3.649-1.456
						c-0.487-0.195-1.233-0.138-1.655,0.121l-2.767,1.707C186.864,463.584,186.919,463.96,187.407,464.153z M181.83,467.601
						l3.647,1.457c0.492,0.195,1.239,0.137,1.66-0.122l2.763-1.709c0.421-0.26,0.371-0.633-0.119-0.828l-3.654-1.457
						c-0.486-0.193-1.232-0.138-1.656,0.123l-2.761,1.706C181.286,467.032,181.34,467.404,181.83,467.601z M176.074,471.179
						l3.615,1.438c0.497,0.199,1.255,0.145,1.686-0.121l2.817-1.742c0.429-0.264,0.373-0.646-0.122-0.844l-3.618-1.442
						c-0.502-0.198-1.26-0.144-1.69,0.123l-2.816,1.74C175.517,470.6,175.57,470.978,176.074,471.179z M182.503,473.738l3.488,1.393
						c0.535,0.214,1.346,0.155,1.806-0.129l5.798-3.58c0.457-0.287,0.399-0.693-0.134-0.905l-3.491-1.391
						c-0.533-0.212-1.345-0.153-1.807,0.131l-5.793,3.58C181.91,473.121,181.97,473.526,182.503,473.738z M188.87,476.278
						l3.492,1.391c0.533,0.213,1.346,0.154,1.808-0.129l6.89-4.259c0.458-0.284,0.401-0.692-0.134-0.906l-3.491-1.39
						c-0.533-0.214-1.349-0.154-1.808,0.129l-6.888,4.26C188.277,475.66,188.337,476.066,188.87,476.278z M195.241,478.818
						l3.488,1.391c0.536,0.211,1.347,0.153,1.808-0.131l9.88-6.104c0.456-0.286,0.398-0.691-0.135-0.904l-3.49-1.391
						c-0.531-0.214-1.344-0.153-1.808,0.13l-9.875,6.104C194.647,478.197,194.707,478.606,195.241,478.818z M201.611,481.355
						l3.485,1.391c0.536,0.214,1.349,0.154,1.812-0.13l4.099-2.536c0.46-0.282,0.402-0.689-0.134-0.904l-3.489-1.391
						c-0.533-0.212-1.347-0.154-1.809,0.129l-4.098,2.535C201.011,480.737,201.076,481.143,201.611,481.355z M190.655,468.687
						l3.521,1.404c0.523,0.207,1.323,0.151,1.773-0.127l2.962-1.832c0.452-0.279,0.394-0.678-0.132-0.886l-3.522-1.405
						c-0.525-0.208-1.325-0.15-1.776,0.128l-2.959,1.829C190.069,468.077,190.128,468.478,190.655,468.687z M196.334,465.176
						l3.523,1.404c0.527,0.209,1.326,0.15,1.779-0.129l2.958-1.828c0.453-0.281,0.395-0.681-0.131-0.888l-3.522-1.407
						c-0.524-0.209-1.324-0.151-1.778,0.13l-2.96,1.829C195.753,464.566,195.81,464.968,196.334,465.176z M202.017,461.663
						l3.525,1.405c0.524,0.209,1.324,0.152,1.777-0.126l2.96-1.832c0.452-0.28,0.394-0.68-0.131-0.89l-3.525-1.403
						c-0.524-0.209-1.322-0.152-1.775,0.128l-2.96,1.829C201.434,461.056,201.495,461.454,202.017,461.663z M207.698,458.152
						l3.526,1.404c0.521,0.209,1.324,0.151,1.779-0.13l2.96-1.829c0.452-0.28,0.391-0.678-0.132-0.887l-3.521-1.404
						c-0.523-0.211-1.323-0.152-1.776,0.128l-2.96,1.829C207.118,457.542,207.173,457.942,207.698,458.152z M213.386,454.641
						l3.524,1.404c0.525,0.21,1.323,0.15,1.779-0.131l2.957-1.828c0.453-0.279,0.393-0.679-0.13-0.89l-3.522-1.402
						c-0.525-0.209-1.325-0.15-1.776,0.129l-2.958,1.829C212.805,454.032,212.862,454.43,213.386,454.641z M219.07,451.127
						l3.522,1.404c0.526,0.207,1.325,0.15,1.776-0.13l2.962-1.829c0.453-0.28,0.393-0.681-0.129-0.889l-3.523-1.403
						c-0.525-0.209-1.325-0.149-1.778,0.128l-2.959,1.831C218.488,450.518,218.546,450.918,219.07,451.127z M224.754,447.614
						l3.524,1.404c0.522,0.211,1.323,0.151,1.775-0.128l2.958-1.829c0.453-0.278,0.394-0.678-0.13-0.887l-3.522-1.405
						c-0.526-0.208-1.327-0.152-1.776,0.128l-2.958,1.827C224.17,447.006,224.23,447.405,224.754,447.614z M230.434,444.105
						l3.526,1.401c0.523,0.21,1.32,0.152,1.775-0.127l2.96-1.831c0.453-0.28,0.393-0.678-0.129-0.889l-3.525-1.402
						c-0.524-0.211-1.322-0.153-1.775,0.127l-2.962,1.83C229.854,443.494,229.911,443.894,230.434,444.105z M236.119,440.59
						l3.522,1.407c0.524,0.209,1.323,0.149,1.778-0.128l2.959-1.83c0.453-0.279,0.394-0.68-0.13-0.888l-3.522-1.405
						c-0.524-0.208-1.323-0.151-1.776,0.129l-2.963,1.826C235.537,439.982,235.594,440.382,236.119,440.59z M241.803,437.08
						l3.524,1.402c0.523,0.209,1.324,0.152,1.776-0.128l2.958-1.829c0.453-0.281,0.393-0.679-0.13-0.887l-3.525-1.405
						c-0.525-0.207-1.322-0.151-1.776,0.128l-2.958,1.829C241.221,436.469,241.279,436.87,241.803,437.08z M247.487,433.566
						l3.522,1.404c0.526,0.209,1.326,0.152,1.778-0.128l2.959-1.828c0.453-0.28,0.395-0.678-0.13-0.89l-3.524-1.404
						c-0.527-0.209-1.322-0.151-1.775,0.129l-2.962,1.829C246.903,432.957,246.963,433.358,247.487,433.566z M253.17,430.055
						l3.523,1.402c0.524,0.211,1.323,0.153,1.776-0.127l2.961-1.83c0.452-0.28,0.391-0.68-0.131-0.888l-3.522-1.404
						c-0.527-0.209-1.323-0.151-1.776,0.128l-2.962,1.832C252.59,429.445,252.645,429.847,253.17,430.055z M198.6,470.247
						l3.524,1.406c0.525,0.207,1.325,0.151,1.775-0.127l2.962-1.832c0.45-0.278,0.395-0.68-0.131-0.887l-3.523-1.405
						c-0.522-0.209-1.323-0.148-1.776,0.128l-2.964,1.83C198.02,469.639,198.078,470.038,198.6,470.247z M204.285,466.737
						l3.523,1.403c0.526,0.211,1.325,0.152,1.778-0.127l2.958-1.829c0.451-0.28,0.395-0.679-0.131-0.889l-3.525-1.405
						c-0.519-0.208-1.322-0.151-1.774,0.128l-2.959,1.831C203.703,466.128,203.764,466.529,204.285,466.737z M209.968,463.225
						l3.522,1.403c0.527,0.21,1.323,0.151,1.775-0.126l2.963-1.831c0.452-0.28,0.394-0.679-0.131-0.889l-3.525-1.404
						c-0.522-0.207-1.323-0.151-1.774,0.129l-2.96,1.828C209.382,462.616,209.446,463.014,209.968,463.225z M215.651,459.713
						l3.524,1.403c0.525,0.211,1.326,0.151,1.776-0.128l2.96-1.828c0.451-0.28,0.391-0.68-0.13-0.891l-3.523-1.403
						c-0.525-0.209-1.323-0.151-1.778,0.13l-2.959,1.829C215.069,459.104,215.126,459.504,215.651,459.713z M221.336,456.201
						l3.522,1.406c0.524,0.207,1.324,0.148,1.777-0.131l2.957-1.829c0.454-0.28,0.397-0.679-0.13-0.887l-3.521-1.405
						c-0.524-0.208-1.324-0.151-1.776,0.129l-2.96,1.829C220.752,455.592,220.814,455.992,221.336,456.201z M227.018,452.689
						l3.524,1.404c0.524,0.207,1.323,0.148,1.774-0.129l2.962-1.829c0.452-0.28,0.394-0.679-0.131-0.888l-3.524-1.404
						c-0.526-0.211-1.322-0.154-1.776,0.128l-2.96,1.829C226.434,452.079,226.495,452.479,227.018,452.689z M232.702,449.177
						l3.523,1.404c0.524,0.21,1.323,0.151,1.776-0.129l2.961-1.829c0.452-0.279,0.394-0.679-0.13-0.888l-3.523-1.405
						c-0.526-0.208-1.328-0.15-1.78,0.128l-2.958,1.829C232.117,448.567,232.178,448.967,232.702,449.177z M238.388,445.665
						l3.522,1.404c0.523,0.209,1.322,0.151,1.775-0.128l2.959-1.829c0.451-0.28,0.395-0.678-0.13-0.889l-3.522-1.402
						c-0.526-0.211-1.322-0.152-1.776,0.128l-2.962,1.828C237.799,445.057,237.863,445.455,238.388,445.665z M244.071,442.151
						l3.52,1.407c0.527,0.208,1.327,0.15,1.778-0.128l2.96-1.831c0.452-0.278,0.395-0.68-0.13-0.888l-3.521-1.405
						c-0.525-0.208-1.324-0.151-1.779,0.13l-2.958,1.828C243.487,441.544,243.546,441.945,244.071,442.151z M249.754,438.64
						l3.521,1.405c0.524,0.209,1.324,0.151,1.779-0.128l2.958-1.829c0.452-0.28,0.391-0.681-0.133-0.891l-3.523-1.404
						c-0.523-0.207-1.32-0.149-1.773,0.131l-2.96,1.829C249.169,438.032,249.229,438.433,249.754,438.64z M255.433,435.128
						l3.527,1.404c0.526,0.211,1.32,0.151,1.776-0.129l2.961-1.828c0.453-0.278,0.394-0.681-0.132-0.888l-3.521-1.405
						c-0.526-0.21-1.325-0.153-1.781,0.128l-2.955,1.828C254.854,434.519,254.911,434.919,255.433,435.128z M207.943,470.947
						l3.526,1.406c0.526,0.208,1.326,0.15,1.776-0.131l2.962-1.827c0.451-0.28,0.392-0.681-0.134-0.89l-3.521-1.403
						c-0.523-0.209-1.324-0.151-1.773,0.13l-2.963,1.83C207.365,470.34,207.418,470.74,207.943,470.947z M213.631,467.437
						l3.52,1.404c0.524,0.209,1.325,0.151,1.777-0.128l2.96-1.83c0.454-0.281,0.392-0.678-0.132-0.888l-3.52-1.405
						c-0.523-0.207-1.323-0.15-1.775,0.131l-2.96,1.829C213.047,466.829,213.108,467.229,213.631,467.437z M219.312,463.924
						l3.523,1.403c0.527,0.21,1.324,0.152,1.777-0.128l2.956-1.829c0.455-0.278,0.398-0.678-0.126-0.888l-3.524-1.403
						c-0.523-0.21-1.325-0.151-1.776,0.128l-2.96,1.83C218.727,463.315,218.789,463.714,219.312,463.924z M224.997,460.412
						l3.522,1.404c0.523,0.212,1.324,0.151,1.778-0.127l2.958-1.829c0.451-0.28,0.392-0.681-0.13-0.89l-3.523-1.404
						c-0.525-0.21-1.325-0.15-1.779,0.13l-2.956,1.828C224.415,459.802,224.472,460.204,224.997,460.412z M230.677,456.898
						l3.525,1.406c0.524,0.208,1.324,0.152,1.776-0.128l2.958-1.827c0.454-0.28,0.398-0.681-0.129-0.888l-3.523-1.405
						c-0.524-0.209-1.321-0.151-1.775,0.128l-2.961,1.829C230.097,456.292,230.156,456.692,230.677,456.898z M236.367,453.387
						l3.52,1.407c0.526,0.208,1.325,0.148,1.776-0.13l2.962-1.831c0.452-0.279,0.39-0.677-0.133-0.886l-3.522-1.405
						c-0.525-0.209-1.325-0.151-1.775,0.128l-2.961,1.831C235.782,452.779,235.842,453.178,236.367,453.387z M242.046,449.876
						l3.522,1.404c0.526,0.21,1.325,0.153,1.778-0.129l2.961-1.827c0.449-0.28,0.392-0.681-0.133-0.89l-3.522-1.404
						c-0.523-0.21-1.323-0.152-1.777,0.129l-2.96,1.828C241.463,449.267,241.523,449.667,242.046,449.876z M247.732,446.363
						l3.518,1.405c0.528,0.209,1.326,0.151,1.781-0.128l2.961-1.829c0.45-0.28,0.393-0.679-0.131-0.889l-3.524-1.402
						c-0.522-0.211-1.323-0.152-1.776,0.126l-2.961,1.831C247.146,445.755,247.208,446.155,247.732,446.363z M253.415,442.852
						l3.523,1.404c0.524,0.21,1.322,0.151,1.776-0.13l2.957-1.827c0.453-0.28,0.393-0.679-0.128-0.888l-3.522-1.406
						c-0.525-0.207-1.325-0.151-1.779,0.129l-2.959,1.83C252.829,442.244,252.891,442.642,253.415,442.852z M259.098,439.338
						l3.522,1.405c0.524,0.208,1.323,0.15,1.775-0.129l2.963-1.829c0.455-0.28,0.391-0.678-0.132-0.889l-3.523-1.403
						c-0.528-0.209-1.324-0.151-1.775,0.129l-2.963,1.828C258.512,438.731,258.573,439.132,259.098,439.338z M264.798,435.835
						l3.488,1.39c0.536,0.214,1.349,0.156,1.811-0.132l5.351-3.307c0.46-0.283,0.402-0.689-0.133-0.904l-3.491-1.391
						c-0.533-0.211-1.345-0.154-1.809,0.131l-5.349,3.308C264.204,435.214,264.264,435.622,264.798,435.835z M208.536,477.057
						l3.524,1.401c0.525,0.211,1.324,0.153,1.777-0.128l2.959-1.829c0.455-0.28,0.398-0.678-0.129-0.89l-3.523-1.402
						c-0.525-0.21-1.322-0.151-1.776,0.129l-2.964,1.829C207.954,476.447,208.014,476.848,208.536,477.057z M214.223,473.545
						l3.52,1.403c0.526,0.207,1.327,0.151,1.78-0.128l2.959-1.828c0.454-0.282,0.395-0.679-0.131-0.891l-3.523-1.404
						c-0.526-0.207-1.325-0.15-1.778,0.131l-2.958,1.83C213.641,472.935,213.698,473.335,214.223,473.545z M219.904,470.032
						l3.525,1.405c0.523,0.208,1.323,0.149,1.776-0.129l2.961-1.831c0.449-0.278,0.392-0.678-0.133-0.888l-3.522-1.404
						c-0.528-0.21-1.324-0.152-1.779,0.128l-2.96,1.83C219.322,469.423,219.379,469.824,219.904,470.032z M225.589,466.519
						l3.523,1.404c0.524,0.208,1.325,0.15,1.777-0.128l2.961-1.829c0.455-0.282,0.396-0.681-0.132-0.89l-3.522-1.404
						c-0.524-0.208-1.321-0.153-1.775,0.127l-2.961,1.832C225.005,465.911,225.064,466.31,225.589,466.519z M231.272,463.008
						l3.523,1.402c0.526,0.212,1.325,0.152,1.777-0.128l2.959-1.829c0.453-0.278,0.397-0.68-0.132-0.888l-3.52-1.404
						c-0.525-0.209-1.323-0.151-1.776,0.128l-2.961,1.83C230.692,462.398,230.749,462.8,231.272,463.008z M236.957,459.493
						l3.522,1.405c0.525,0.211,1.322,0.151,1.776-0.128l2.961-1.829c0.448-0.28,0.395-0.678-0.128-0.89l-3.526-1.401
						c-0.524-0.211-1.325-0.151-1.778,0.127l-2.96,1.829C236.371,458.886,236.434,459.285,236.957,459.493z M242.642,455.982
						l3.52,1.405c0.524,0.207,1.326,0.15,1.778-0.128l2.958-1.829c0.453-0.281,0.393-0.681-0.13-0.89l-3.521-1.404
						c-0.526-0.21-1.324-0.15-1.779,0.13l-2.958,1.829C242.057,455.375,242.116,455.775,242.642,455.982z M248.323,452.47
						l3.523,1.405c0.523,0.208,1.32,0.151,1.774-0.128l2.961-1.83c0.451-0.28,0.395-0.68-0.132-0.888l-3.519-1.403
						c-0.527-0.211-1.327-0.154-1.778,0.128l-2.958,1.828C247.739,451.863,247.799,452.261,248.323,452.47z M254.008,448.961
						l3.52,1.402c0.524,0.211,1.325,0.15,1.779-0.128l2.96-1.829c0.453-0.278,0.392-0.678-0.132-0.889l-3.522-1.403
						c-0.526-0.21-1.324-0.151-1.777,0.128l-2.958,1.829C253.42,448.352,253.481,448.75,254.008,448.961z M259.689,445.447
						l3.525,1.404c0.525,0.209,1.323,0.153,1.775-0.128l2.96-1.829c0.453-0.28,0.394-0.681-0.13-0.89l-3.524-1.404
						c-0.524-0.209-1.325-0.151-1.776,0.129l-2.958,1.829C259.108,444.839,259.165,445.239,259.689,445.447z M265.388,441.941
						l3.491,1.391c0.534,0.213,1.347,0.154,1.808-0.13l5.353-3.308c0.461-0.284,0.402-0.691-0.134-0.904l-3.489-1.389
						c-0.533-0.214-1.346-0.154-1.806,0.131l-5.354,3.308C264.795,441.323,264.854,441.729,265.388,441.941z M273.747,436.714
						l3.617,1.441c0.496,0.198,1.259,0.143,1.69-0.124l2.814-1.74c0.43-0.265,0.377-0.645-0.121-0.844l-3.618-1.443
						c-0.499-0.197-1.261-0.141-1.687,0.124l-2.818,1.743C273.192,436.135,273.247,436.513,273.747,436.714z"/>
					<path fill-rule="evenodd" clip-rule="evenodd" fill="#FFFFFF" d="M253.738,415.97l3.1-1.915
						c0.352-0.219,0.974-0.265,1.379-0.102l2.669,1.066c0.413,0.16,0.458,0.475,0.104,0.691l-3.101,1.916
						c-0.354,0.217-0.976,0.26-1.383,0.1l-2.67-1.065C253.428,416.501,253.385,416.188,253.738,415.97z M259.097,418.757
						l3.614,1.442c0.496,0.197,1.259,0.144,1.691-0.124l2.814-1.739c0.431-0.266,0.378-0.646-0.122-0.845l-3.617-1.441
						c-0.5-0.199-1.259-0.144-1.692,0.123l-2.816,1.739C258.54,418.178,258.592,418.558,259.097,418.757z M265.463,421.294
						l3.615,1.444c0.502,0.197,1.262,0.143,1.693-0.123l2.816-1.742c0.428-0.265,0.376-0.646-0.125-0.846l-3.615-1.44
						c-0.499-0.2-1.261-0.144-1.693,0.122l-2.814,1.74C264.909,420.714,264.966,421.097,265.463,421.294z M271.829,423.833
						l3.619,1.441c0.498,0.198,1.261,0.143,1.692-0.121l2.816-1.742c0.429-0.267,0.377-0.646-0.124-0.844l-3.615-1.441
						c-0.501-0.202-1.262-0.144-1.693,0.121l-2.812,1.741C271.278,423.254,271.331,423.635,271.829,423.833z M278.201,426.371
						l3.618,1.441c0.497,0.199,1.259,0.145,1.69-0.122l2.815-1.74c0.43-0.265,0.378-0.645-0.125-0.845l-3.615-1.441
						c-0.501-0.199-1.26-0.144-1.689,0.121l-2.816,1.742C277.648,425.791,277.702,426.172,278.201,426.371z M284.571,428.91
						l3.615,1.441c0.499,0.197,1.259,0.143,1.692-0.121l2.816-1.742c0.43-0.267,0.373-0.648-0.126-0.845l-3.612-1.441
						c-0.501-0.2-1.264-0.144-1.694,0.121l-2.815,1.742C284.015,428.33,284.073,428.71,284.571,428.91z M248.36,420.047l2.671,1.063
						c0.408,0.163,1.03,0.118,1.38-0.101l3.101-1.914c0.354-0.218,0.308-0.53-0.099-0.693l-2.671-1.063
						c-0.405-0.163-1.028-0.118-1.38,0.101l-3.105,1.916C247.907,419.573,247.951,419.883,248.36,420.047z M248.624,425.292
						l3.486,1.39c0.536,0.214,1.347,0.155,1.808-0.129l7.768-4.8c0.458-0.284,0.398-0.692-0.131-0.904l-3.492-1.391
						c-0.533-0.211-1.348-0.154-1.806,0.131l-7.768,4.799C248.029,424.673,248.088,425.081,248.624,425.292z M258.555,425.627
						l3.488,1.392c0.534,0.213,1.348,0.155,1.809-0.131l4.2-2.597c0.462-0.284,0.4-0.693-0.132-0.904l-3.491-1.391
						c-0.531-0.212-1.345-0.154-1.805,0.131l-4.202,2.596C257.961,425.008,258.019,425.414,258.555,425.627z M260.742,430.751
						l3.488,1.39c0.536,0.214,1.35,0.155,1.809-0.128l8.382-5.182c0.461-0.284,0.4-0.691-0.131-0.904l-3.493-1.391
						c-0.533-0.211-1.343-0.153-1.806,0.131l-8.384,5.179C260.149,430.132,260.208,430.537,260.742,430.751z M272.724,429.757
						l3.616,1.44c0.498,0.2,1.26,0.144,1.689-0.121l2.816-1.74c0.431-0.267,0.374-0.647-0.122-0.845l-3.616-1.441
						c-0.502-0.2-1.263-0.144-1.688,0.122l-2.82,1.74C272.168,429.176,272.224,429.557,272.724,429.757z M279.092,432.294
						l3.616,1.441c0.501,0.201,1.259,0.143,1.691-0.123l2.815-1.74c0.43-0.265,0.376-0.647-0.121-0.845l-3.618-1.442
						c-0.499-0.197-1.258-0.143-1.687,0.123l-2.821,1.742C278.536,431.714,278.592,432.095,279.092,432.294z M243.297,423.172
						l2.673,1.063c0.408,0.164,1.031,0.118,1.386-0.1l2.678-1.657c0.354-0.218,0.308-0.53-0.103-0.69l-2.666-1.065
						c-0.411-0.164-1.033-0.121-1.383,0.098l-2.683,1.657C242.846,422.699,242.893,423.011,243.297,423.172z M238.157,426.349
						l2.671,1.066c0.407,0.161,1.03,0.118,1.383-0.102l2.685-1.656c0.352-0.219,0.305-0.529-0.103-0.693l-2.674-1.063
						c-0.402-0.163-1.027-0.12-1.379,0.098l-2.684,1.657C237.701,425.876,237.751,426.188,238.157,426.349z M233.016,429.528
						l2.673,1.065c0.406,0.161,1.027,0.115,1.38-0.101l2.68-1.658c0.352-0.217,0.307-0.53-0.1-0.691l-2.671-1.065
						c-0.405-0.164-1.033-0.118-1.381,0.099l-2.682,1.66C232.562,429.051,232.607,429.362,233.016,429.528z M227.874,432.703
						l2.671,1.065c0.406,0.164,1.03,0.118,1.382-0.1l2.681-1.657c0.356-0.219,0.308-0.531-0.1-0.692l-2.671-1.064
						c-0.408-0.164-1.028-0.118-1.381,0.099l-2.683,1.658C227.42,432.231,227.467,432.543,227.874,432.703z M222.735,435.882
						l2.667,1.064c0.408,0.162,1.028,0.117,1.382-0.101l2.683-1.659c0.356-0.216,0.307-0.528-0.101-0.691l-2.67-1.063
						c-0.408-0.162-1.028-0.118-1.384,0.101l-2.681,1.657C222.277,435.409,222.326,435.72,222.735,435.882z M217.589,439.061
						l2.67,1.063c0.409,0.163,1.032,0.119,1.384-0.1l2.682-1.659c0.352-0.218,0.308-0.531-0.1-0.691l-2.669-1.063
						c-0.41-0.164-1.034-0.12-1.386,0.098l-2.682,1.659C217.137,438.587,217.181,438.897,217.589,439.061z M212.448,442.237
						l2.668,1.064c0.409,0.163,1.033,0.117,1.386-0.1l2.683-1.659c0.351-0.217,0.307-0.529-0.103-0.691l-2.671-1.062
						c-0.408-0.164-1.027-0.121-1.38,0.098l-2.684,1.659C211.996,441.764,212.041,442.075,212.448,442.237z M207.308,445.414
						l2.67,1.063c0.407,0.164,1.03,0.12,1.38-0.098l2.686-1.658c0.349-0.217,0.305-0.531-0.101-0.691l-2.672-1.064
						c-0.405-0.162-1.031-0.118-1.383,0.101l-2.684,1.658C206.851,444.941,206.9,445.251,207.308,445.414z M202.165,448.59
						l2.669,1.064c0.407,0.164,1.032,0.118,1.384-0.098l2.682-1.659c0.352-0.217,0.307-0.529-0.102-0.692l-2.67-1.065
						c-0.407-0.162-1.031-0.115-1.381,0.101l-2.686,1.657C201.712,448.119,201.757,448.427,202.165,448.59z M197.023,451.768
						l2.671,1.065c0.405,0.16,1.025,0.117,1.38-0.101l2.685-1.657c0.352-0.216,0.302-0.529-0.104-0.691l-2.671-1.063
						c-0.407-0.164-1.029-0.118-1.38,0.099l-2.684,1.658C196.567,451.295,196.614,451.606,197.023,451.768z M191.881,454.946
						l2.669,1.063c0.408,0.164,1.03,0.119,1.381-0.098l2.685-1.66c0.353-0.218,0.309-0.529-0.097-0.69l-2.669-1.064
						c-0.409-0.163-1.031-0.118-1.386,0.101l-2.684,1.657C191.429,454.473,191.47,454.786,191.881,454.946z M186.739,458.124
						l2.67,1.066c0.407,0.162,1.029,0.115,1.381-0.101l2.682-1.658c0.353-0.218,0.306-0.528-0.101-0.691l-2.67-1.063
						c-0.407-0.164-1.028-0.118-1.382,0.099l-2.681,1.657C186.283,457.65,186.33,457.962,186.739,458.124z M181.598,461.302
						l2.67,1.063c0.404,0.163,1.027,0.118,1.38-0.101l2.685-1.657c0.351-0.216,0.303-0.527-0.101-0.692l-2.671-1.063
						c-0.408-0.162-1.029-0.117-1.38,0.101l-2.683,1.657C181.142,460.827,181.189,461.139,181.598,461.302z M176.454,464.478
						l2.669,1.063c0.41,0.164,1.032,0.12,1.383-0.098l2.683-1.659c0.353-0.218,0.307-0.53-0.101-0.691l-2.667-1.064
						c-0.411-0.162-1.035-0.118-1.386,0.1l-2.685,1.66C176.001,464.004,176.047,464.318,176.454,464.478z M170.68,468.047
						l2.669,1.064c0.409,0.164,1.031,0.118,1.382-0.101l3.102-1.915c0.352-0.218,0.305-0.527-0.102-0.694l-2.669-1.063
						c-0.407-0.161-1.031-0.117-1.386,0.101l-3.096,1.915C170.226,467.576,170.272,467.886,170.68,468.047z M243.063,428.646
						l3.648,1.455c0.489,0.193,1.239,0.14,1.659-0.12l2.766-1.707c0.421-0.263,0.365-0.637-0.123-0.83l-3.648-1.456
						c-0.491-0.194-1.237-0.141-1.66,0.12l-2.764,1.709C242.516,428.077,242.573,428.453,243.063,428.646z M237.486,432.094
						l3.647,1.454c0.489,0.194,1.236,0.142,1.66-0.119l2.763-1.707c0.424-0.263,0.366-0.635-0.124-0.831l-3.647-1.453
						c-0.491-0.196-1.237-0.143-1.661,0.117l-2.762,1.709C236.938,431.526,236.993,431.898,237.486,432.094z M231.908,435.54
						l3.644,1.457c0.492,0.194,1.242,0.141,1.661-0.121l2.766-1.709c0.421-0.259,0.367-0.635-0.124-0.829l-3.647-1.456
						c-0.491-0.193-1.239-0.141-1.661,0.122l-2.764,1.707C231.36,434.973,231.417,435.345,231.908,435.54z M226.323,438.99
						l3.653,1.454c0.489,0.195,1.234,0.141,1.657-0.12l2.763-1.708c0.425-0.26,0.369-0.635-0.123-0.831l-3.643-1.453
						c-0.493-0.196-1.24-0.142-1.662,0.119l-2.766,1.709C225.784,438.42,225.835,438.795,226.323,438.99z M220.748,442.434
						l3.648,1.458c0.489,0.194,1.237,0.138,1.661-0.121l2.761-1.709c0.424-0.261,0.372-0.634-0.119-0.829l-3.653-1.454
						c-0.489-0.197-1.234-0.141-1.655,0.121l-2.765,1.707C220.205,441.867,220.258,442.24,220.748,442.434z M215.168,445.884
						l3.651,1.454c0.487,0.194,1.237,0.14,1.657-0.122l2.764-1.706c0.425-0.26,0.37-0.635-0.12-0.829l-3.65-1.454
						c-0.492-0.195-1.236-0.141-1.658,0.121l-2.764,1.705C214.626,445.316,214.679,445.689,215.168,445.884z M209.589,449.33
						l3.648,1.458c0.492,0.192,1.24,0.138,1.661-0.122l2.762-1.709c0.423-0.26,0.369-0.634-0.122-0.829l-3.65-1.452
						c-0.488-0.197-1.234-0.144-1.655,0.116l-2.765,1.71C209.045,448.762,209.098,449.137,209.589,449.33z M204.011,452.778
						l3.652,1.454c0.488,0.195,1.235,0.141,1.657-0.119l2.763-1.707c0.422-0.261,0.368-0.635-0.122-0.831l-3.651-1.454
						c-0.487-0.196-1.234-0.142-1.655,0.118l-2.764,1.708C203.469,452.208,203.524,452.583,204.011,452.778z M198.43,456.224
						l3.653,1.456c0.486,0.196,1.236,0.14,1.656-0.121l2.764-1.708c0.422-0.26,0.368-0.634-0.12-0.831l-3.651-1.454
						c-0.49-0.194-1.237-0.139-1.658,0.122l-2.764,1.706C197.887,455.657,197.942,456.03,198.43,456.224z M192.854,459.673
						l3.652,1.454c0.487,0.195,1.235,0.143,1.655-0.119l2.764-1.709c0.423-0.259,0.367-0.635-0.121-0.83l-3.651-1.454
						c-0.491-0.194-1.235-0.142-1.66,0.12l-2.762,1.707C192.31,459.104,192.366,459.478,192.854,459.673z M187.273,463.12
						l3.651,1.454c0.49,0.196,1.235,0.141,1.659-0.118l2.765-1.709c0.423-0.263,0.364-0.634-0.126-0.83l-3.649-1.456
						c-0.487-0.195-1.233-0.138-1.655,0.121l-2.767,1.707C186.73,462.552,186.786,462.926,187.273,463.12z M181.696,466.568
						l3.647,1.456c0.492,0.197,1.239,0.138,1.66-0.121l2.763-1.709c0.421-0.261,0.371-0.633-0.119-0.828l-3.654-1.457
						c-0.487-0.193-1.232-0.138-1.656,0.123l-2.761,1.706C181.152,465.997,181.206,466.371,181.696,466.568z M175.94,470.145
						l3.615,1.439c0.497,0.199,1.255,0.144,1.687-0.121l2.817-1.742c0.428-0.264,0.372-0.646-0.122-0.844l-3.618-1.442
						c-0.502-0.198-1.259-0.144-1.689,0.123l-2.817,1.74C175.384,469.566,175.437,469.944,175.94,470.145z M182.369,472.704
						l3.489,1.393c0.535,0.214,1.346,0.154,1.806-0.13l5.798-3.58c0.457-0.286,0.399-0.692-0.134-0.904l-3.491-1.391
						c-0.533-0.212-1.345-0.153-1.807,0.131l-5.793,3.58C181.777,472.088,181.836,472.493,182.369,472.704z M188.736,475.245
						l3.492,1.391c0.533,0.213,1.346,0.155,1.808-0.129l6.889-4.259c0.458-0.284,0.401-0.692-0.133-0.906l-3.491-1.39
						c-0.533-0.214-1.349-0.154-1.808,0.129l-6.888,4.26C188.144,474.626,188.204,475.032,188.736,475.245z M195.107,477.784
						l3.489,1.391c0.535,0.211,1.346,0.152,1.808-0.131l9.88-6.104c0.456-0.285,0.398-0.691-0.135-0.904l-3.49-1.391
						c-0.531-0.214-1.344-0.153-1.808,0.13l-9.875,6.104C194.514,477.163,194.573,477.572,195.107,477.784z M201.477,480.322
						l3.485,1.391c0.537,0.213,1.349,0.154,1.813-0.13l4.099-2.536c0.461-0.283,0.403-0.689-0.134-0.904l-3.489-1.391
						c-0.534-0.212-1.347-0.154-1.809,0.129l-4.099,2.535C200.878,479.704,200.943,480.11,201.477,480.322z M190.522,467.653
						l3.521,1.404c0.523,0.207,1.323,0.151,1.773-0.127l2.962-1.832c0.453-0.278,0.394-0.678-0.131-0.886l-3.522-1.405
						c-0.525-0.208-1.325-0.15-1.776,0.128l-2.959,1.829C189.935,467.044,189.995,467.444,190.522,467.653z M196.201,464.142
						l3.523,1.404c0.527,0.209,1.326,0.149,1.779-0.129l2.958-1.829c0.454-0.28,0.395-0.681-0.13-0.888l-3.522-1.406
						c-0.525-0.209-1.324-0.151-1.779,0.129l-2.96,1.829C195.62,463.533,195.676,463.935,196.201,464.142z M201.884,460.629
						l3.524,1.405c0.524,0.209,1.325,0.152,1.777-0.126l2.96-1.832c0.452-0.28,0.394-0.68-0.131-0.89l-3.525-1.403
						c-0.524-0.209-1.322-0.152-1.775,0.128l-2.96,1.829C201.301,460.021,201.361,460.42,201.884,460.629z M207.565,457.119
						l3.526,1.404c0.521,0.209,1.324,0.151,1.778-0.129l2.961-1.829c0.452-0.28,0.391-0.678-0.133-0.887l-3.521-1.403
						c-0.523-0.211-1.323-0.152-1.775,0.128l-2.96,1.829C206.985,456.508,207.039,456.909,207.565,457.119z M213.252,453.607
						l3.524,1.404c0.525,0.209,1.322,0.15,1.779-0.131l2.956-1.828c0.453-0.279,0.393-0.68-0.13-0.89l-3.522-1.403
						c-0.526-0.208-1.325-0.149-1.776,0.13l-2.958,1.829C212.671,452.998,212.729,453.397,213.252,453.607z M218.936,450.094
						l3.522,1.404c0.526,0.207,1.324,0.151,1.775-0.13l2.962-1.829c0.453-0.28,0.393-0.681-0.129-0.89l-3.523-1.402
						c-0.525-0.209-1.325-0.149-1.778,0.128l-2.959,1.831C218.354,449.485,218.413,449.885,218.936,450.094z M224.62,446.581
						l3.524,1.405c0.522,0.21,1.323,0.151,1.775-0.128l2.958-1.829c0.453-0.279,0.394-0.678-0.131-0.887l-3.522-1.404
						c-0.526-0.209-1.327-0.152-1.776,0.128l-2.959,1.827C224.037,445.973,224.096,446.372,224.62,446.581z M230.301,443.072
						l3.525,1.401c0.523,0.211,1.32,0.153,1.775-0.127l2.961-1.83c0.452-0.28,0.393-0.678-0.129-0.89l-3.525-1.401
						c-0.524-0.211-1.322-0.153-1.775,0.128l-2.962,1.829C229.72,442.461,229.778,442.861,230.301,443.072z M235.986,439.557
						l3.522,1.406c0.524,0.208,1.322,0.148,1.777-0.128l2.96-1.83c0.452-0.279,0.394-0.68-0.131-0.888l-3.522-1.405
						c-0.524-0.208-1.323-0.151-1.777,0.129l-2.962,1.826C235.404,438.949,235.461,439.349,235.986,439.557z M241.67,436.047
						l3.524,1.402c0.523,0.209,1.325,0.152,1.777-0.128l2.958-1.829c0.453-0.281,0.392-0.679-0.131-0.888l-3.524-1.405
						c-0.525-0.207-1.322-0.151-1.777,0.129l-2.958,1.829C241.088,435.435,241.145,435.837,241.67,436.047z M247.353,432.532
						l3.522,1.405c0.526,0.208,1.326,0.152,1.778-0.129l2.959-1.827c0.453-0.28,0.395-0.678-0.13-0.89l-3.524-1.404
						c-0.527-0.209-1.322-0.151-1.776,0.129l-2.962,1.829C246.77,431.923,246.83,432.324,247.353,432.532z M253.037,429.021
						l3.523,1.403c0.524,0.211,1.323,0.153,1.776-0.127l2.96-1.83c0.452-0.28,0.391-0.68-0.131-0.888l-3.522-1.404
						c-0.527-0.208-1.323-0.151-1.777,0.128l-2.961,1.832C252.457,428.411,252.511,428.813,253.037,429.021z M198.467,469.214
						l3.525,1.406c0.525,0.208,1.325,0.151,1.775-0.127l2.962-1.832c0.45-0.279,0.395-0.68-0.131-0.887l-3.523-1.405
						c-0.523-0.209-1.323-0.148-1.776,0.129l-2.964,1.83C197.887,468.606,197.944,469.005,198.467,469.214z M204.152,465.703
						l3.523,1.403c0.525,0.211,1.325,0.152,1.777-0.127l2.958-1.83c0.451-0.28,0.395-0.678-0.132-0.889l-3.524-1.405
						c-0.52-0.208-1.322-0.151-1.774,0.128l-2.959,1.83C203.57,465.095,203.631,465.495,204.152,465.703z M209.835,462.191
						l3.522,1.403c0.527,0.21,1.323,0.151,1.774-0.126l2.963-1.831c0.452-0.28,0.394-0.679-0.131-0.889l-3.525-1.404
						c-0.522-0.207-1.323-0.151-1.774,0.129l-2.96,1.828C209.249,461.583,209.313,461.98,209.835,462.191z M215.518,458.68
						l3.524,1.403c0.524,0.211,1.326,0.151,1.776-0.128l2.96-1.828c0.451-0.28,0.391-0.68-0.13-0.891l-3.523-1.402
						c-0.524-0.209-1.322-0.151-1.777,0.13l-2.96,1.829C214.935,458.071,214.993,458.47,215.518,458.68z M221.203,455.167
						l3.522,1.406c0.524,0.207,1.324,0.148,1.777-0.131l2.957-1.829c0.453-0.28,0.396-0.679-0.13-0.887l-3.521-1.404
						c-0.524-0.208-1.324-0.151-1.776,0.128l-2.96,1.829C220.619,454.559,220.68,454.959,221.203,455.167z M226.884,451.655
						l3.525,1.404c0.524,0.208,1.323,0.148,1.774-0.129l2.962-1.829c0.452-0.28,0.394-0.679-0.13-0.888l-3.525-1.405
						c-0.526-0.21-1.322-0.154-1.776,0.129l-2.96,1.829C226.301,451.045,226.361,451.445,226.884,451.655z M232.569,448.144
						l3.523,1.404c0.525,0.211,1.323,0.151,1.777-0.129l2.961-1.829c0.452-0.279,0.394-0.679-0.131-0.888l-3.524-1.404
						c-0.525-0.208-1.328-0.151-1.78,0.128l-2.958,1.829C231.984,447.534,232.044,447.934,232.569,448.144z M238.254,444.631
						l3.522,1.404c0.523,0.209,1.322,0.151,1.775-0.128l2.959-1.83c0.451-0.279,0.394-0.678-0.13-0.888l-3.522-1.402
						c-0.526-0.211-1.322-0.152-1.777,0.128l-2.962,1.829C237.666,444.024,237.73,444.422,238.254,444.631z M243.937,441.118
						l3.52,1.407c0.527,0.208,1.326,0.15,1.778-0.128l2.96-1.831c0.452-0.278,0.395-0.68-0.131-0.887l-3.521-1.405
						c-0.526-0.208-1.324-0.151-1.778,0.13l-2.958,1.828C243.354,440.511,243.412,440.912,243.937,441.118z M249.621,437.606
						l3.521,1.405c0.524,0.209,1.324,0.151,1.779-0.128l2.958-1.829c0.452-0.28,0.391-0.68-0.133-0.89l-3.524-1.405
						c-0.523-0.207-1.32-0.149-1.773,0.13l-2.96,1.829C249.036,436.999,249.096,437.4,249.621,437.606z M255.3,434.095l3.527,1.404
						c0.525,0.211,1.32,0.151,1.776-0.129l2.961-1.829c0.453-0.277,0.394-0.68-0.132-0.887l-3.522-1.404
						c-0.526-0.211-1.325-0.153-1.781,0.128l-2.955,1.827C254.721,433.486,254.778,433.886,255.3,434.095z M207.81,469.913
						l3.526,1.407c0.525,0.208,1.326,0.15,1.776-0.131l2.962-1.827c0.451-0.28,0.393-0.681-0.133-0.89l-3.521-1.404
						c-0.523-0.209-1.324-0.151-1.773,0.13l-2.963,1.83C207.231,469.307,207.285,469.707,207.81,469.913z M213.497,466.403
						l3.521,1.405c0.523,0.209,1.324,0.151,1.776-0.128l2.96-1.83c0.454-0.281,0.392-0.679-0.133-0.888l-3.52-1.405
						c-0.523-0.207-1.323-0.15-1.775,0.131l-2.96,1.829C212.914,465.795,212.975,466.195,213.497,466.403z M219.18,462.89
						l3.522,1.403c0.527,0.21,1.325,0.152,1.777-0.128l2.957-1.829c0.455-0.278,0.399-0.678-0.126-0.888l-3.524-1.403
						c-0.523-0.21-1.325-0.152-1.776,0.128l-2.96,1.83C218.593,462.281,218.656,462.681,219.18,462.89z M224.864,459.378
						l3.522,1.405c0.523,0.212,1.324,0.151,1.777-0.128l2.958-1.829c0.451-0.28,0.393-0.681-0.129-0.89l-3.523-1.405
						c-0.525-0.209-1.325-0.149-1.779,0.131l-2.957,1.828C224.282,458.768,224.34,459.17,224.864,459.378z M230.544,455.864
						l3.525,1.406c0.524,0.208,1.325,0.151,1.777-0.128l2.958-1.827c0.455-0.28,0.398-0.681-0.129-0.888l-3.524-1.405
						c-0.524-0.209-1.322-0.151-1.775,0.128l-2.961,1.828C229.963,455.259,230.022,455.658,230.544,455.864z M236.234,452.354
						l3.519,1.407c0.526,0.207,1.325,0.148,1.776-0.13l2.962-1.831c0.453-0.279,0.391-0.678-0.133-0.887l-3.522-1.404
						c-0.524-0.21-1.325-0.151-1.775,0.128l-2.96,1.83C235.648,451.745,235.708,452.145,236.234,452.354z M241.913,448.842
						l3.522,1.404c0.526,0.21,1.326,0.152,1.778-0.129l2.961-1.827c0.449-0.281,0.392-0.681-0.133-0.891l-3.522-1.404
						c-0.523-0.209-1.323-0.151-1.778,0.13l-2.959,1.828C241.329,448.234,241.39,448.633,241.913,448.842z M247.598,445.33
						l3.518,1.404c0.529,0.208,1.326,0.151,1.781-0.128l2.961-1.829c0.45-0.28,0.393-0.679-0.131-0.89l-3.523-1.401
						c-0.523-0.211-1.323-0.153-1.777,0.126l-2.961,1.831C247.012,444.721,247.075,445.121,247.598,445.33z M253.282,441.818
						l3.523,1.404c0.524,0.21,1.321,0.151,1.776-0.13l2.957-1.828c0.453-0.28,0.393-0.678-0.128-0.887l-3.522-1.406
						c-0.525-0.208-1.325-0.151-1.779,0.129l-2.959,1.83C252.696,441.211,252.757,441.609,253.282,441.818z M258.965,438.305
						l3.522,1.405c0.524,0.208,1.323,0.151,1.774-0.13l2.964-1.828c0.454-0.28,0.391-0.678-0.132-0.889l-3.523-1.403
						c-0.528-0.209-1.324-0.151-1.775,0.129l-2.963,1.828C258.378,437.698,258.44,438.099,258.965,438.305z M264.664,434.801
						l3.489,1.391c0.535,0.214,1.349,0.155,1.81-0.133l5.351-3.307c0.46-0.283,0.402-0.689-0.132-0.904l-3.491-1.391
						c-0.533-0.212-1.344-0.154-1.809,0.131l-5.349,3.307C264.07,434.181,264.131,434.588,264.664,434.801z M208.403,476.024
						l3.524,1.401c0.524,0.211,1.324,0.153,1.776-0.128l2.958-1.829c0.456-0.28,0.398-0.679-0.129-0.89l-3.522-1.403
						c-0.525-0.21-1.322-0.151-1.776,0.13l-2.964,1.829C207.821,475.414,207.88,475.815,208.403,476.024z M214.089,472.511
						l3.521,1.403c0.525,0.207,1.326,0.151,1.78-0.128l2.96-1.828c0.454-0.282,0.394-0.679-0.131-0.891l-3.523-1.404
						c-0.526-0.207-1.325-0.15-1.778,0.13l-2.958,1.83C213.508,471.902,213.564,472.302,214.089,472.511z M219.771,468.999
						l3.525,1.405c0.524,0.207,1.324,0.149,1.776-0.129l2.961-1.832c0.45-0.277,0.392-0.678-0.132-0.887l-3.522-1.404
						c-0.528-0.21-1.324-0.152-1.779,0.127l-2.961,1.831C219.188,468.388,219.246,468.79,219.771,468.999z M225.455,465.487
						l3.523,1.403c0.524,0.209,1.325,0.151,1.777-0.127l2.961-1.829c0.454-0.281,0.396-0.681-0.132-0.89l-3.522-1.403
						c-0.524-0.207-1.321-0.154-1.776,0.127l-2.961,1.832C224.871,464.877,224.93,465.276,225.455,465.487z M231.138,461.975
						l3.523,1.402c0.526,0.212,1.325,0.152,1.777-0.128l2.959-1.829c0.453-0.278,0.396-0.68-0.132-0.887l-3.52-1.405
						c-0.525-0.209-1.323-0.151-1.776,0.128l-2.961,1.83C230.558,461.365,230.616,461.766,231.138,461.975z M236.824,458.46
						l3.522,1.405c0.526,0.21,1.322,0.151,1.776-0.128l2.961-1.829c0.448-0.28,0.395-0.679-0.128-0.89l-3.526-1.402
						c-0.525-0.21-1.325-0.151-1.779,0.128l-2.959,1.829C236.237,457.852,236.301,458.252,236.824,458.46z M242.508,454.95
						l3.521,1.404c0.524,0.207,1.325,0.15,1.778-0.128l2.958-1.829c0.453-0.282,0.393-0.681-0.13-0.89l-3.521-1.404
						c-0.526-0.21-1.324-0.151-1.779,0.13l-2.958,1.829C241.923,454.341,241.983,454.742,242.508,454.95z M248.19,451.436
						l3.523,1.405c0.523,0.209,1.321,0.151,1.774-0.128l2.961-1.83c0.45-0.28,0.395-0.68-0.132-0.888l-3.519-1.403
						c-0.528-0.211-1.327-0.154-1.778,0.128l-2.958,1.828C247.607,450.83,247.666,451.227,248.19,451.436z M253.875,447.927
						l3.52,1.402c0.525,0.211,1.325,0.15,1.78-0.128l2.959-1.829c0.454-0.278,0.393-0.678-0.132-0.889l-3.522-1.403
						c-0.525-0.21-1.325-0.151-1.777,0.128l-2.958,1.829C253.287,447.318,253.347,447.717,253.875,447.927z M259.557,444.415
						l3.524,1.404c0.525,0.208,1.323,0.153,1.775-0.128l2.96-1.829c0.453-0.28,0.394-0.68-0.13-0.89l-3.524-1.403
						c-0.525-0.209-1.326-0.151-1.777,0.129l-2.958,1.829C258.974,443.805,259.032,444.206,259.557,444.415z M265.255,440.907
						l3.491,1.391c0.534,0.212,1.347,0.154,1.808-0.13l5.353-3.308c0.461-0.284,0.402-0.691-0.134-0.904l-3.489-1.389
						c-0.532-0.214-1.346-0.154-1.806,0.131l-5.353,3.308C264.662,440.289,264.721,440.695,265.255,440.907z M273.614,435.68
						l3.618,1.441c0.497,0.198,1.259,0.143,1.69-0.124l2.814-1.741c0.43-0.264,0.377-0.645-0.121-0.844l-3.617-1.442
						c-0.499-0.196-1.262-0.141-1.688,0.124l-2.818,1.743C273.059,435.102,273.113,435.48,273.614,435.68z"/>
					<path fill-rule="evenodd" clip-rule="evenodd" fill="#B5B5B7" d="M239.069,466.266l29.532-18.248
						c0.451-0.28,1.245-0.339,1.77-0.131l16.453,6.558c0.521,0.209,0.578,0.607,0.127,0.884l-29.533,18.25
						c-0.451,0.278-1.247,0.337-1.768,0.128l-16.451-6.555C238.674,466.943,238.618,466.545,239.069,466.266z M258.024,474.656
						l3.419,1.361c0.108,0.045,0.273,0.032,0.369-0.027l14.685-9.077c0.097-0.055,0.083-0.139-0.025-0.181l-3.419-1.362
						c-0.105-0.042-0.272-0.033-0.367,0.026l-14.687,9.076C257.907,474.53,257.917,474.612,258.024,474.656z M274.168,464.679
						l3.417,1.362c0.113,0.045,0.274,0.033,0.367-0.025l14.688-9.078c0.092-0.057,0.081-0.14-0.027-0.183l-3.416-1.361
						c-0.109-0.045-0.274-0.034-0.368,0.026l-14.688,9.075C274.045,464.555,274.061,464.637,274.168,464.679z"/>
				</g>
				<path fill="#144151" d="M254.695,405.077v-85.15c-0.235-1.824-1.552-2.611-2.937-1.758l-96.063,57.547
					c-1.391,0.855-2.321,3.026-2.085,4.85l0.192,86.643L254.695,405.077z"/>
				<polygon fill="#DA393C" points="157.981,459.186 157.981,379.883 249.857,324.331 249.857,402.142 				"/>
				<g>
					<polygon fill="#FFFFFF" points="244.267,349.009 184.065,386.755 184.065,377.696 244.267,339.951 					"/>
					<polygon fill="#FFFFFF" points="174.074,393.045 163.571,399.748 163.571,390.688 174.074,383.987 					"/>
					<polygon fill="#FFFFFF" points="244.267,356.058 163.571,405.787 163.571,403.271 244.267,353.541 					"/>
					<polygon fill="#FFFFFF" points="244.267,362.348 163.571,412.078 163.571,409.562 244.267,359.833 					"/>
					<polygon fill="#FFFFFF" points="244.267,368.64 163.571,418.369 163.571,415.852 244.267,366.123 					"/>
					<polygon fill="#FFFFFF" points="244.267,374.93 163.571,424.66 163.571,422.143 244.267,372.414 					"/>
					<polygon fill="#FFFFFF" points="244.267,381.221 163.571,430.951 163.571,428.434 244.267,378.705 					"/>
					<polygon fill="#FFFFFF" points="244.267,387.511 163.571,437.241 163.571,434.725 244.267,384.995 					"/>
				</g>
			</g>
		</g>
		<g id="pc__x2B__calculator__x2B__paper">
			<g>
				<g>
					<g>
						<g>
							<path fill="#E6E7E8" d="M575.134,455.226l45.153,16.433c1.144,0.417,2.071,1.842,2.071,3.191v0.916l-49.297-17.943v-0.916
								C573.061,455.558,573.99,454.809,575.134,455.226z"/>
							<polyline fill="#E6E7E8" points="622.358,475.766 620.856,476.705 618.657,474.082 							"/>
							<path fill="#E6E7E8" d="M668.306,462.015v9.701c0,1.87-1.508,2.83-3.38,2.149L535.9,426.903
								c-1.866-0.679-3.381-2.74-3.381-4.607v-9.704L668.306,462.015z"/>
							<polyline fill="#E6E7E8" points="667.184,473.82 663.067,476.705 658.54,471.54 							"/>
							<path fill="#0A222B" d="M532.519,412.495v-82.143c0-1.865,1.516-2.827,3.381-2.149l129.025,46.961
								c1.872,0.682,3.38,2.744,3.38,4.611v82.14L532.519,412.495z"/>
							<polyline fill="#0A222B" points="668.306,461.915 664.098,464.95 655.766,461.915 665.371,456.051 							"/>
							<polyline fill="#0A222B" points="533.42,328.391 529.483,331.26 535.65,333.42 538.048,331.024 							"/>
							<path fill="#314754" d="M611.992,452.832c1.435,6.392,2.873,12.782,4.306,19.173c-13.396-4.875-26.788-9.751-40.186-14.627
								c1.435-5.346,2.872-10.69,4.306-16.036C590.945,445.172,601.463,449.001,611.992,452.832z"/>
							<path fill="#FFFFFF" d="M573.63,456.165l45.152,16.434c1.144,0.416,2.074,1.842,2.074,3.192v0.914l-49.299-17.943v-0.914
								C571.557,456.499,572.487,455.749,573.63,456.165z"/>
							<path fill="#FFFFFF" d="M664.098,464.95v9.702c0,1.869-1.509,2.828-3.379,2.147l-129.025-46.96
								c-1.865-0.679-3.381-2.741-3.381-4.607v-9.705L664.098,464.95z"/>
							<path fill="#144151" d="M528.313,415.527v-82.14c0-1.868,1.515-2.829,3.381-2.151l129.025,46.96
								c1.87,0.682,3.379,2.745,3.379,4.612v82.14L528.313,415.527z"/>
							<polygon fill="#DA393C" points="658.54,457.321 658.54,382.686 533.874,337.312 533.874,411.945 							"/>
						</g>
					</g>
				</g>
				<polygon fill="#0E303F" points="616.228,471.695 619.084,471.24 616.738,460.791 613.517,459.619 				"/>
			</g>
			<g id="paper">
				<g>
					<g>
						<polygon fill="#FFFFFF" points="576.568,417.202 576.568,367.06 576.568,341.924 594.58,330.467 644.824,348.755 
							644.824,367.362 644.824,391.903 644.824,442.044 						"/>
						<g>
							<polygon fill="#15B0BF" points="594.58,348.48 576.568,341.924 594.58,330.467 							"/>
							<polygon fill="#D1ECFB" points="576.568,341.924 594.58,348.48 576.568,359.936 							"/>
						</g>
					</g>
				</g>
				<polygon opacity="0.1" points="594.58,330.467 576.568,341.924 576.568,367.06 576.568,409.122 634.777,430.308 
					634.777,380.166 634.777,355.625 634.777,345.099 				"/>
				<g>
					<g>
						<polygon fill="#FFFFFF" points="563.842,400.471 563.842,350.329 563.842,325.194 581.853,313.738 632.098,332.026 
							632.098,350.631 632.098,375.173 632.098,425.313 						"/>
						<g>
							<polygon fill="#15B0BF" points="581.853,331.751 563.842,325.194 581.853,313.738 							"/>
							<polygon fill="#D1ECFB" points="563.842,325.194 581.853,331.751 563.842,343.205 							"/>
						</g>
					</g>
					<g>
						<path fill="#2C5871" d="M580.427,386.436v-11.76c-5.755-1.713-10.319,1.405-10.319,7.261c0,6.112,4.954,12.866,11.062,15.087
							c5.855,2.132,10.639-0.688,11.015-6.309L580.427,386.436z"/>
						<path fill="#DA393C" d="M591.652,387.745c0-4.568-3.698-9.616-8.261-11.276v8.267L591.652,387.745z"/>
					</g>
					<g>
						<path fill="#A6DAE9" d="M585.816,354.256c-0.222,0.602-0.576,1.086-1.052,1.425l3.589,6.319
							c1.816-0.9,3.118-2.564,3.613-4.823L585.816,354.256z"/>
						<path fill="#DA393C" d="M582.152,346.565c2.092,1.197,3.677,3.539,3.885,5.778l6.14,2.913c0-0.069,0.008-0.133,0.008-0.204
							c0-5.755-4.409-12.083-10.033-14.64V346.565z"/>
						<path fill="#15B0BF" d="M577.514,346.402c0.684-0.509,1.59-0.73,2.633-0.567v-6.153c-3.278-0.898-6.129-0.208-7.951,1.653
							L577.514,346.402z"/>
						<path fill="#2C5871" d="M583.139,356.265c-0.611,0.051-1.282-0.038-1.992-0.297c-2.724-0.992-4.933-4.007-4.933-6.729
							c0-0.559,0.112-1.042,0.281-1.477l-5.318-5.069c-0.675,1.186-1.07,2.634-1.07,4.323c0,6.097,4.942,12.836,11.04,15.054
							c2.034,0.741,3.935,0.876,5.573,0.506L583.139,356.265z"/>
					</g>
					<g>
						<polygon fill="#15B0BF" points="597.384,348.687 623.991,358.372 623.991,355.639 597.384,345.955 						"/>
						<polygon fill="#A6DAE9" points="597.384,357.265 623.991,366.949 623.991,364.218 597.384,354.534 						"/>
						<polygon fill="#A6DAE9" points="597.384,365.845 623.991,375.529 623.991,372.801 597.384,363.117 						"/>
					</g>
					<g>
						<polygon fill="#15B0BF" points="597.384,383.578 615.897,390.317 615.897,387.585 597.384,380.848 						"/>
						<polygon fill="#A6DAE9" points="597.384,392.162 623.991,401.847 623.991,399.114 597.384,389.43 						"/>
						<polygon fill="#A6DAE9" points="597.384,400.739 623.991,410.423 623.991,407.692 597.384,398.008 						"/>
					</g>
				</g>
			</g>
			<g>
				<path fill="#546D7F" d="M545.156,428.55l-49.484-18.01v47.188c0,0.588,0.224,1.256,0.674,1.866
					c0.446,0.609,1.031,1.047,1.619,1.261l44.898,16.34c0.585,0.214,1.172,0.204,1.619-0.08c0.447-0.283,0.672-0.791,0.672-1.375
					L545.156,428.55z"/>
				<path fill="#253F51" d="M545.154,408.818c0-0.589-0.225-1.255-0.672-1.866c-0.448-0.611-1.033-1.048-1.62-1.262l-44.898-16.341
					c-0.588-0.214-1.172-0.204-1.619,0.084c-0.45,0.283-0.674,0.788-0.675,1.375l0.001,19.733l49.484,18.01L545.154,408.818z"/>
				<polygon fill="#253F51" points="496.632,389.292 492.691,390.347 495.801,391.173 				"/>
				<polyline fill="#253F51" points="541.024,428.771 545.156,427.664 545.156,426.733 541.024,426.418 				"/>
				<polygon fill="#546D7F" points="539.971,478.39 544.248,477.23 541.022,476.076 				"/>
				<g id="calculator">
					<path fill="#617B93" d="M541.024,429.658l-49.484-18.009v47.189c0,0.587,0.224,1.255,0.675,1.866
						c0.444,0.608,1.03,1.046,1.619,1.259l44.898,16.341c0.586,0.214,1.172,0.203,1.62-0.081c0.447-0.283,0.672-0.791,0.672-1.376
						L541.024,429.658z"/>
					<polygon opacity="0.1" fill="#FFFFFF" points="497.799,413.928 541.024,429.658 541.022,471.177 					"/>
					<g>
						<g>
							<g>
								<path fill="#21D8DE" d="M513.91,430.407c-0.001,0.221-0.181,0.336-0.402,0.255l-16.483-5.998
									c-0.221-0.081-0.4-0.327-0.4-0.547l-0.001-5.306c0-0.217,0.18-0.333,0.4-0.253l16.483,5.999
									c0.221,0.081,0.402,0.328,0.402,0.547V430.407z"/>
							</g>
							<g>
								<path fill="#E64717" d="M525.093,434.478c0,0.221-0.182,0.334-0.402,0.255l-5.298-1.929c-0.221-0.079-0.4-0.326-0.4-0.547
									v-5.303c0-0.219,0.179-0.335,0.398-0.255l5.3,1.928c0.221,0.081,0.402,0.328,0.402,0.548V434.478z"/>
							</g>
							<g>
								<g>
									<path fill="#F2F9FF" d="M536.274,438.546c0,0.221-0.179,0.337-0.399,0.257l-5.301-1.928
										c-0.217-0.081-0.396-0.326-0.396-0.547v-5.302c0.001-0.22,0.179-0.337,0.396-0.257l5.301,1.928
										c0.221,0.081,0.399,0.327,0.399,0.546V438.546z"/>
								</g>
							</g>
							<g>
								<g>
									<path fill="#F2F9FF" d="M502.724,437.521c0.002,0.219-0.177,0.333-0.396,0.252l-5.303-1.929
										c-0.221-0.081-0.4-0.323-0.4-0.542l-0.001-5.304c0.001-0.22,0.18-0.335,0.4-0.254l5.303,1.93
										c0.22,0.08,0.398,0.324,0.398,0.545L502.724,437.521z"/>
								</g>
							</g>
							<g>
								<g>
									<path fill="#F2F9FF" d="M513.91,441.593c-0.001,0.217-0.181,0.331-0.402,0.25l-5.299-1.928
										c-0.221-0.081-0.4-0.325-0.4-0.543v-5.304c-0.001-0.221,0.179-0.333,0.4-0.254l5.299,1.928
										c0.221,0.081,0.402,0.326,0.402,0.547V441.593z"/>
								</g>
							</g>
							<g>
								<g>
									<path fill="#F2F9FF" d="M525.092,445.662c0.001,0.219-0.181,0.333-0.401,0.254l-5.298-1.929
										c-0.221-0.081-0.401-0.327-0.401-0.545l0.002-5.302c0-0.221,0.179-0.335,0.398-0.255l5.3,1.929
										c0.221,0.081,0.402,0.325,0.402,0.546L525.092,445.662z"/>
								</g>
							</g>
							<g>
								<g>
									<path fill="#F2F9FF" d="M536.274,449.733c0,0.218-0.179,0.333-0.398,0.253l-5.301-1.929
										c-0.22-0.081-0.396-0.324-0.396-0.542v-5.303c0-0.221,0.179-0.336,0.396-0.256l5.301,1.928
										c0.221,0.081,0.399,0.324,0.399,0.545V449.733z"/>
								</g>
							</g>
							<g>
								<g>
									<path fill="#F2F9FF" d="M502.724,448.703c0,0.22-0.177,0.336-0.396,0.256l-5.303-1.932c-0.221-0.08-0.4-0.324-0.4-0.543
										v-5.303c0-0.22,0.179-0.334,0.4-0.254l5.303,1.93c0.22,0.08,0.396,0.324,0.398,0.543L502.724,448.703z"/>
								</g>
							</g>
							<g>
								<g>
									<path fill="#F2F9FF" d="M513.91,452.774c0,0.22-0.181,0.335-0.402,0.254l-5.299-1.929c-0.221-0.079-0.4-0.327-0.4-0.546
										v-5.301c0-0.222,0.18-0.333,0.4-0.253l5.299,1.928c0.221,0.081,0.402,0.325,0.402,0.546V452.774z"/>
								</g>
							</g>
							<g>
								<path fill="#20364D" d="M525.093,456.846c-0.001,0.219-0.182,0.333-0.402,0.254l-5.3-1.929c-0.219-0.08-0.4-0.326-0.4-0.546
									v-5.302c0-0.221,0.18-0.333,0.4-0.254l5.3,1.93c0.22,0.079,0.401,0.325,0.402,0.545V456.846z"/>
							</g>
							<g>
								<g>
									<path fill="#F2F9FF" d="M502.725,459.886c0,0.222-0.178,0.334-0.398,0.255l-5.303-1.931c-0.221-0.081-0.4-0.321-0.4-0.545
										v-5.298c0-0.22,0.179-0.338,0.4-0.257l5.303,1.93c0.22,0.08,0.398,0.327,0.398,0.546V459.886z"/>
								</g>
							</g>
							<g>
								<g>
									<path fill="#F2F9FF" d="M513.91,463.958c0,0.222-0.181,0.333-0.402,0.252l-5.299-1.928c-0.221-0.079-0.4-0.323-0.4-0.543
										l-0.001-5.301c0-0.221,0.18-0.335,0.4-0.256l5.299,1.929c0.221,0.08,0.402,0.327,0.402,0.548V463.958z"/>
								</g>
							</g>
							<g>
								<g>
									<path fill="#20364D" d="M525.093,468.028c0,0.222-0.181,0.333-0.402,0.253l-5.3-1.929c-0.219-0.08-0.398-0.321-0.398-0.544
										l-0.002-5.299c0.002-0.22,0.18-0.336,0.4-0.257l5.3,1.929c0.221,0.081,0.402,0.329,0.402,0.549V468.028z"/>
								</g>
							</g>
							<g>
								<path fill="#20364D" d="M536.274,472.098c0,0.222-0.179,0.333-0.399,0.253l-5.301-1.928
									c-0.217-0.08-0.396-0.321-0.396-0.544v-5.298c0-0.22,0.179-0.336,0.396-0.258l5.301,1.929c0.22,0.08,0.399,0.327,0.4,0.548
									L536.274,472.098z"/>
							</g>
							<g>
								<path fill="#20364D" d="M536.274,460.914c0,0.221-0.178,0.336-0.399,0.255l-5.301-1.928
									c-0.217-0.08-0.396-0.325-0.396-0.544v-5.304c0-0.219,0.179-0.334,0.396-0.254l5.301,1.928
									c0.22,0.081,0.399,0.325,0.4,0.545L536.274,460.914z"/>
							</g>
						</g>
					</g>
					<path fill="#365772" d="M541.022,409.926c0-0.589-0.225-1.255-0.672-1.866c-0.448-0.612-1.033-1.047-1.62-1.262l-44.898-16.341
						c-0.589-0.215-1.175-0.204-1.62,0.082c-0.45,0.285-0.674,0.789-0.675,1.376l0.001,19.734l49.484,18.009L541.022,409.926z"/>
					<path fill="#2F4F6B" d="M497.024,409.686c-0.36-0.131-0.701-0.396-0.955-0.744c-0.257-0.349-0.398-0.738-0.398-1.101V396.44
						c0-0.36,0.141-0.649,0.398-0.81c0.254-0.162,0.595-0.182,0.955-0.05l38.851,14.141c0.364,0.133,0.707,0.4,0.96,0.75
						c0.251,0.342,0.393,0.735,0.393,1.093v11.403c0,0.363-0.142,0.649-0.396,0.811c-0.251,0.163-0.594,0.18-0.958,0.048
						L497.024,409.686z"/>
					<path fill="#FF959D" d="M497.024,396.534c-0.101-0.039-0.204-0.036-0.282,0.013c-0.078,0.051-0.118,0.138-0.118,0.241v11.402
						c0,0.098,0.04,0.217,0.118,0.323c0.078,0.108,0.18,0.184,0.281,0.221l38.851,14.141c0.103,0.038,0.204,0.035,0.283-0.015
						c0.078-0.05,0.117-0.141,0.116-0.239l0.001-11.402c-0.001-0.101-0.039-0.218-0.117-0.326c-0.078-0.104-0.18-0.18-0.283-0.218
						L497.024,396.534z"/>
					<polygon fill="#2F4F6B" points="541.024,429.658 491.539,411.649 491.538,410.695 541.022,428.706 					"/>
				</g>
				<polyline fill="#2F4F6B" points="541.024,429.658 545.156,428.55 545.156,427.619 541.024,428.768 				"/>
			</g>
		</g>
		<g id="tablet__x2B__table">
			<g>
				<g>
					<g>
						<g>
							<g>
								<path fill="#D63A24" d="M458.606,106.519V16.053c0-2.056,1.668-3.116,3.723-2.368l123.658,45.39
									c2.061,0.75,3.722,3.022,3.722,5.077v90.467L458.606,106.519z"/>
								<polyline fill="#D63A24" points="589.708,154.618 585.075,157.959 575.898,154.618 586.477,148.159 								"/>
								<polyline fill="#D63A24" points="459.597,13.891 455.261,17.051 462.054,19.431 464.693,16.791 								"/>
								<path fill="#F6754B" d="M453.972,109.86V19.393c0-2.055,1.669-3.116,3.724-2.368l123.656,45.389
									c2.061,0.751,3.723,3.023,3.723,5.079v90.466L453.972,109.86z"/>
								<polygon fill="#FFFFFF" points="578.954,149.556 578.954,67.359 460.096,23.716 460.096,105.914 								"/>
							</g>
						</g>
					</g>
				</g>
				<g>
					<g>
						<g>
							<path fill-rule="evenodd" clip-rule="evenodd" fill="#DA393C" d="M519.819,68.865c0.08-1.46-0.3-2.875-0.909-4.076
								c0.895,1.17,1.678,2.327,1.544,4.202c3.615-1.268-0.807-6.18-2.828-8.091C515.539,63.219,516.708,67.12,519.819,68.865
								L519.819,68.865z"/>
							<path fill-rule="evenodd" clip-rule="evenodd" fill="#DA393C" d="M497.14,61.93c0.818,2.661,3.568,6.657,6.926,5.837
								c-0.578-1.081-1.906-1.923-2.771-2.623c1.729,0.72,2.018,1.179,3.287,2.244C503.957,63.253,500.938,62.816,497.14,61.93
								L497.14,61.93z"/>
							<path fill-rule="evenodd" clip-rule="evenodd" fill="#DA393C" d="M523.987,68.751c0.628-0.772,1.229-1.444,2.866-1.463
								c-0.775,0.31-1.862,1.157-2.289,2.055c3.745,1.87,5.257-0.309,5.125-3.53C526.498,64.988,522.788,64.675,523.987,68.751
								L523.987,68.751z"/>
							<path fill-rule="evenodd" clip-rule="evenodd" fill="#DA393C" d="M502.56,83.123c2.307,1.745,5.856,4.518,6.905,1.655
								c-1.063,0.121-2.155,0.016-3.741-0.976c0.864,0.211,2.62,0.859,3.421,0.314c-0.694-1.151-2.222-2.093-3.718-2.158
								C504.02,81.925,503.593,82.554,502.56,83.123L502.56,83.123z"/>
							<path fill-rule="evenodd" clip-rule="evenodd" fill="#DA393C" d="M498.531,69.816c1.938,2.64,5.793,3.683,6.588,1.619
								c-0.98-0.551-2.275-1.003-3.685-1.17c0.976-0.264,2.128,0.08,3.655,0.671C502.773,67.859,500.503,67.887,498.531,69.816
								L498.531,69.816z"/>
							<path fill-rule="evenodd" clip-rule="evenodd" fill="#DA393C" d="M531.741,91.128c1.465-0.19,2.587,0.169,3.596,0.84
								c-1.151-0.399-2.331-0.563-3.449-0.244c1.796,3.076,5.585,1.953,6.208,0.232c-0.894-0.546-2.163-1.693-3.575-2.106
								C532.796,89.431,531.88,90.041,531.741,91.128L531.741,91.128z"/>
							<path fill-rule="evenodd" clip-rule="evenodd" fill="#DA393C" d="M497.732,77.056c0.985,1.692,4.394,5.227,6.682,3.145
								c-1.154-0.942-2.564-1.544-3.774-1.827c1.178-0.215,2.646,0.326,3.743,1.354C502.642,76.159,499.654,76.33,497.732,77.056
								L497.732,77.056z"/>
							<path fill-rule="evenodd" clip-rule="evenodd" fill="#DA393C" d="M526.883,90.881c0.865,0.752,1.85,2.038,3.116,2.612
								c-1.612-0.214-2.278-1.437-3.488-2.155c0.908,3.371,4.129,4.099,5.909,3.89C531.514,91.858,528.115,90.197,526.883,90.881
								L526.883,90.881z"/>
							<path fill-rule="evenodd" clip-rule="evenodd" fill="#DA393C" d="M528.549,79.216c1.035-0.106,1.952-0.554,3.277-0.092
								c-0.979-0.171-2.585,0.158-2.725,1.028c3.17,1.929,4.717,0.684,5.251-1.558C531.3,77.386,528.708,76.212,528.549,79.216
								L528.549,79.216z"/>
							<path fill-rule="evenodd" clip-rule="evenodd" fill="#DA393C" d="M522.596,72.52C522.596,72.52,522.596,72.547,522.596,72.52
								c1.867-0.178,3.541,1.171,3.541,1.171c-1.296-0.586-2.474-0.832-3.221-0.538c1.478,2.443,4.839,2.355,5.606,0.578
								C526.101,72.187,523.446,70.014,522.596,72.52L522.596,72.52z"/>
							<path fill-rule="evenodd" clip-rule="evenodd" fill="#DA393C" d="M508.131,70.242c0.137-1.06-0.357-2.354-0.706-3.377
								c0.749,0.818,1.302,2.052,1.539,3.468c1.628-2.218-0.799-4.632-2.789-6.369C504.95,66.195,505.447,68.357,508.131,70.242
								L508.131,70.242z"/>
							<path fill-rule="evenodd" clip-rule="evenodd" fill="#DA393C" d="M507.196,61.278c0.893,0.356,1.904,1.3,2.654,2.308
								c-0.243-2.612-2.23-3.616-4.878-4.43c0.531,2.88,1.95,4.785,4.451,4.841C509.451,63.98,508.378,62.094,507.196,61.278
								L507.196,61.278z"/>
							<path fill-rule="evenodd" clip-rule="evenodd" fill="#DA393C" d="M521.566,79.241c0.687-0.533,1.663-0.931,2.726-0.783
								c-0.948,0.111-1.664,0.607-2.147,1.566c2.91,1.209,3.967,0.244,4.242-2.256C523.535,76.688,521.724,76.508,521.566,79.241
								L521.566,79.241z"/>
							<path fill-rule="evenodd" clip-rule="evenodd" fill="#DA393C" d="M513.867,62.142c-0.523-1.142-0.699-1.912-0.503-3.194
								c0.352,1.539,0.643,2.541,1.05,3.288c2.266-0.79,0.15-4.445-1.551-5.696C512.094,58.261,510.811,60.146,513.867,62.142
								L513.867,62.142z"/>
							<path fill-rule="evenodd" clip-rule="evenodd" fill="#DA393C" d="M529.024,88.255c0.345-0.279,0.943-1.224,2.322-1.337
								c-0.887,0.539-1.431,1.369-1.715,1.887c2.62,0.859,3.82-0.433,3.115-3.268C530.334,85.486,528.578,85.109,529.024,88.255
								L529.024,88.255z"/>
							<path fill-rule="evenodd" clip-rule="evenodd" fill="#DA393C" d="M513.81,68.137c0.456-0.752,0.194-1.689-0.33-2.831
								c1.011,1.186,1.074,2.076,1.051,3.097c2.377-1.724-0.363-3.521-2.213-5.804C511.551,64.648,511.559,66.358,513.81,68.137
								L513.81,68.137z"/>
							<path fill-rule="evenodd" clip-rule="evenodd" fill="#DA393C" d="M532.862,73.679c-0.256,0.8-1.231,1.063-2.294,1.024
								c0.433,0.431,1.472,1.139,2.563,0.811c0.801-0.301,1.199-1.455,1.106-2.817c-2.272-0.541-4.084-0.83-4.015,1.444
								C531.228,74.269,532.116,74.081,532.862,73.679L532.862,73.679z"/>
							<path fill-rule="evenodd" clip-rule="evenodd" fill="#DA393C" d="M532.915,84.541c1.676,1.785,3.401,1.96,4.886,0.232
								c-1.414-1.281-5.015-3.343-4.889-0.883c0.891-0.105,2.156,0.146,2.906,0.666C534.982,84.247,533.632,84.156,532.915,84.541
								L532.915,84.541z"/>
							<path fill-rule="evenodd" clip-rule="evenodd" fill="#DA393C" d="M505.839,77.907c0.026-0.64-0.696-1.558-1.648-2.153
								c1.293,0.288,2.106,1.834,2.106,1.834c0.333-2.641-2.513-2.661-4.212-3.613C503.043,76.062,503.856,77.827,505.839,77.907
								L505.839,77.907z"/>
							<path fill-rule="evenodd" clip-rule="evenodd" fill="#DA393C" d="M524.477,86.956c1.527,0.836,2.591,0.414,2.78-1.522
								c-1.21-0.555-3.51-0.889-3.04,0.939c0.459-0.373,1.26-0.593,1.893-0.413C525.478,85.943,524.735,86.347,524.477,86.956
								L524.477,86.956z"/>
							<path fill-rule="evenodd" clip-rule="evenodd" fill="#DA393C" d="M527.188,82.969c0.749,0.141,1.439,0.016,1.81-0.145
								c-0.313,0.318-0.745,0.647-1.692,0.406c1.619,1.897,2.817,0.172,3.214-0.63C528.762,81.329,527.211,81.568,527.188,82.969
								L527.188,82.969z"/>
							<path fill-rule="evenodd" clip-rule="evenodd" fill="#DA393C" d="M534.4,88.37c0.603,0.114,1.12,0.034,1.436-0.094
								c-0.286,0.219-0.572,0.493-1.321,0.298c1.243,1.462,2.186,0.129,2.47-0.471C535.657,87.125,534.422,87.266,534.4,88.37
								L534.4,88.37z"/>
							<path fill-rule="evenodd" clip-rule="evenodd" fill="#DA393C" d="M506.045,72.889c1.039,1.061,2.735,1.226,2.817,0.144
								c-0.518-0.056-1.064-0.148-1.583-0.204c0.374-0.214,0.891-0.268,1.552-0.105C507.503,71.502,506.673,71.791,506.045,72.889
								L506.045,72.889z"/>
							<path fill-rule="evenodd" clip-rule="evenodd" fill="#DA393C" d="M509.498,79.476c0.083-0.539-0.18-1.259-0.413-1.833
								c0.435,0.512,0.724,1.107,0.814,1.899c0.943-1.197-0.385-2.5-1.482-3.447C507.762,77.316,508.057,78.51,509.498,79.476
								L509.498,79.476z"/>
							<path fill-rule="evenodd" clip-rule="evenodd" fill="#DA393C" d="M514.981,72.716c0.517-0.025,0.919-0.229,1.148-0.469
								c-0.172,0.343-0.371,0.676-1.003,0.713c1.414,1.064,1.808-0.525,1.861-1.21C515.664,71.18,514.69,71.661,514.981,72.716
								L514.981,72.716z"/>
							<path fill-rule="evenodd" clip-rule="evenodd" fill="#DA393C" d="M512.988,70.274c-0.635-0.506-1.128-1.202-1.446-1.673
								c0.176,0.553,0.465,1.148,1.273,1.825c-1.781,0.074-2.31-2.343-2.372-3.287C512.17,67.668,513.384,69.201,512.988,70.274
								L512.988,70.274z"/>
							<path fill-rule="evenodd" clip-rule="evenodd" fill="#DA393C" d="M521.78,64.195c0.488-0.607,0.542-1.183,0.42-2.312
								c-0.312,1.024-0.509,1.71-0.852,2.044c-1.878-2.022-0.192-3.757,1.245-3.769C523.236,62.049,524.34,64.435,521.78,64.195
								L521.78,64.195z"/>
							<path fill-rule="evenodd" clip-rule="evenodd" fill="#DA393C" d="M518.971,71.452c-0.291-0.758-0.551-1.152-1.303-1.891
								c0.58,0.92,0.899,1.498,1.016,1.948c-1.67-0.319-2.283-2.55-1.884-3.325C518.039,69.103,519.741,70.11,518.971,71.452
								L518.971,71.452z"/>
							<path fill-rule="evenodd" clip-rule="evenodd" fill="#DA393C" d="M525.75,82.764c-0.282,1.088-1.861,1.292-2.786,0.191
								c0.287-0.192,0.832-0.289,1.465-0.245c-0.548-0.202-1.093-0.268-1.667-0.1C523.157,81.373,524.221,81.631,525.75,82.764
								L525.75,82.764z"/>
						</g>
						<path fill-rule="evenodd" clip-rule="evenodd" fill="#DA393C" d="M523.389,116.939c0.007,1.494-2.517,2.541-5.568,1.414
							c-3.081-1.137-5.595-4.044-5.603-5.538L523.389,116.939z M521.521,116.955l0.836,0.227c-0.771,1.423-2.293,1.62-4.595,0.716
							C519.603,118.498,520.982,118.112,521.521,116.955L521.521,116.955z"/>
						<path fill-rule="evenodd" clip-rule="evenodd" fill="#DA393C" d="M503.911,94.734c1.487,4.153,0.378,6.644,2.31,7.926
							c1.817,1.186,12.206,4.371,17.361,6.409c3.34,1.316,1.298-4.562,5.106-7.412c-4.362,1.046-3.667,7.998-7.138,3.789
							c-2.138-2.605-1.489-4.913-1.703-7.675c-0.459-5.645,4.639-9.321,8.812-8.159c-3.717-1.806-4.684,0.033-6.552-0.142
							l-0.518-0.029c0.397-1.1,2.035-0.74,2.06-1.733c-0.741,0.81-2.096,0.337-3.128,0.716c-0.23,0.104-0.334-3.349,1.987-4.877
							c-0.459,0.264-1.089,0.6-1.376,0.821c-2.405,1.957-0.699,4.025-2.578,7.749c2.23-8.421-2.886-14.293,4.573-16.988
							c0.372-0.161-0.922-0.15-1.41-0.141c-1.465,0.191-2.581,1.162-2.582,0.998c-0.078-4.203,2.483-3.556,3.529-7.073
							c-1.971,2.282-3.834,3.003-4.916,5.314c-0.683,1.456-0.788,3.531-0.953,5.286c-0.143-0.16-0.009-1.927-0.152-2.062
							c-3.437-3.275-2.451-7.546-2.451-7.546c-1.032,0.406-0.184,3.592-1.246,3.824c-0.431,0.084-5.736-3.473-7.001-3.778
							c1.357,1.477,7.606,3.918,8.778,8.716c0.206,0.863-4.346-1.496-4.346-1.496c1.529,1.486,4.756,2.677,4.909,4.929
							c0.187,2.888,0.231,5.886-0.882,7.536c0,0,1.363-3.185-1.091-5.499c-1.819-1.755-1.289-4.759-1.289-4.759
							c-0.914,0.829-0.27,2.936-0.703,2.506c-1.041-1.09-1.848-1.577-2.74-1.906c2.103,1.183,6.417,7.79,3.098,4.802
							c-2.539-2.265-3.084-2.033-5.196-4.845c1.306,2.678,3.784,3.972,5.262,6.523c1.13,1.908,2.785,5.339,2.682,7.604
							c-0.025,0.75-0.166,1.565-0.046,2.477c0.12,0.912-1.076-2.457-1.101-2.06c-0.027,0.505,1.143,4.542,0.658,5.638
							c-0.82,2.487-0.53,3.11-4.502,1.78c-3.397-1.172-2.266-4.903-4.126-9.004c-4.096-9.047-11.528-12.741-11.591-25.666
							c1.59-27.494,46.056-14.008,47.267,16.201c0.498,13.141-9.447,12.775-12.848,22.958c-1.443,4.32-0.315,6.01-4.115,4.553
							l-2.132-0.787l-16.238-5.994l0.011,2.171l2.031,3.868l19.233,7.1l1.629-1.622l-19.664-7.258l-0.351-1.025l20.328,7.504
							l0.569-1.172c0.717-17.38,16.809-12.308,14.102-30.791c0.798,16.178-13.152,13.984-15.49,29.114
							c-0.056,0.277,0.467-4.274,2.063-7.181c2.904-5.298,9.009-8.439,11.567-14.623c5.195-12.529-8.608-32.532-24.444-38.269
							c-14.309-5.282-25.917,1.167-25.852,14.391C491.457,80.92,499.628,82.879,503.911,94.734L503.911,94.734z M515.838,77.181
							c-1.56-1.66-2.489-3.44-1.83-3.982C513.694,73.76,515.231,76.387,515.838,77.181L515.838,77.181z M518.493,79.489
							c-0.153-1.791,1.077-3.072,1.51-2.695C519.255,76.707,518.576,78.76,518.493,79.489L518.493,79.489z M495.75,77.626
							c-7.861-14.91,0.844-27.553,14.647-25.601C497.285,50.356,488.75,62.141,495.75,77.626L495.75,77.626z M520.486,105.135
							c-0.842-2.127-1.514-4.273-1.151-6.551C518.357,98.956,518.947,102.072,520.486,105.135L520.486,105.135z M514.082,88.378
							c-0.177-0.906,0.545-0.314,0.189-2.587C514.827,87.785,514.167,87.921,514.082,88.378L514.082,88.378z M518.284,89.657
							c0.084-0.374,0.111-0.745,0.138-1.114c0.219-2.278-0.184-2.535-0.452-4.287C519.043,86.115,518.736,87.9,518.284,89.657
							L518.284,89.657z"/>
					</g>
					<polygon fill-rule="evenodd" clip-rule="evenodd" fill="none" points="564.771,146.581 464.806,109.681 464.368,20.154 
						564.333,57.054 					"/>
				</g>
			</g>
			<g>
				<g id="ipad">
					<g>
						<g>
							<path fill="#DCDCDC" d="M502.999,88.991v72.439c0,2.917,2.369,6.143,5.286,7.204l95.363,34.709
								c2.911,1.058,5.276-0.443,5.276-3.361v-72.438c0-2.911-2.365-6.136-5.276-7.196l-95.363-34.709
								C505.368,84.578,502.999,86.078,502.999,88.991z"/>
							<polyline fill="#DCDCDC" points="505.146,85.529 499.783,87.62 502.457,88.948 509.113,88.948 							"/>
							<polyline fill="#DCDCDC" points="602.202,205.168 606.989,203.362 605.628,198.894 600.282,201.291 							"/>
							<path fill="#F1F2F2" d="M498.233,90.787v72.439c0,2.917,2.369,6.142,5.285,7.204l95.363,34.709
								c2.912,1.058,5.276-0.443,5.276-3.361V129.34c0-2.911-2.364-6.136-5.276-7.196l-95.363-34.709
								C500.602,86.373,498.233,87.874,498.233,90.787z"/>
							<path fill="#2C465F" d="M601.463,164.58c0,1.172-0.95,1.779-2.124,1.352c-1.176-0.428-2.119-1.725-2.119-2.895
								c0-1.172,0.943-1.783,2.119-1.355C600.513,162.107,601.463,163.408,601.463,164.58z"/>
							<path fill="#2C465F" d="M505.716,129.731c0,0.66-0.538,1.001-1.199,0.76c-0.662-0.241-1.194-0.971-1.194-1.631
								c0-0.661,0.532-1.005,1.194-0.763C505.178,128.338,505.716,129.07,505.716,129.731z"/>
							<polygon fill="#DA393C" points="593.922,129.757 593.922,193.916 508.473,162.815 508.473,98.657 							"/>
							<g>
								<polygon fill="#F1F2F2" points="535.279,141.169 511.773,132.613 511.773,109.428 535.279,117.983 								"/>
								<polygon fill="#F1F2F2" points="590.621,143.196 542.122,125.544 542.122,120.474 590.621,138.126 								"/>
								<polygon fill="#F1F2F2" points="590.621,151.864 542.122,134.211 542.122,128.817 590.621,146.469 								"/>
								<polygon fill="#F1F2F2" points="590.621,160.531 542.122,142.879 542.122,137.485 590.621,155.137 								"/>
								<polygon fill="#F1F2F2" points="590.621,168.773 511.773,140.076 511.773,136.659 590.621,165.358 								"/>
								<polygon fill="#F1F2F2" points="590.621,176.673 511.773,147.975 511.773,144.558 590.621,173.256 								"/>
								<polygon fill="#F1F2F2" points="590.621,183.144 511.773,154.446 511.773,151.029 590.621,179.728 								"/>
							</g>
						</g>
					</g>
				</g>
				<path opacity="0.1" fill="#FFFFFF" d="M503.518,87.435c-2.916-1.061-5.285,0.439-5.285,3.352v58.118l71.206-37.477
					L503.518,87.435z"/>
			</g>
		</g>
		<g id="pc">
			<g>
				<g>
					<g>
						<g>
							<path fill="#E6E7E8" d="M266.787,175.915l-50.605,18.418c-1.283,0.467-2.324,2.066-2.324,3.577v1.026l55.253-20.11V177.8
								C269.11,176.288,268.069,175.447,266.787,175.915z"/>
							<polyline fill="#E6E7E8" points="213.857,198.935 215.543,199.988 218.006,197.048 							"/>
							<path fill="#E6E7E8" d="M162.361,183.523v10.874c0,2.095,1.691,3.17,3.788,2.408l144.61-52.634
								c2.09-0.761,3.788-3.071,3.788-5.164v-10.875L162.361,183.523z"/>
							<polyline fill="#E6E7E8" points="163.618,196.753 168.233,199.988 173.306,194.199 							"/>
							<path fill="#0A222B" d="M314.548,128.021V35.959c0-2.091-1.698-3.171-3.788-2.409L166.15,86.184
								c-2.098,0.763-3.788,3.075-3.788,5.167v92.062L314.548,128.021z"/>
							<polyline fill="#0A222B" points="162.361,183.412 167.077,186.812 176.416,183.412 165.651,176.838 							"/>
							<polyline fill="#0A222B" points="313.54,33.759 317.952,36.975 311.039,39.397 308.353,36.711 							"/>
							<path fill="#314754" d="M225.476,173.231c-1.608,7.163-3.219,14.326-4.825,21.489c15.013-5.465,30.023-10.928,45.039-16.394
								c-1.609-5.994-3.219-11.983-4.827-17.974C249.067,164.646,237.277,168.938,225.476,173.231z"/>
							<path fill="#FFFFFF" d="M268.472,176.967l-50.605,18.419c-1.283,0.466-2.324,2.064-2.324,3.577v1.025l55.253-20.11v-1.025
								C270.796,177.341,269.755,176.501,268.472,176.967z"/>
							<path fill="#FFFFFF" d="M167.077,186.812v10.874c0,2.094,1.691,3.17,3.788,2.406l144.609-52.633
								c2.091-0.761,3.789-3.071,3.789-5.164v-10.874L167.077,186.812z"/>
							<path fill="#0E303F" d="M319.263,131.421V39.36c0-2.092-1.698-3.172-3.789-2.411L170.865,89.582
								c-2.097,0.765-3.788,3.077-3.788,5.169v92.062L319.263,131.421z"/>
							<polygon fill="#DA393C" points="173.306,178.262 173.306,94.614 313.032,43.758 313.032,127.406 							"/>
						</g>
					</g>
				</g>
				<polygon fill="#0E303F" points="220.73,194.372 217.529,193.863 220.158,182.152 223.767,180.838 				"/>
			</g>
			<g>
				
					<text transform="matrix(1 -0.364 0 1 210.5646 106.9813)" fill="#FFFFFF" font-family="'TeXGyreAdventor-Bold'" font-size="24.0621" letter-spacing="-0.94">Galtec</text>
				<polygon fill="#FFFFFF" points="288.049,88.646 194.919,122.542 194.919,115.878 288.049,81.981 				"/>
				<g>
					<g>
						<polygon fill="#FFFFFF" points="288.049,94.412 210.564,122.615 210.564,121.077 288.049,92.875 						"/>
					</g>
					<polygon fill="#FFFFFF" points="202.742,127.514 194.919,130.36 194.919,124.977 202.742,122.131 					"/>
				</g>
				<g>
					<g>
						<polygon fill="#FFFFFF" points="288.049,103.256 210.564,131.458 210.564,129.92 288.049,101.718 						"/>
					</g>
					<polygon fill="#FFFFFF" points="202.742,136.357 194.919,139.204 194.919,133.821 202.742,130.974 					"/>
				</g>
				<g>
					<g>
						<polygon fill="#FFFFFF" points="288.049,112.1 210.564,140.302 210.564,138.764 288.049,110.562 						"/>
					</g>
					<polygon fill="#FFFFFF" points="202.742,145.201 194.919,148.048 194.919,142.664 202.742,139.818 					"/>
				</g>
				<g>
					<g>
						<polygon fill="#FFFFFF" points="288.049,120.943 210.564,149.145 210.564,147.607 288.049,119.405 						"/>
					</g>
					<polygon fill="#FFFFFF" points="202.742,154.044 194.919,156.891 194.919,151.508 202.742,148.661 					"/>
				</g>
				<polygon fill="#FFFFFF" points="288.049,134.017 194.919,167.914 194.919,161.249 288.049,127.352 				"/>
			</g>
		</g>
	</g>
</g>
</svg>
