<?xml version="1.0" encoding="utf-8"?>
<!-- Generator: Adobe Illustrator 17.0.0, SVG Export Plug-In . SVG Version: 6.00 Build 0)  -->
<!DOCTYPE svg PUBLIC "-//W3C//DTD SVG 1.1//EN" "http://www.w3.org/Graphics/SVG/1.1/DTD/svg11.dtd">
<svg version="1.1" id="Layer_1" xmlns="http://www.w3.org/2000/svg" xmlns:xlink="http://www.w3.org/1999/xlink" x="0px" y="0px"
	 width="432.096px" height="305.097px" viewBox="0 0 432.096 305.097" enable-background="new 0 0 432.096 305.097"
	 xml:space="preserve">
<g>
	<rect x="92.736" y="-11.322" fill-rule="evenodd" clip-rule="evenodd" fill="none" width="253.333" height="316.667"/>
	<g>
		<g>
			<g>
				<path fill-rule="evenodd" clip-rule="evenodd" fill="#DB1F26" d="M226.565,61.782c0.28-4.997-0.914-9.269-2.842-12.543
					c2.842,2.815,5.328,5.727,4.868,12.179c11.577-8.727-2.482-19.723-8.915-23.63C212.972,48.146,216.646,59.782,226.565,61.782
					L226.565,61.782z"/>
				<path fill-rule="evenodd" clip-rule="evenodd" fill="#DB1F26" d="M154.176,66.599c2.573,7.909,11.3,17.907,22.047,11
					c-1.832-2.909-6.064-4.089-8.816-5.365c5.516,0.273,6.431,1.458,10.472,3.455C175.948,62.599,166.303,64.87,154.176,66.599
					L154.176,66.599z"/>
				<path fill-rule="evenodd" clip-rule="evenodd" fill="#DB1F26" d="M239.892,56.239c2.018-3.364,3.951-6.364,9.185-8.453
					c-2.481,1.998-5.969,6.183-7.349,9.725c11.943,1.636,16.81-7.545,16.439-18.182C247.977,40.514,236.123,44.056,239.892,56.239
					L239.892,56.239z"/>
				<path fill-rule="evenodd" clip-rule="evenodd" fill="#DB1F26" d="M171.172,130.954c7.348,2.997,18.648,7.902,22.048-2.999
					c-3.4,1.723-6.888,2.722-11.944,1.359c2.759-0.361,8.361-0.361,10.931-3.182c-2.202-3-7.071-4.269-11.85-2.636
					C175.857,125.133,174.482,127.768,171.172,130.954L171.172,130.954z"/>
				<path fill-rule="evenodd" clip-rule="evenodd" fill="#DB1F26" d="M158.499,91.321c6.153,6.455,18.462,5.18,21.036-2.726
					c-3.124-0.634-7.257-0.546-11.763,0.638c3.123-2.093,6.801-2.366,11.672-2.275C172.09,79.508,164.834,82.413,158.499,91.321
					L158.499,91.321z"/>
				<path fill-rule="evenodd" clip-rule="evenodd" fill="#DB1F26" d="M264.328,121.677c4.688-2.45,8.267-2.635,11.482-1.633
					c-3.674,0.087-7.444,0.999-11.022,3.452c5.693,8.092,17.823-0.364,19.842-6.907c-2.85-0.725-6.887-3-11.394-2.636
					C267.726,114.682,264.788,117.861,264.328,121.677L264.328,121.677z"/>
				<path fill-rule="evenodd" clip-rule="evenodd" fill="#DB1F26" d="M155.831,116.589c3.122,4.454,13.963,12.09,21.312,2.275
					c-3.674-1.729-8.172-2.002-12.036-1.455c3.768-2.18,8.452-2.18,11.944-0.091C171.541,107.502,161.988,111.773,155.831,116.589
					L155.831,116.589z"/>
				<path fill-rule="evenodd" clip-rule="evenodd" fill="#DB1F26" d="M248.801,126.864c2.754,1.45,5.883,4.542,9.92,4.903
					c-5.148,1.276-7.259-1.998-11.116-2.909c2.85,10.181,13.134,8.634,18.829,5.729
					C263.591,124.407,252.751,123.045,248.801,126.864L248.801,126.864z"/>
				<path fill-rule="evenodd" clip-rule="evenodd" fill="#DB1F26" d="M254.311,85.687c3.31-1.638,6.247-4.272,10.476-4.363
					c-3.128,0.638-8.267,3.728-8.726,6.819c10.104,2.545,15.067-3.545,16.81-11.725C263.133,76.144,254.865,75.415,254.311,85.687
					L254.311,85.687z"/>
				<path fill-rule="evenodd" clip-rule="evenodd" fill="#DB1F26" d="M235.386,70.6C235.386,70.6,235.386,70.691,235.386,70.6
					c5.971-2.908,11.299-0.455,11.299-0.455c-4.133-0.361-7.895,0.273-10.286,2.183c4.687,6.361,15.433,1.907,17.913-5.001
					C246.596,65.147,238.142,61.144,235.386,70.6L235.386,70.6z"/>
				<path fill-rule="evenodd" clip-rule="evenodd" fill="#DB1F26" d="M189.183,80.868c0.454-3.725-1.105-7.45-2.205-10.45
					c2.383,1.815,4.13,5.27,4.865,9.725c5.238-9.451-2.482-14.543-8.817-17.904C179.075,71.234,180.631,77.868,189.183,80.868
					L189.183,80.868z"/>
				<path fill-rule="evenodd" clip-rule="evenodd" fill="#DB1F26" d="M186.332,51.967c2.85,0.087,6.065,2.002,8.449,4.454
					c-0.737-8.457-7.071-9.365-15.525-8.818c1.651,8.999,6.158,13.633,14.151,10.723C193.498,58.235,190.098,53.239,186.332,51.967
					L186.332,51.967z"/>
				<path fill-rule="evenodd" clip-rule="evenodd" fill="#DB1F26" d="M231.989,94.413c2.203-2.636,5.331-5.18,8.726-6
					c-3.033,1.546-5.329,4.094-6.889,7.91c9.282,0.452,12.678-4.093,13.595-12.815C238.323,83.415,232.537,85.052,231.989,94.413
					L231.989,94.413z"/>
				<path fill-rule="evenodd" clip-rule="evenodd" fill="#DB1F26" d="M207.643,46.605c-1.654-3.181-2.204-5.547-1.559-10.089
					c1.1,4.727,2.016,7.723,3.306,9.725c7.256-5.453,0.55-15.091-4.87-17.18C202.037,35.787,197.905,43.696,207.643,46.605
					L207.643,46.605z"/>
				<path fill-rule="evenodd" clip-rule="evenodd" fill="#DB1F26" d="M255.689,115.408c1.108-1.364,3.032-5.27,7.444-7.359
					c-2.842,2.906-4.595,6.361-5.512,8.449c8.362-0.363,12.219-6.181,10.009-14.813
					C259.918,104.503,254.311,105.409,255.689,115.408L255.689,115.408z"/>
				<path fill-rule="evenodd" clip-rule="evenodd" fill="#DB1F26" d="M207.367,66.78c1.469-3.087,0.645-5.905-1.009-9.086
					c3.215,2.726,3.401,5.63,3.31,9.086c7.624-8.723-1.105-11.357-6.984-16.722C200.201,57.876,200.201,63.601,207.367,66.78
					L207.367,66.78z"/>
				<path fill-rule="evenodd" clip-rule="evenodd" fill="#DB1F26" d="M268.183,61.782c-0.831,3-3.953,5.089-7.349,6.273
					c1.379,0.908,4.687,1.998,8.181-0.455c2.564-2.001,3.855-6.364,3.579-10.815c-7.254,0.999-13.043,2.271-12.858,9.813
					C262.95,65.782,265.793,64.053,268.183,61.782L268.183,61.782z"/>
				<path fill-rule="evenodd" clip-rule="evenodd" fill="#DB1F26" d="M268.183,98.138c5.329,3.911,10.84,2.364,15.616-5.272
					c-4.499-2.545-15.98-5.001-15.616,3.092c2.85-1.455,6.891-2.181,9.28-1.363C274.795,94.595,270.48,95.959,268.183,98.138
					L268.183,98.138z"/>
				<path fill-rule="evenodd" clip-rule="evenodd" fill="#DB1F26" d="M181.735,109.408c0.093-2.179-2.201-4.364-5.234-5.179
					c4.13-0.635,6.703,3.542,6.703,3.542c1.105-9.268-7.993-5.813-13.409-6.903C172.827,106.681,175.397,111.591,181.735,109.408
					L181.735,109.408z"/>
				<path fill-rule="evenodd" clip-rule="evenodd" fill="#DB1F26" d="M241.173,116.68c4.87,0.911,8.275-1.819,8.91-8.544
					c-3.858-0.365-11.207,1.363-9.732,6.911c1.473-1.819,4.037-3.547,6.057-3.728C244.388,112.043,242.005,114.318,241.173,116.68
					L241.173,116.68z"/>
				<path fill-rule="evenodd" clip-rule="evenodd" fill="#DB1F26" d="M249.9,99.957c2.392-0.456,4.6-1.728,5.789-2.726
					c-1.005,1.454-2.391,3.09-5.414,3.455c5.145,4.359,9.001-2.909,10.284-6.09C254.96,92.506,249.996,95.229,249.9,99.957
					L249.9,99.957z"/>
				<path fill-rule="evenodd" clip-rule="evenodd" fill="#DB1F26" d="M272.871,109.138c1.924-0.364,3.581-1.272,4.592-2.092
					c-0.917,1.089-1.836,2.362-4.228,2.636c3.952,3.364,6.984-2.271,7.904-4.638C276.91,103.408,272.958,105.409,272.871,109.138
					L272.871,109.138z"/>
				<path fill-rule="evenodd" clip-rule="evenodd" fill="#DB1F26" d="M182.472,92.324c3.305,2.271,8.725,0.726,9.003-3.003
					c-1.656,0.455-3.398,0.819-5.056,1.275c1.198-1.182,2.851-2.001,4.964-2.275C187.155,85.869,184.495,87.866,182.472,92.324
					L182.472,92.324z"/>
				<path fill-rule="evenodd" clip-rule="evenodd" fill="#DB1F26" d="M193.408,110.138c0.272-1.911-0.555-4-1.291-5.635
					c1.382,1.179,2.297,2.816,2.572,5.361c3.033-5.18-1.191-7.906-4.684-9.725C187.892,105.044,188.815,108.683,193.408,110.138
					L193.408,110.138z"/>
				<path fill-rule="evenodd" clip-rule="evenodd" fill="#DB1F26" d="M211.041,80.685c1.654-0.725,2.942-1.906,3.678-2.995
					c-0.555,1.362-1.196,2.726-3.216,3.633c4.503,1.819,5.788-3.999,5.967-6.36C213.247,74.689,210.126,77.507,211.041,80.685
					L211.041,80.685z"/>
				<path fill-rule="evenodd" clip-rule="evenodd" fill="#DB1F26" d="M204.706,74.963c-2.023-0.911-3.586-2.636-4.595-3.821
					c0.553,1.637,1.469,3.274,4.041,4.546c-5.693,2.453-7.348-4.997-7.533-8.087C202.133,67.235,205.989,70.873,204.706,74.963
					L204.706,74.963z"/>
				<path fill-rule="evenodd" clip-rule="evenodd" fill="#DB1F26" d="M232.907,43.696c1.569-2.638,1.75-4.636,1.379-8.273
					c-1.014,3.819-1.655,6.363-2.757,7.91c-5.97-4.455-0.553-12.361,4.039-14.18C237.595,34.696,241.086,41.331,232.907,43.696
					L232.907,43.696z"/>
				<path fill-rule="evenodd" clip-rule="evenodd" fill="#DB1F26" d="M223.813,71.507c-0.918-2.182-1.745-3.181-4.137-4.727
					c1.841,2.366,2.85,3.911,3.219,5.275c-5.333,0.998-7.258-5.727-5.97-8.818C220.872,64.782,226.296,66.054,223.813,71.507
					L223.813,71.507z"/>
				<path fill-rule="evenodd" clip-rule="evenodd" fill="#DB1F26" d="M245.307,101.047c-0.919,3.997-5.97,6.638-8.909,4.09
					c0.921-0.999,2.663-1.998,4.687-2.636c-1.749,0-3.491,0.456-5.328,1.728C237.041,99.592,240.438,99.14,245.307,101.047
					L245.307,101.047z"/>
			</g>
			<path fill-rule="evenodd" clip-rule="evenodd" fill="#DB1F26" d="M237.225,218.568c0,5.001-8.085,11.634-17.82,11.634
				c-9.831,0-17.823-6.634-17.823-11.634H237.225z M231.254,220.934l2.668-0.273c-2.487,5.726-7.355,8.271-14.699,8.088
				C225.098,228.48,229.512,225.479,231.254,220.934L231.254,220.934z"/>
			<path fill-rule="evenodd" clip-rule="evenodd" fill="#DB1F26" d="M175.308,168.218c4.687,12.084,1.103,21.81,7.26,23.72
				c5.79,1.728,38.951-0.452,55.398,0c10.658,0.277,4.221-16.906,16.439-31.176c-13.959,8.907-11.846,31.358-22.876,21.541
				c-6.794-6.089-4.684-14.632-5.324-23.63c-1.378-18.361,14.976-36.997,28.295-38.266c-11.854-1.454-14.972,5.908-20.944,7.636
				l-1.656,0.544c1.285-4.181,6.518-5.001,6.613-8.362c-2.383,3.635-6.707,3.725-10.009,6.273
				c-0.737,0.634-1.014-10.818,6.43-18.815c-1.473,1.454-3.492,3.361-4.41,4.454c-7.717,9.539-2.297,14.361-8.362,29.174
				c7.26-30.996-9.003-44.356,14.885-62.625c1.19-0.998-2.945,0.638-4.506,1.272c-4.686,2.453-8.268,7.09-8.268,6.543
				c-0.184-13.997,7.993-14.996,11.39-28.085c-6.336,10.09-12.305,14.817-15.797,23.904c-2.207,5.727-2.575,12.816-3.129,18.906
				c-0.454-0.36,0-6.452-0.454-6.724c-10.935-6.729-7.717-22.271-7.717-22.271c-3.306,2.638-0.645,12.273-4.043,14.366
				c-1.379,0.815-18.283-4.545-22.322-4.004c4.316,3.274,24.251,3.725,27.924,18.361c0.646,2.638-13.869,0.364-13.869,0.364
				c4.866,3.091,15.16,3.091,15.614,10.453c0.551,9.452,0.646,19.45-2.937,26.36c0,0,4.406-12.367-3.401-17.09
				c-5.788-3.634-4.047-14.363-4.047-14.363c-2.934,3.911-0.91,10.181-2.288,9.274c-3.31-2.366-5.883-3-8.73-3
				c6.704,1.364,20.39,18.178,9.827,12.269c-8.081-4.451-9.827-3-16.534-9.816c4.133,7.363,12.033,8.635,16.719,15.36
				c3.581,5.001,8.82,14.456,8.453,22.179c-0.091,2.545-0.555,5.454-0.186,8.362c0.368,2.909-3.4-6.908-3.488-5.544
				c-0.095,1.727,3.583,13.815,2.016,18.09c-2.661,9.356-1.743,11.085-14.42,11.541c-10.84,0.273-7.166-13.636-13.049-25.084
				c-12.95-25.268-36.651-28.454-36.651-71.716c5.513-94.161,147.445-103.981,150.842-4.18c1.385,43.448-30.399,54.532-41.43,92.888
				c-4.68,16.271-1.1,20.542-13.224,20.361h-6.803h-51.813v7.268l6.431,10.457h61.371l5.233-7.454h-62.745l-1.105-3.003h64.865
				l1.837-4.633c2.564-59.168,53.924-62.077,45.559-120.703c2.297,53.261-42.26,63.171-49.971,116.8
				c-0.184,0.998,1.559-14.908,6.708-26.634c9.366-21.36,28.932-39.449,37.205-63.353C312.92,57.966,269.109,7.975,218.577,8.34
				c-45.657,0-82.865,35.991-82.865,80.255C135.712,137.313,161.803,133.767,175.308,168.218L175.308,168.218z M213.708,94.595
				c-4.962-3.635-7.904-8.454-5.788-11.088C206.911,85.778,211.78,92.685,213.708,94.595L213.708,94.595z M222.161,99.048
				c-0.46-5.817,3.492-11.635,4.87-10.906C224.638,88.778,222.438,96.501,222.161,99.048L222.161,99.048z M149.489,120.952
				c-24.894-40.267,3.128-93.436,47.221-103.977C154.823,27.607,127.354,77.69,149.489,120.952L149.489,120.952z M228.129,182.578
				c-2.659-6.091-4.772-12.455-3.578-20.543C221.422,164.492,223.26,174.212,228.129,182.578L228.129,182.578z M207.92,134.315
				c-0.552-2.818,1.749-1.728,0.645-8.909C210.311,131.406,208.199,132.678,207.92,134.315L207.92,134.315z M221.334,133.403
				c0.276-1.36,0.367-2.635,0.458-3.907c0.737-7.91-0.55-8.271-1.378-13.815C223.814,120.588,222.805,126.951,221.334,133.403
				L221.334,133.403z"/>
			<g>
				<path fill="#DB1F26" d="M146.75,283.825c-2.531,0.909-7.528,2.401-13.434,2.401c-6.619,0-12.07-1.688-16.353-5.775
					c-3.764-3.635-6.1-9.475-6.1-16.289c0.065-13.044,9.021-22.584,23.687-22.584c5.062,0,9.02,1.103,10.903,2.012l-1.363,4.607
					c-2.337-1.038-5.257-1.882-9.67-1.882c-10.643,0-17.587,6.619-17.587,17.587c0,11.097,6.684,17.652,16.873,17.652
					c3.699,0,6.23-0.52,7.528-1.169v-13.044h-8.891v-4.543h14.407V283.825z"/>
				<path fill="#DB1F26" d="M162.456,272.015l-4.543,13.758h-5.84l14.861-43.74h6.814l14.926,43.74h-6.035l-4.673-13.758H162.456z
					 M176.798,267.602l-4.283-12.59c-0.973-2.855-1.623-5.451-2.271-7.982h-0.129c-0.649,2.596-1.363,5.256-2.207,7.918
					l-4.283,12.654H176.798z"/>
				<path fill="#DB1F26" d="M195.1,242.033h5.646v39.002h18.689v4.737H195.1V242.033z"/>
				<path fill="#DB1F26" d="M233.518,250.339h-11.746v-8.307h33.616v8.307h-11.941v35.433h-9.929V250.339z"/>
				<path fill="#DB1F26" d="M286.668,267.277h-16.095v10.383h17.977v8.112h-27.905v-43.74h26.996v8.112h-17.067v9.085h16.095
					V267.277z"/>
				<path fill="#DB1F26" d="M327.423,284.539c-1.816,0.909-5.905,1.883-11.227,1.883c-15.121,0-22.908-9.41-22.908-21.87
					c0-14.926,10.643-23.233,23.882-23.233c5.126,0,9.021,1.039,10.773,1.947l-2.012,7.853c-2.012-0.844-4.803-1.622-8.307-1.622
					c-7.852,0-13.953,4.738-13.953,14.472c0,8.761,5.192,14.276,14.018,14.276c2.985,0,6.295-0.648,8.242-1.428L327.423,284.539z"/>
			</g>
		</g>
	</g>
</g>
</svg>
