<?xml version="1.0" encoding="utf-8"?>
<!-- Generator: Adobe Illustrator 17.0.0, SVG Export Plug-In . SVG Version: 6.00 Build 0)  -->
<!DOCTYPE svg PUBLIC "-//W3C//DTD SVG 1.1//EN" "http://www.w3.org/Graphics/SVG/1.1/DTD/svg11.dtd">
<svg version="1.1" id="Layer_1" xmlns="http://www.w3.org/2000/svg" xmlns:xlink="http://www.w3.org/1999/xlink" x="0px" y="0px"
	 width="146.545px" height="163.161px" viewBox="0 0 146.545 163.161" enable-background="new 0 0 146.545 163.161"
	 xml:space="preserve">
<rect x="-1.634" y="-1.643" display="none" fill="#2283C6" width="149.027" height="165.759"/>
<g>
	<path fill="#DC1F26" d="M39.329,104.087c0.544,1.462,1.88,2.481,3.433,2.617c1.551,0.14,3.049-0.625,3.846-1.971
		c2.352-3.98,6.006-8.456,11.244-10.543c-4.713-10.416-7.514-19.691-9.172-27.236C42.447,71.529,31.506,83.07,39.329,104.087z"/>
	<path fill="#DC1F26" d="M96.721,67.015c-1.662,7.531-4.459,16.796-9.172,27.192c5.199,2.104,8.828,6.563,11.174,10.519
		c0.791,1.349,2.291,2.106,3.84,1.971c1.555-0.143,2.887-1.162,3.43-2.624C113.779,83.166,102.957,71.637,96.721,67.015z"/>
	<path fill="#FFFFFF" d="M94.875,46.525c0.234-23.156-12.41-38.642-18.869-45.036C75.027,0.525,73.705-0.01,72.328,0
		c-1.371,0.014-2.684,0.575-3.644,1.558c-6.26,6.429-18.389,21.893-18.158,44.964c0,0-1.154,21.309,13.336,50.577h8.689h0.303h8.693
		C96.027,67.835,94.875,46.525,94.875,46.525z M66.918,27.872c-0.213,0.349-3.996,6.791-2.42,16.977
		c0.352,2.29-1.221,4.43-3.512,4.785c-0.213,0.032-0.424,0.049-0.641,0.049c-2.031,0-3.818-1.479-4.137-3.55
		c-2.09-13.503,3.373-22.342,3.602-22.711c1.238-1.956,3.832-2.54,5.787-1.305C67.539,23.345,68.135,25.92,66.918,27.872z
		 M70.6,8.106c2.572,0,4.67,2.087,4.67,4.669c0,2.584-2.098,4.675-4.67,4.675c-2.586,0-4.678-2.091-4.678-4.675
		C65.922,10.193,68.014,8.106,70.6,8.106z"/>
	<rect x="60.236" y="102.075" fill="#E8E619" width="25.246" height="7.65"/>
</g>
<text transform="matrix(1 0 0 1 8.036213e-005 133.0885)" fill="#FFFFFF" font-family="'Roboto-Bold'" font-size="14.1959">IMPULSA TU NEGOCIO</text>
<g>
	<rect x="195" y="-22.674" fill-rule="evenodd" clip-rule="evenodd" fill="none" width="92.272" height="115.341"/>
	<g>
		<g>
			<g>
				<path fill-rule="evenodd" clip-rule="evenodd" fill="#DC1F26" d="M243.745,3.953c0.102-1.82-0.333-3.376-1.035-4.569
					c1.035,1.025,1.941,2.086,1.773,4.436c4.217-3.178-0.904-7.184-3.247-8.607C238.794-1.014,240.132,3.224,243.745,3.953
					L243.745,3.953z"/>
				<path fill-rule="evenodd" clip-rule="evenodd" fill="#DC1F26" d="M217.378,5.707c0.937,2.881,4.116,6.522,8.03,4.006
					c-0.667-1.06-2.209-1.489-3.211-1.954c2.009,0.1,2.342,0.531,3.814,1.258C225.308,4.25,221.796,5.078,217.378,5.707
					L217.378,5.707z"/>
				<path fill-rule="evenodd" clip-rule="evenodd" fill="#DC1F26" d="M248.599,1.934c0.735-1.225,1.439-2.318,3.345-3.079
					c-0.904,0.728-2.174,2.252-2.677,3.542c4.35,0.596,6.123-2.748,5.988-6.623C251.544-3.794,247.226-2.503,248.599,1.934
					L248.599,1.934z"/>
				<path fill-rule="evenodd" clip-rule="evenodd" fill="#DC1F26" d="M223.569,29.148c2.676,1.091,6.792,2.878,8.031-1.092
					c-1.238,0.628-2.509,0.991-4.35,0.495c1.005-0.131,3.045-0.131,3.981-1.159c-0.802-1.093-2.575-1.555-4.316-0.96
					C225.275,27.027,224.775,27.987,223.569,29.148L223.569,29.148z"/>
				<path fill-rule="evenodd" clip-rule="evenodd" fill="#DC1F26" d="M218.953,14.712c2.241,2.351,6.725,1.887,7.662-0.993
					c-1.138-0.231-2.643-0.199-4.284,0.232c1.137-0.762,2.477-0.862,4.251-0.829C223.903,10.409,221.261,11.467,218.953,14.712
					L218.953,14.712z"/>
				<path fill-rule="evenodd" clip-rule="evenodd" fill="#DC1F26" d="M257.499,25.769c1.707-0.892,3.011-0.96,4.182-0.595
					c-1.338,0.032-2.711,0.364-4.015,1.257c2.073,2.947,6.492-0.133,7.227-2.516c-1.038-0.264-2.508-1.093-4.15-0.96
					C258.737,23.221,257.667,24.379,257.499,25.769L257.499,25.769z"/>
				<path fill-rule="evenodd" clip-rule="evenodd" fill="#DC1F26" d="M217.981,23.916c1.137,1.622,5.086,4.404,7.763,0.829
					c-1.338-0.63-2.977-0.729-4.384-0.53c1.372-0.794,3.079-0.794,4.35-0.033C223.703,20.606,220.224,22.161,217.981,23.916
					L217.981,23.916z"/>
				<path fill-rule="evenodd" clip-rule="evenodd" fill="#DC1F26" d="M251.844,27.658c1.003,0.528,2.143,1.654,3.613,1.786
					c-1.875,0.465-2.644-0.728-4.049-1.059c1.038,3.708,4.784,3.145,6.858,2.087C257.231,26.763,253.283,26.267,251.844,27.658
					L251.844,27.658z"/>
				<path fill-rule="evenodd" clip-rule="evenodd" fill="#DC1F26" d="M253.851,12.66c1.206-0.596,2.276-1.556,3.816-1.589
					c-1.139,0.232-3.011,1.358-3.178,2.484c3.68,0.927,5.488-1.291,6.123-4.271C257.064,9.184,254.053,8.918,253.851,12.66
					L253.851,12.66z"/>
				<path fill-rule="evenodd" clip-rule="evenodd" fill="#DC1F26" d="M246.958,7.165C246.958,7.165,246.958,7.198,246.958,7.165
					c2.175-1.059,4.116-0.166,4.116-0.166c-1.505-0.132-2.875,0.099-3.747,0.795c1.707,2.317,5.621,0.695,6.524-1.822
					C251.041,5.178,247.962,3.721,246.958,7.165L246.958,7.165z"/>
				<path fill-rule="evenodd" clip-rule="evenodd" fill="#DC1F26" d="M230.129,10.905c0.166-1.357-0.402-2.714-0.803-3.806
					c0.868,0.661,1.504,1.92,1.772,3.542c1.908-3.442-0.904-5.297-3.211-6.521C226.447,7.396,227.014,9.812,230.129,10.905
					L230.129,10.905z"/>
				<path fill-rule="evenodd" clip-rule="evenodd" fill="#DC1F26" d="M229.091,0.378C230.129,0.41,231.3,1.107,232.168,2
					c-0.268-3.08-2.576-3.411-5.655-3.212c0.601,3.278,2.243,4.965,5.154,3.906C231.701,2.661,230.462,0.841,229.091,0.378
					L229.091,0.378z"/>
				<path fill-rule="evenodd" clip-rule="evenodd" fill="#DC1F26" d="M245.72,15.838c0.802-0.96,1.942-1.887,3.178-2.185
					c-1.105,0.563-1.941,1.491-2.509,2.881c3.381,0.165,4.618-1.491,4.952-4.668C248.028,11.832,245.92,12.428,245.72,15.838
					L245.72,15.838z"/>
				<path fill-rule="evenodd" clip-rule="evenodd" fill="#DC1F26" d="M236.853-1.575c-0.603-1.159-0.803-2.02-0.568-3.675
					c0.401,1.722,0.734,2.813,1.204,3.542c2.643-1.986,0.2-5.497-1.774-6.257C234.811-5.515,233.306-2.635,236.853-1.575
					L236.853-1.575z"/>
				<path fill-rule="evenodd" clip-rule="evenodd" fill="#DC1F26" d="M254.353,23.485c0.404-0.497,1.105-1.919,2.711-2.68
					c-1.035,1.058-1.674,2.317-2.008,3.077c3.046-0.132,4.45-2.251,3.646-5.396C255.893,19.513,253.851,19.843,254.353,23.485
					L254.353,23.485z"/>
				<path fill-rule="evenodd" clip-rule="evenodd" fill="#DC1F26" d="M236.752,5.773c0.535-1.124,0.235-2.151-0.368-3.309
					c1.171,0.993,1.239,2.051,1.206,3.309c2.777-3.177-0.402-4.137-2.544-6.091C234.142,2.53,234.142,4.615,236.752,5.773
					L236.752,5.773z"/>
				<path fill-rule="evenodd" clip-rule="evenodd" fill="#DC1F26" d="M258.904,3.953c-0.303,1.093-1.44,1.853-2.677,2.285
					c0.502,0.331,1.707,0.728,2.98-0.166c0.934-0.729,1.404-2.318,1.304-3.939c-2.642,0.364-4.751,0.827-4.683,3.574
					C256.998,5.41,258.033,4.78,258.904,3.953L258.904,3.953z"/>
				<path fill-rule="evenodd" clip-rule="evenodd" fill="#DC1F26" d="M258.904,17.195c1.941,1.425,3.948,0.861,5.688-1.92
					c-1.639-0.927-5.821-1.821-5.688,1.126c1.038-0.53,2.51-0.794,3.38-0.497C261.312,15.905,259.74,16.401,258.904,17.195
					L258.904,17.195z"/>
				<path fill-rule="evenodd" clip-rule="evenodd" fill="#DC1F26" d="M227.416,21.3c0.034-0.794-0.801-1.589-1.906-1.886
					c1.504-0.231,2.441,1.29,2.441,1.29c0.403-3.376-2.911-2.117-4.884-2.514C224.172,20.307,225.108,22.095,227.416,21.3
					L227.416,21.3z"/>
				<path fill-rule="evenodd" clip-rule="evenodd" fill="#DC1F26" d="M249.066,23.949c1.774,0.332,3.014-0.662,3.245-3.112
					c-1.405-0.133-4.082,0.497-3.545,2.517c0.536-0.663,1.47-1.292,2.206-1.358C250.237,22.26,249.369,23.088,249.066,23.949
					L249.066,23.949z"/>
				<path fill-rule="evenodd" clip-rule="evenodd" fill="#DC1F26" d="M252.244,17.857c0.871-0.166,1.676-0.629,2.109-0.993
					c-0.366,0.53-0.871,1.126-1.972,1.258c1.874,1.588,3.279-1.059,3.746-2.218C254.087,15.144,252.279,16.135,252.244,17.857
					L252.244,17.857z"/>
				<path fill-rule="evenodd" clip-rule="evenodd" fill="#DC1F26" d="M260.611,21.202c0.701-0.133,1.304-0.463,1.673-0.762
					c-0.334,0.397-0.669,0.86-1.54,0.96c1.439,1.225,2.544-0.827,2.879-1.689C262.082,19.115,260.643,19.843,260.611,21.202
					L260.611,21.202z"/>
				<path fill-rule="evenodd" clip-rule="evenodd" fill="#DC1F26" d="M227.685,15.077c1.204,0.827,3.178,0.264,3.279-1.094
					c-0.603,0.166-1.238,0.298-1.842,0.465c0.437-0.43,1.038-0.729,1.808-0.829C229.391,12.726,228.422,13.454,227.685,15.077
					L227.685,15.077z"/>
				<path fill-rule="evenodd" clip-rule="evenodd" fill="#DC1F26" d="M231.668,21.566c0.099-0.696-0.202-1.457-0.47-2.052
					c0.503,0.43,0.837,1.026,0.937,1.953c1.105-1.887-0.434-2.88-1.706-3.542C229.659,19.71,229.995,21.036,231.668,21.566
					L231.668,21.566z"/>
				<path fill-rule="evenodd" clip-rule="evenodd" fill="#DC1F26" d="M238.091,10.838c0.603-0.264,1.072-0.694,1.34-1.091
					c-0.202,0.496-0.436,0.993-1.171,1.323c1.64,0.663,2.108-1.456,2.174-2.317C238.894,8.654,237.757,9.68,238.091,10.838
					L238.091,10.838z"/>
				<path fill-rule="evenodd" clip-rule="evenodd" fill="#DC1F26" d="M235.783,8.754c-0.737-0.332-1.306-0.96-1.674-1.392
					c0.202,0.596,0.535,1.193,1.472,1.656c-2.074,0.894-2.676-1.82-2.744-2.946C234.846,5.939,236.25,7.264,235.783,8.754
					L235.783,8.754z"/>
				<path fill-rule="evenodd" clip-rule="evenodd" fill="#DC1F26" d="M246.055-2.635c0.571-0.961,0.637-1.689,0.502-3.013
					c-0.369,1.391-0.603,2.318-1.004,2.881c-2.174-1.623-0.202-4.502,1.471-5.165C247.763-5.913,249.034-3.496,246.055-2.635
					L246.055-2.635z"/>
				<path fill-rule="evenodd" clip-rule="evenodd" fill="#DC1F26" d="M242.743,7.495c-0.334-0.795-0.636-1.159-1.507-1.722
					c0.671,0.862,1.038,1.425,1.172,1.921c-1.943,0.364-2.643-2.086-2.174-3.212C241.671,5.046,243.647,5.509,242.743,7.495
					L242.743,7.495z"/>
				<path fill-rule="evenodd" clip-rule="evenodd" fill="#DC1F26" d="M250.572,18.254c-0.335,1.456-2.174,2.418-3.245,1.49
					c0.335-0.364,0.97-0.728,1.707-0.96c-0.637,0-1.271,0.166-1.941,0.629C247.561,17.725,248.798,17.56,250.572,18.254
					L250.572,18.254z"/>
			</g>
			<path fill-rule="evenodd" clip-rule="evenodd" fill="#DC1F26" d="M247.628,61.06c0,1.821-2.945,4.238-6.491,4.238
				c-3.581,0-6.492-2.416-6.492-4.238H247.628z M245.453,61.922l0.972-0.1c-0.906,2.086-2.679,3.012-5.354,2.946
				C243.211,64.67,244.818,63.577,245.453,61.922L245.453,61.922z"/>
			<path fill-rule="evenodd" clip-rule="evenodd" fill="#DC1F26" d="M225.075,42.72c1.707,4.402,0.402,7.944,2.644,8.64
				c2.109,0.629,14.187-0.165,20.178,0c3.882,0.101,1.538-6.158,5.988-11.355c-5.085,3.244-4.315,11.422-8.332,7.846
				c-2.475-2.218-1.706-5.329-1.939-8.607c-0.502-6.688,5.455-13.476,10.306-13.938c-4.318-0.53-5.453,2.152-7.628,2.781
				l-0.603,0.198c0.468-1.523,2.374-1.821,2.409-3.046c-0.868,1.324-2.443,1.357-3.646,2.285c-0.268,0.231-0.369-3.94,2.342-6.853
				c-0.536,0.53-1.272,1.224-1.606,1.622c-2.811,3.474-0.837,5.231-3.046,10.626c2.644-11.29-3.279-16.156,5.422-22.81
				c0.434-0.364-1.073,0.232-1.641,0.463c-1.707,0.893-3.012,2.582-3.012,2.383c-0.067-5.098,2.911-5.462,4.149-10.23
				c-2.308,3.675-4.482,5.397-5.754,8.707c-0.804,2.086-0.938,4.668-1.14,6.886c-0.166-0.131,0-2.35-0.166-2.449
				c-3.983-2.451-2.811-8.112-2.811-8.112c-1.204,0.961-0.235,4.47-1.472,5.232c-0.502,0.297-6.659-1.656-8.13-1.458
				c1.572,1.192,8.833,1.357,10.171,6.688c0.235,0.961-5.052,0.133-5.052,0.133c1.772,1.126,5.522,1.126,5.687,3.807
				c0.201,3.443,0.235,7.084-1.07,9.601c0,0,1.605-4.504-1.239-6.225c-2.108-1.324-1.474-5.231-1.474-5.231
				c-1.069,1.425-0.332,3.708-0.833,3.378c-1.206-0.862-2.143-1.093-3.18-1.093c2.442,0.497,7.427,6.621,3.579,4.469
				c-2.943-1.621-3.579-1.093-6.022-3.575c1.505,2.682,4.383,3.145,6.09,5.595c1.304,1.822,3.213,5.265,3.079,8.078
				c-0.033,0.927-0.202,1.987-0.068,3.046c0.134,1.06-1.239-2.516-1.271-2.019c-0.035,0.629,1.305,5.032,0.734,6.589
				c-0.969,3.408-0.635,4.038-5.252,4.204c-3.948,0.1-2.61-4.967-4.753-9.137c-4.717-9.203-13.35-10.364-13.35-26.121
				c2.008-34.297,53.705-37.873,54.942-1.523c0.505,15.825-11.073,19.862-15.09,33.833c-1.704,5.926-0.401,7.482-4.817,7.416h-2.478
				h-18.872v2.647l2.342,3.809h22.354l1.906-2.715h-22.854l-0.402-1.094h23.626l0.669-1.688
				c0.934-21.551,19.641-22.611,16.594-43.964c0.837,19.399-15.392,23.009-18.201,42.542c-0.067,0.363,0.568-5.43,2.443-9.701
				c3.411-7.78,10.538-14.369,13.551-23.075c6.12-17.644-9.837-35.853-28.242-35.72c-16.63,0-30.182,13.109-30.182,29.232
				C210.653,31.464,220.157,30.172,225.075,42.72L225.075,42.72z M239.062,15.905c-1.807-1.324-2.879-3.079-2.108-4.039
				C236.586,12.693,238.36,15.209,239.062,15.905L239.062,15.905z M242.141,17.527c-0.167-2.119,1.272-4.238,1.774-3.972
				C243.043,13.786,242.242,16.599,242.141,17.527L242.141,17.527z M215.671,25.505c-9.067-14.666,1.139-34.032,17.2-37.872
				C217.614-8.495,207.609,9.747,215.671,25.505L215.671,25.505z M244.315,47.951c-0.968-2.218-1.738-4.536-1.303-7.483
				C241.872,41.363,242.541,44.904,244.315,47.951L244.315,47.951z M236.954,30.372c-0.201-1.026,0.637-0.629,0.235-3.245
				C237.825,29.312,237.055,29.776,236.954,30.372L236.954,30.372z M241.84,30.04c0.1-0.495,0.134-0.96,0.167-1.423
				c0.268-2.881-0.2-3.012-0.502-5.032C242.743,25.372,242.375,27.69,241.84,30.04L241.84,30.04z"/>
			<g>
				<path fill="#DC1F26" d="M214.674,84.829c-0.922,0.331-2.742,0.875-4.893,0.875c-2.411,0-4.396-0.615-5.956-2.104
					c-1.371-1.324-2.222-3.451-2.222-5.933c0.024-4.751,3.286-8.226,8.627-8.226c1.844,0,3.286,0.402,3.971,0.733l-0.496,1.678
					c-0.851-0.378-1.915-0.685-3.522-0.685c-3.877,0-6.406,2.411-6.406,6.406c0,4.042,2.435,6.429,6.146,6.429
					c1.347,0,2.269-0.189,2.742-0.426v-4.751h-3.238V77.17h5.247V84.829z"/>
				<path fill="#DC1F26" d="M220.394,80.527l-1.655,5.011h-2.127l5.413-15.931h2.482l5.437,15.931h-2.198l-1.702-5.011H220.394z
					 M225.618,78.919l-1.56-4.586c-0.354-1.04-0.591-1.986-0.827-2.907h-0.047c-0.236,0.945-0.496,1.915-0.804,2.884l-1.56,4.609
					H225.618z"/>
				<path fill="#DC1F26" d="M232.284,69.606h2.056v14.206h6.807v1.725h-8.864V69.606z"/>
				<path fill="#DC1F26" d="M246.277,72.632h-4.278v-3.026h12.244v3.026h-4.349v12.906h-3.616V72.632z"/>
				<path fill="#DC1F26" d="M265.637,78.801h-5.862v3.782h6.548v2.955h-10.164V69.606h9.833v2.955h-6.217v3.309h5.862V78.801z"/>
				<path fill="#DC1F26" d="M280.481,85.089c-0.662,0.331-2.151,0.686-4.089,0.686c-5.508,0-8.344-3.427-8.344-7.966
					c0-5.437,3.876-8.462,8.699-8.462c1.867,0,3.286,0.378,3.924,0.709l-0.733,2.86c-0.733-0.307-1.749-0.591-3.026-0.591
					c-2.86,0-5.082,1.726-5.082,5.271c0,3.191,1.891,5.2,5.106,5.2c1.087,0,2.293-0.236,3.002-0.52L280.481,85.089z"/>
			</g>
		</g>
	</g>
</g>
</svg>
