<?xml version="1.0" encoding="utf-8"?>
<!-- Generator: Adobe Illustrator 17.0.0, SVG Export Plug-In . SVG Version: 6.00 Build 0)  -->
<!DOCTYPE svg PUBLIC "-//W3C//DTD SVG 1.1//EN" "http://www.w3.org/Graphics/SVG/1.1/DTD/svg11.dtd">
<svg version="1.1" xmlns="http://www.w3.org/2000/svg" xmlns:xlink="http://www.w3.org/1999/xlink" x="0px" y="0px" width="500px"
	 height="500px" viewBox="0 0 500 500" enable-background="new 0 0 500 500" xml:space="preserve">
<g id="BACKGROUND">
	<g>
		<defs>
			<rect id="SVGID_1_" width="500" height="500"/>
		</defs>
		<clipPath id="SVGID_2_">
			<use xlink:href="#SVGID_1_"  overflow="visible"/>
		</clipPath>
		<g display="none" clip-path="url(#SVGID_2_)">
			<rect display="inline" fill="#73D6DD" width="500" height="500"/>
		</g>
		<g display="none" clip-path="url(#SVGID_2_)">
			<path display="inline" fill="#A1E4E8" d="M-31.933,255.352c18.834-3.52,146.465,4.264,164.584,10.388
				c18.119,6.124,240.979,32.831,245.168,32.356c4.189-0.476,155.05-73.451,155.05-73.451V172.04c0,0-180.791,45.451-186.31,45.451
				s-192.785-15.74-192.785-15.74l-185.708,15.74V255.352z"/>
			<path display="inline" fill="#A1E4E8" d="M-35.877,319.026c0,0,126.937-36.583,154.061-33.721
				c27.124,2.862,249.324,48.489,258.395,47.854c9.07-0.635,156.29-83.626,156.29-83.626v199.431H-36.169L-35.877,319.026z"/>
			<path display="inline" fill="#A1E4E8" d="M532.87,115.933c0,0-274.674,30.049-313.775,28.934
				c-39.102-1.114-251.027-21.78-251.027-21.78v19.924c0,0,211.925,20.665,251.027,21.78
				c39.102,1.115,313.775-41.812,313.775-41.812V115.933z"/>
			<path display="inline" fill="#D4F5F8" d="M-31.933,97.377c0,0,161.09,9.739,197.388,6.877
				c36.297-2.862,177.792-39.788,367.415-59.82V0H-31.933V97.377z"/>
			<path display="inline" fill="#A1E4E8" d="M-48.002,37.249c0,0,284.579,0,282.802,10.016
				C233.023,57.282-48.002,64.436-48.002,64.436V37.249z"/>
		</g>
		<g display="none" clip-path="url(#SVGID_2_)">
			<path display="inline" fill="#D4F5F8" d="M623.171,500c3.307-11.689,5.078-24.023,5.078-36.771
				c0-74.455-60.357-134.812-134.812-134.812c-49.388,0-92.565,26.563-116.045,66.177c-9.549-10.38-23.24-16.889-38.456-16.889
				c-24.206,0-44.559,16.464-50.492,38.802c-5.524-1.125-11.241-1.717-17.096-1.717c-47.061,0-85.211,38.15-85.211,85.211H623.171z"
				/>
			<path display="inline" fill="#D4F5F8" d="M-229.132,500c-3.568-12.613-5.479-25.922-5.479-39.677
				c0-80.337,65.126-145.464,145.464-145.464c53.29,0,99.879,28.662,125.214,71.405c10.303-11.2,25.077-18.223,41.495-18.223
				c26.118,0,48.079,17.765,54.481,41.868c5.96-1.214,12.129-1.853,18.447-1.853c50.779,0,91.944,41.165,91.944,91.944H-229.132z"/>
		</g>
		<g display="none" clip-path="url(#SVGID_2_)">
			<linearGradient id="SVGID_3_" gradientUnits="userSpaceOnUse" x1="250" y1="503.8618" x2="250" y2="-3.8617">
				<stop  offset="0" style="stop-color:#023942"/>
				<stop  offset="1" style="stop-color:#D4F5F8"/>
			</linearGradient>
			<rect x="-3.862" y="-3.862" display="inline" opacity="0.5" fill="url(#SVGID_3_)" width="507.723" height="507.724"/>
			<linearGradient id="SVGID_4_" gradientUnits="userSpaceOnUse" x1="250.2237" y1="503.8618" x2="250.2237" y2="-3.8617">
				<stop  offset="0" style="stop-color:#023942"/>
				<stop  offset="1" style="stop-color:#D4F5F8"/>
			</linearGradient>
			<rect x="-3.414" y="-3.862" display="inline" fill="url(#SVGID_4_)" width="507.276" height="507.724"/>
		</g>
		<g clip-path="url(#SVGID_2_)">
			<g>
				<g>
					<g>
						<path fill="#FFFFFF" d="M410.257,299.993c0.591,0,1.149,0.181,1.621,0.491c0.002,0.005,0.003,0.011,0.005,0.016
							c0.19,0.48,0.445,0.973,0.668,1.477c0.554,1.281,1.141,2.546,1.499,3.304l-3.236-2.371l-0.012-0.009l-0.003-0.002
							l-2.868-1.737C408.471,300.459,409.304,299.993,410.257,299.993z"/>
						<path fill="#FFFFFF" d="M389.632,419.914l13.234-80.635v-9.255c0-2.027,0.45-4.029,1.318-5.862l1.552-3.279
							c0.868-1.832,1.318-3.834,1.318-5.862v-6.028c0.153,0.207,4.256,5.045,4.587,5.447c0.309,0.357,0.49,0.733,0.573,1.175
							c0.09,0.431,0.056,0.9-0.106,1.324c-0.176,0.418-0.499,0.927-0.762,1.423c-0.552,0.994-1.112,2.003-1.673,3.013
							c-0.564,1.012-1.129,2.023-1.684,3.019c-0.539,1.032-0.945,2.108-1.226,3.176c-0.274,1.07-0.433,2.129-0.467,3.138
							c-0.05,1.011,0.052,1.962,0.121,2.819c0.287,3.452,0.478,5.754,0.478,5.754l0.103-0.006c0,0-0.088-2.308-0.22-5.77
							c-0.031-0.87-0.089-1.796,0.003-2.767c0.081-0.973,0.258-1.989,0.559-3.007c0.304-1.016,0.727-2.032,1.274-2.997
							c0.585-0.97,1.179-1.956,1.773-2.942c0.603-0.985,1.206-1.97,1.799-2.939c0.285-0.498,0.61-0.921,0.883-1.525
							c0.252-0.611,0.317-1.281,0.204-1.913c-0.114-0.624-0.441-1.226-0.824-1.647c-0.336-0.398-0.665-0.787-0.998-1.156
							c-0.659-0.743-1.281-1.445-1.856-2.093c-0.571-0.651-1.125-1.223-1.6-1.742c-0.477-0.519-0.898-0.966-1.254-1.327
							c-0.489-0.51-0.828-0.849-0.995-1.015l-0.162-0.197l-4.931-3.903c-2.049-1.622-3.244-4.093-3.244-6.707
							c0-0.277,0.303-0.447,0.539-0.303l9.525,5.785l3.103,2.113c0,0,10.39,8.507,10.665,8.763c0.279,0.275,0.561,0.553,0.805,0.864
							c0.493,0.617,0.915,1.303,1.231,2.047c0.167,0.37,0.276,0.762,0.396,1.156c0.141,0.396,0.129,0.806,0.305,1.222
							c0.16-0.423,0.102-0.855,0.101-1.287c-0.018-0.434-0.095-0.865-0.199-1.29c-0.197-0.855-0.571-1.675-1.068-2.414
							c-0.251-0.368-0.532-0.717-0.843-1.04c-0.331-0.326-0.667-0.611-0.996-0.868c-0.666-0.512-6.598-4.856-6.598-4.856
							c-0.187-0.731-0.592-2.281-1.046-3.824c-0.152-0.53-0.271-1.072-0.432-1.562c-0.177-0.484-0.391-0.919-0.597-1.283
							c-0.275-0.497-0.54-0.844-0.688-1.025l-8.049-7.673c-2.082-1.96-2.998-4.859-2.422-7.659h0
							c0.047-0.231,0.322-0.329,0.505-0.18l8.054,6.54c0.758,0.656,6.915,5.724,7.612,6.643c0.327,0.368,0.563,0.838,0.853,1.319
							c0.279,0.474,1.99,3.389,2.567,4.372c1.151,1.968,5.722,9.145,6.396,10.714c0.327,0.762,0.642,1.461,0.838,2.114
							c0.198,0.651,0.328,1.234,0.424,1.718c0.095,0.485,0.138,0.872,0.174,1.136c0.053,0.265-0.006,0.407,0.098,0.407
							c0.103,0,0.04-0.143,0.084-0.412c0.018-0.27,0.025-0.666,0.007-1.172c-0.014-0.507-0.072-1.123-0.211-1.82
							c-0.14-0.695-0.331-1.482-0.66-2.3c-0.32-0.819-0.794-1.683-1.278-2.513c-0.478-0.855-1.027-1.731-1.57-2.652
							c-1.148-1.803-2.372-3.727-3.596-5.65c-0.611-0.963-2.421-3.817-2.715-4.282c-0.293-0.449-1.127-1.771-2.171-2.594
							c-0.404-0.318-5.62-4.66-6.342-5.23l-1.263-2.638c-1.131-2.361-1.03-5.127,0.269-7.4c0.208-0.363,0.715-0.404,0.978-0.08
							l11.692,14.38c0.388,0.477,0.706,1.005,0.947,1.571l2.278,5.352l2.223-5.614l0.247-3.822c0.22-3.404,1.783-6.582,4.345-8.834
							c0.336-0.295,0.862-0.057,0.862,0.39v15.139c0,0.478-0.046,0.955-0.138,1.424l-2.554,13.028l0,0l0.389,0.914
							c0.809,1.9,0.763,4.055-0.124,5.918l-9.954,20.9l3.57,80.635H389.632z"/>
					</g>
					<path fill="#FFFFFF" d="M350.659,517.001l-22.132-94.395c-0.323-1.376,0.721-2.693,2.135-2.693h93.461
						c2.205,0,3.992,1.787,3.992,3.992v53.612c0,3.273-0.847,6.491-2.459,9.339l-17.055,30.143H350.659z"/>
					<polygon fill="#FFFFFF" points="341.572,486.775 333.444,517.001 350.659,517.001 					"/>
				</g>
				<g>
					<g>
						<path fill="#FFFFFF" d="M77.255,305.017c-0.542-0.697-1.24-1.483-1.917-2.298c-0.672-0.834-1.396-1.7-2.108-2.626
							c-0.715-0.948-1.46-1.818-2.185-2.919c-0.618-1.065-1.245-2.146-1.872-3.228c-2.496-4.258-4.971-8.525-6.835-11.75
							c-0.76,0.401-1.076,1.388-0.588,2.17l8.763,14.044l7.337,7.521C77.672,305.627,77.483,305.321,77.255,305.017z"/>
						<path fill="#FFFFFF" d="M122.448,302.494c-1.03-0.991-2.478-1.419-3.881-1.148c-3.768,0.726-7.348,2.213-10.522,4.369
							l-3.816,2.593c-1.997,1.357-4.65,1.23-6.509-0.31l-2.376-1.968c0.073,0.54,0.16,1.109,0.283,1.727
							c0.304,1.652,2.223,7.589,2.553,8.65c0.329,1.052,0.688,2.155,0.878,3.296c0.225,1.099,0.341,2.292,0.365,3.414
							c0.039,1.137-0.053,2.259-0.216,3.331c-0.339,2.15-1.098,4.055-1.895,5.582c-0.815,1.524-1.697,2.666-2.368,3.403
							c-0.548,0.621-0.908,0.977-1.021,1.085l-0.089,0.017l-0.039-0.032c0,0,1.625-2.244,2.802-4.821
							c0.344-0.755,0.658-1.598,0.921-2.507c0.253-0.911,0.52-1.873,0.661-2.895c0.181-1.014,0.288-2.077,0.305-3.162
							c0.019-1.097-0.033-2.164-0.213-3.286c-0.144-1.094-0.45-2.156-0.748-3.233c-0.294-1.071-1.999-7.085-2.236-8.782
							c-0.259-1.685-0.32-3.102-0.338-4.091c-0.006-0.496,0.016-0.885,0.002-1.15c-0.365-7.313-0.504-9.157-1.34-12.332
							c-0.494-1.876-1.675-3.496-3.455-4.266c-0.442-0.124-0.86,0.261-0.773,0.712l0.959,4.007c0.114,0.397,0.21,0.843,0.259,1.265
							c0.053,0.43,0.053,0.865,0.045,1.3c-0.025,1.376-0.529,2.555-0.529,2.555v0c-0.376,0.997-0.67,2.024-0.863,3.068
							c-0.099,0.521-0.171,1.046-0.23,1.572c0,0-0.964,6.972-1.232,8.037l-0.1-0.009c-0.062-1.096,0.057-5.445,0.154-6.526
							c0.073-1.079,0.626-3.551,0.666-3.693c0,0-3.23-8.496-4.012-10.205l-4.263-9.321c-1.039-2.271-3.247-3.784-5.74-3.931
							c-0.553-0.033-0.963,0.507-0.784,1.031l0.071,0.207l6.815,18.486c0,0,2.335,13.607,2.454,14.858l-0.098,0.019
							c-0.354-1.206-2.808-12.085-3.207-14.5l-13.226-16.142c-1.184-1.445-3.064-2.125-4.898-1.771
							c-0.77,0.148-1.165,1.009-0.776,1.69c0,0,6.401,10.689,8.986,14.861c0.66,1.052,1.32,2.103,1.969,3.138
							c0.316,0.477,0.717,0.919,1.102,1.393c0.381,0.465,4.46,5.657,5.02,6.469c0.546,0.812,0.88,1.65,1.103,2.398
							c0.223,0.751,0.336,1.422,0.375,1.976c0.039,0.509,0.075,1.712,0.076,1.973l0.114,28.383l-3.57,80.635h34.345L95.985,336.12
							l1.376-1.333c3.214-3.114,5.943-6.691,8.098-10.612l4.629-8.424c1.761-3.205,4.222-5.972,7.2-8.094l5.045-3.595
							C122.853,303.69,122.909,302.937,122.448,302.494z"/>
					</g>
					<path fill="#FFFFFF" d="M149.341,517.001l22.132-94.395c0.323-1.376-0.721-2.693-2.135-2.693H75.877
						c-2.205,0-3.992,1.787-3.992,3.992v53.612c0,3.273,0.847,6.491,2.459,9.339l17.055,30.143H149.341z"/>
					<polygon fill="#FFFFFF" points="158.428,486.775 166.556,517.001 149.341,517.001 					"/>
				</g>
				<g>
					<g>
						<path fill="#FFFFFF" d="M265.112,337.578c0.535,0,1.039,0.164,1.465,0.444c0.002,0.005,0.003,0.01,0.005,0.015
							c0.171,0.434,0.402,0.879,0.604,1.336c0.501,1.158,1.032,2.302,1.355,2.987l-2.926-2.144l-0.01-0.008l-0.003-0.002
							l-2.593-1.57C263.498,337.999,264.251,337.578,265.112,337.578z"/>
						<path fill="#FFFFFF" d="M237.348,517.001l21.082-143.905v-8.367c0-1.833,0.407-3.643,1.191-5.3l1.404-2.964
							c0.784-1.657,1.191-3.467,1.191-5.3v-5.45c0.138,0.187,3.848,4.561,4.147,4.925c0.28,0.322,0.443,0.663,0.518,1.063
							c0.081,0.389,0.051,0.813-0.096,1.197c-0.159,0.378-0.451,0.838-0.689,1.286c-0.499,0.898-1.006,1.811-1.513,2.724
							c-0.51,0.915-1.02,1.829-1.523,2.729c-0.488,0.933-0.854,1.906-1.108,2.871c-0.248,0.967-0.391,1.925-0.423,2.837
							c-0.045,0.914,0.047,1.774,0.11,2.548c0.259,3.121,0.432,5.202,0.432,5.202l0.093-0.006c0,0-0.08-2.087-0.199-5.216
							c-0.028-0.787-0.08-1.624,0.003-2.502c0.073-0.879,0.233-1.798,0.505-2.719c0.275-0.919,0.658-1.837,1.152-2.71
							c0.529-0.877,1.066-1.769,1.603-2.66c0.545-0.891,1.09-1.781,1.627-2.658c0.258-0.451,0.552-0.833,0.798-1.379
							c0.228-0.552,0.287-1.159,0.184-1.729c-0.103-0.564-0.399-1.108-0.745-1.489c-0.304-0.36-0.601-0.712-0.902-1.045
							c-0.595-0.672-1.158-1.306-1.678-1.892c-0.516-0.589-1.017-1.105-1.447-1.575c-0.431-0.469-0.812-0.873-1.134-1.2
							c-0.442-0.461-0.748-0.768-0.899-0.918l-0.146-0.178l-4.458-3.529c-1.853-1.467-2.933-3.7-2.933-6.063
							c0-0.25,0.274-0.404,0.488-0.274l8.611,5.23l2.805,1.91c0,0,9.394,7.691,9.642,7.923c0.253,0.249,0.507,0.5,0.727,0.781
							c0.446,0.557,0.827,1.178,1.113,1.851c0.151,0.335,0.249,0.689,0.358,1.046c0.128,0.358,0.116,0.728,0.276,1.105
							c0.145-0.382,0.092-0.773,0.091-1.164c-0.016-0.392-0.086-0.782-0.18-1.166c-0.178-0.773-0.516-1.515-0.965-2.183
							c-0.227-0.333-0.481-0.648-0.762-0.941c-0.299-0.295-0.603-0.552-0.9-0.784c-0.602-0.463-5.965-4.391-5.965-4.391
							c-0.169-0.661-0.535-2.063-0.946-3.457c-0.137-0.479-0.245-0.969-0.391-1.413c-0.16-0.438-0.354-0.831-0.54-1.16
							c-0.249-0.449-0.488-0.763-0.622-0.927l-7.277-6.938c-1.882-1.772-2.711-4.393-2.189-6.925l0,0
							c0.043-0.208,0.292-0.297,0.457-0.163l7.281,5.913c0.686,0.593,6.252,5.175,6.882,6.006c0.295,0.333,0.509,0.758,0.771,1.193
							c0.252,0.429,1.799,3.064,2.321,3.953c1.041,1.779,5.173,8.268,5.783,9.686c0.296,0.689,0.58,1.321,0.758,1.911
							c0.179,0.589,0.296,1.116,0.384,1.554c0.086,0.438,0.125,0.788,0.157,1.027c0.048,0.239-0.005,0.368,0.088,0.368
							c0.093,0,0.036-0.129,0.076-0.373c0.017-0.244,0.023-0.602,0.007-1.06c-0.013-0.458-0.065-1.015-0.191-1.646
							c-0.127-0.629-0.299-1.34-0.597-2.079c-0.29-0.741-0.718-1.522-1.155-2.272c-0.433-0.773-0.928-1.565-1.419-2.397
							c-1.038-1.63-2.145-3.37-3.252-5.109c-0.552-0.87-2.188-3.451-2.455-3.871c-0.265-0.406-1.019-1.602-1.963-2.345
							c-0.365-0.288-5.081-4.213-5.734-4.728l-1.142-2.385c-1.022-2.135-0.931-4.635,0.244-6.69
							c0.188-0.328,0.646-0.366,0.884-0.072l10.571,13.001c0.35,0.431,0.639,0.909,0.856,1.42l2.06,4.839l2.01-5.076l0.223-3.455
							c0.199-3.078,1.612-5.951,3.929-7.987c0.303-0.267,0.779-0.051,0.779,0.353v13.687c0,0.432-0.042,0.863-0.125,1.288
							l-2.309,11.779l0,0l0.352,0.826c0.731,1.717,0.69,3.666-0.112,5.351l-8.999,18.896l3.228,143.905H237.348z"/>
					</g>
				</g>
				<g>
					<path fill="#FFFFFF" d="M363.352,318.095c-0.782-0.322-1.638-0.375-2.449-0.179c-1.412,0.62-3.198,1.403-5.262,2.309
						c-2.611,1.144-5.656,2.479-8.92,3.909c-1.641,0.704-3.303,1.466-5.052,2.178c-1.742,0.681-3.512,1.373-5.282,2.065
						c-1.766,0.7-3.561,1.351-5.22,2.148c-1.672,0.792-3.219,1.765-4.629,2.812c-1.405,1.054-2.704,2.16-3.802,3.342
						c-0.582,0.559-1.07,1.176-1.576,1.742c-0.459,0.604-0.94,1.162-1.325,1.754c-0.201,0.29-0.397,0.574-0.589,0.852
						c-0.177,0.287-0.35,0.568-0.519,0.842c-0.354,0.539-0.632,1.083-0.909,1.587c-0.288,0.498-0.495,0.996-0.712,1.444
						c-0.22,0.448-0.396,0.869-0.55,1.252c-0.332,0.757-0.536,1.381-0.68,1.802c-0.145,0.421-0.223,0.645-0.223,0.645l-0.07-0.019
						c0,0,0.061-0.23,0.175-0.662c0.113-0.432,0.269-1.064,0.548-1.855c0.246-0.802,0.63-1.744,1.121-2.802
						c0.255-0.525,0.511-1.092,0.843-1.658c0.161-0.286,0.326-0.579,0.495-0.879c0.188-0.289,0.38-0.584,0.576-0.886
						c0.376-0.616,0.85-1.199,1.303-1.831c0.5-0.593,0.984-1.24,1.563-1.83c1.124-1.212,2.426-2.388,3.892-3.44
						c1.457-1.064,3.066-2.024,4.791-2.802c1.73-0.787,3.528-1.396,5.303-2.072c1.78-0.664,3.561-1.329,5.313-1.982
						c0.235-0.092,0.465-0.192,0.698-0.286c-0.629-0.198-1.095-0.986-0.148-2.065l0.103-0.106c2.331-2.408,4.894-4.58,7.651-6.486
						l11.791-8.152c1.433-0.991,1.299-3.15-0.246-3.956c-1.325-0.691-2.907-0.682-4.224,0.025l-10.373,5.57
						c-0.321,0.172-0.635,0.357-0.942,0.554l-9.005,5.777c-0.179,0.115-0.377-0.116-0.237-0.275l16.888-19.235
						c1.313-1.496,0.251-3.842-1.739-3.842c-2.266,0-4.446,0.865-6.096,2.417l-16.749,15.764c-0.307,0.289-0.801-0.008-0.689-0.415
						l1.775-6.48c0.657-2.4,1.538-4.732,2.63-6.968l3.414-6.988c0.751-1.538-0.368-3.331-2.08-3.331
						c-1.833,0-3.518,1.007-4.386,2.622l-7.747,14.417l-9.087,18.767c-0.909,1.876-3.46,2.171-4.772,0.55
						c-3.361-4.152-7.58-7.526-12.369-9.892l-1.261-0.623c-1.418-0.7-3.092-0.642-4.458,0.154c-0.548,0.319-0.688,1.049-0.297,1.548
						l7.014,8.963c2.695,3.444,4.462,7.521,5.132,11.842l0.697,4.494c0.291,1.873,0.932,3.675,1.891,5.311l2.629,4.484
						l-46.929,126.315h51.305l14.531-123.175l9.042-9.653l7.211-7.698c1.747-1.865,3.717-3.507,5.867-4.889l15.661-10.068
						C364.674,320.186,364.529,318.579,363.352,318.095z"/>
					<path fill="#FFFFFF" d="M258.713,476.356h79.928c0.951,0,1.644,0.902,1.397,1.821l-10.631,38.824h-92.354l15.211-36.472
						C253.404,477.99,255.929,476.356,258.713,476.356z"/>
				</g>
				<g>
					<path fill="#FFFFFF" d="M130.056,304.549c0.695-0.286,1.456-0.333,2.177-0.159c1.256,0.551,2.844,1.247,4.679,2.053
						c2.321,1.017,5.029,2.204,7.93,3.475c1.459,0.626,2.936,1.304,4.492,1.936c1.549,0.606,3.122,1.221,4.696,1.836
						c1.57,0.622,3.166,1.201,4.641,1.91c1.486,0.704,2.862,1.569,4.115,2.5c1.249,0.937,2.404,1.92,3.38,2.971
						c0.518,0.497,0.952,1.046,1.402,1.549c0.408,0.537,0.836,1.033,1.178,1.559c0.178,0.258,0.353,0.51,0.524,0.757
						c0.158,0.255,0.311,0.505,0.462,0.749c0.315,0.479,0.562,0.963,0.808,1.411c0.256,0.443,0.44,0.886,0.633,1.284
						c0.195,0.399,0.352,0.772,0.49,1.113c0.295,0.673,0.476,1.227,0.605,1.602c0.129,0.374,0.198,0.573,0.198,0.573l0.063-0.017
						c0,0-0.054-0.205-0.156-0.588c-0.101-0.384-0.239-0.946-0.487-1.65c-0.219-0.714-0.56-1.551-0.997-2.491
						c-0.227-0.466-0.454-0.971-0.75-1.474c-0.143-0.254-0.29-0.515-0.44-0.782c-0.167-0.257-0.337-0.519-0.512-0.788
						c-0.334-0.547-0.755-1.066-1.158-1.628c-0.445-0.528-0.874-1.102-1.39-1.627c-0.999-1.078-2.157-2.123-3.46-3.059
						c-1.295-0.946-2.726-1.799-4.26-2.491c-1.538-0.7-3.136-1.241-4.714-1.842c-1.583-0.591-3.166-1.181-4.724-1.763
						c-0.209-0.081-0.413-0.171-0.621-0.254c0.559-0.176,0.973-0.876,0.131-1.836l-0.091-0.094c-2.073-2.14-4.351-4.072-6.802-5.766
						l-10.483-7.248c-1.274-0.881-1.155-2.801,0.219-3.517c1.178-0.615,2.585-0.606,3.755,0.022l9.222,4.953
						c0.285,0.153,0.565,0.317,0.837,0.492l8.006,5.136c0.159,0.102,0.335-0.103,0.21-0.245l-15.014-17.101
						c-1.168-1.33-0.223-3.416,1.546-3.416c2.014,0,3.953,0.769,5.42,2.149l14.891,14.015c0.273,0.257,0.712-0.007,0.613-0.369
						l-1.578-5.761c-0.585-2.134-1.367-4.208-2.339-6.195l-3.036-6.213c-0.668-1.367,0.327-2.961,1.849-2.961
						c1.63,0,3.128,0.896,3.899,2.331l6.887,12.818l8.079,16.685c0.808,1.668,3.076,1.93,4.243,0.489
						c2.988-3.691,6.739-6.692,10.997-8.795l1.121-0.554c1.26-0.623,2.749-0.571,3.963,0.137c0.487,0.284,0.611,0.932,0.264,1.376
						l-6.236,7.969c-2.396,3.062-3.967,6.687-4.563,10.528l-0.62,3.996c-0.258,1.666-0.829,3.268-1.681,4.722l-2.337,3.987
						l41.723,112.303h-45.614l-12.919-109.51l-8.039-8.582l-6.411-6.844c-1.553-1.658-3.305-3.118-5.216-4.346l-13.924-8.951
						C128.881,306.408,129.01,304.979,130.056,304.549z"/>
					<path fill="#FFFFFF" d="M223.087,445.253h-71.061c-0.846,0-1.461,0.802-1.242,1.619l18.813,70.129h89.778l-30.554-68.037
						C227.807,446.706,225.562,445.253,223.087,445.253z"/>
				</g>
			</g>
			<g>
				<g>
					<path fill="#FFFFFF" d="M446.101,184.874c-0.465,0.184-1.029,0.676-1.671,1.356c-1.28,1.376-2.833,3.589-4.557,6.328
						c-1.715,2.747-3.6,6.027-5.534,9.588c-0.975,1.777-1.926,3.643-2.915,5.527c-0.982,1.892-1.944,3.817-2.891,5.768
						c-0.961,1.937-1.897,3.886-2.79,5.818c-0.887,1.934-1.777,3.83-2.585,5.688c-0.806,1.859-1.589,3.654-2.29,5.374
						c-0.696,1.721-1.343,3.353-1.901,4.873c-1.11,3.04-1.907,5.624-2.211,7.479c-0.145,0.923-0.188,1.671-0.048,2.151
						c0.121,0.492,0.427,0.619,0.409,0.625c2.363,1.159,10.934-11.475,19.144-28.219c8.209-16.744,12.948-31.256,10.585-32.415
						C446.85,184.832,446.568,184.669,446.101,184.874z"/>
					<path fill="#FFFFFF" d="M439.075,142.162l-56.198,48.894l-4.237,74.37l28.554-24.843l9.923,4.865
						c0.019-0.01-0.301-0.085-0.504-0.592c-0.206-0.486-0.277-1.262-0.222-2.222c0.104-1.927,0.654-4.625,1.568-7.77
						c0.455-1.574,0.991-3.266,1.619-5.032c0.623-1.768,1.306-3.624,2.078-5.516c0.77-1.893,1.572-3.847,2.46-5.8
						c0.881-1.956,1.804-3.929,2.753-5.891c0.964-1.946,1.966-3.893,2.97-5.784c0.997-1.899,2.054-3.729,3.078-5.497
						c2.063-3.528,4.139-6.738,6.075-9.383c1.926-2.649,3.723-4.736,5.184-5.997c0.725-0.631,1.383-1.05,1.893-1.185
						c0.521-0.15,0.782,0.057,0.777,0.036l-21.589-9.206c-0.726-0.31-1.559-0.201-2.184,0.281
						c-3.063,2.361-9.792,8.618-19.604,25.262c7.575-16.853,16.78-29.378,19.144-28.219l14.311,7.017L439.075,142.162z"/>
					<path fill="#FFFFFF" d="M376.974,264.609c0.5-12.407,1.11-24.807,1.736-37.207l2.002-37.192l0.011-0.21l0.159-0.138
						l28.174-24.36l14.141-12.118l14.211-12.039l-13.889,12.408l-13.958,12.329l-28.024,24.534l0.171-0.348l-2.235,37.178
						C378.688,239.837,377.886,252.226,376.974,264.609z"/>
				</g>
				<g>
					<path fill="#FFFFFF" d="M416.393,262.826c-0.155,0-0.306-0.001-0.451-0.003c-9.946-0.146-18.73-4.641-21.86-11.185l1.805-0.863
						c2.766,5.783,11.025,9.915,20.085,10.048c5.973,0.073,20.942-1.603,29.985-19.163l1.777,0.916
						C438.398,260.707,423.04,262.826,416.393,262.826z"/>
				</g>
				<g>
					<circle fill="#FFFFFF" cx="446.845" cy="242.119" r="2.093"/>
					<path fill="#FFFFFF" d="M446.119,242.119l0.726-17.161c0,0,9.353-1.618,15.325,7.342l-14.718,10.266L446.119,242.119z"/>
				</g>
			</g>
			<g>
				<g>
					<path fill="#FFFFFF" d="M188.014,257.043c-0.094-0.491-0.472-1.138-1.02-1.894c-1.113-1.514-2.997-3.454-5.366-5.659
						c-2.379-2.198-5.248-4.662-8.386-7.227c-1.563-1.289-3.219-2.573-4.885-3.896c-1.676-1.318-3.387-2.623-5.127-3.918
						c-1.723-1.306-3.464-2.589-5.194-3.828c-1.734-1.233-3.431-2.461-5.105-3.602c-1.675-1.139-3.293-2.243-4.852-3.253
						c-1.561-1.005-3.043-1.945-4.432-2.778c-2.779-1.658-5.169-2.924-6.934-3.569c-0.88-0.314-1.607-0.497-2.104-0.449
						c-0.505,0.027-0.688,0.304-0.69,0.285c-1.58,2.105,9.231,12.885,24.147,24.077c14.916,11.192,28.288,18.558,29.868,16.453
						C187.915,257.786,188.128,257.54,188.014,257.043z"/>
					<path fill="#FFFFFF" d="M231.286,258.117l-37.538-64.341l-72.27-18.052l19.073,32.691l-6.633,8.84
						c0.006,0.021,0.14-0.28,0.676-0.384c0.516-0.111,1.292-0.037,2.224,0.197c1.874,0.462,4.422,1.506,7.34,2.992
						c1.461,0.741,3.023,1.583,4.641,2.53c1.621,0.942,3.316,1.96,5.031,3.072c1.716,1.11,3.486,2.263,5.238,3.499
						c1.757,1.231,3.523,2.506,5.273,3.805c1.732,1.311,3.457,2.658,5.128,3.998c1.68,1.335,3.279,2.714,4.825,4.05
						c3.081,2.686,5.847,5.325,8.083,7.72c2.243,2.387,3.957,4.542,4.924,6.212c0.485,0.83,0.773,1.555,0.81,2.081
						c0.05,0.54-0.202,0.758-0.18,0.756l13.076-19.49c0.44-0.656,0.489-1.494,0.132-2.198c-1.747-3.45-6.638-11.229-21.156-23.978
						c15.142,10.589,25.727,21.972,24.147,24.077l-9.566,12.749L231.286,258.117z"/>
					<path fill="#FFFFFF" d="M122.592,174.24c12.095,2.809,24.163,5.724,36.228,8.655l36.163,8.913l0.205,0.05l0.106,0.182
						l18.67,32.228l9.264,16.156l9.173,16.209l-9.596-15.962l-9.505-16.015l-18.868-32.113l0.31,0.233l-36.107-9.139
						C146.608,180.552,134.587,177.449,122.592,174.24z"/>
				</g>
				<g>
					<path fill="#FFFFFF" d="M213.912,306.576c-12.991-15.396-11.399-45.964-3.515-57.002l1.628,1.162
						c-7.537,10.551-9.032,39.799,3.415,54.551L213.912,306.576z"/>
				</g>
				<g>
					<circle fill="#FFFFFF" cx="214.776" cy="305.978" r="2.093"/>
					<path fill="#FFFFFF" d="M214.983,305.281l16.243,5.584c0,0-1.113,9.426-11.402,12.6l-5.649-17.032L214.983,305.281z"/>
				</g>
			</g>
			<g>
				<g>
					<path fill="#FFFFFF" d="M264.574,275.583l11.478-5.873l11.234-5.659l3.415-12.106l3.577-12.387
						c1.2-4.127,2.427-8.246,3.661-12.363c1.267-4.108,2.487-8.229,3.796-12.326l-42.292,26.227l-17.682,46.516
						c3.772-2.066,7.584-4.05,11.375-6.078C256.942,279.537,260.751,277.548,264.574,275.583z"/>
					<path fill="#FFFFFF" d="M295.339,239.854l-3.349,12.451l-3.425,12.429l-0.084,0.304l-0.282,0.14l-11.547,5.734l-11.583,5.661
						c-0.809,0.393-1.623,0.777-2.433,1.169l9.887,8.152c1.618,1.334,10.405-6.65,19.625-17.833
						c9.22-11.183,15.383-21.331,13.764-22.665l-9.889-8.153C295.793,238.112,295.571,238.984,295.339,239.854z"/>
				</g>
				<g>
					<path fill="#FFFFFF" d="M293.873,221.961c-1.645-9.201-9.06-19.155-18.45-24.771c-7.926-4.739-16.47-5.985-24.059-3.502
						l-0.622-1.901c8.148-2.664,17.276-1.355,25.706,3.687c10.013,5.987,17.625,16.246,19.393,26.136L293.873,221.961z"/>
				</g>
				<g>
					<circle fill="#FFFFFF" cx="251.125" cy="192.802" r="1.697"/>
					<path fill="#FFFFFF" d="M251.575,193.181l-9.414,10.264c0,0-6.646-3.882-5.67-12.558l14.49,1.321L251.575,193.181z"/>
				</g>
			</g>
			<g>
				<g>
					<path fill="#FFFFFF" d="M322.522,154.429l-2.53,16.77l-2.571,16.345l10.316,12.937l10.492,13.325
						c3.489,4.448,6.95,8.919,10.402,13.397c3.418,4.505,6.885,8.971,10.259,13.512l4.421-65.311l-36.14-54.58
						c-0.686,5.615-1.491,11.211-2.232,16.818C324.152,143.24,323.355,148.837,322.522,154.429z"/>
					<path fill="#FFFFFF" d="M337.097,214.713l-10.735-13.13l-10.654-13.195l-0.26-0.322l0.067-0.409l2.732-16.737l2.837-16.721
						c0.2-1.167,0.415-2.331,0.618-3.497l-16.296,4.311c-2.668,0.706-0.877,16.22,4,34.652
						c4.876,18.432,10.992,32.801,13.659,32.096l16.299-4.312C338.611,216.535,337.848,215.628,337.097,214.713z"/>
				</g>
				<g>
					<path fill="#FFFFFF" d="M338.617,265.245c-5.508,0.001-10.554-4.661-13.789-12.907l1.861-0.73
						c3.257,8.3,8.359,12.579,13.617,11.457c6.799-1.451,13.693-12.112,12.763-32.092l1.998-0.093
						c0.69,14.822-3.504,31.827-14.343,34.14C340.017,265.171,339.313,265.245,338.617,265.245z"/>
				</g>
				<g>
					<circle fill="#FFFFFF" cx="325.886" cy="251.864" r="2.093"/>
					<path fill="#FFFFFF" d="M325.414,252.416l-12.569-11.706c0,0,4.85-8.159,15.541-6.874l-1.766,17.857L325.414,252.416z"/>
				</g>
			</g>
			<g>
				<g>
					<path fill="#FFFFFF" d="M74.484,152.391l-4.305,16.404l-4.301,15.977l8.876,13.964l9.01,14.368
						c2.994,4.795,5.958,9.61,8.913,14.43c2.918,4.844,5.888,9.655,8.758,14.529l11.366-64.466l-30.109-58.125
						c-1.281,5.51-2.678,10.988-4.014,16.483C77.298,141.439,75.909,146.92,74.484,152.391z"/>
					<path fill="#FFFFFF" d="M82.543,213.886l-9.272-14.201l-9.185-14.257l-0.224-0.348l0.11-0.4l4.503-16.35l4.605-16.323
						c0.324-1.139,0.661-2.273,0.988-3.411l-16.663,2.548c-2.728,0.417-2.603,16.034,0.279,34.88
						c2.882,18.847,7.429,33.787,10.156,33.37l16.666-2.548C83.853,215.859,83.192,214.876,82.543,213.886z"/>
				</g>
				<g>
					<path fill="#FFFFFF" d="M107.369,282.936l-1.345-1.48c6.362-5.777,9.422-14.732,8.395-24.568
						c-1.119-10.715-6.876-20.331-15.026-25.098l1.01-1.727c8.69,5.082,14.822,15.281,16.006,26.617
						C117.502,267.156,114.207,276.727,107.369,282.936z"/>
				</g>
				<g>
					<circle fill="#FFFFFF" cx="112.042" cy="274.714" r="2.093"/>
					<path fill="#FFFFFF" d="M112.764,274.795l-2.648,16.971c0,0-9.475,0.557-14.405-9.015l15.777-8.549L112.764,274.795z"/>
				</g>
			</g>
		</g>
	</g>
</g>
<g id="OBJECTS" display="none">
	<g display="inline">
		<text transform="matrix(1 0 0 1 90.0725 94.1111)" fill="#023942" font-family="'RobotoSlab-Regular'" font-size="36">Happy Graduation</text>
		<text transform="matrix(1 0 0 1 179.2439 58.9297)"><tspan x="0" y="0" fill="#023942" font-family="'Ubuntu-Bold'" font-size="18" letter-spacing="2">class of 201</tspan><tspan x="132.28" y="0" fill="#023942" font-family="'Ubuntu-Bold'" font-size="18">7</tspan></text>
	</g>
</g>
<g id="DESIGNED_BY_FREEPIK" display="none">
	<g display="inline">
		<g>
			<path fill="#FFFFFF" d="M175.869,479.07c-0.14-0.17-0.34-0.25-0.61-0.25c-0.27,0-0.47,0.09-0.62,0.27
				c-0.14,0.19-0.21,0.46-0.21,0.82v2.6c-0.33-0.359-0.67-0.63-1.02-0.81c-0.35-0.17-0.77-0.26-1.28-0.26
				c-0.87,0-1.58,0.31-2.12,0.92c-0.53,0.62-0.8,1.47-0.8,2.57c0,0.52,0.07,1,0.2,1.449c0.14,0.45,0.33,0.841,0.6,1.17
				c0.26,0.33,0.57,0.58,0.93,0.761c0.35,0.18,0.74,0.27,1.16,0.27c0.32,0,0.62-0.05,0.88-0.14c0.27-0.08,0.52-0.21,0.75-0.38
				c0.23-0.17,0.46-0.391,0.7-0.66v0.17c0,0.32,0.08,0.57,0.23,0.75c0.16,0.17,0.36,0.26,0.6,0.26c0.24,0,0.44-0.09,0.6-0.25
				c0.15-0.17,0.23-0.42,0.23-0.76v-7.75C176.089,479.49,176.019,479.24,175.869,479.07z M174.099,486.24
				c-0.15,0.33-0.35,0.58-0.61,0.74c-0.25,0.16-0.54,0.24-0.84,0.24c-0.31,0-0.59-0.091-0.85-0.261c-0.26-0.17-0.46-0.42-0.61-0.75
				c-0.14-0.34-0.22-0.739-0.22-1.22c0-0.45,0.07-0.85,0.21-1.19c0.14-0.34,0.34-0.6,0.59-0.779c0.25-0.181,0.54-0.28,0.86-0.28
				c0.31,0,0.6,0.09,0.86,0.27c0.26,0.181,0.46,0.44,0.61,0.771c0.16,0.34,0.23,0.74,0.23,1.21
				C174.329,485.49,174.259,485.9,174.099,486.24z"/>
			<path fill="#FFFFFF" d="M182.919,486.16c-0.17,0-0.3,0.04-0.39,0.12c-0.22,0.2-0.4,0.37-0.53,0.49
				c-0.14,0.12-0.29,0.229-0.45,0.34c-0.17,0.1-0.33,0.18-0.51,0.23c-0.17,0.051-0.36,0.07-0.57,0.07c-0.32,0-0.6-0.08-0.86-0.229
				c-0.26-0.15-0.47-0.381-0.63-0.69c-0.16-0.3-0.24-0.66-0.24-1.05h3.44c0.46,0,0.81-0.07,1.07-0.2c0.25-0.13,0.38-0.42,0.38-0.86
				c0-0.48-0.13-0.94-0.37-1.4c-0.24-0.46-0.61-0.84-1.11-1.13c-0.49-0.29-1.08-0.431-1.76-0.431c-0.53,0-1.01,0.08-1.44,0.25
				c-0.44,0.17-0.8,0.42-1.1,0.73c-0.29,0.32-0.52,0.7-0.67,1.149c-0.16,0.44-0.24,0.921-0.24,1.44c0,1.1,0.32,1.98,0.94,2.62
				c0.63,0.64,1.51,0.97,2.64,0.97c0.49,0,0.93-0.07,1.31-0.2c0.38-0.13,0.69-0.29,0.94-0.48c0.25-0.2,0.44-0.4,0.57-0.61
				c0.12-0.22,0.18-0.399,0.18-0.56c0-0.181-0.05-0.32-0.16-0.42C183.239,486.21,183.099,486.16,182.919,486.16z M179.249,483.09
				c0.28-0.3,0.64-0.449,1.08-0.449c0.46,0,0.83,0.149,1.11,0.449c0.28,0.301,0.44,0.75,0.49,1.351h-3.19
				C178.799,483.851,178.969,483.4,179.249,483.09z"/>
			<path fill="#FFFFFF" d="M189.919,485.42c-0.18-0.25-0.44-0.47-0.79-0.649c-0.34-0.19-0.79-0.351-1.33-0.48
				c-0.46-0.109-0.82-0.21-1.08-0.28c-0.27-0.079-0.47-0.18-0.63-0.3c-0.15-0.109-0.23-0.27-0.23-0.45c0-0.199,0.1-0.369,0.31-0.51
				c0.22-0.13,0.48-0.2,0.8-0.2c0.31,0,0.55,0.051,0.73,0.16c0.18,0.101,0.34,0.24,0.47,0.41c0.16,0.2,0.31,0.36,0.43,0.46
				c0.13,0.1,0.28,0.16,0.46,0.16c0.25,0,0.45-0.07,0.58-0.2c0.14-0.13,0.2-0.29,0.2-0.49c0-0.19-0.06-0.38-0.19-0.569
				c-0.12-0.19-0.31-0.37-0.55-0.53c-0.24-0.16-0.54-0.28-0.91-0.38c-0.36-0.09-0.77-0.14-1.22-0.14c-0.58,0-1.08,0.09-1.49,0.279
				c-0.41,0.19-0.72,0.44-0.93,0.75c-0.21,0.311-0.31,0.65-0.31,1c0,0.391,0.11,0.73,0.34,1c0.23,0.271,0.53,0.49,0.91,0.65
				c0.38,0.16,0.87,0.32,1.48,0.47c0.53,0.13,0.92,0.27,1.15,0.41c0.24,0.14,0.35,0.37,0.35,0.67c0,0.21-0.11,0.38-0.33,0.54
				c-0.23,0.16-0.52,0.24-0.87,0.24c-0.43,0-0.78-0.08-1.03-0.23c-0.25-0.16-0.46-0.39-0.65-0.71c-0.08-0.16-0.18-0.29-0.28-0.38
				c-0.1-0.09-0.24-0.13-0.42-0.13c-0.21,0-0.39,0.07-0.52,0.2c-0.14,0.14-0.21,0.31-0.21,0.5c0,0.29,0.11,0.58,0.32,0.87
				c0.22,0.29,0.55,0.529,1,0.73c0.45,0.19,0.99,0.29,1.62,0.29c0.66,0,1.22-0.09,1.68-0.27c0.47-0.181,0.82-0.44,1.05-0.79
				c0.24-0.34,0.35-0.761,0.35-1.24C190.179,485.96,190.099,485.67,189.919,485.42z"/>
			<path fill="#FFFFFF" d="M192.599,481.7c-0.17-0.18-0.38-0.27-0.64-0.27c-0.26,0-0.47,0.09-0.63,0.27
				c-0.16,0.17-0.24,0.43-0.24,0.78v5.029c0,0.341,0.08,0.601,0.24,0.79c0.16,0.181,0.37,0.28,0.63,0.28c0.26,0,0.47-0.09,0.64-0.27
				c0.17-0.181,0.25-0.45,0.25-0.801v-5.079C192.849,482.12,192.769,481.87,192.599,481.7z M192.579,479.11
				c-0.17-0.14-0.37-0.22-0.6-0.22c-0.24,0-0.44,0.08-0.62,0.25c-0.18,0.159-0.27,0.359-0.27,0.609c0,0.28,0.09,0.49,0.26,0.641
				c0.18,0.149,0.39,0.22,0.63,0.22c0.24,0,0.44-0.07,0.61-0.22c0.17-0.16,0.26-0.37,0.26-0.641
				C192.849,479.471,192.759,479.26,192.579,479.11z"/>
			<path fill="#FFFFFF" d="M200.379,481.76c-0.11-0.22-0.34-0.329-0.68-0.329c-0.23,0-0.43,0.09-0.58,0.25
				c-0.15,0.17-0.22,0.409-0.22,0.71v0.239c-0.31-0.409-0.65-0.71-1.02-0.9c-0.36-0.19-0.79-0.29-1.29-0.29
				c-0.42,0-0.8,0.08-1.15,0.229c-0.35,0.141-0.65,0.36-0.92,0.66c-0.26,0.29-0.47,0.65-0.61,1.07c-0.15,0.43-0.22,0.899-0.22,1.43
				c0,0.71,0.12,1.33,0.36,1.87c0.23,0.54,0.57,0.96,1.01,1.26c0.44,0.311,0.95,0.46,1.54,0.46c0.49,0,0.91-0.1,1.27-0.3
				c0.35-0.2,0.66-0.49,0.93-0.86c-0.01,0.57-0.02,0.99-0.04,1.25c-0.01,0.261-0.07,0.5-0.17,0.73c-0.1,0.23-0.28,0.4-0.53,0.53
				c-0.25,0.13-0.6,0.189-1.06,0.189c-0.22,0-0.42-0.02-0.59-0.06c-0.17-0.04-0.32-0.101-0.44-0.19c-0.12-0.08-0.24-0.18-0.34-0.3
				c-0.1-0.12-0.2-0.24-0.29-0.35c-0.19-0.23-0.42-0.34-0.68-0.34c-0.2,0-0.38,0.069-0.52,0.199c-0.15,0.141-0.22,0.311-0.22,0.53
				c0,0.28,0.13,0.55,0.38,0.82c0.26,0.27,0.63,0.489,1.1,0.66c0.48,0.17,1.02,0.25,1.63,0.25c0.66,0,1.21-0.061,1.65-0.2
				c0.45-0.13,0.81-0.33,1.08-0.61c0.28-0.27,0.48-0.62,0.6-1.04c0.12-0.42,0.19-0.92,0.19-1.51v-5.1
				C200.549,482.3,200.489,481.98,200.379,481.76z M198.589,486.17c-0.16,0.311-0.37,0.551-0.63,0.7c-0.26,0.16-0.54,0.24-0.83,0.24
				c-0.49,0-0.9-0.18-1.21-0.55c-0.31-0.36-0.46-0.9-0.46-1.61c0-0.71,0.15-1.25,0.45-1.63c0.3-0.38,0.7-0.58,1.21-0.58
				c0.51,0,0.93,0.2,1.24,0.6c0.32,0.4,0.48,0.96,0.48,1.681C198.839,485.471,198.749,485.851,198.589,486.17z"/>
			<path fill="#FFFFFF" d="M207.899,483.28c-0.03-0.24-0.11-0.48-0.22-0.69c-0.18-0.369-0.45-0.649-0.82-0.859
				c-0.36-0.2-0.78-0.3-1.24-0.3c-0.48,0-0.9,0.1-1.27,0.29c-0.1,0.05-0.19,0.109-0.29,0.18c-0.25,0.18-0.49,0.42-0.72,0.72v-0.22
				c0-0.21-0.04-0.391-0.11-0.53c-0.08-0.149-0.18-0.26-0.3-0.33c-0.13-0.069-0.27-0.109-0.42-0.109c-0.25,0-0.45,0.079-0.6,0.25
				c-0.15,0.159-0.22,0.409-0.22,0.75v5.079c0,0.341,0.08,0.601,0.25,0.79c0.16,0.181,0.37,0.28,0.62,0.28
				c0.26,0,0.48-0.09,0.64-0.27c0.17-0.181,0.25-0.45,0.25-0.801v-2.199c0-0.721,0.04-1.21,0.13-1.471
				c0.12-0.33,0.31-0.58,0.56-0.77c0.26-0.19,0.55-0.28,0.86-0.28c0.48,0,0.8,0.15,0.96,0.46c0.16,0.31,0.24,0.75,0.24,1.33v2.93
				c0,0.341,0.09,0.601,0.25,0.79c0.16,0.181,0.37,0.28,0.64,0.28c0.25,0,0.46-0.09,0.62-0.27c0.17-0.181,0.25-0.45,0.25-0.801
				v-3.27C207.959,483.851,207.939,483.53,207.899,483.28z"/>
			<path fill="#FFFFFF" d="M214.769,486.16c-0.17,0-0.29,0.04-0.38,0.12c-0.22,0.2-0.4,0.37-0.54,0.49
				c-0.14,0.12-0.29,0.229-0.45,0.34c-0.16,0.1-0.33,0.18-0.5,0.23c-0.17,0.051-0.35,0.07-0.55,0.07h-0.01c-0.01,0-0.01,0-0.02,0
				c-0.31,0-0.6-0.08-0.86-0.229c-0.26-0.15-0.47-0.381-0.62-0.69c-0.03-0.06-0.06-0.11-0.08-0.17v-0.01
				c-0.11-0.261-0.16-0.56-0.17-0.87h3.44c0.46,0,0.82-0.07,1.07-0.2c0.25-0.13,0.38-0.42,0.38-0.86c0-0.48-0.12-0.94-0.37-1.4
				c-0.24-0.46-0.61-0.84-1.1-1.13c-0.49-0.29-1.08-0.431-1.77-0.431c-0.53,0-1.01,0.08-1.44,0.25c-0.43,0.17-0.8,0.42-1.09,0.73
				c-0.3,0.32-0.53,0.7-0.68,1.149c-0.15,0.44-0.23,0.921-0.23,1.44c0,1.1,0.31,1.98,0.94,2.62c0.62,0.64,1.5,0.97,2.63,0.97
				c0.49,0,0.93-0.07,1.31-0.2c0.01,0,0.03-0.01,0.04-0.01c0.36-0.13,0.66-0.29,0.91-0.47c0.25-0.2,0.43-0.4,0.56-0.61
				c0.12-0.22,0.19-0.399,0.19-0.56c0-0.181-0.06-0.32-0.17-0.42C215.099,486.21,214.949,486.16,214.769,486.16z M211.109,483.09
				c0.28-0.3,0.64-0.449,1.07-0.449c0.46,0,0.83,0.149,1.11,0.449c0.29,0.301,0.45,0.75,0.49,1.351h-3.19
				C210.649,483.851,210.819,483.4,211.109,483.09z"/>
			<path fill="#FFFFFF" d="M222.639,479.07c-0.14-0.17-0.35-0.25-0.61-0.25c-0.271,0-0.48,0.09-0.62,0.27
				c-0.14,0.19-0.22,0.46-0.22,0.82v2.6c-0.33-0.359-0.66-0.63-1.01-0.81c-0.35-0.17-0.78-0.26-1.28-0.26
				c-0.88,0-1.58,0.31-2.12,0.92c-0.54,0.62-0.81,1.47-0.81,2.57c0,0.52,0.07,1,0.21,1.449c0.13,0.45,0.33,0.841,0.59,1.17
				c0.26,0.33,0.57,0.58,0.93,0.761c0.36,0.18,0.75,0.27,1.17,0.27c0.32,0,0.61-0.05,0.88-0.14c0.27-0.08,0.52-0.21,0.75-0.38
				c0.23-0.17,0.46-0.391,0.69-0.66v0.17c0,0.32,0.08,0.57,0.24,0.75c0.16,0.17,0.35,0.26,0.6,0.26c0.24,0,0.44-0.09,0.59-0.25
				c0.16-0.17,0.24-0.42,0.24-0.76v-7.75C222.859,479.49,222.779,479.24,222.639,479.07z M220.869,486.24
				c-0.15,0.33-0.36,0.58-0.61,0.74c-0.26,0.16-0.54,0.24-0.85,0.24c-0.3,0-0.58-0.091-0.84-0.261c-0.26-0.17-0.46-0.42-0.61-0.75
				c-0.15-0.34-0.22-0.739-0.22-1.22c0-0.45,0.07-0.85,0.21-1.19c0.14-0.34,0.33-0.6,0.59-0.779c0.25-0.181,0.54-0.28,0.86-0.28
				c0.31,0,0.59,0.09,0.85,0.27c0.26,0.181,0.47,0.44,0.62,0.771c0.15,0.34,0.23,0.74,0.23,1.21
				C221.099,485.49,221.019,485.9,220.869,486.24z"/>
			<path fill="#FFFFFF" d="M233.219,483.06c-0.24-0.52-0.58-0.92-1.02-1.2c-0.44-0.28-0.95-0.42-1.54-0.42
				c-0.5,0-0.93,0.1-1.27,0.28c-0.35,0.18-0.68,0.439-1.01,0.789v-2.689c0-0.32-0.08-0.57-0.22-0.74c-0.15-0.18-0.36-0.26-0.63-0.26
				c-0.25,0-0.45,0.09-0.6,0.27c-0.14,0.181-0.21,0.45-0.21,0.811v7.67c0,0.33,0.07,0.58,0.22,0.75c0.15,0.17,0.34,0.26,0.59,0.26
				s0.45-0.09,0.61-0.26c0.16-0.17,0.24-0.42,0.24-0.75v-0.17c0.19,0.22,0.35,0.39,0.46,0.5c0.12,0.109,0.26,0.22,0.43,0.33
				c0.17,0.1,0.37,0.189,0.61,0.25c0.24,0.06,0.49,0.1,0.76,0.1c0.44,0,0.85-0.09,1.22-0.27c0.36-0.181,0.68-0.431,0.93-0.761
				c0.26-0.319,0.46-0.71,0.59-1.149c0.14-0.45,0.2-0.93,0.2-1.47C233.579,484.21,233.459,483.59,233.219,483.06z M231.339,486.641
				c-0.32,0.39-0.7,0.58-1.14,0.58c-0.52,0-0.94-0.19-1.26-0.57c-0.32-0.37-0.48-0.91-0.48-1.61c0-0.47,0.08-0.89,0.23-1.23
				c0.15-0.351,0.35-0.61,0.61-0.79c0.27-0.181,0.56-0.28,0.9-0.28c0.32,0,0.61,0.1,0.85,0.28c0.25,0.18,0.44,0.439,0.57,0.77
				c0.13,0.34,0.2,0.74,0.2,1.2C231.819,485.71,231.659,486.26,231.339,486.641z"/>
			<path fill="#FFFFFF" d="M240.009,481.82c-0.07-0.12-0.16-0.21-0.28-0.28c-0.12-0.069-0.25-0.109-0.38-0.109
				c-0.19,0-0.33,0.029-0.43,0.1c-0.1,0.06-0.2,0.19-0.29,0.37c-0.09,0.189-0.19,0.439-0.3,0.77l-1.41,4.021l-1.49-4.33
				c-0.1-0.3-0.21-0.53-0.34-0.69c-0.13-0.16-0.32-0.239-0.57-0.239c-0.15,0-0.29,0.04-0.42,0.119c-0.14,0.07-0.25,0.181-0.32,0.31
				c-0.08,0.12-0.12,0.26-0.12,0.41c0,0.149,0.07,0.37,0.2,0.689l2.16,5.44l-0.16,0.399c-0.12,0.28-0.22,0.5-0.32,0.65
				c-0.09,0.15-0.19,0.25-0.31,0.31c-0.11,0.061-0.27,0.091-0.47,0.091c-0.09,0-0.18-0.011-0.29-0.04
				c-0.09-0.02-0.19-0.04-0.28-0.04c-0.24,0-0.42,0.06-0.54,0.17c-0.13,0.109-0.19,0.26-0.19,0.46c0,0.3,0.13,0.5,0.39,0.62
				c0.26,0.109,0.64,0.16,1.16,0.16c0.521,0,0.94-0.08,1.25-0.24c0.32-0.16,0.57-0.391,0.75-0.69c0.19-0.3,0.39-0.71,0.58-1.24
				l2.3-6c0.05-0.159,0.1-0.31,0.14-0.46c0.039-0.149,0.06-0.27,0.08-0.35C240.109,482.07,240.079,481.94,240.009,481.82z"/>
		</g>
		<g>
			<path fill="#FFFFFF" d="M261.319,481.583h0.419v-0.527c0-0.552,0.067-0.987,0.207-1.313c0.139-0.324,0.377-0.561,0.71-0.708
				c0.332-0.147,0.788-0.222,1.367-0.222c1.029,0,1.54,0.249,1.54,0.755c0,0.162-0.054,0.302-0.163,0.417
				c-0.104,0.115-0.232,0.174-0.378,0.174c-0.067,0-0.188-0.013-0.357-0.04c-0.161-0.022-0.307-0.038-0.422-0.038
				c-0.317,0-0.52,0.096-0.614,0.281c-0.086,0.186-0.132,0.453-0.132,0.803v0.418h0.429c0.672,0,1.004,0.201,1.004,0.607
				c0,0.284-0.086,0.468-0.267,0.545c-0.177,0.078-0.423,0.116-0.737,0.116h-0.429v4.656c0,0.347-0.082,0.61-0.25,0.792
				c-0.164,0.185-0.376,0.275-0.639,0.275c-0.249,0-0.455-0.091-0.622-0.275c-0.166-0.182-0.247-0.445-0.247-0.792v-4.656h-0.484
				c-0.263,0-0.462-0.057-0.605-0.178c-0.142-0.115-0.213-0.271-0.213-0.459C260.435,481.792,260.73,481.583,261.319,481.583
				L261.319,481.583z"/>
			<path fill="#FFFFFF" d="M267.072,486.039v1.469c0,0.355-0.09,0.623-0.253,0.8c-0.168,0.18-0.379,0.268-0.636,0.268
				c-0.259,0-0.466-0.089-0.628-0.271c-0.16-0.179-0.244-0.444-0.244-0.796v-4.895c0-0.79,0.284-1.186,0.854-1.186
				c0.294,0,0.503,0.092,0.633,0.276c0.128,0.185,0.199,0.457,0.215,0.819c0.208-0.362,0.423-0.634,0.643-0.819
				c0.225-0.185,0.517-0.276,0.888-0.276c0.372,0,0.727,0.092,1.074,0.276c0.349,0.185,0.522,0.432,0.522,0.735
				c0,0.214-0.075,0.394-0.221,0.53c-0.149,0.142-0.308,0.211-0.479,0.211c-0.067,0-0.225-0.043-0.47-0.122
				c-0.247-0.077-0.467-0.117-0.652-0.117c-0.258,0-0.47,0.069-0.632,0.202c-0.164,0.139-0.291,0.337-0.382,0.601
				c-0.088,0.268-0.148,0.587-0.185,0.952C267.088,485.064,267.072,485.512,267.072,486.039L267.072,486.039z"/>
			<path fill="#FFFFFF" d="M275.889,486.16c-0.16,0-0.29,0.04-0.38,0.12c-0.22,0.2-0.399,0.37-0.54,0.479
				c-0.14,0.131-0.279,0.24-0.449,0.341c-0.16,0.109-0.33,0.189-0.5,0.23c-0.181,0.06-0.37,0.08-0.58,0.08
				c-0.311,0-0.601-0.08-0.86-0.229c-0.26-0.16-0.47-0.391-0.63-0.69c-0.15-0.3-0.23-0.66-0.24-1.06h3.44
				c0.46,0,0.819-0.061,1.069-0.19c0.25-0.14,0.38-0.42,0.38-0.86c0-0.48-0.12-0.94-0.37-1.409c-0.239-0.461-0.609-0.83-1.1-1.12
				c-0.49-0.29-1.08-0.431-1.77-0.431c-0.53,0-1.011,0.08-1.44,0.25c-0.43,0.17-0.8,0.41-1.09,0.73c-0.3,0.32-0.53,0.7-0.68,1.14
				c-0.16,0.45-0.23,0.931-0.23,1.45c0,1.1,0.31,1.98,0.94,2.62c0.619,0.64,1.5,0.96,2.63,0.96c0.489,0,0.93-0.061,1.31-0.19
				c0.38-0.13,0.7-0.29,0.95-0.48c0.25-0.2,0.44-0.4,0.57-0.62c0.12-0.21,0.18-0.39,0.18-0.55c0-0.181-0.06-0.32-0.17-0.42
				C276.219,486.21,276.069,486.16,275.889,486.16z M272.228,483.09c0.28-0.3,0.641-0.449,1.07-0.449c0.471,0,0.83,0.149,1.12,0.449
				c0.28,0.29,0.44,0.74,0.48,1.341h-3.19C271.77,483.84,271.939,483.4,272.228,483.09z"/>
			<path fill="#FFFFFF" d="M283.199,486.16c-0.16,0-0.29,0.04-0.38,0.12c-0.221,0.2-0.4,0.37-0.54,0.479
				c-0.141,0.131-0.28,0.24-0.45,0.341c-0.16,0.109-0.33,0.189-0.51,0.23c-0.17,0.06-0.36,0.08-0.57,0.08
				c-0.31,0-0.6-0.08-0.86-0.229c-0.26-0.16-0.47-0.391-0.619-0.69c-0.16-0.3-0.24-0.66-0.25-1.06h3.44c0.46,0,0.82-0.061,1.07-0.19
				c0.25-0.14,0.38-0.42,0.38-0.86c0-0.48-0.12-0.94-0.37-1.409c-0.24-0.461-0.61-0.83-1.1-1.12c-0.5-0.29-1.08-0.431-1.771-0.431
				c-0.53,0-1.01,0.08-1.44,0.25c-0.439,0.17-0.8,0.41-1.09,0.73c-0.3,0.32-0.529,0.7-0.68,1.14c-0.16,0.45-0.24,0.931-0.24,1.45
				c0,1.1,0.32,1.98,0.95,2.62c0.62,0.64,1.5,0.96,2.63,0.96c0.49,0,0.93-0.061,1.311-0.19c0.38-0.13,0.699-0.29,0.949-0.48
				c0.25-0.2,0.44-0.4,0.56-0.62c0.13-0.21,0.18-0.39,0.18-0.55c0-0.181-0.05-0.32-0.16-0.42
				C283.529,486.21,283.379,486.16,283.199,486.16z M279.529,483.09c0.29-0.3,0.649-0.449,1.08-0.449c0.46,0,0.83,0.149,1.119,0.449
				c0.28,0.29,0.44,0.74,0.481,1.341h-3.19C279.079,483.84,279.249,483.4,279.529,483.09z"/>
			<path fill="#FFFFFF" d="M291.509,484.78c-0.02-0.65-0.149-1.21-0.38-1.7c-0.27-0.53-0.63-0.94-1.08-1.22
				c-0.46-0.28-0.96-0.42-1.5-0.42c-0.45,0-0.85,0.1-1.2,0.29c-0.359,0.189-0.71,0.49-1.04,0.9v-0.21
				c0-0.33-0.069-0.569-0.229-0.739c-0.16-0.171-0.36-0.25-0.61-0.25s-0.449,0.079-0.6,0.239c-0.15,0.17-0.22,0.42-0.22,0.761v7.579
				c0,0.391,0.06,0.671,0.159,0.881c0.11,0.19,0.33,0.29,0.66,0.29c0.561,0,0.84-0.391,0.84-1.16v-2.63
				c0.181,0.22,0.36,0.409,0.551,0.569c0.14,0.12,0.279,0.221,0.43,0.311c0.34,0.2,0.76,0.3,1.26,0.3c0.42,0,0.811-0.08,1.17-0.24
				c0.37-0.17,0.681-0.41,0.95-0.71c0.26-0.31,0.47-0.689,0.63-1.14c0.15-0.45,0.221-0.95,0.221-1.49
				C291.52,484.92,291.52,484.851,291.509,484.78z M289.529,486.2c-0.15,0.34-0.34,0.59-0.601,0.76
				c-0.239,0.17-0.52,0.261-0.81,0.261c-0.06,0-0.12,0-0.17-0.021c-0.42-0.03-0.771-0.229-1.06-0.57
				c-0.33-0.38-0.489-0.93-0.489-1.63c0-0.74,0.159-1.3,0.5-1.69c0.329-0.38,0.739-0.57,1.22-0.57c0.31,0,0.59,0.09,0.84,0.27
				c0.25,0.181,0.44,0.431,0.58,0.771c0.15,0.33,0.22,0.729,0.22,1.19c0,0.43-0.06,0.8-0.19,1.109
				C289.559,486.12,289.549,486.16,289.529,486.2z"/>
			<path fill="#FFFFFF" d="M293.909,481.69c-0.17-0.181-0.38-0.26-0.64-0.26c-0.25,0-0.461,0.079-0.62,0.26
				c-0.16,0.18-0.25,0.44-0.25,0.79v5.029c0,0.341,0.09,0.601,0.25,0.79c0.159,0.181,0.37,0.271,0.62,0.271
				c0.26,0,0.47-0.08,0.64-0.271c0.17-0.18,0.25-0.44,0.25-0.79v-5.079C294.159,482.11,294.079,481.87,293.909,481.69z
				 M293.899,479.11c-0.181-0.15-0.38-0.22-0.61-0.22c-0.23,0-0.44,0.08-0.62,0.239c-0.18,0.16-0.27,0.37-0.27,0.62
				c0,0.271,0.09,0.48,0.27,0.63c0.17,0.15,0.38,0.23,0.62,0.23c0.24,0,0.439-0.08,0.62-0.23c0.17-0.15,0.25-0.359,0.25-0.63
				C294.159,479.471,294.069,479.25,293.899,479.11z"/>
			<path fill="#FFFFFF" d="M299.827,487.772l-1.548-2.552l-0.954,0.9v1.399c0,0.339-0.09,0.598-0.269,0.779
				c-0.175,0.185-0.384,0.275-0.614,0.275c-0.271,0-0.484-0.089-0.638-0.271c-0.153-0.179-0.232-0.444-0.232-0.796v-7.498
				c0-0.388,0.077-0.685,0.224-0.89c0.151-0.207,0.369-0.307,0.646-0.307c0.271,0,0.483,0.093,0.643,0.279
				c0.158,0.183,0.239,0.456,0.239,0.814v4.265l1.977-2.075c0.245-0.255,0.429-0.435,0.56-0.527
				c0.128-0.095,0.283-0.142,0.467-0.142c0.221,0,0.402,0.07,0.553,0.209c0.143,0.14,0.217,0.316,0.217,0.524
				c0,0.257-0.239,0.603-0.715,1.031l-0.933,0.855l1.802,2.835c0.131,0.213,0.229,0.368,0.287,0.478
				c0.058,0.107,0.088,0.217,0.088,0.313c0,0.28-0.077,0.498-0.23,0.661c-0.152,0.161-0.354,0.24-0.601,0.24
				c-0.214,0-0.382-0.055-0.497-0.174C300.185,488.284,300.024,488.074,299.827,487.772L299.827,487.772z"/>
			<path fill="#FFFFFF" d="M303.646,488.575c-0.265,0-0.492-0.086-0.686-0.258c-0.192-0.169-0.291-0.411-0.291-0.722
				c0-0.262,0.094-0.487,0.278-0.675c0.186-0.189,0.412-0.283,0.684-0.283c0.268,0,0.498,0.094,0.692,0.279
				c0.19,0.186,0.286,0.414,0.286,0.679c0,0.307-0.097,0.547-0.286,0.718C304.129,488.489,303.903,488.575,303.646,488.575
				L303.646,488.575z"/>
			<path fill="#FFFFFF" d="M312.389,486.399c0,0.218-0.066,0.453-0.197,0.701c-0.13,0.251-0.331,0.486-0.601,0.712
				c-0.268,0.225-0.604,0.408-1.013,0.544c-0.407,0.137-0.868,0.208-1.376,0.208c-1.089,0-1.938-0.318-2.547-0.949
				c-0.607-0.635-0.912-1.484-0.912-2.549c0-0.723,0.138-1.359,0.419-1.914c0.276-0.552,0.681-0.98,1.208-1.283
				c0.527-0.304,1.162-0.454,1.894-0.454c0.456,0,0.873,0.066,1.255,0.2c0.38,0.132,0.7,0.306,0.966,0.515
				c0.262,0.213,0.465,0.435,0.604,0.672c0.14,0.238,0.208,0.462,0.208,0.669c0,0.209-0.077,0.388-0.232,0.534
				c-0.159,0.145-0.35,0.22-0.568,0.22c-0.148,0-0.27-0.039-0.367-0.113c-0.097-0.076-0.206-0.196-0.324-0.367
				c-0.215-0.324-0.438-0.57-0.675-0.731c-0.232-0.164-0.528-0.245-0.89-0.245c-0.517,0-0.939,0.202-1.257,0.608
				c-0.316,0.403-0.477,0.962-0.477,1.663c0,0.331,0.043,0.637,0.124,0.913c0.079,0.276,0.197,0.513,0.353,0.708
				c0.156,0.194,0.342,0.342,0.561,0.443c0.22,0.104,0.461,0.152,0.721,0.152c0.353,0,0.655-0.081,0.905-0.244
				c0.255-0.163,0.477-0.411,0.669-0.747c0.107-0.197,0.222-0.351,0.345-0.463c0.124-0.111,0.277-0.169,0.458-0.169
				c0.215,0,0.393,0.083,0.533,0.245C312.316,486.041,312.389,486.217,312.389,486.399L312.389,486.399z"/>
			<path fill="#FFFFFF" d="M319.728,483.55c-0.159-0.43-0.39-0.81-0.699-1.13c-0.311-0.319-0.681-0.56-1.11-0.729
				c-0.44-0.181-0.92-0.26-1.45-0.26c-0.529,0-1.01,0.079-1.439,0.25c-0.431,0.17-0.801,0.409-1.11,0.729
				c-0.3,0.311-0.54,0.69-0.7,1.13c-0.16,0.44-0.24,0.931-0.24,1.46c0,0.53,0.08,1.01,0.231,1.45c0.17,0.43,0.4,0.81,0.72,1.13
				c0.3,0.32,0.681,0.57,1.101,0.74c0.42,0.17,0.899,0.26,1.439,0.26c0.53,0,1.01-0.09,1.45-0.26c0.42-0.17,0.79-0.41,1.101-0.73
				c0.31-0.319,0.55-0.699,0.709-1.14c0.16-0.44,0.24-0.93,0.24-1.45C319.969,484.471,319.889,483.99,319.728,483.55z
				 M317.739,486.66c-0.32,0.41-0.74,0.61-1.271,0.61c-0.359,0-0.66-0.09-0.92-0.271c-0.26-0.19-0.46-0.45-0.6-0.8
				c-0.141-0.34-0.21-0.74-0.21-1.2c0-0.46,0.069-0.87,0.21-1.22c0.14-0.34,0.34-0.61,0.609-0.79c0.261-0.17,0.56-0.26,0.91-0.26
				c0.53,0,0.95,0.2,1.271,0.6c0.31,0.4,0.47,0.96,0.47,1.67C318.209,485.71,318.049,486.26,317.739,486.66z"/>
			<path fill="#FFFFFF" d="M326.677,485.132v2.336c0,0.371-0.082,0.645-0.251,0.832c-0.169,0.185-0.387,0.276-0.662,0.276
				c-0.267,0-0.484-0.092-0.645-0.276c-0.168-0.188-0.252-0.461-0.252-0.832v-2.8c0-0.442-0.015-0.787-0.043-1.033
				c-0.031-0.239-0.114-0.443-0.246-0.598c-0.133-0.16-0.345-0.238-0.631-0.238c-0.576,0-0.953,0.196-1.136,0.597
				c-0.182,0.391-0.275,0.958-0.275,1.699v2.373c0,0.364-0.083,0.642-0.245,0.829c-0.169,0.185-0.385,0.279-0.654,0.279
				c-0.268,0-0.485-0.094-0.655-0.279c-0.17-0.188-0.255-0.465-0.255-0.829v-5.028c0-0.331,0.076-0.583,0.228-0.753
				c0.155-0.174,0.356-0.259,0.602-0.259c0.242,0,0.441,0.084,0.605,0.241c0.16,0.161,0.24,0.384,0.24,0.667v0.166
				c0.308-0.362,0.634-0.631,0.978-0.8c0.351-0.177,0.733-0.262,1.161-0.262c0.441,0,0.82,0.089,1.137,0.264
				c0.318,0.177,0.579,0.444,0.787,0.798c0.298-0.358,0.616-0.625,0.955-0.8c0.339-0.175,0.714-0.262,1.127-0.262
				c0.479,0,0.896,0.097,1.242,0.284c0.346,0.188,0.605,0.46,0.778,0.81c0.149,0.32,0.224,0.82,0.224,1.503v3.431
				c0,0.371-0.083,0.645-0.249,0.832c-0.167,0.185-0.39,0.276-0.664,0.276c-0.268,0-0.483-0.094-0.653-0.279
				c-0.17-0.188-0.255-0.465-0.255-0.829v-2.956c0-0.378-0.017-0.68-0.047-0.906c-0.032-0.229-0.12-0.421-0.26-0.574
				c-0.144-0.154-0.359-0.232-0.646-0.232c-0.232,0-0.452,0.072-0.66,0.208c-0.208,0.135-0.371,0.323-0.488,0.551
				C326.743,483.854,326.677,484.38,326.677,485.132L326.677,485.132z"/>
		</g>
		<g>
			<path fill="#FFFFFF" d="M244.872,484.577c-0.001-0.003-0.001-0.006-0.001-0.012C244.871,484.571,244.871,484.574,244.872,484.577
				z"/>
			<path fill="#FFFFFF" d="M244.961,485.14c0.001,0,0.001,0,0.002,0c-0.034-0.16-0.06-0.319-0.081-0.476
				C244.903,484.822,244.929,484.981,244.961,485.14z"/>
			<path fill="#FFFFFF" d="M245.542,486.771c-0.004-0.007-0.007-0.015-0.012-0.023C245.535,486.756,245.539,486.764,245.542,486.771
				z"/>
			<path fill="#FFFFFF" d="M245.487,486.662c-0.015-0.03-0.03-0.062-0.044-0.091C245.457,486.603,245.472,486.632,245.487,486.662z"
				/>
			<path fill="#FFFFFF" d="M245.124,485.768c0.086,0.271,0.19,0.534,0.31,0.785c-0.122-0.256-0.224-0.52-0.308-0.785
				C245.126,485.768,245.125,485.768,245.124,485.768z"/>
			<path fill="#FFFFFF" d="M251.675,477.844c0.34,0,0.59,0.026,0.878,0.075l0.081-0.517c0,0-0.794-0.244-1.837-0.159l-0.082-0.281
				c0.324-0.068,0.567-0.357,0.567-0.701c0-0.395-0.321-0.714-0.716-0.714c-0.396,0-0.716,0.319-0.716,0.714
				c0,0.345,0.243,0.633,0.567,0.701l0.09,0.313c-1.107,0.152-1.989,0.585-1.989,0.585l0.156,0.478
				c0.67-0.224,1.251-0.358,1.778-0.416C250.97,477.867,251.358,477.844,251.675,477.844z"/>
			<path fill="#FFFFFF" d="M245.529,480.458l0.004-0.005c0.026-0.034,0.051-0.065,0.077-0.097l-0.212-0.153l-0.331-0.241
				c-0.019,0.025-0.539,0.504-0.95,1.388c-0.018-0.027-0.038-0.055-0.061-0.081c-0.123-0.134-0.295-0.202-0.514-0.198
				c-0.003,0-0.006,0-0.01,0c-0.135,0-0.228-0.046-0.289-0.101c0.061-0.076,0.097-0.173,0.097-0.28c0-0.249-0.203-0.453-0.454-0.453
				c-0.249,0-0.453,0.204-0.453,0.453c0,0.251,0.204,0.454,0.453,0.454c0.04,0,0.077-0.007,0.113-0.014
				c0.111,0.123,0.288,0.231,0.547,0.225c0.133-0.001,0.231,0.033,0.296,0.105c0.075,0.082,0.1,0.2,0.108,0.29
				c-0.001,0.001-0.001,0.003-0.002,0.003c-0.295,0.807-0.211,1.81-0.211,1.81l0.716,0.028c0.015-0.365,0.067-1.004,0.252-1.512
				C245.064,481.099,245.511,480.484,245.529,480.458z"/>
			<path fill="#FFFFFF" d="M257.909,478.442c-0.249,0-0.453,0.202-0.453,0.453c0,0.039,0.006,0.076,0.016,0.112
				c-0.124,0.112-0.232,0.29-0.228,0.549c0.002,0.134-0.032,0.23-0.104,0.296c-0.058,0.051-0.13,0.078-0.2,0.096
				c-0.533-0.747-1.19-1.203-1.19-1.203l-0.514,0.551c0.389,0.354,0.785,0.797,1.171,1.349c0.267,0.382,0.542,0.875,0.77,1.366
				l0.693-0.33c0,0-0.316-0.783-0.763-1.485c0.077-0.027,0.155-0.069,0.225-0.13c0.136-0.123,0.202-0.296,0.198-0.514
				c-0.001-0.142,0.045-0.236,0.101-0.3c0.077,0.06,0.174,0.098,0.279,0.098c0.252,0,0.454-0.204,0.454-0.454
				C258.363,478.645,258.161,478.442,257.909,478.442z"/>
			<path fill="#FFFFFF" d="M256.108,484.679c-0.955,0.466-2.527,1.08-4.596,1.369c-0.812,0.112-1.599,0.154-2.324,0.154
				c-0.942,0-1.775-0.07-2.414-0.151c-0.729-0.092-1.3-0.204-1.648-0.283c0.084,0.266,0.186,0.529,0.308,0.785
				c0.002,0.007,0.005,0.014,0.008,0.019c0.015,0.029,0.029,0.061,0.044,0.091c0.015,0.029,0.029,0.059,0.044,0.086
				c0.004,0.008,0.008,0.016,0.012,0.023c0.205,0.387,0.452,0.742,0.732,1.05c0.976,1.067,1.97,1.236,1.98,1.237l0.016,0.002
				l0.015,0.005c0.009,0.004,0.89,0.288,2.23,0.288c1.319,0,2.613-0.266,3.845-0.791c0.913-0.467,1.777-1.177,2.205-1.81
				c0.331-0.489,0.57-1.012,0.712-1.555c0.075-0.288,0.135-0.75,0.1-1.236C257.108,484.142,256.684,484.398,256.108,484.679z"/>
			<path fill="#FFFFFF" d="M256.089,480.86c-1.35-1.94-2.819-2.44-3.569-2.56c-0.29-0.05-0.52-0.069-0.841-0.069
				c-0.31,0-0.68,0.02-1.189,0.069c-0.5,0.051-1.06,0.19-1.71,0.41c-0.92,0.3-1.74,0.78-2.39,1.38l-0.02,0.02
				c-0.1,0.09-0.3,0.28-0.53,0.57c-0.03,0.04-0.45,0.63-0.77,1.529c-0.25,0.681-0.24,1.66-0.24,1.67c0,0.23,0.02,0.46,0.04,0.69
				c0,0,0,0,0,0.01c0.01,0.03,0.01,0.05,0.01,0.08c0.02,0.16,0.05,0.32,0.08,0.48c0.48,0.119,3.31,0.779,6.47,0.34
				c1.99-0.28,3.49-0.86,4.41-1.311c0.76-0.359,1.25-0.699,1.44-0.84C257.089,482.641,256.569,481.54,256.089,480.86z M248.569,484
				c-1.06,0-1.91-0.85-1.91-1.91c0-1.05,0.85-1.899,1.91-1.899c1.05,0,1.91,0.85,1.91,1.899C250.479,483.15,249.619,484,248.569,484
				z M254.149,482.601c-0.65,0-1.181-0.53-1.181-1.19c0-0.65,0.53-1.18,1.181-1.18c0.649,0,1.18,0.529,1.18,1.18
				C255.329,482.07,254.799,482.601,254.149,482.601z"/>
		</g>
	</g>
</g>
</svg>
