<?xml version="1.0" encoding="utf-8"?>
<!-- Generator: Adobe Illustrator 17.0.0, SVG Export Plug-In . SVG Version: 6.00 Build 0)  -->
<!DOCTYPE svg PUBLIC "-//W3C//DTD SVG 1.1//EN" "http://www.w3.org/Graphics/SVG/1.1/DTD/svg11.dtd">
<svg version="1.1" id="Layer_1" xmlns="http://www.w3.org/2000/svg" xmlns:xlink="http://www.w3.org/1999/xlink" x="0px" y="0px"
	 width="1200px" height="1200px" viewBox="0 0 1200 1200" enable-background="new 0 0 1200 1200" xml:space="preserve">
<g display="none">
	<g display="inline">
		<g>
			<g>
				<g>
					<g>
						<rect x="1" y="1.002" fill="#8DD1F3" width="1200.002" height="1199.998"/>
					</g>
				</g>
			</g>
		</g>
	</g>
</g>
<g>
	<g>
		<path fill="#F16739" d="M989.343,484.801c-45.34,0-82.225-36.885-82.225-82.23c0-45.335,36.885-82.224,82.225-82.224
			c45.339,0,82.23,36.889,82.23,82.224C1071.573,447.916,1034.682,484.801,989.343,484.801z"/>
		<path fill="#F1F1F1" d="M989.343,468.333c-36.259,0-65.758-29.497-65.758-65.762c0-36.258,29.499-65.758,65.758-65.758
			c36.255,0,65.758,29.499,65.758,65.758C1055.101,438.836,1025.598,468.333,989.343,468.333z"/>
		<path fill="#F16739" d="M989.343,451.862c-27.181,0-49.293-22.106-49.293-49.29c0-27.174,22.112-49.29,49.293-49.29
			c27.177,0,49.291,22.116,49.291,49.29C1038.634,429.755,1016.519,451.862,989.343,451.862z"/>
		<path fill="#F1F1F1" d="M989.343,435.398c-18.101,0-32.826-14.728-32.826-32.827c0-18.093,14.726-32.82,32.826-32.82
			c18.099,0,32.823,14.727,32.823,32.82C1022.166,420.671,1007.441,435.398,989.343,435.398z"/>
		<path fill="#F16739" d="M1005.693,402.571c0,9.037-7.318,16.363-16.351,16.363c-9.033,0-16.36-7.326-16.36-16.363
			c0-9.033,7.327-16.352,16.36-16.352C998.375,386.219,1005.693,393.539,1005.693,402.571z"/>
		<g>
			<polygon fill="#1F9F8D" points="1062.493,332.567 1085.052,336.56 1106.394,316.026 1083.066,313.381 			"/>
			<polygon fill="#041E41" points="1076.213,318.678 1099.955,322.33 1099.172,323.16 1074.97,319.782 			"/>
			<polygon fill="#041E41" points="1068.287,326.131 1092.32,329.714 1091.07,330.548 1067.045,327.24 			"/>
		</g>
		<g>
			<polygon fill="#1F9F8D" points="1059.451,329.992 1055.455,307.441 1075.988,286.095 1078.634,309.426 			"/>
			<polygon fill="#041E41" points="1073.342,316.272 1069.682,292.534 1068.857,293.321 1072.235,317.519 			"/>
			<polygon fill="#041E41" points="1065.888,324.202 1062.304,300.165 1061.469,301.419 1064.782,325.444 			"/>
		</g>
		<path fill="#193A45" d="M991.765,404.975L991.765,404.975c-0.637,0.649-1.526,1.055-2.511,1.055c-1.94,0-3.525-1.585-3.525-3.536
			c0-1.067,0.482-2.01,1.226-2.659l-0.008-0.01l91.523-91.149l4.666,4.657L991.765,404.975z"/>
		<path fill="#CAC8C8" d="M934.553,341.725c-2.259,1.801-2.435,2.336-5.441,4.97l57.085,57.223l2.616-2.909l2.368-2.078
			L934.553,341.725z"/>
	</g>
	<g>
		<path fill="#508CB3" d="M983.438,486.824c0,95.146-77.134,172.278-172.283,172.278S638.869,581.97,638.869,486.824
			c0-95.153,77.136-172.287,172.285-172.287S983.438,391.671,983.438,486.824z"/>
		<g>
			<path fill="#FFFFFF" d="M965.719,569.455l0.05-0.059v-0.017c0,0.008,0,0.008,0,0.008l-0.002-0.008
				C965.75,569.412,965.729,569.438,965.719,569.455l0.007-0.01C965.722,569.445,965.722,569.455,965.719,569.455z"/>
			<path fill="#FFFFFF" d="M984.878,509.654c0,0.006,0,0.006,0,0.006V509.654c-0.129,0.644-0.191,1.282-0.244,1.943
				C984.761,510.961,984.841,510.306,984.878,509.654z"/>
			<path fill="#FFFFFF" d="M865.381,468.872c1.371,0.579,6.566,0.298,6.659-0.546c0.023-0.183,0.009-0.414-0.075-0.646
				c-0.067-0.256-0.209-0.538-0.53-0.794c-0.133-0.109-0.133-0.109-1.896-0.671c-0.165-0.059-0.234-0.157-0.28-0.282
				c-0.013-0.049-0.027-0.108-0.047-0.157c-0.041-0.157-0.081-0.306-0.242-0.398c-0.192-0.09-0.254-0.082-0.553-0.032
				c-0.75,0.29-1.601,0.952-2.542,2.002c-0.746,0.82-0.887,1.102-0.775,1.25C865.089,468.739,865.208,468.797,865.381,468.872z"/>
			<path fill="#FFFFFF" d="M951.849,590.909c-0.025,0.024-0.053,0.049-0.069,0.073c0.011-0.006,0.017-0.017,0.027-0.024
				L951.849,590.909z"/>
			<path fill="#FFFFFF" d="M684.929,368.877c-1.542,2.094-2.754,3.757-1.449,3.65c0.322-0.024,0.68-0.24,0.861-0.356
				c-0.022,1.035-0.914,1.862-0.7,2.955c0.954,0.48,1.503-0.77,2.397-0.522c0.809,2.36,0.36,2.824-3.886,7.234
				c-0.569,0.597-1.011,1.292-1.68,1.805c-0.111,0.075-0.312-0.017-0.451-0.075c-0.229-0.082-0.82,0.008-2.226,1.614
				c-0.026,0.025-2.744,3.146-2.022,3.915c1.082-0.157,0.892-2.176,2.138-1.755c1.141,0.39,0.033,1.682,0.099,2.517
				c0.016,0.05,1.431,3.833,3.388,2.674c5.085-3.013,5.064-3.882,5.03-5.199c-0.073-2.582-0.094-3.278,0.486-3.99
				c0.328-0.405,0.814-0.571,1.33-0.695c1.496-0.414,1.496-0.414,5.331-4.072c1.876-1.787-2.618-2.996-1.683-5.198
				c1.004-2.35,3.935-3.376,4.36-6.133c0.074-0.579-0.36-0.936-0.778-1.283c3.964-2.781,4.364-3.236,8.08-7.598
				c-0.243,0.124-0.56,0.29-0.809,0.422c1.495-2.988,4.415-4.826,6.279-7.516c-0.019-0.05-0.06-0.133-0.079-0.191
				c-3.399,1.747-11.663,11.133-13.673,14.701c-1.873-2.004,4.23-5.481,1.467-5.579c-1.462-0.059-2.408,0.877-6.899,5.372
				c4.403-4.727,4.403-4.727,4.725-5.107C692.878,360.964,689.888,363.944,684.929,368.877z"/>
			<path fill="#FFFFFF" d="M698.807,356.949c4.646-1.606,4.646-1.606,7.566-4.585c-0.623,0.033-1.146,0.588-1.816,0.29
				c-0.638,0.248-1.227,0.555-1.858,0.802c-0.053-0.09-0.106-0.189-0.146-0.272c2.853-2.749,6.976-3.196,10.113-5.422
				c0.039-0.017,5.183-3.493,10.226-6.514c0.659-0.405,0.659-0.405,3.639-2.426c5.828-3.576,12.373-5.677,18.379-8.881
				c-0.557,0.009-0.557,0.009-2.977,0.811c-0.028,0.009-0.028,0.009-0.028,0.009c0.087-0.051,0.087-0.051,10.688-4.122
				c0.702-0.273,1.45-0.694,1.534-0.745c-0.272-0.017-0.272-0.017-0.926,0.157c0.462-0.249,0.462-0.249,2.032-0.968
				c-0.582,0.166-0.582,0.166-3.809,1.267c1.135-0.505,2.333-0.869,3.479-1.349c-0.553,0.025-1.423,0.189-1.675,0.264
				c-0.559,0.174-0.559,0.174-3.911,1.582c0.622-0.365,0.622-0.365,1.725-0.828c-0.016,0.008-3.088,0.852-10.452,4.147
				c0.694-0.316,1.604-0.737,2.289-1.052l-3.273,1.407l-0.061,0.026c-1.848,0.885-3.719,1.713-5.603,2.574l0.023-0.009
				c-1.974,0.969-1.974,0.969-3.328,1.655l-0.041,0.026c-0.786,0.504-1.69,0.828-2.478,1.348c0.542-0.173,1.05-0.413,1.584-0.578
				c-1.223,0.72-2.585,1.183-3.824,1.879c0.049-0.067,0.09-0.117,0.145-0.174c-4.116,2.392-9.027,5.231-12.727,7.623l-0.492,0.339
				c-0.763,0.521-0.811,0.563-1.104,0.777c1.104-0.57,1.104-0.57,1.91-0.802c-3.077,1.862-5.873,4.129-8.978,5.951
				c0.321-0.307,0.321-0.307,1.177-1.01c-0.983,0.737-2.285,1.729-3.268,2.467l-0.094,0.083c-2.027,1.928-4.253,3.617-6.319,5.488
				c0.876-0.489,1.625-1.209,2.612-1.54C698.762,356.734,698.788,356.851,698.807,356.949z"/>
			<path fill="#FFFFFF" d="M782.403,409.227c0.025,0.811,4.289,7.019,4.329,7.06c1.756,1.953,1.756,1.953,3.567,1.722
				c0.161-0.025,0.179-0.025,0.19-0.025c0.011,0,0.021,0,0.029,0c0.012,0,0.031-0.007,0.031-0.007c0.018,0,0.03,0,0.038-0.01
				c0.01,0,0.021,0,0.036,0c0.017,0,0.021,0,0.034,0c0.022,0,0.028-0.007,0.038-0.007c0.01,0,0.021-0.008,0.036-0.008
				c2.002-0.174,2.211,0.116,2.485,0.984c-0.924,1.474-3.186,0.688-4.007,2.318c-1.022,2.012-1.122,5.694,0.113,5.389
				c1.586-0.38,1.586-0.38,1.691-0.314c0.022,0.828,0.033,1.085-1.805,2.541c-3.02,2.392-1.715,2.832-0.665,2.873l3.574-0.911
				c0.587-0.232,0.974-0.629,1.506-1.176c0.506-0.521,0.72-0.562,0.894-0.596c1.791-0.347,3.647-0.364,5.392-0.968l3.026-1.257
				l3.289-3.063c0.478-0.811-0.158-1.556-0.145-2.334c0.043-1.3-1.922-0.473-2.317-1.54c-0.341-0.984-1.783-0.314-2.103-1.349
				c-0.416-1.398-2.15-1.871-2.46-3.352c-0.098-0.48-1.107-1.846-1.115-1.853c-0.038-0.042-0.112-0.092-0.144-0.126
				c-0.653-0.479-1.318-0.909-1.951-1.398c-0.63-0.497-1.082-1.175-1.636-1.746c-0.548-0.546-0.166-0.903,0.579-1.623
				c0.444-0.422,4.183-4.122-1.02-3.501c-2.022,0.248-2.211,0.224-2.605,0.075c-0.059-1.44,1.739-1.159,2.215-2.144
				c0.342-0.704-0.191-1.523,0.263-2.218c0.244-0.348,0.477-0.323,0.619-0.307c0.054,0.009,3.83-0.19,2.166-2.078
				c-0.562,0.025-1.091,0.074-1.612,0.116l-0.271,0.182l-0.696,0.671c-0.955,0.008-0.955,0.008-3.066,0.728
				c-0.346,0.671,0.396,1.25,0.175,1.904c-0.935,0.124-2.173,0.281-3.096,0.397c-0.759,1.83-0.759,1.83-0.982,1.904
				c-0.814,0.256-1.321-0.497-2.034-0.588c-0.614-0.074-1.171,0.248-1.773,0.215c-6.978-0.323-3.979,3.386-2.369,5.38
				L782.403,409.227z"/>
			<path fill="#FFFFFF" d="M687.275,366.087c1.796-1.747,3.602-3.476,5.143-4.983C690.946,362.47,690.946,362.47,687.275,366.087z"
				/>
			<path fill="#FFFFFF" d="M667.665,388.874h0.011c2.164-2.823,5.05-6.58,7.215-9.395c0,0,0,0-0.005,0.009
				c0.005-0.009,0.005-0.009,0.005-0.009c-1.244,1.507-1.463,1.805-1.526,1.896c0.003,0,0.003,0,0.003,0s0,0-0.003,0
				c0.089-0.09,0.143-0.189,0.249-0.272c-0.387,0.53-1.246,1.614-1.343,1.739C669.671,386.126,669.671,386.126,667.665,388.874
				L667.665,388.874L667.665,388.874z"/>
			<path fill="#FFFFFF" d="M776.353,427.734c0.381,0.836,1.134,1.077,1.143,1.077c0.484,0.099,2.917-0.248,2.936-0.248
				c0.126-0.034,0.126-0.034,2.353-2.525c0.944-0.504,1.956-0.869,2.879-1.406c0.243-0.282,0.635-0.431,0.767-0.811
				c0.137-0.331-0.109-0.844-0.025-1.192l0.507-0.943l-0.273-1.746l-0.976-1.317l-1.056-1.34l-0.647-2.516
				c-1.125-0.463-2.807-0.265-2.828-0.257c-0.641,0.173-1.157,1.042-1.656,1.49l-0.898,1.117c-0.293,0.373-0.41,0.514-1.302,0.646
				c-0.465,0.067-1.256,0.181-1.42,0.489c-0.169,0.33-0.217,0.603,0.126,1.679c0.202,0.622,0.202,0.622,0.168,1.838
				c0.007,0.348,0.007,0.687,0.028,1.026l-0.858,0.174l-0.674,2.549l0.375,1.431L776.353,427.734z"/>
			<path fill="#FFFFFF" d="M769.459,646.114c-1.499-0.693-2.612-1.918-3.956-2.836c-2.545-1.772-6.977-0.954-7.685-5.233
				c-1.206-0.842-2.479-1.578-3.665-2.456c0.091-0.175,0.207-0.415,0.296-0.589c-0.949-1.217-2.532-1.523-3.653-2.466
				c-0.142-0.125-0.342-0.272-0.483-0.382c0.104-0.142,0.234-0.314,0.342-0.455c0.207,0.049,0.467,0.101,0.668,0.141
				c-0.069-0.165-0.069-0.165-2.491-2.765c0.121-0.132,0.262-0.307,0.381-0.433c0.371-0.022,0.855-0.049,1.216-0.081
				c-0.06-0.323-0.224-0.753-0.402-1.043c0.342-0.081,0.814-0.19,1.166-0.245c-0.024-0.027-2.233-3.006-3.243-4.156
				c-0.121-0.133-0.267-0.3-0.374-0.424c0.247-0.306,0.661-0.678,1.009-0.869c-0.538-1.109-0.538-1.109-0.12-2.012
				c-2.852-3.747-2.852-3.747-1.329-4.51c-0.062-0.066,0.096-0.183,0.14-0.256c0.754-5.274-6.438-8.368-3.954-14.105
				c1.963-0.711,3.834-1.39,4.148-4.22c0.107-0.886,0.769-1.616,0.728-2.534c-0.013-0.041-0.532-4.479-0.621-4.743
				c-0.769-2.044-2.39-3.61-3.217-5.619c-0.587-1.459-0.587-1.459-0.006-2.277c0.701-0.985,2.3-5.323,2.001-7.423
				c-0.228-1.608-3.364-6.483-4.85-7.219c-2.023-0.993-3.766-2.509-5.998-3.104c-0.187-0.049-0.436-0.108-0.622-0.141
				c-2.257-0.396-4.296,1.101-6.558,0.713c-2.633-0.447-4.504-2.633-7.157-3.07c-0.301-0.043-0.732-0.043-1.041-0.043
				c-5.448,0.034-5.448,0.034-7.707-3.757c-0.543-0.934-0.543-0.934-0.978-1.729c-0.937-1.779-2.684-2.872-3.975-4.337
				c-3.054,0-6.103,1.201-9.153,0.034l-13.529-8.699c-5.313,4.129-5.313,4.129-9.553,1.887c-1.618,0.488-1.677,1.059-1.819,2.574
				c-1.447,0.71-2.807,1.391-4.27,5.893c-0.109-0.224-0.24-0.548-0.353-0.788c-0.233,0.033-0.533,0.066-0.755,0.109
				c-0.08,0.247-0.165,0.588-0.236,0.835c0.012,0.613,0.012,0.613,0.012,0.613c-3.193-0.854-3.193-0.854-7.482-12.972
				c-1.584-0.379-2.246-0.322-3.439,1.814c-2.538-1.772-2.554-5.628-2.557-7.699c-1.487-5.695-1.516-5.803-2.56-7.705
				c-0.282,0.902-0.282,0.902-0.315,4.252c-0.218,0.043-0.521,0.125-0.741,0.167c-0.2-0.141-0.482-0.315-0.688-0.457
				c-0.653,2.809,1.229,5.215,1.336,7.897c-6.453,0.944-8.762-20.856-8.745-21.089c0.219,0.098,0.503,0.223,0.707,0.322
				c0.494-2.558,0.494-2.558,0.737-3.327c0.241-0.072,0.555-0.174,0.795-0.246c1.149,1.223,1.149,1.223,2.096,1.141
				c-0.037-3.781,0.321-4.031,1.126-4.57c1.269,0.681,5.009,4.1,5.048,4.619c0.075,0.679,1.143,3.667,2.854,5.688
				c1.044-0.322,1.044-0.322-2.142-12.194c-1.087-4.014,1.413-7.423,1.979-11.156c0.642-4.179,1.658-8.302,2.058-12.523
				c0.142-1.498,0.142-1.498,4.941-10.28c0.236,0.067,0.546,0.15,0.769,0.224c0.167-7.804,0.187-8.616,6.292-12.986
				c0.183,2.003-1.612,3.26-1.981,5.04c0.164,0.216,0.396,0.506,0.58,0.712c0.768,0.017,9.089-7.905,9.143-7.98
				c1.29-1.804-0.134-4.469-0.151-4.502l-0.401,0.464c-0.2,0.572-0.479,1.333-0.707,1.896c-1.784-0.141-1.972-0.157-2.988-1.772
				c-0.291-0.042-0.688-0.1-0.982-0.149c-0.62,0.571-1.108,1.259-1.713,1.854c0.19-1.837,1.02-3.484,1.506-5.247
				c-0.631-0.96-0.631-0.96-0.426-2.467c-2.507,0.141-2.507,0.141-8.202,8.012c-2.133-5.852,5.383-7.151,6.218-11.678
				c1.648,0.885,2.545,2.582,4.034,3.625c0.279-0.092,0.667-0.232,0.955-0.324c-0.127-0.91-0.484-1.771-0.734-2.657
				c0.134-0.149,0.134-0.149,0.134-0.157c1.229-0.571,1.229-0.571,7.647-6.689c0.108,0.232,0.256,0.539,0.368,0.779
				c0.273,0.082,0.648,0.19,0.92,0.272c-0.946,3.378-3.975,5.67-4.845,9.089c-0.044,0.215-0.044,0.215,1.787,3.038
				c1.023-0.389,1.723-1.473,2.999-1.25c0.845,1.523,1.035,1.945,0.897,3.791c0.233-0.051,0.542-0.116,0.775-0.165
				c1.06-2.004,1.06-2.004,1.352-2.434c0.85,0.008,0.85,0.008,2.006,1.042c0.545,0.191,0.545,0.191,0.545,0.191h0.011
				c4.894-4.594,0.968-8.707-3.108-8.873c-0.335-0.471-0.335-0.471,1.51-12.746c-0.388-0.29-1.029-0.522-1.528-0.572
				c-0.181-0.207-0.44-0.504-0.628-0.728c0.206-0.795,0.48-1.582,0.647-2.393c-4.892-2.103-4.892-2.103-5.687-3.924
				c-1.453-3.385,0.483-7.382-0.516-10.792c0.016-0.191,0.098-0.547,0.617-2.235c0.629-2.062,0.644-2.74,0.072-2.533
				c-0.338,0.207-0.924,0.761-1.039,0.968c-0.06,0.108-0.177,0.315-0.321,0.795c-0.178,0.653-0.307,1.324-0.493,1.978
				c-0.222,0.729-0.371,0.844-0.529,0.902c-0.195,0.074-0.341,0.314-0.559,0.753c-1.773,3.997-1.773,3.997-3.205,4.717
				c-0.805-0.297-1.303-1.043-2.072-1.374c0-0.96,0.345-1.969,0.414-2.218c-0.042,0.008-0.059,0.017-0.089,0.025
				c0.182-0.695,0.2-1.407,0.448-2.086c0.282-0.777,0.809-1.448,1.183-2.193c0.167-0.365,0.34-0.819,0.167-1.109
				c-0.04-0.075-0.14-0.141-0.201-0.191c-0.419-0.355-1.034-0.174-1.457-0.521c-0.159-0.142-0.031-0.505-0.031-0.72
				c0-0.008-0.209-2.5-0.448-3.195c-0.042-0.108-0.087-0.257-0.141-0.373c-0.172-0.456-0.384-0.663-0.587-0.63
				c-0.007,0.009-0.026,0.017-0.026,0.017c-0.142,0.092-0.197,0.174-0.296,0.415c-0.685,1.664-1.652,3.335-2.137,2.574
				c-0.281-0.446-0.053-1.3-0.808-1.365c-0.288-0.025-1.094,0.587-1.508,1.15c-0.081,0.124-0.171,0.289-0.243,0.43
				c-0.107,0.232-0.153,0.587-0.19,0.836c-0.096,0.687-0.096,0.687-1.275,3.51c-0.377,0.902-0.479,1.009-0.926,1.316
				c-0.322,0.24-0.393,0.398-0.521,0.712c0,0.008-0.104,0.711,0.181,0.803c0.073,0.025,0.172-0.009,0.28-0.042l0.006-0.008
				c0,0,0,0,0.016,0l0,0h0.006h0.011c0.174-0.082,0.174-0.082,0.271-0.049c0.19,0.977-1.057,2.483-2.146,3.831
				c-0.682,1.276-0.62,2.748-1.142,4.055c1.113,1.606,0.539,4.669,0.527,4.694c-0.899,3.228-3.982,5.189-5.01,8.344
				c-1.175,3.566-0.021,7.408-1.328,10.958c-0.153,0.439-0.728,0.844-1.151,1.052c-2.634-1.217,0.073-10.099,0.106-10.182
				c0.229-0.572,0.448-1.39,0.442-2.011c-0.241-0.066-0.56-0.15-0.808-0.216c-1.858,0.308-1.858,0.308-2.811-0.114
				c-0.206-3.32-0.206-3.32-1.023-4.255c-0.241,0.075-0.541,0.174-0.761,0.241c-0.071-1.854,0.867-3.494,1.241-5.257
				c-0.271,0.174-0.663,0.406-0.972,0.43l0.069-0.305c0.255-0.729,0.422-1.217,0.857-2.434c3.384-9.113,12.875-22.969,15.136-25.329
				c-0.142,3.494-3.119,5.43-4.589,8.202c0.24-0.007,0.569-0.015,0.801-0.066c0.107,0.456,0.107,0.456-0.256,1.457
				c2.266-0.884,2.054-3.601,3.742-4.916c0.207,0.488-0.127,1.026,0.147,1.506c0.26,0.049,0.935,0.207,1.684-0.911
				c1.229-2.193-1.256-8.849,1.677-7.035c1.263-1.333,1.448-3.303,2.849-4.544c0.077,0.018,0.191,0.042,0.284,0.05l8.148-11.836
				c0.073-0.107,0.156-0.248,0.222-0.364c0-0.008,0.194-1.149-0.462-1.688c-0.27,0.141-1.014,0.629-2.224,2.07
				c-0.08,0.1-0.15,0.206-0.228,0.306c-0.458,0.985-6.634,9.311-6.923,9.593c-0.105-0.348-0.271-0.878,1.738-3.65
				c0.449-0.596,2.906-4.197,3.173-4.727c0-0.016-0.02-0.042-0.04-0.058h0.011v-0.008c0.029-0.083,0.059-0.199,0.073-0.291
				c-0.356,0.092-0.356,0.092-4.445,5.415c0.56-1.117,0.56-1.117,6.921-9.982c-0.168,0.107-0.379,0.273-0.521,0.406
				c1.131-1.697,2.653-3.089,3.855-4.734c0.311-0.249,0.58-0.539,0.561-1.043c-2.273,2.259-3.985,4.146-5.278,5.661
				c-1.015,1.191-1.765,2.152-2.284,2.847c-1.838,2.35-3.619,4.75-5.34,7.201c0.034-0.091,0.072-0.174,0.103-0.256
				c-0.368,0.322-0.962,1.158-3.344,4.568c0.027-0.091,0.074-0.198,0.108-0.281c-0.307,0.224-0.307,0.224-3.568,5.198
				c-8.701,15.197-8.868,15.487-12.463,23.895l-2.674,6.697c-1.883,5.686-4.357,13.268-5.896,19.045
				c-3.579,17.556-3.648,17.895-4.388,27.199c-0.679,18.325-0.69,18.681,0.153,28.257c0.822,6.348,1.963,14.807,3.176,21.089
				l0.022,0.083c0.188,0.771,0.226,0.91,2.805,8.949c0.583,1.779,1.284,3.957,2.137,6.613c0.244,0.636,0.244,0.636,0.244,0.636
				c0.5,1.102,0.5,1.102,1.489,2.874c0.184,0.074,0.193,0.074,0.193,0.074c1.104,1.606,1.104,1.606,2.057,2.691
				c0.162-0.017,0.39-0.017,0.563-0.017c0.421,0.148,1.09,0.165,1.515,0.007c0.157,0.158,0.37,0.375,0.537,0.531
				c0.518-0.034,1.207-0.075,1.714-0.124c0.234-0.065,0.543-0.166,0.763-0.24c0.654,0.519,0.654,0.519,3.424,5.204
				c0.518-0.983,0.518-0.983,0.034-2.837c2.915,1.663,4.031,4.914,6.466,7.009c0.11-0.207,0.263-0.48,0.377-0.687
				c0.136,0.108,0.136,0.108,1.804,1.938c0.224,0.065,0.224,0.057,0.224,0.057h0.01c0.914,0.595,1.575,1.473,2.424,2.135
				c0.01-0.238,0.02-0.554,0.026-0.777c0.46-0.092,1.071-0.266,1.512-0.44c0.04-1.116,0.04-1.116-0.637-2.63
				c0.034-0.133,0.034-0.133,0.034-0.133c0.018-0.256,0.046-0.587,0.078-0.837c5.528,7.111,5.521,7.732,5.452,9.784
				c0.194-0.041,0.113,0.439,0.154,0.638c1.101,2.459,1.101,2.459,1.646,4.041c-0.885,1.521-1.099,1.877-0.461,3.518l5.489,9.353
				c3.434,3.542,8.14,5.52,11.545,9.111c2.195,2.318,5.516,5.82,12.291,7.971c1.48,0.472,2.16,0.703,3.758,2.069
				c0.777,0.688,0.777,0.688,9.371,11.341c1.959,2.44,9.182,9.501,9.246,9.551c11.004,10.329,11.004,10.329,26.146,19.725
				c25.457,13.227,30.624,10.015,30.669,9.965c-0.061-0.174-0.138-0.397-0.186-0.561C770.72,646.703,770.72,646.703,769.459,646.114
				z"/>
			<path fill="#FFFFFF" d="M726.021,337.267c0.633-0.356,1.248-0.712,1.836-1.051C726.513,336.928,726.192,337.109,726.021,337.267z
				"/>
			<path fill="#FFFFFF" d="M754.984,326.606c-2.16,0.803-2.226,0.844-3.107,1.439c0.072,0.009,0.072,0.009,0.525-0.157
				c0.436-0.157,0.723-0.265,0.836-0.174c-0.061,0.117-0.137,0.216-0.757,0.646c0.007,0-0.022,0.009-0.022,0.016
				c-0.669,0.581-0.669,0.581-1.049,0.787c-0.408,0.141-0.697,0.289-0.95,0.438c0.24-0.149,0.479-0.297,0.727-0.456
				c-0.021-0.007-0.079-0.049-0.099-0.123c-0.02,0.008-0.042,0.016-0.059,0.025c-0.104,0.049-0.283,0.124-0.416,0.248
				c-0.166,0.132-0.259,0.323-0.41,0.463c-0.238,0.191-0.56,0.422-0.826,0.588c-0.124,0.075-0.24,0.166-0.354,0.232
				c0.025-0.025,0.062-0.083,0.104-0.116c-0.104,0.057-0.252,0.124-0.36,0.191c0.257-0.298,0.578-0.522,0.858-0.778
				c-0.081-0.008-0.081-0.008-0.081,0h-0.005c-0.111,0.034-0.244,0.066-0.355,0.091c0.04-0.042,0.04-0.042,1.895-1.374
				c-0.128-0.016-0.293-0.042-0.423-0.05c-0.143,0.05-0.143,0.05-4.328,2.557c0.107-0.182,0.107-0.182,1.117-1.017
				c-0.085-0.075-0.19-0.158-0.285-0.224c-5.408,1.82-7.167,3.095-7.917,3.65c-3.892,2.277-8.469,3.352-11.799,6.613
				c0.22,0.05,0.537,0.066,0.76,0.025c-0.398,0.273-0.83,0.522-1.221,0.794c0.208-0.074,0.49-0.182,0.69-0.272
				c-3.832,3.45-8.837,5.238-12.775,8.565c0.04,0.099,0.112,0.223,0.158,0.323c-0.066,0.116-0.142,0.273-0.21,0.389
				c0.097,0.04,0.227,0.108,0.324,0.157c0.213-0.075,0.487-0.183,0.682-0.266c-0.838,0.994-1.328,1.035-2.021,0.737
				c-2.05,1.092-3.824,4.949-3.83,4.99c0.368,0.249,0.368,0.249,1.008,0.075c0.072-0.024,0.104-0.034,0.143-0.042
				c0.028,0,0.06-0.007,0.089-0.017c0.026-0.008,0.061-0.017,0.087-0.017c0.036-0.016,0.053-0.016,0.085-0.024
				c0.029-0.008,0.06-0.017,0.09-0.025c0.021,0,0.051-0.008,0.069-0.017c0.017-0.008,0.049-0.008,0.07-0.008
				c0.028-0.009,0.044-0.017,0.062-0.017h0.013c0.539-0.273,1.01-0.621,1.541-0.886c0.103,0.058,0.211,0.125,0.31,0.175
				c0.213-0.075,0.483-0.208,0.668-0.341c-0.303,0.48-0.668,0.919-1.01,1.375c0.536-0.306,0.956-0.753,1.45-1.101
				c0.199,0.058,0.479,0.158,0.687,0.24c0.063,0.546-1.218,3.179-4.112,7.086c-0.783,1.042-1.595,2.946-2.958,6.108
				c0.942,0,0.942,0,1.159,0.059c0.048,0.298,0.128,0.704-0.807,1.084c-0.041,0.008-3.652,2.425-2.994,4.42
				c0.097,0.025,0.234,0.067,0.343,0.083c0.791-0.994,1.095-1.001,2.109-1.027l0.162,0.198c-5.659,5.885-5.659,5.885-6.342,8.169
				c-2.648,8.608-2.732,13.12-0.273,13.425c0.214,0.034,0.473-0.165,0.654-0.289c0.433,0.431,0.266,1.2,0.869,1.532
				c1.977-0.125,1.676,2.201,2.704,3.12c0.411-0.463,0.635-0.72,1.046-2.599c0.059-0.265,0.112-0.621,0.203-0.877
				c0.367-1.052,1.769-1.093,2.143-2.12c0.376-0.993-0.805-1.83-0.292-2.838l4.301-6.796c1.675-2.309,1.675-2.309,1.735-2.351
				c2.431-1.738,5.867-1.879,7.701-4.61c1.393-2.078,1.393-2.078,8.039-5.406c1.115-0.387,1.115-0.387,2.802-1.854
				c1.315-1.075,1.315-1.075,1.807-1.374l0.854-0.571c0.689-0.397,0.689-0.397,0.896-0.836c-0.44-0.348-0.936-0.621-1.414-0.926
				c-0.018-0.142-0.061-0.332-0.095-0.472c0.17-0.19,0.454-0.432,0.675-0.564c0.127,0.075,0.295,0.166,0.399,0.231
				c2.232,1.639,2.978-0.719,3.709-3.003c-0.254-0.149-0.621-0.282-0.904-0.331c-0.125-0.422-0.125-0.422,2.1-3.005
				c-0.195-0.373-0.445-0.869-0.636-1.24c5.064-2.021,6.22-4.008,6.449-5.009c-0.229-0.198-0.598-0.414-0.887-0.546
				c0.824-0.597,1.97-0.174,2.78-0.862c0-0.007,0.543-0.546-0.276-1.291c-1.117,0.207-1.1-0.373-1.081-0.869
				c0.915-0.654,0.915-0.654,3.577-3.162c-0.143,0.018-0.334,0.059-0.474,0.083c0.28-0.488,0.419-0.704,1.167-1.423
				c-0.368-0.082-0.861-0.19-1.236-0.265c-0.076-0.091-0.193-0.224-0.273-0.323l5.871-5.967c-0.266,0-0.604,0.058-0.842,0.14
				c0.454-1.548,2.28-1.846,2.993-3.17c-0.08-0.091-0.187-0.216-0.271-0.298c2.495-2.392,6.035-3.186,8.597-5.496
				c0.179-0.165,0.351-0.457,0.438-0.686c-0.468-0.646-0.916-1.267-5.133,1.299c0-0.256-0.021-0.596-0.051-0.845
				c-0.347,0.232-0.663,0.513-0.997,0.746c-0.012,0-0.012,0-0.012,0s0,0,0,0.008c-1.758,1.018-3.24,2.4-4.95,3.476
				c0.057-0.413,0.098-0.728,3.654-3.037c1.067-0.704,1.481-0.978,2.344-1.813c-0.1-0.067-0.212-0.166-0.313-0.241
				c-0.842,0.497-1.684,1.027-2.557,1.491c-0.112,0.05-0.261,0.116-0.382,0.166c0.059-0.199,0.463-0.53,0.86-0.854
				c-0.572,0.091-0.778,0.125-0.98,0.157c-0.234,0.033-0.468,0.066-0.702,0.108c-0.38,0.007-0.683,0.024-3.609,1.292
				c0.68-1.067,5.066-1.987,5.482-2.02c0.386-0.05,0.386-0.05,0.393-0.05c0-0.008,0.013-0.008,0.013-0.008c0.011,0,0.011,0,0.011,0
				c0.01,0,0.01,0,0.01,0s0.01,0,0.019,0c0,0,0,0,0.008,0h0.015h0.005c0.34-0.066,1.371-0.274,3.769-1.598l0.469-0.257l0.24-0.28
				c0.08-0.265,0.153-0.63,0.192-0.895c0.362-0.215,0.846-0.496,1.207-0.703c-0.121-0.008-0.272-0.025-0.392-0.033
				c0.477-0.232,0.982-0.398,1.467-0.605c-0.364-0.173-0.364-0.173-1.156-0.033c0.776-0.439,1.641-0.678,2.463-1.025
				c-0.023-0.033-0.06-0.083-0.093-0.107c-1.071,0.28-2.12,0.612-3.176,0.917c-0.099-0.074-0.227-0.165-0.32-0.24
				c-0.975,0.19-2.838,0.935-2.853,0.943c-0.239,0.075-0.239,0.075-0.239,0.075c0.087-0.075,0.201-0.199,0.294-0.281
				c0.112-0.132,0.112-0.132,0.112-0.132h-0.014c-0.831,0.338-1.616,0.794-2.484,1.084c0.308-0.315,0.308-0.315,1.264-0.836
				c-0.576,0.175-1.117,0.397-1.683,0.587c-1.647,0.712-3.144,1.44-4.578,2.21c1.396-0.753,2.793-1.489,4.209-2.152l-0.289,0.1
				c-0.49,0.198-2.864,1.224-3.412,1.539C755.175,326.623,755.175,326.623,754.984,326.606z"/>
			<path fill="#FFFFFF" d="M678.817,375.176c2.797-3.029,5.49-6.158,8.431-9.064c-0.409,0.398-0.81,0.786-1.216,1.184
				c-1.51,1.481-2.968,2.947-4.217,4.27l-3.503,3.875l-0.536,0.621c-0.863,0.993-1.184,1.366-1.947,2.3
				c0.135-0.156,0.319-0.372,0.456-0.529C677.147,376.963,677.982,376.069,678.817,375.176z"/>
			<path fill="#FFFFFF" d="M687.275,366.087c-0.008,0.008-0.023,0.017-0.027,0.025c0-0.008,0.005-0.008,0.02-0.017
				C687.268,366.095,687.268,366.087,687.275,366.087z"/>
			<path fill="#FFFFFF" d="M766.085,323.088c0.027,0,0.091,0,0.12,0.008l0.113,0.051c0.518-0.066,0.576-0.083,1.257-0.349
				c0.468-0.182,0.604-0.215,0.717-0.239c0.05,0,0.101-0.018,0.139-0.025l0.661-0.323c0-0.017,0.013-0.025,0.019-0.025
				c0-0.009,0-0.017-0.006-0.017c-0.1-0.025-0.392,0.025-0.42,0.033c-0.401,0.091-0.754,0.322-1.148,0.431
				c0.095-0.117,0.245-0.149,0.346-0.223c-0.014-0.01-0.023-0.01-0.404,0.149c0.07-0.043,0.174-0.1,0.25-0.149l-0.076,0.041
				l-0.125-0.009l-0.467,0.206l-0.147-0.016c-0.234,0.099-0.307,0.132-0.357,0.132c0,0,0-0.017,0-0.025
				c0.011-0.008,0.018-0.016,0.031-0.025c-0.075,0.05-0.16,0.1-0.227,0.124c-0.247,0.166-0.278,0.2-0.315,0.232
				c0.009,0.008,0.036,0.016,0.036,0.016H766.085z"/>
			<path fill="#FFFFFF" d="M806.116,324.735c0.326,0.729,0.478,1.06,0.799,1.267c0.218,0.125,0.319,0.157,1.335,0.389
				c0.421,0.091,0.779,0.332,1.174,0.48c0.167,0.067,0.487,0.182,1.374,0.067c0.224-0.033,0.477-0.075,0.775-0.132
				c-0.225-0.348-0.552-0.629-0.775-0.969l-0.004-1.448c0.061-0.149,0.117-0.298,0.097-0.464c0-0.04,0-0.091-0.01-0.124
				c-0.026,0-0.061,0-0.087,0c-0.033,0-0.062-0.008-0.089-0.008c-0.011,0-0.032-0.008-0.042-0.008c-0.415,0-0.572,0.149-0.758,0.38
				c-0.148,0.191-0.281,0.232-0.467,0.256c-0.778,0.067-1.238-0.703-1.98-0.687c0.019,0.042,0.046,0.1,0.064,0.15
				c0.085,0.479-0.176,0.62-0.644,0.711c-0.21-0.231-0.519-0.364-0.741-0.587c-0.142,0.016-0.316,0.034-0.452,0.041
				c0.26,0.737,0.26,0.737,0.38,0.911C806.083,324.884,806.093,324.802,806.116,324.735z"/>
			<path fill="#FFFFFF" d="M802.483,328.228c0.941-0.042,1.639,0.405,1.723,1.092c0.017,0.091,0.007,0.604-1.364,1.217
				c-0.044,0.016-0.044,0.091-0.055,0.141c0.044,0.083,0.055,0.091,0.211,0.083c0.01,0,0.01,0,0.01,0l-0.091,0.141
				c0.977-0.075,1.377-0.108,2.058-0.165c-0.802,0.794-0.92,1.241-0.561,2.077c0.449-0.017,0.89,0.099,1.331,0.017
				c-0.089,0.34-0.283,0.671-1.695,0.662c0.652,1.49,1.436,2.135,1.78,2.425c1.38-0.363,1.703-0.985,1.656-3.103
				c-0.031-1.564,0.062-1.879,0.674-2.276c0.282,0.273,1.246,1.308,1.698,2.425c0.167,0.415,0.314,0.579,0.4,0.637
				c0.04,0.025,0.282,0.108,0.556,0.108c0.365,0,0.787-0.141,0.853-0.803c0.028-0.355-0.044-0.836-0.14-1.175
				c-0.206-0.836-0.42-1.374-0.719-1.771c-0.51-0.646-1.271-0.878-2.668-1.292c-0.073-0.017-0.181-0.034-0.239-0.09
				c-0.667-0.555-0.748-1.54-1.479-2.062c-0.592-0.405-1.118-0.471-1.434-0.496c-0.574-0.066-0.635-0.141-0.775-0.58
				c-0.069,0.01-0.158,0.01-0.233,0.025c-0.171,0.034-0.171,0.034-1.542,0.414c0.112,0.265,0.104,0.563,0.233,0.82
				c-0.151-0.091-0.353-0.216-0.497-0.324c-0.393,0.439-0.532,1.019-0.959,1.424c-0.159,0.157-0.488,0.223-0.74,0.232
				C800.655,328.303,800.655,328.303,802.483,328.228z"/>
			<path fill="#FFFFFF" d="M795.743,398.07c-0.404,0.075-0.641,0.224-0.783,0.323c0.521-0.042,1.051-0.091,1.585-0.141
				C796.265,398.045,795.991,398.045,795.743,398.07z"/>
			<path fill="#FFFFFF" d="M756.345,389.33l3.917-0.415c0.44-0.141,1.161-0.38,3.483-1.854c0.192-0.124,0.234-0.199,0.396-0.787
				c0.148-0.662,0.148-0.662,1.523-1.49c0.482-0.281,1.184-0.562,1.798-0.281c0.224,0.1,0.32,0.148,0.518,0
				c0.19-0.132,0.19-0.132,0.87-1.051l0.249-0.911l0.947-2.748c-0.956-2.077-1.202-2.217-3.534-3.576
				c-0.279-0.057-0.279-0.057-1.067,0.927c-0.146,0.158-0.146,0.158-1.257,0.505c-0.826,0.264-1.516,0.861-2.425,0.977
				c-0.608,0.075-1.034-0.472-1.627-0.48c-1.092-0.009-1.941,0.828-3.04,0.787c-0.168-0.009-0.168-0.009-1.505-0.522
				c-1.104-0.422-1.104-0.422-1.121-0.446c-0.304-0.538-0.441-0.778-0.782-0.752c-0.009,0-0.019,0.007-0.031,0.007
				c-0.472,0.14-0.71,0.348-1.458,1.556c-0.2,0.339-0.2,0.339-1.797,1.465c-1.176,1.39-0.837,2.019,1.011,1.879
				c0.708-0.05,0.759,0.538,0.75,0.546c0.288,0.107,0.717-0.074,0.845,0.323c-0.165,0.239-0.234,0.331-1.143,0.579
				c-4.383,1.216-2.024,1.97-1.849,1.945c0.723-0.14,1.344-0.729,2.149-0.505l0.156,1.747c-0.201,0.886-0.837,1.581-1.116,2.426
				c0.23,0.355,0.23,0.355,3.646-1.334c0.753-0.372,0.831,0.058,0.814,0.473C755.643,388.701,755.615,389.354,756.345,389.33z"/>
			<path fill="#FFFFFF" d="M654.396,524.5c-0.244,0.44-0.995,1.764,0.606,5.257c0.195,0.431,0.557,1.226,2.171,0.796
				c1.05-0.283,1.887-0.995,2.909-1.333c0.861-0.291,1.781-0.397,2.644-0.722c0.092-0.033,0.221-0.09,0.306-0.131
				c0.188-0.092,0.602-0.332,0.587-0.802C663.534,525.835,658.497,521.903,654.396,524.5z"/>
			<path fill="#FFFFFF" d="M666.473,534.194c-0.089,0.379-0.332,1.391,1.757,1.333c0.935-0.026,2.719-0.381,3.08-0.613
				c0.091-0.05,0.187-0.14,0.243-0.207c0.457-0.472,0.357-1.2,0.805-1.672c0.196-0.191,0.702-0.472,1.096-0.712
				c0.581-0.34,1.242-0.719,1.363-0.994c0.162-0.363-0.355-0.909-0.806-1.132c-0.097-0.051-0.23-0.117-0.337-0.149
				c-0.116-0.042-0.263-0.082-0.379-0.132c-0.368-0.108-0.769-0.081-1.151-0.2c-0.722-0.23-1.228-1.098-2.159-0.819
				c-0.068,0.017-0.145,0.067-0.214,0.1c-0.051,0.066-0.133,0.14-0.188,0.199c-0.344,0.388-0.49,0.9-0.832,1.29
				c-0.463,0.515-1.176,0.771-1.56,1.383c-0.071,0.092-0.143,0.223-0.17,0.332c-0.043,0.115-0.082,0.247-0.11,0.355
				c-0.05,0.199,0.095,0.497,0.051,0.693C666.873,533.558,666.549,533.886,666.473,534.194z"/>
			<path fill="#FFFFFF" d="M915.986,523.725c-0.469,0.049-0.469,0.049-2.29,1.097c-4.09-2.646-4.09-2.646-9.078-10.352
				c0.211-0.679,0.248-1.656,0.113-2.351c-5.501-2.393-3.316-9.004-7.021-12.391c-1.681-2.192-1.293-5.09-2.583-7.417
				c0-0.041-6.189-12.001-7.173-13.367c-0.714-0.968-2.442-0.985-3.282-0.985c-0.473,0.017-0.483,0.017-0.483,0.017
				c-0.01,0-0.01,0-0.019,0c-0.011,0-0.011,0-0.021,0h-0.011c-0.011,0-0.011,0-0.011,0c-0.01,0-0.01,0-0.021,0
				c-0.008,0-0.008,0-0.008,0c-0.011,0-0.021,0-0.021,0c-0.437,0.157-0.952,0.563-1.218,0.952
				c-3.479,0.166-3.479,0.166-19.188-4.138c-0.349,0.347-0.825,0.818-1.175,1.175c-0.67-0.166-0.67-0.166-3.236,1.457
				c-0.394,1.821,0.696,3.874-0.912,5.496c-4.397-1.796-4.397-1.796-4.579-1.737l-0.422-0.067c-7.018-2.997-7.018-2.997-9.718-3.352
				c-0.43,0.034-0.441,0.034-0.462,0.034c-0.011,0-0.018,0-0.04,0c0,0-0.02,0-0.025,0.008c-0.021,0-0.033,0-0.04,0
				c-0.015,0-0.026,0-0.033,0c-0.014,0.009-0.036,0.009-0.041,0.009c-0.012,0-0.02,0-0.045,0c-0.008,0-0.016,0-0.027,0
				c-0.38-0.134-0.873-0.299-1.258-0.423c-1.81-3.741-1.81-3.741-5.2-5.777c-2.682-1.597,0.384-4.735-1.785-6.465
				c-0.596-0.48-0.596-0.48-8.462-0.074c-4.922,1.34-10.547,0.116-15.107,2.814c-0.76,0.447-1.489,0.993-2.185,1.697
				c-4.334,4.37-4.684,4.139-8.062,1.97c-2.825-1.829-2.825-1.829-7.934,1.962c-0.475,0.348-0.577,1.3-0.506,1.887l-20.886,30.261
				c-1.218,1.516-1.669,2.069-1.583,4.744c0.114,2.93,2.306,5.165,2.735,7.986c0.549,3.609-2.521,7.127-0.256,10.777
				c0.846,1.384,0.846,1.384,22.947,15.014c1.314,0.615,2.637,0.497,3.938-0.345c0.026-0.01,0.065-0.035,0.088-0.059
				c0.048-0.033,6.154-3.236,9.424-0.993c0.833-0.256,1.637-0.588,2.442-0.954c3.643-1.637,6.989-4.004,11.166-4.36
				c0.44-0.025,0.44-0.025,5.009,3.741c0.282-0.018,0.56-0.024,0.832-0.035c-0.201,0.076-0.408,0.142-0.62,0.15
				c2.371,1.101,5.519-0.686,7.478,1.928c0.752,1.003,1.24,2.693,1.153,3.229c-0.227,1.439-1.861,1.986-2.224,3.353
				c0.335,2.236,0.767,2.972,3.414,4.189c3.13,1.446,6.671,8.847,6.305,11.23c-0.317,2.127,3.453,4.232,1.132,5.993
				c-3.622,2.755-4.238,9.907-4.231,9.958c0.38,1.332,2.178,1.135,2.641,2.373c0.12,0.308,0.225,0.755,0.225,1.086
				c0.008,0.133-0.013,0.321,0.008,0.463c0.066,0.373,0.318,0.845,0.381,1.216c0.292,1.532,2.074,2.591,1.4,4.412
				c-0.191,0.555-0.565,1.581-0.363,2.085l3.217,6.979c0.045,0.556-0.215,1.092-0.156,1.656c0.149,0.084,0.344,0.215,0.49,0.29
				c-0.381,0.884-0.381,0.884,1.625,3.882c-1.156,3.236-1.156,3.236,0.583,3.699c0.244,0.596,0.324,1.258,0.645,1.822
				c0.192,0.006,0.469,0.065,0.661,0.016c1.602-0.266,2.519-1.854,4.115-2.161c1.109-0.206,1.778,1.118,2.916,0.836
				c0.338-0.092,3.44-1.423,3.797-1.622c4.899-2.682,5.813-3.973,8.886-8.243c3.341-4.66,3.341-4.66,3.378-4.827
				c0.415-2.177,2.679-1.837,3.961-2.806c3.919-2.947,2.807-9.079,7.57-11.497c0.7-2.194,3.398-1.415,4.547-2.947h-0.011
				c1.043-0.736,2.178-1.705,2.178-1.713c0.102-0.142,0.204-0.339,0.276-0.479c0.992-1.763,0.64-3.899,1.643-5.661
				c0.899-1.565,3.028-2.019,3.664-3.84c-3.517-2.791-5.64-4.478-1.18-12.02c1.349-2.267,3.446-3.491,3.852-3.725
				c1.662-0.91,2.669-2.508,4.034-3.714c1.687-1.483,2.152-4.139,4.746-4.769c1.099-0.281,3.477-2.631,4.893-4.121
				c0.15,0,0.306,0,0.451,0c0.053-0.24,0.117-0.464,0.199-0.697c0.289-0.313,0.467-0.519,0.478-0.529
				c-0.099-0.023-0.189-0.041-0.287-0.074c1.924-5.197,7.51-8.046,9.346-13.3c0.069-0.266,0.039-0.638,0.069-0.911
				C924.561,521.836,924.561,521.836,915.986,523.725z"/>
			<path fill="#FFFFFF" d="M952.046,590.652l0.036-0.058c-0.026,0.023-0.046,0.058-0.068,0.083
				C952.022,590.667,952.036,590.66,952.046,590.652z"/>
			<path fill="#FFFFFF" d="M951.44,591.048c-0.556,0.457-0.913,1.06-1.402,1.573c0.037-0.115,0.037-0.115,0.174-0.38
				c-0.086,0.074-0.214,0.175-0.3,0.265c-1.739,1.862-3.393,3.791-5.036,5.727c-2.469,2.898-4.898,5.828-7.45,8.658
				c-0.366,0.415-0.74,0.803-1.124,1.2c-0.277,0.282-0.558,0.563-0.839,0.835c-0.065,0.059-0.128,0.125-0.196,0.184
				c-1.262,1.217-2.561,2.391-3.851,3.593c-1.338,1.232-2.659,2.489-3.879,3.848c-0.058,0.05-0.058,0.065-0.058,0.065
				c0.008,0,1-0.693,2.342-1.803c-0.193,0.29-0.58,0.636-1.271,1.258c0.045-0.04,0.15-0.132,0.446-0.389
				c0.117-0.107,0.309-0.272,0.66-0.588c0.029-0.033,0.029-0.033,0.029-0.033c0.012-0.008,0.028-0.016,0.028-0.033
				c1.4-1.342,3.002-2.863,4.615-4.436c2.09-2.011,4.185-4.081,5.898-5.887c0.012-0.015,0.025-0.032,0.037-0.039
				c0.074-0.082,0.156-0.165,0.235-0.24c1.621-1.896,3.505-4.081,5.389-6.299c0.114-0.131,0.229-0.265,0.341-0.405
				c0.071-0.075,0.137-0.15,0.203-0.231c1.908-2.252,3.782-4.503,5.347-6.507c-0.039,0.06-0.092,0.108-0.131,0.158
				c0.119-0.158,0.25-0.315,0.365-0.463c-0.54,0.686-1.171,1.299-1.736,1.962C950.625,592.083,951.077,591.595,951.44,591.048z
				 M929.622,615.094c0.02-0.017,0.034-0.033,0.054-0.041C929.656,615.06,929.642,615.077,929.622,615.094z"/>
			<path fill="#FFFFFF" d="M866.553,324.338c1.12,0.373,2.25,0.779,3.396,1.143L866.553,324.338z"/>
			<path fill="#FFFFFF" d="M973.446,545.682c0.084,0,0.1,0.142,0.1,0.572c0.002,0.835,0.338,0.654,0.4,0.52
				c0.034-0.072,0.588-1.687,0.596-1.697c-0.247-0.213-0.529-0.414-0.845-0.611C973.425,545.617,973.425,545.617,973.446,545.682z"
				/>
			<path fill="#FFFFFF" d="M890.286,334.072c0,0,0,0,0.005,0.008c0-0.008,0-0.008,0-0.008
				C890.286,334.072,890.286,334.072,890.286,334.072z"/>
			<path fill="#FFFFFF" d="M890.305,334.08c-0.014,0-0.014,0-0.014,0c0.022,0,0.032,0.008,0.056,0.016l-0.033-0.016H890.305z"/>
			<path fill="#FFFFFF" d="M890.347,334.096l0.865,0.472c0.858,0.447,1.782,0.935,2.851,1.498
				C892.823,335.371,892.664,335.272,890.347,334.096z"/>
			<path fill="#FFFFFF" d="M963.705,573.012l-0.63,1.118C963.32,573.715,963.519,573.344,963.705,573.012z"/>
			<path fill="#FFFFFF" d="M969.456,559.72c0.064-0.108,0.064-0.108,1.243-3.427c0.008-0.049,0.02-0.116,0.027-0.15
				c-0.048-0.006-0.119-0.023-0.167-0.023c-0.381-1.987,1.381-3.278,1.669-5.042c-0.146,0.016-0.146,0.016-0.567,0.314
				c0.063-0.454,0.247-0.878,0.328-1.316c-0.092,0.066-0.195,0.165-0.254,0.247c0-0.753,0.272-1.479,0.255-2.233
				c-0.069,0.007-0.163,0.023-0.235,0.033c0.266-1.44,0.402-2.906,0.676-4.346c0.065-0.414,0.26-2.153,0.26-2.176
				c0.035-0.49-0.309-0.911-0.255-1.407c0.119-1.407,0.658-2.758,0.756-4.172c0.026-0.431-0.031-0.496-0.098-0.572
				c-0.048,0-0.104,0-0.143,0.01c-0.461,0.355-1.075,1.496-1.075,1.496c-0.43,1.068-0.376,2.251-0.864,3.295
				c-0.641,1.373-0.641,1.373-0.838,2.021c-0.05,0.156-0.12,0.38-0.177,0.546c-0.792,2.525-0.642,5.181-1.113,7.747
				c-0.376,1.251-0.947,2.434-1.224,3.707c-0.118,0.688-0.04,1.384-0.287,2.045c-0.579,1.647-1.616,3.081-2.188,4.734
				c0.104-0.039,0.232-0.14,0.304-0.223c0.02,0.051,0.026,0.108,0.034,0.157c0.806-1,1.017-2.318,1.879-3.278
				c-0.003,0.06-0.898,4.8-0.909,4.835c0,0.033-1.874,6.828-1.94,7.027c0.061-0.033,0.061-0.033,0.584-0.663
				c-0.081,0.412-0.142,0.761-0.217,1.093c-0.193,0.911-0.46,1.631-1.216,3.011l1.216-2.16c0.646-1.397,1.426-2.738,2.09-4.129
				c-0.074,0.083-0.172,0.207-0.242,0.297c0.284-0.877,0.717-1.721,0.99-2.607c0.076-0.274,0.153-0.547,0.2-0.842
				c-0.187,0.164-0.339,0.354-0.507,0.529c-0.302-0.622,0.785-3.245,1.016-3.55C968.742,560.192,969.26,560.125,969.456,559.72z"/>
			<path fill="#FFFFFF" d="M964.849,571.01c0,0.009,0,0.009,0,0.009c0.299-0.513,0.581-1.034,0.87-1.564l-0.029,0.056
				c0.009-0.022,0.02-0.039,0.029-0.056l-0.798,1.397c-0.012,0.066-0.047,0.116-0.072,0.166
				C964.849,571.019,964.849,571.019,964.849,571.01z"/>
			<path fill="#FFFFFF" d="M866.33,324.264l-0.12-0.042l0.343,0.116C866.477,324.304,866.411,324.289,866.33,324.264z"/>
			<path fill="#FFFFFF" d="M884.226,357.537c0.021,0,1.563,0.555,1.765,0.066c0.092-0.216-0.14-0.597-0.29-0.795
				c-0.624-0.861-2.302-2.226-2.99-2.167c-0.187,0.057-0.195,0.189-0.164,0.429c-0.059-0.074-0.118-0.141-0.163-0.215
				C883.26,356.461,884.213,357.529,884.226,357.537z"/>
			<path fill="#FFFFFF" d="M871.293,330.959l0.125,1.259c-2.153,0.165-2.153,0.165-2.463,0.405c0.354,1.233,1.374,2.11,1.839,3.278
				c-0.215,0.182-0.49,0.43-0.702,0.612c0.454,1.051,2.019,0.885,2.365,2.069c0.166,0.588,0.898,2.078,0.898,2.087
				c0.219,0.248,0.456,0.438,1.308,1.149c1.358,1.125,1.358,1.125,2.06,2.524c-0.294,0.349-0.716,0.142-1.076,0.232
				c-0.021,0.034-0.039,0.075-0.069,0.099c0.62,0.936,1.782,1.11,2.532,1.83c-0.006,0.042-0.036,0.108-0.048,0.149
				c-0.134,0.033-0.281,0.066-0.413,0.124c-0.607,1.995,0.723,2.732,1.607,3.211c0.01,0.018,1.885,1.002,1.985,1.035
				c0.948,0.447,2.038,0.472,2.96,0.961c1.22,0.629,2.292,1.514,3.587,1.969c0.023,0.009,2.091,0.564,3.262,0.224
				c0.013-0.058,0.019-0.132,0.032-0.19c-0.293-0.331-0.336-0.381-1.322-1.068c-5.165-3.601-8.277-7.243-8.398-7.392
				c-0.134-0.149-0.287-0.347-0.385-0.505c-0.616-1.001-0.496-1.233-0.223-1.754c0.021-0.05,0.021-0.133-0.011-0.182
				c-0.624-1.027-1.854-1.491-2.459-2.534c-0.069-0.115-0.083-0.323-0.059-0.472c0.084-0.794,0.084-0.794-1.425-2.905
				c0.686-0.224,1.321,0.282,1.988,0.133l-2.913-2.525c-0.257-0.174-0.257-0.174-0.278-0.322c0.504-0.067,0.979,0.198,1.488,0.042
				c-0.274-0.232-0.633-0.348-0.842-0.664c0.081-0.189,0.284-0.289,0.35-0.479c-0.389-0.487-0.862-0.902-1.249-1.39
				c-0.343-0.414-3.468-2.094-4.512-2.16c-0.362,0.19-0.745,0.058-1.127,0.108C870.198,330.322,870.892,330.43,871.293,330.959z"/>
			<path fill="#FFFFFF" d="M962.629,532.489c0.007-0.026,0.015-0.043,0.022-0.066c0.296-0.904,0.554-1.837,0.74-2.517
				c0.523-1.904,0.388-2.259-0.033-2.235c-0.901,0.331-1.772,1.896-2.015,2.626c-0.043,0.131-0.084,0.256-0.124,0.396
				c-0.22,0.653-0.333,1.051-0.668,4.213c-0.053,0.332-0.063,0.621,0.142,0.72c0.641,0.322,1.343-1.325,1.896-3.029
				C962.602,532.555,962.617,532.523,962.629,532.489z"/>
			<path fill="#FFFFFF" d="M975.708,546.909c-0.438,1.059-0.438,1.059-0.647,1.216c-0.053,0.039-0.101,0.131-0.141,0.181
				c-0.273,0.488-0.408,1.026-0.626,1.532c-0.196,0.447-0.483,0.843-0.765,1.241c-0.332,0.447-0.674,0.894-0.888,1.423
				c-0.919,2.162-1.664,4.395-2.437,6.613c-0.451,1.298-0.908,2.607-1.431,3.899c0.168-0.132,0.254-0.322,0.382-0.472
				c-0.061,0.189-0.061,0.189-0.061,0.256l2.808-5.835c1.173-2.632,2.562-6.215,3.659-8.89l1.807-5.265
				c-0.37,1.003-0.772,2.029-1.14,2.882C975.874,546.461,975.708,546.899,975.708,546.909z"/>
			<path fill="#FFFFFF" d="M983.776,515.935L983.776,515.935c0.624-1.389,0.723-2.863,0.857-4.338
				C984.347,513.039,983.917,514.47,983.776,515.935L983.776,515.935z"/>
			<path fill="#FFFFFF" d="M977.369,542.809c0.004-0.016,0.009-0.032,0.016-0.039l-0.012,0.039c0.827-2.226,1.515-4.377,1.522-4.41
				l0.072-0.216l-0.005,0.017l0.005-0.017L977.369,542.809z"/>
			<path fill="#FFFFFF" d="M985.88,473.118c-2.43-18.698-2.43-18.698-4.795-27.861c-5.31-17.564-5.31-17.564-9.043-26.039
				c-2.652-5.389-6.187-12.556-9.145-17.771l-3.797-6.141c-10.314-14.601-10.314-14.601-16.444-21.439
				c-12.147-12.531-12.393-12.779-19.55-18.631c-1.437-1.075-2.71-2.052-3.884-2.93c-10.137-7.64-11.115-8.253-18.47-12.582
				l-9.541-5.156c-2.432-1.259-4.349-2.202-7.762-3.717c2.092,0.96,2.966,1.416,3.547,1.706c2.1,1.167,4.33,2.11,6.347,3.434
				c-1.5-0.752-1.5-0.752-1.642-0.811c-0.43-0.198-0.826-0.405-1.235-0.612c-0.033-0.008-0.033-0.008-0.033-0.008
				c-0.015,0-0.015,0-0.015,0c-0.451-0.182-0.889-0.364-1.341-0.546c0.881,0.662,0.881,0.662,3.913,2.492
				c0.902,0.53,0.902,0.53,5.865,3.774c2.793,1.97,2.793,1.97,3.159,2.699c-0.267,0.033-0.622,0-0.878-0.075
				c-0.037,0.116-0.082,0.264-0.125,0.381c2.947,3.005,7.456,3.882,10.128,7.268c-1.028-0.124-5.163-2.798-5.647-3.096
				c-1.098-0.736-1.107-0.736-1.673-0.736c-0.039,0.124-0.084,0.298-0.135,0.422c0.051,0.058,0.051,0.058,2.544,2.441
				c-2.677-1.357-4.011-4.552-7.295-5.065c1.618,1.663,4.11,2.351,5.26,4.528c-0.042,0.116-0.084,0.272-0.12,0.38
				c0.486,0.555,1.137,1.282,1.622,1.83l2.125,1.382c5.558,6.141,6.559,7.249,7.56,6.918c0.076,0.091,0.195,0.215,0.273,0.307
				c0.052-0.116,0.088-0.266,0.126-0.39c0.019,0,1.672,0.307,2.201,1.565c-0.476,0.05-0.476,0.05-1.231-0.248
				c-0.152-0.05-0.152-0.05-0.152-0.05l-0.064,0.447c1.307,1.63,3.411,2.417,4.512,4.238c-0.268,0.025-0.622,0.05-0.889,0.075
				c0.328,0.372,0.638,0.753,0.959,1.134c0.415,0.579,0.944,1.076,1.36,1.647c-0.101,0.074-0.254,0.166-0.367,0.24
				c-0.068,0.529-0.068,0.529,0.181,1.432c-0.266,0.017-0.657,0.05-0.932,0.074c-0.421,0.025-0.826-0.149-1.227-0.008
				c-0.106-0.049-0.262-0.125-0.367-0.183c4.437,5.936,7.628,7.93,11.042,12.947c-3.422-5.025-6.668-7.053-11.308-13.111
				c-0.451-0.116-1.871-0.803-1.299-1.656c0.834-0.05,1.496,1.002,2.422,0.373c-0.03-0.588-0.597-1.232-0.878-1.747
				c-0.18-0.794-0.504-2.276-4.97-6.191l-1.736-1.721c-1.239-0.911-2.024-2.268-3.241-3.212c-1.545-1.191-2.821-2.682-4.347-3.891
				c-1.151-0.786-1.68-2.101-2.726-2.996l-2.179-1.978c-2.324-1.25-4.142-3.385-6.904-3.882c-0.108,0.016-0.236,0.016-0.332,0.034
				c-0.011,0.099,0.025,0.23,0.075,0.322l0.096,0.125c4.003,4.138,4.003,4.138,5.124,4.915c-0.03,0.183-0.061,0.431-0.079,0.621
				c0.892,0.812,0.933,0.886,1.466,1.705c-0.159,0.091-0.371,0.231-0.539,0.339c0.032,0.058,4.48,7.194,10.637,8.963
				c0.664,0.199,2.035,0.597,1.895,2.426c-0.007,0-0.007,0-0.007,0c-0.01,0-0.01,0-0.01,0c-0.866-0.472-1.594-1.133-2.44-1.631
				c-0.111-0.024-0.111-0.024-0.111-0.024h-0.011c0,0-0.01,0-0.01-0.008c-0.011,0-0.011,0-0.011,0h-0.008h-0.014c0,0,0,0-0.006,0
				c-0.41-0.149-0.41-0.149-2.648-1.25c-0.485-0.132-0.485-0.132-0.494-0.132c-4.406-1.656-8.5-4.015-12.87-5.769
				c-0.119-0.026-0.119-0.026-0.119-0.026h-0.01c0,0,0,0-0.011,0c2.102,2.864,5.672,3.899,8.137,6.283
				c-0.443,0.05-0.443,0.05-4.428-2.441c0.233,0.487,0.627,1.1,0.992,1.498c-0.07,0.182-0.172,0.447-0.238,0.638
				c-0.276,0.132-0.276,0.132-0.276,0.132c-0.435-0.24-0.435-0.24-2.448-1.557c-0.27,1.026-0.164,2.078-0.229,3.121
				c-0.244,0.173-0.244,0.173-0.244,0.173c-1.439-0.728-2.12-2.747-4.19-2.367c-1.318,2.094-1.318,2.094-1.619,2.194
				c-0.239,0.688-0.801,1.2-1.063,1.87c0.537,1.118,0.499,1.176,0.024,1.962c0.409,0.737,0.409,0.737,1.453,2.335
				c-4.608-0.224-4.862-2.062-5.042-3.278c0.516-0.083,1.197-0.175,1.71-0.224c0.032-0.191,0.069-0.439,0.096-0.621
				c-3.769-3.361-4.878-3.153-6.727-2.814c0.141,0.364,0.398,0.835,0.641,1.142c-0.033,0.191-0.081,0.455-0.12,0.663
				c0.16,0.14,0.35,0.347,0.519,0.504c-0.306,1.077-0.306,1.077,2.185,3.426c1.358,0.994,1.358,1.01,1.718,1.821
				c-4.148,1.994-4.148,1.994-4.317,2.442c-0.714,2.045,1.702,2.905,1.811,4.636c-1.093,0.331-1.093,0.331-3.581-1.043l-1.756-0.919
				c-0.94-0.39-0.982-0.398-2.083-0.637c-0.508-0.058-0.508-0.058-0.508-0.058c-0.225,1,0.313,1.945,0.328,2.93
				c-0.721-0.183-0.721-0.183-2.962-2.028c-1.574-0.844-1.262-1.408-0.725-2.351c-0.243-0.562-0.243-0.562-5.926-3.873
				c0.142-0.14,0.311-0.306,0.443-0.439c2.149,0.555,3.736,2.98,6.38,1.829c4.237,1.804,4.237,1.804,5.882,1.97
				c0.438-0.538,0.781-1.167,1.183-1.737c0.721-1.656,0.721-1.656-0.022-3.626c-0.993-1.747-0.993-1.747-9.245-5.364
				c-2.976-1.308-10.313-3.965-10.372-3.99c-1.845-0.628-3.297,0.927-5.05,0.862c-0.368-0.811-0.368-0.811,0.326-1.913
				c0.479-0.065,1.091-0.214,1.538-0.331c0.052-0.199,0.111-0.472,0.175-0.678c-1.045-0.646-7.857-2.682-9.081-2.267
				c-0.199,0.081-0.199,0.081-0.199,0.081s0,0-0.007,0.009c-0.011,0-0.011,0-0.011,0h-0.011c-3.725-0.902-3.725-0.902-7.188,2.151
				c-0.418,0.232-0.418,0.232-0.425,0.232c-0.021,0-0.021,0-0.021,0h-0.009c0,0,0,0-0.014,0c-1.393,0.597-5.04,2.616-5.04,2.624
				c-0.068,0.033-0.068,0.033-0.068,0.033l0,0h-0.01c-0.01,0-0.01,0-0.01,0h-0.009c-2.16,1.052-3.685,3.08-6.076,3.758v0.008
				c0,0,0,0-0.007,0h-0.013c-0.335,0.961,0.226,1.904,0.053,2.856c-0.105,0.033-0.105,0.033-0.105,0.033h-0.007h-0.016h-0.011
				c-2.534,0.381-2.534,0.381-2.78,1.515c-0.188,0.331-0.309,0.86-0.267,1.234c0.181,0.049,0.442,0.115,0.64,0.156
				c0.581-0.049,0.862-0.058,1.142-0.074c1.463-0.124,1.973-2.028,3.584-1.863c0.218,0.821,0.218,0.853,0.787,1.772
				c-0.936,1.1-2.431,1.116-3.595,1.779c-1.282,5.057-3.508,6.465-4.337,7.003c-0.059,1.532,1.063,3.004,0.212,4.562
				c-4.81,0.843-7.345,4.278-7.165,5.554c-0.861,0.959-2.191,0.454-3.173,1.001c-0.133,1.54-0.809,3.005-0.646,4.594l1.707,6.572
				c0.166,0.224,0.47,0.638,0.808,1.465c0.203,0.497,3.163,3.212,3.19,3.228c0.469,0.199,3.118,0.994,4.468-0.016
				c0.313-0.216,0.34-0.306,0.428-0.556c1.258-3.219,2.763-3.517,4.357-3.84c1.938-0.38,1.942,1.97,3.015,2.864
				c-0.235,0.587-0.235,0.587-0.206,0.753c0.118,0.05,0.369,0.157,0.957,1.672c0.311,0.405,0.239,0.968,0.595,1.35
				c2.332,2.417,2.332,2.417,2.574,3.427c0.267,1.15,0.267,1.15,3.537,2.176c0.02,0,0.02,0,0.02,0
				c0.349-0.313,0.497-1.084,0.533-1.407c0.09-0.712,0.102-0.794,1.91-1.283c3.343-0.893,3.698-1.017,3.838-1.266
				c0.012-0.009,0.514-1.854,0.033-3.452c-0.125-0.413-0.021-0.878-0.274-1.257c-0.399-0.63-1.422-0.679-1.542-1.574
				c-0.207-1.498,0.32-1.449,1.207-1.35c1.143,0.125,1.183-0.09,1.291-0.653c0.167-0.893,0.828-1.548,1.229-2.334
				c-7.146,0.339-14.544,0.795-22.121,1.324c7.577-0.529,14.976-0.985,22.142-1.366c0.995-1.341,0.995-1.341,1.056-1.92
				c-1.536-1.308-1.536-1.308-5.236-2.317c-0.114-0.473-0.214-0.937-0.316-1.4c-0.332-0.645-0.766-1.25-1.128-1.886
				c0.356-0.638,1.036-0.985,1.411-1.606c-0.127-0.182-0.283-0.414-0.407-0.579c0.202-0.175,0.473-0.39,0.676-0.555l0.214-1.143
				l0.271-0.91c0.045-0.182,0.095-0.422,0.143-0.604c0.185-0.009,0.458-0.025,0.652-0.034c0.752-0.993,0.752-0.993,1.422-1.232
				c-0.042-1.524,0.169-1.605,1.408-2.028c0.82-2.036,0.82-2.036,0.142-5.091c3.528-2.905,6.765-1.829,6.227,1.06
				c-0.583,3.038-3.788,4.08-5.129,6.547c0.016,0.033,1.833,6.472,2.077,8.715c0.372,0.058,0.87,0.149,1.24,0.215
				c0.206,0.241,0.832,0.944,2.567,1.465c0.153-0.007,0.158-0.007,0.181-0.007c0.011,0,0.02,0,0.026-0.009c0.023,0,0.023,0,0.037,0
				c0.016,0,0.022,0,0.029,0c0.01,0,0.029,0,0.04,0c0.009,0,0.019,0,0.038-0.008c0.013,0,0.021,0,0.03,0c0.01,0,0.033,0,0.036,0
				c1.097-0.008,2.482,0.694,3.52,1.093c3.442,0.504,8.446-4.669,10.294-0.257c-0.861,0.852-1.775,1.359-2.728,1.64
				c-1.782,0.066-3.568,0.14-5.377,0.206c-1.332-0.082-2.682-0.132-3.943,0.182c-0.898,0.406-1.851,0.696-2.763,1.077
				c-0.283,4.18,7.004,2.176,6.356,6.323c-3.479-1.961-3.479-1.961-4.576-2.276c-0.362,1.333-0.362,1.333-2.792,2.244
				c0.15,0.596,0.282,1.415,0.342,2.028l0.574,1.059c0.14,1.275,0.351,2.541,0.413,3.824c-0.092,0.057-0.092,0.057-2.498,0.728
				c-0.047,0.332-0.123,0.77-0.177,1.101c-0.291,0.116-0.681,0.281-0.965,0.406c-1.143-0.513-2.113-1.375-3.407-1.589
				c-1.636,1.399-3.823,1.937-5.466,3.336c-4.54-0.414-6.996-5.669-12.015-5.023c-0.393,0.065-0.401,0.065-0.401,0.065
				c-4.369-0.96-4.369-0.96-5.019,0.646c0.237,0.265,0.556,0.613,0.795,0.869c-0.2,0.612-0.761,1.332-1.231,1.788l0.177,0.248
				l0.141,0.159c0.331,0.43,0.616,1.175,0.639,1.721c-1.387,0.736-1.387,0.736-4.176,0.1c-1.738-0.075-2.268-0.1-4.432,1.266
				c0,0.654,0,0.654,0.474,4.461c-1.38,1.556-1.843,3.708-3.424,5.148c-0.149,0.009-0.269,0.017-0.409,0.026
				c-0.702,0.048-1.343,0.09-1.969,0.149c-0.289,0.431-0.678,1.001-0.979,1.423c0.429,0.339,1.027,0.762,1.498,1.068
				c-3.026,2.185-3.026,2.185-4.269,2.548c-0.094,0.257-0.22,0.589-0.321,0.845c-0.28,0.067-0.641,0.157-0.92,0.224
				c-0.654-0.456-1.512-1.069-2.16-1.532c-2.486-0.513-2.419,0.803-2.322,2.782c-2.592-0.042-2.592-0.042-3.269,1.241
				c-2.279-0.579-2.279-0.579-3.172,0.273c0.12,0.654,0.12,0.654,2.165,3.377c0.539,0.009,1.272-0.049,1.807-0.157
				c5.025,3.559,5.025,3.559,6.274,9.883c-0.967,0.828-1.407,2.061-2.333,2.921c-0.273-0.041-0.652-0.1-0.933-0.149
				c-0.055-0.133-11.934-3.767-15.567,1.795c1.647,5.049,0.452,10.346,1.414,15.462c0.326,0.504,0.82,1.232,1.393,1.44
				c1.832,0.703,2.62-1.804,4.371-1.367c1.703,0.431,1.91,2.227,2.984,3.221c0.486,0.132,0.486,0.132,0.497,0.132
				c0-0.008,0.01-0.008,0.01-0.008c0.011,0,0.011,0,0.023,0c0.004,0,0.004-0.009,0.004-0.009c0.008,0,0.018,0,0.018,0
				c0.015,0,0.015,0,0.015,0c0.006,0,0.016,0,0.023,0c0,0,0,0,0.012,0c1.605-0.364,3.006-1.241,4.558-1.754
				c0.3-0.033,0.3-0.033,0.313-0.033c0,0,0,0,0.011-0.008h0.009c0.008,0,0.008,0,0.02,0c0.008,0,0.008,0,0.021,0c0,0,0,0,0.009,0
				c0,0,0.011,0,0.02,0c0-0.008,0.007-0.008,0.007-0.008c5.396-0.307,7.595-5.091,7.613-5.132c-0.499-5.421-0.499-5.421,0.268-6.688
				c0.273,0.008,0.636,0.008,0.897,0.017c0.346,0.413,0.354,0.413,0.365,0.413h0.02c0.013,0,0.027-0.017,0.027-0.017
				c0.024,0,0.024,0,0.033,0c0.02,0,0.02,0,0.027,0c0.012,0,0.022,0,0.022,0c0.017,0,0.029,0,0.036,0c0.01,0,0.01,0,0.033,0
				c0.641-0.133,0.795-0.166,1.463-0.87c0.207-0.215,0.453-0.496,0.795-0.86c1.877-1.514,3.68-3.269,3.68-3.286l0.356-0.555
				c0.323-1.267-0.039-2.558,0.17-3.824c7.996,0.679,7.996,0.679,8.859-0.141c0.621-0.414,0.621-0.414,0.621-0.414h0.012
				c0.008,0,0.008,0,0.008,0c0.008,0,0.008,0,0.008,0c0.012,0,0.012,0,0.012,0h0.008c0.011,0,0.011,0,0.021,0
				c0.08-0.008,0.08-0.008,0.088-0.008c0.174-0.183,0.407-0.447,0.581-0.638c-0.031-0.256-0.082-0.604-0.115-0.861
				c0.206-0.148,0.496-0.356,0.714-0.505c0.114,0,0.128,0,0.128,0c0.087-0.24,0.188-0.571,0.263-0.811
				c0.361-0.115,0.832-0.29,1.193-0.414c4.262,2.815,4.262,2.815,4.361,3.253c0.998,0.538,0.998,0.538,1.499,2.235
				c0.467,0.173,1.193,0.165,1.658-0.017c0.586,0.43,1.246,1.158,1.7,1.705l1.571,1.125l1.017,0.654l1.075,0.231l0.72,0.456
				l0.996,0.332c4.092,1.282,4.092,1.282,5.349,3.957c-0.448,0.628-1.406,1.166-2.131,1.49c-2.484,0.604-5.151,0.305-7.567,1.315
				c0,0.266,0,0.604,0,0.86c3.584,1.73,3.584,1.73,4.369,1.482c1.677,1.48,2.97,1.448,3.591,1.432
				c0.3-0.364,0.604-0.952,0.691-1.415c-0.027-0.299-0.087-0.695-0.123-1.01c3.996-3.898,3.996-3.898,3.516-6.448l-0.527-0.663
				l0.125-0.314l0.313-0.29c1.526,0.406,2.776,1.648,4.523,1.408l0.101-0.396l-0.159-0.564l-0.496-0.745l-0.084-0.488l0.054-0.811
				l-0.228-0.414l-0.408-0.207l-0.869,0.356c-1.951-0.936-4.493-2.036-4.493-2.044l-2.327-0.464
				c-0.493-0.215-1.153-0.505-1.64-0.745c-0.244-1.067-0.379-1.656-3.044-3.666c-0.043-0.29-0.079-0.688-0.122-0.986
				c-2.084-0.091-2.084-0.091-2.66-0.413c-0.086-1.061-0.086-1.061,0.893-2.534c0.516-0.025,1.236,0.1,1.71,0.315
				c0.621,0.116,0.621,0.116,0.621,0.116c2.393,2.632,5.971,3.683,8.462,6.19c3.242,0.779,3.242,0.779,6.337,5.828
				c0.232,0.869,0.257,1.2,0.285,1.532c0.796,1.349,0.922,1.414,1.895,1.87c0.212-0.165,0.475-0.381,0.678-0.537
				c1.816,1.936,2.223,4.602,3.599,6.762c1.558-0.588,2.881-1.655,4.543-1.978c0.079-0.257,0.215-0.605,0.313-0.861
				c2.586-1.233,2.586-1.233,2.959-1.49c-0.424-0.497-1.107-1.068-1.669-1.399c0.017-0.273,0.055-0.638,0.076-0.911
				c-0.604-0.48-1.39-1.109-1.999-1.581c0.215-0.149,0.501-0.339,0.709-0.488c0.596,0.215,1.377,0.538,1.942,0.786
				c2.213-2.003,6.326-5.736,6.658-0.505c0.032,0.514-0.018,1.225,0.187,1.697c-1.566,0.24-2.147,0.331-3.097,2.749
				c2.344,3.137,6.467,3.112,9.426,5.173c1.208-0.464,1.871-1.663,3.047-2.21c2.3,1.183,2.327,1.274,2.729,2.458
				c-0.425,0.463-1.012,1.093-1.427,1.572c0.016,0.257,0.061,0.605,0.079,0.862c2.811,1.547,3.239,0.72,4.268-1.258
				c-0.442-0.737-1.245-1.151-1.636-1.921c2.579-3.675,4.084-2.367,4.997-1.588c-0.748,12.928-2.974,13.425-6.342,14.17
				c-0.098,0.248-0.232,0.579-0.342,0.819c0.06,0.084,9.18,11.977,10.909,14.535c-0.092,0.299-0.411,0.712-0.283,0.985
				c1.284,2.997,4.222,5.175,4.434,8.692c0.215,0.29,0.215,0.29,2.405,2.125c-0.22,3.095-0.247,3.569,2.039,4.279
				c0.289,0.572,0.459,1.423,0.841,1.937c0.16,0.223,0.408,0.497,0.577,0.722c0.364,0.422,0.277,1.323,0.098,1.846
				c-1.227,3.534,1.903,4.347,5.879,5.372c0.058,0,0.072,0,0.072,0c2.126-0.613,4.036-1.797,6.107-2.525c0,0,0,0,0.008,0
				c0,0,0,0,0.01,0c0,0,0,0,0.015,0c0,0,0,0,0.007,0c0.069,0,0.08,0,0.085,0c0.495-0.208,1.155-0.556,1.617-0.852
				c0.368-0.075,0.368-0.075,0.368-0.075c0.014,0,0.014,0,0.027,0h0.006h0.005h0.016c0.006,0,0.014,0,0.014,0
				c6.26-1.399,15.115-21.174,15.128-21.347c-1.222-0.274-1.222-0.274-4.289-2.914c-0.44,0.324-0.975,0.828-1.343,1.225
				c-1.179-0.057-1.179-0.057-2.437,1.059c-2.044-0.14-2.044-0.14-4.483-4.842c-2.958-0.828-5.486-7.722-5.486-7.788
				c0.947-0.207,1.935-0.307,2.878-0.556c0.659,0.68,1.177,1.863,1.534,2.732c0.42,0.762,1.064,1.738,1.55,2.45l0.715,0.522
				l1.021,0.753c0.101,0.099,13.191,6.413,13.474,6.232l9.379,1.623c2.144,1.216,1.289,4.074,3.088,5.497
				c0.006,0.571-0.049,1.332-0.168,1.887c0.032-0.207,0.244,0.405,0.342,0.579c0.519,0.654,0.707,1.564,1.53,1.996
				c0.802-0.273,0.802-0.273,1.771-1.625c1.049,2.121,0.822,12.641,0.773,13.138c-0.645,2.399-0.154,4.865-0.445,7.291
				c0.583,2.482-0.687,5.307,1.392,7.516c2.012-0.936,2.154-1.283,2.587-2.318c0.373-0.87,0.475-1.259,0.568-1.639l0.834-1.077
				c0.119-0.538,0.25-1.085,0.361-1.614l0.383-0.693c0.563-1.226,0.563-1.226,0.819-3.949c1.027-3.146,1.027-3.146,1.631-3.924
				l0.721-0.728c0.359-0.349,0.881-0.753,1.311-1.003c0.037-0.246,0.075-0.496,0.123-0.743c2.395-3.402,2.395-3.402,5.271-8.387
				c0.243-0.039,0.585-0.098,0.832-0.139c0.153,0.538,0.283,1.284,0.311,1.836c0.544-0.148,1.252-0.346,1.799-0.487
				c0.147,0.29,0.147,0.29-0.041,12.447c1.105-0.536,1.105-0.536,1.611-2.864c0.259,0.753,0.259,0.753-2.209,14.395
				c-1.806,6.836-1.806,6.836-2.992,15.18c0.185,0.885,0.467,1.086,0.714,1.298c1.38-4.088,1.38-4.088,2.068-6.438l-0.203-0.504
				c-0.296-2.689,0.527-5.489,2.983-13.792c0.788,1.765-0.374,7.079-0.428,7.301c-0.013,0.083-0.013,0.083-0.013,0.083
				c-0.485,1.813-0.485,1.813-0.559,2.65c0.454-0.72,0.825-1.466,1.189-2.21c2.539-5.423,2.638-11.415,3.502-17.217
				c0.024-0.158,0.047-0.305,0.061-0.463c0.36-2.235,0.852-4.453,1.65-6.588c0.107,0.595,0.117,1.175,0.084,1.756
				c0.107-0.588,0.251-1.168,0.489-1.74l0.041-0.314C986.684,490.474,986.876,487.843,985.88,473.118z"/>
			<path fill="#FFFFFF" d="M883.365,330.81c0.029,0.016,0.056,0.033,0.085,0.041c-0.066-0.025-0.118-0.058-0.19-0.09
				C883.26,330.761,883.26,330.761,883.365,330.81z"/>
			<path fill="#FFFFFF" d="M909.286,564.737c-0.12,0-0.245,0.115-0.351,0.156c-0.374,0.34-0.656,0.63-1.001,1.042
				c-0.468,0.515-1.01,1.225-2.082,2.666c-2.767,3.684-3.977,5.206-4.558,5.81c-0.25,0.224-0.322,0.191-0.407,0.141
				c-0.412-0.24-0.335-1.142-0.977-0.985c-0.036,0.017-0.085,0.05-0.129,0.076c-0.071,0.04-0.117,0.105-0.156,0.164
				c-0.018,0.016-0.033,0.016-0.043,0.025c-0.236,0.149-0.256,0.439-0.387,0.652c-0.755,0.465-1.769,0.349-2.419,1.036
				c-0.098,0.076-0.198,0.167-0.285,0.273c-0.021,0.026-1.653,2.4-1.722,5.273c-0.018,0.422-0.035,1.706-0.218,2.068
				c-0.171,0.374-0.438,0.655-0.733,0.894c-0.428,0.315-0.893,0.58-1.292,0.92c-0.299,0.214-0.572,0.463-0.782,0.769l-2.522,8.318
				c0.313,0.348,1.137,1.216,4.195-1.076c0.992-0.72,2.227-1.779,3.785-3.343c1.449-1.457,3.504-5.382,5.329-8.841
				c0.167-0.332,0.172-0.338,2.07-3.146c0.211-0.158,0.556-0.365,0.734-0.463c0.461-0.274,0.7-0.421,0.877-0.645
				c0.358-0.289,0.449-0.613,0.749-1.641c0.323-1.125,0.479-1.647,0.615-1.904c0.062-0.023,0.13-0.023,0.223-0.023
				c0.021,0,0.027,0,0.027,0h0.009c0,0,0,0,0.014,0c0,0,0,0,0.004,0c0.01,0,0.01,0,0.01,0s0,0,0.011,0c0,0,0,0,0.005,0
				c0.055-0.01,0.121-0.017,0.172-0.043c0.036-0.06,0.069-0.125,0.108-0.191c0.031-0.006,0.061-0.006,0.089-0.025
				c0.917-1.524,1.309-3.31,2.292-4.808C911.02,567.17,909.85,564.703,909.286,564.737z"/>
		</g>
	</g>
	<g>
		<path fill="#ED6834" d="M793.019,349.474L793.019,349.474c-15.067,0-27.281,12.225-27.281,27.283
			c0,4.979,1.341,9.633,3.662,13.647l23.619,40.932l23.623-40.932c2.328-4.015,3.66-8.668,3.66-13.647
			C820.303,361.699,808.089,349.474,793.019,349.474z M793.019,383.579L793.019,383.579c-3.765,0-6.817-3.052-6.817-6.822
			c0-3.763,3.053-6.815,6.817-6.815l0,0c3.774,0,6.821,3.052,6.821,6.815C799.841,380.526,796.794,383.579,793.019,383.579z"/>
		<path fill="#FFFFFF" d="M801.227,376.046c0,4.531-3.676,8.205-8.208,8.205c-4.531,0-8.208-3.673-8.208-8.205
			c0-4.536,3.677-8.21,8.208-8.21C797.552,367.836,801.227,371.51,801.227,376.046z"/>
	</g>
	<g>
		<path fill="#F6CE2E" d="M842.921,416.583L842.921,416.583c-15.066,0-27.279,12.226-27.279,27.285
			c0,4.978,1.337,9.631,3.662,13.646l23.617,40.93l23.625-40.93c2.328-4.015,3.659-8.668,3.659-13.646
			C870.205,428.809,857.991,416.583,842.921,416.583z M842.921,450.688L842.921,450.688c-3.766,0-6.817-3.052-6.817-6.82
			c0-3.764,3.052-6.816,6.817-6.816l0,0c3.771,0,6.822,3.052,6.822,6.816C849.743,447.636,846.692,450.688,842.921,450.688z"/>
		<path fill="#FFFFFF" d="M851.129,443.156c0,4.53-3.675,8.203-8.208,8.203c-4.532,0-8.206-3.673-8.206-8.203
			c0-4.537,3.674-8.209,8.206-8.209C847.454,434.947,851.129,438.619,851.129,443.156z"/>
	</g>
	<g>
		<path fill="#ED6834" d="M921.807,428.721L921.807,428.721c-15.067,0-27.281,12.226-27.281,27.284c0,4.978,1.34,9.632,3.663,13.647
			l23.618,40.93l23.625-40.93c2.327-4.015,3.658-8.668,3.658-13.647C949.09,440.947,936.877,428.721,921.807,428.721z
			 M921.807,462.826L921.807,462.826c-3.765,0-6.817-3.052-6.817-6.821c0-3.763,3.053-6.815,6.817-6.815l0,0
			c3.771,0,6.821,3.052,6.821,6.815C928.628,459.773,925.578,462.826,921.807,462.826z"/>
		<path fill="#FFFFFF" d="M930.014,455.293c0,4.53-3.673,8.204-8.207,8.204c-4.532,0-8.205-3.674-8.205-8.204
			c0-4.536,3.673-8.209,8.205-8.209C926.341,447.085,930.014,450.757,930.014,455.293z"/>
	</g>
	<g>
		<path fill="#F6CE2E" d="M644.584,429.298L644.584,429.298c-15.068,0-27.281,12.226-27.281,27.283
			c0,4.979,1.339,9.632,3.662,13.648l23.619,40.93l23.621-40.93c2.328-4.016,3.66-8.669,3.66-13.648
			C671.865,441.524,659.652,429.298,644.584,429.298z M644.584,463.402L644.584,463.402c-3.769,0-6.819-3.052-6.819-6.821
			c0-3.762,3.051-6.815,6.819-6.815l0,0c3.771,0,6.82,3.053,6.82,6.815C651.404,460.351,648.354,463.402,644.584,463.402z"/>
		<path fill="#FFFFFF" d="M652.789,455.871c0,4.53-3.675,8.204-8.205,8.204c-4.534,0-8.21-3.674-8.21-8.204
			c0-4.537,3.676-8.21,8.21-8.21C649.114,447.66,652.789,451.334,652.789,455.871z"/>
	</g>
	<path fill="#FFFFFF" d="M1041.39,718.276c-0.994-2.037-1.537-4.239-1.537-6.543c0-10.153,10.506-18.381,23.474-18.381
		c10.513,0,19.414,5.424,22.396,12.889c2.779-3.064,7.344-5.069,12.509-5.069c8.463,0,15.325,5.376,15.325,11.996
		c0,1.739-0.474,3.38-1.318,4.873h8.569c5.781,0,10.472,3.674,10.472,8.199c0,4.53-4.69,8.199-10.472,8.199h-76.925
		c-5.781,0-10.472-3.669-10.472-8.199C1033.41,722.386,1036.806,719.152,1041.39,718.276z"/>
	<path fill="#FFFFFF" d="M349.299,238.276c0.994-2.037,1.537-4.239,1.537-6.543c0-10.153-10.506-18.381-23.474-18.381
		c-10.513,0-19.414,5.424-22.396,12.889c-2.779-3.064-7.344-5.069-12.509-5.069c-8.463,0-15.325,5.376-15.325,11.996
		c0,1.739,0.474,3.38,1.318,4.873h-8.569c-5.781,0-10.472,3.674-10.472,8.199c0,4.53,4.69,8.199,10.472,8.199h76.925
		c5.781,0,10.472-3.669,10.472-8.199C357.278,242.386,353.883,239.152,349.299,238.276z"/>
	<path fill="#FFFFFF" d="M550.38,356.042c-1.405-2.879-2.175-5.999-2.175-9.262c0-14.374,14.875-26.02,33.233-26.02
		c14.886,0,27.486,7.677,31.706,18.246c3.94-4.34,10.398-7.177,17.711-7.177c11.984,0,21.695,7.61,21.695,16.983
		c0,2.461-0.666,4.789-1.864,6.898h12.132c8.188,0,14.828,5.202,14.828,11.61c0,6.416-6.641,11.605-14.828,11.605H553.911
		c-8.186,0-14.826-5.189-14.826-11.605C539.085,361.861,543.893,357.285,550.38,356.042z"/>
	<path fill="#FFFFFF" d="M274.912,591.061c-1.406-2.88-2.176-6-2.176-9.263c0-14.375,14.876-26.019,33.234-26.019
		c14.886,0,27.486,7.675,31.708,18.243c3.937-4.339,10.397-7.176,17.709-7.176c11.985,0,21.697,7.609,21.697,16.985
		c0,2.459-0.668,4.787-1.865,6.897h12.132c8.188,0,14.827,5.201,14.827,11.608c0,6.416-6.64,11.605-14.827,11.605H278.441
		c-8.187,0-14.825-5.189-14.825-11.605C263.617,596.88,268.424,592.302,274.912,591.061z"/>
	<path fill="#F19367" d="M1126.662,1099.092L984.234,965.92l-59.829,75.018l12.024,16.915c0,0,17.776,43.772,61.679,129.922
		C1035.445,1150.438,1089.323,1136.429,1126.662,1099.092z"/>
	<g>
		<g>
			<g>
				<path fill="#2C5772" d="M689.328,1103.409c0,14.134,11.481,25.578,25.586,25.578h267.132c14.148,0,25.582-11.444,25.582-25.578
					V556.362c0-14.11-11.434-25.576-25.582-25.576H714.914c-14.105,0-25.586,11.465-25.586,25.576V1103.409z"/>
			</g>
			<rect x="708.527" y="575.928" fill="#66B5C9" width="279.932" height="446.977"/>
			<path fill="#FFFFFF" d="M820.414,1080.249c-0.078-15.486,12.446-28.141,27.931-28.245h0.153c15.378,0,27.974,12.52,28.074,27.952
				c0.067,15.461-12.479,28.127-27.921,28.253h-0.153C833.114,1108.209,820.472,1095.657,820.414,1080.249z M826.436,1080.213
				c0.063,12.127,9.962,21.977,22.062,21.977v3.014l0.12-3.014c12.142-0.108,21.984-10.063,21.943-22.211
				c-0.091-12.099-9.961-21.958-22.197-21.958C836.226,1058.083,826.349,1068.058,826.436,1080.213z"/>
		</g>
	</g>
	<g>
		<g>
			<path fill-rule="evenodd" clip-rule="evenodd" fill="#ECE8E7" d="M922.894,682.367v0.851c0,14.229,11.224,25.772,25.058,25.772
				c13.855,0,25.059-11.544,25.059-25.772v-0.851H922.894z"/>
			<path fill-rule="evenodd" clip-rule="evenodd" fill="#DC5531" d="M873.157,682.367v0.851c0,14.229,11.231,25.772,25.065,25.772
				c13.85,0,25.057-11.544,25.057-25.772v-0.851H873.157z"/>
			<path fill-rule="evenodd" clip-rule="evenodd" fill="#ECE8E7" d="M823.422,682.367v0.851c0,14.229,11.227,25.772,25.06,25.772
				c13.85,0,25.057-11.544,25.057-25.772v-0.851H823.422z"/>
			<path fill-rule="evenodd" clip-rule="evenodd" fill="#DC5531" d="M773.683,682.367v0.851c0,14.229,11.23,25.772,25.064,25.772
				c13.85,0,25.058-11.544,25.058-25.772v-0.851H773.683z"/>
			<path fill-rule="evenodd" clip-rule="evenodd" fill="#ECE8E7" d="M723.946,682.367v0.851c0,14.229,11.227,25.772,25.063,25.772
				c13.852,0,25.058-11.544,25.058-25.772v-0.851H723.946z"/>
			<path fill-rule="evenodd" clip-rule="evenodd" fill="#DC5531" d="M674.209,682.367v0.851c0,14.229,11.23,25.772,25.063,25.772
				c13.851,0,25.058-11.544,25.058-25.772v-0.851H674.209z"/>
			<path fill-rule="evenodd" clip-rule="evenodd" fill="#DC5531" d="M972.631,682.367v0.851c0,14.229,11.222,25.772,25.063,25.772
				c13.85,0,25.051-11.544,25.051-25.772v-0.851H972.631z"/>
		</g>
		<g>
			<polygon fill-rule="evenodd" clip-rule="evenodd" fill="#FFFFFF" points="973.308,683.026 923.012,683.026 908.241,574.038 
				948.567,574.038 			"/>
			<polygon fill-rule="evenodd" clip-rule="evenodd" fill="#F16739" points="923.464,683.026 873.17,683.026 868.274,574.038 
				908.604,574.038 			"/>
			<polygon fill-rule="evenodd" clip-rule="evenodd" fill="#FFFFFF" points="873.626,683.026 823.331,683.026 828.313,574.038 
				868.642,574.038 			"/>
			<polygon fill-rule="evenodd" clip-rule="evenodd" fill="#F16739" points="823.791,683.026 773.493,683.026 788.356,574.038 
				828.686,574.038 			"/>
			<polygon fill-rule="evenodd" clip-rule="evenodd" fill="#FFFFFF" points="773.947,683.026 723.653,683.026 748.393,574.038 
				788.719,574.038 			"/>
			<polygon fill-rule="evenodd" clip-rule="evenodd" fill="#F16739" points="724.108,683.026 673.813,683.026 708.435,574.038 
				748.76,574.038 			"/>
			<polygon fill-rule="evenodd" clip-rule="evenodd" fill="#F16739" points="1023.144,683.026 972.85,683.026 948.197,574.038 
				988.526,574.038 			"/>
		</g>
	</g>
	<g>
		<path fill="#F19367" d="M1052.791,1048.956l32.513,91.49c19.42-19.419,38.838-38.836,58.257-58.255l-70.23-135.866
			l-32.765-204.922c0,0-75.312-52.313-40.998,127.902C999.567,869.306,965.966,960.29,1052.791,1048.956z"/>
		<path opacity="0.3" fill="#FFFFFF" d="M1049.889,799.633c-27.218,1.315-28.828-47.003-28.828-47.003h21.304L1049.889,799.633z"/>
	</g>
	<g>
		<g>
			<g>
				<rect x="737.426" y="791.318" fill="#C1D54B" width="238.703" height="120.473"/>
				<rect x="742.804" y="796.104" fill="#A1B53A" width="226.183" height="110.897"/>
				<path fill="#C1D54B" d="M960.689,816.777c-11.553,0-17.28-6.381-17.188-15.341h-175.69c-0.12,8.698-5.727,14.645-16.835,14.834
					v69.495c0.043,0,0.09-0.006,0.132-0.006c11.807,0,17.517,6.77,17.168,15.912h175.717c-0.134-8.886,5.475-15.213,16.822-15.405
					v-69.496C960.769,816.771,960.728,816.777,960.689,816.777z"/>
			</g>
			<g>
				<path fill="#A1B53A" d="M803.599,849.969c0.01,3.818-3.048,6.914-6.857,6.951c-3.808,0.012-6.901-3.063-6.932-6.865
					c-0.021-3.799,3.055-6.915,6.84-6.933C800.465,843.102,803.575,846.163,803.599,849.969z"/>
				<path fill="#A1B53A" d="M923.739,849.288c0.018,3.8-3.047,6.915-6.85,6.938c-3.798,0.011-6.915-3.055-6.941-6.863
					c-0.018-3.806,3.048-6.896,6.85-6.932C920.617,842.414,923.717,845.484,923.739,849.288z"/>
				<g>
					<path fill="#A1B53A" d="M856.771,816.986c-19.69,0-35.664,15.466-35.664,34.57c0,19.085,15.975,34.564,35.664,34.564
						c19.699,0,35.667-15.479,35.667-34.564C892.438,832.452,876.471,816.986,856.771,816.986z M859.06,868.819v4.426h-3.676v-4.426
						c-6.081-0.318-10.701-2.432-13.703-5.25l3.002-3.227c2.279,2.265,5.945,4.264,10.701,4.722v-12.156
						c-6.121-1.402-12.442-3.11-12.442-9.252c0-5.165,5.229-8.811,12.442-9.246v-4.549h3.676v4.599
						c4.992,0.338,8.975,2.056,11.918,4.592l-3.008,3.046c-2.41-2.196-5.533-3.441-8.91-3.858v10.917
						c6.218,1.439,12.805,3.361,12.805,9.873C871.864,863.569,868.375,868.241,859.06,868.819z"/>
					<path fill="#A1B53A" d="M859.06,853.695v11.43c5.714-0.519,7.654-3.354,7.654-5.766
						C866.714,856.094,863.277,854.755,859.06,853.695z"/>
					<path fill="#A1B53A" d="M848.101,843.396c0,2.743,3.185,3.967,7.283,4.957v-10.193
						C851.107,838.399,848.101,840.508,848.101,843.396z"/>
				</g>
			</g>
		</g>
		<g>
			<g>
				<rect x="733.276" y="788.813" fill="#C1D54B" width="238.702" height="120.478"/>
				<rect x="738.653" y="793.602" fill="#A1B53A" width="226.184" height="110.898"/>
				<path fill="#C1D54B" d="M956.542,814.277c-11.559,0-17.284-6.384-17.19-15.344H763.658c-0.119,8.698-5.728,14.648-16.83,14.836
					v69.496c0.043,0,0.088-0.011,0.128-0.011c11.807,0,17.522,6.772,17.174,15.915h175.709c-0.124-8.886,5.478-15.213,16.822-15.405
					v-69.499C956.616,814.266,956.584,814.277,956.542,814.277z"/>
			</g>
			<g>
				<path fill="#A1B53A" d="M799.446,847.467c0.016,3.815-3.048,6.914-6.858,6.947c-3.802,0.017-6.9-3.062-6.924-6.861
					c-0.03-3.805,3.047-6.918,6.838-6.934C796.315,840.596,799.423,843.66,799.446,847.467z"/>
				<path fill="#A1B53A" d="M919.592,846.784c0.013,3.803-3.052,6.917-6.856,6.938c-3.797,0.012-6.912-3.054-6.936-6.864
					c-0.018-3.802,3.049-6.893,6.846-6.931C916.464,839.908,919.571,842.983,919.592,846.784z"/>
				<g>
					<path fill="#A1B53A" d="M852.626,814.482c-19.699,0-35.667,15.465-35.667,34.571c0,19.082,15.968,34.563,35.667,34.563
						c19.698,0,35.666-15.481,35.666-34.563C888.292,829.947,872.324,814.482,852.626,814.482z M854.903,866.315v4.426h-3.668
						v-4.426c-6.079-0.32-10.706-2.43-13.705-5.248l2.999-3.228c2.28,2.261,5.95,4.264,10.706,4.721v-12.154
						c-6.118-1.404-12.447-3.111-12.447-9.252c0-5.167,5.234-8.813,12.447-9.245v-4.55h3.668v4.597
						c4.996,0.338,8.984,2.058,11.922,4.594l-3.008,3.044c-2.406-2.195-5.532-3.443-8.914-3.857v10.914
						c6.228,1.441,12.816,3.364,12.816,9.876C867.72,861.067,864.23,865.739,854.903,866.315z"/>
					<path fill="#A1B53A" d="M854.903,851.192v11.431c5.726-0.519,7.66-3.354,7.66-5.767
						C862.563,853.589,859.132,852.251,854.903,851.192z"/>
					<path fill="#A1B53A" d="M843.95,840.894c0,2.741,3.188,3.962,7.285,4.955v-10.193
						C846.962,835.898,843.95,838.002,843.95,840.894z"/>
				</g>
			</g>
		</g>
		<g>
			<g>
				<rect x="729.126" y="784.831" fill="#C1D54B" width="238.705" height="120.477"/>
				<rect x="734.501" y="789.621" fill="#A1B53A" width="226.188" height="110.897"/>
				<path fill="#C1D54B" d="M952.388,810.294c-11.555,0-17.279-6.377-17.188-15.341H759.508c-0.119,8.7-5.726,14.647-16.829,14.836
					v69.491c0.043,0,0.089-0.007,0.131-0.007c11.804,0,17.516,6.771,17.166,15.916H935.69c-0.128-8.887,5.479-15.217,16.825-15.405
					v-69.499C952.47,810.285,952.43,810.294,952.388,810.294z"/>
			</g>
			<g>
				<path fill="#A1B53A" d="M795.295,843.482c0.016,3.818-3.044,6.917-6.852,6.949c-3.811,0.017-6.902-3.061-6.932-6.857
					c-0.022-3.806,3.052-6.917,6.839-6.938C792.165,836.617,795.275,839.682,795.295,843.482z"/>
				<path fill="#A1B53A" d="M915.441,842.806c0.016,3.798-3.047,6.913-6.852,6.938c-3.797,0.009-6.913-3.056-6.94-6.863
					c-0.019-3.807,3.046-6.9,6.843-6.935C912.313,835.931,915.418,838.998,915.441,842.806z"/>
				<g>
					<path fill="#A1B53A" d="M848.474,810.506c-19.693,0-35.666,15.464-35.666,34.565c0,19.088,15.973,34.564,35.666,34.564
						c19.696,0,35.664-15.477,35.664-34.564C884.138,825.97,868.17,810.506,848.474,810.506z M850.759,862.337v4.422h-3.677v-4.422
						c-6.073-0.322-10.7-2.43-13.702-5.251l3.002-3.228c2.282,2.269,5.947,4.266,10.7,4.722v-12.154
						c-6.117-1.404-12.441-3.106-12.441-9.25c0-5.17,5.229-8.813,12.441-9.246v-4.548h3.677v4.594
						c4.993,0.339,8.975,2.059,11.919,4.596l-3.007,3.041c-2.413-2.196-5.533-3.441-8.912-3.855v10.918
						c6.222,1.439,12.808,3.361,12.808,9.874C863.566,857.086,860.077,861.758,850.759,862.337z"/>
					<path fill="#A1B53A" d="M850.759,847.214v11.431c5.715-0.521,7.659-3.356,7.659-5.768
						C858.418,849.611,854.979,848.273,850.759,847.214z"/>
					<path fill="#A1B53A" d="M839.803,836.913c0,2.744,3.188,3.964,7.279,4.955v-10.192
						C842.81,831.92,839.803,834.019,839.803,836.913z"/>
				</g>
			</g>
		</g>
		<g>
			<g>
				<rect x="724.976" y="780.854" fill="#C1D54B" width="238.702" height="120.473"/>
				<rect x="730.351" y="785.642" fill="#A1B53A" width="226.185" height="110.896"/>
				<path fill="#C1D54B" d="M948.236,806.315c-11.554,0-17.281-6.381-17.182-15.343H755.358c-0.114,8.698-5.728,14.649-16.83,14.834
					v69.495c0.041,0,0.086-0.009,0.131-0.009c11.802,0,17.516,6.768,17.17,15.917h175.712c-0.128-8.888,5.474-15.214,16.823-15.405
					V806.31C948.314,806.31,948.281,806.315,948.236,806.315z"/>
			</g>
			<g>
				<path fill="#A1B53A" d="M791.146,839.505c0.018,3.818-3.048,6.916-6.855,6.952c-3.812,0.011-6.902-3.064-6.927-6.863
					c-0.027-3.803,3.049-6.918,6.84-6.937C788.018,832.638,791.123,835.701,791.146,839.505z"/>
				<path fill="#A1B53A" d="M911.295,838.824c0.012,3.8-3.054,6.917-6.856,6.936c-3.798,0.013-6.914-3.05-6.938-6.86
					c-0.018-3.808,3.048-6.897,6.846-6.932C908.167,831.949,911.27,835.023,911.295,838.824z"/>
				<g>
					<path fill="#A1B53A" d="M844.326,806.526c-19.698,0-35.666,15.462-35.666,34.566c0,19.087,15.968,34.563,35.666,34.563
						c19.697,0,35.665-15.476,35.665-34.563C879.991,821.988,864.023,806.526,844.326,806.526z M846.611,858.356v4.426h-3.677
						v-4.426c-6.076-0.322-10.705-2.43-13.699-5.25l2.994-3.23c2.28,2.27,5.951,4.266,10.705,4.725v-12.158
						c-6.122-1.399-12.447-3.105-12.447-9.25c0-5.166,5.231-8.811,12.447-9.246v-4.549h3.677v4.6
						c4.989,0.337,8.976,2.054,11.913,4.593l-3.007,3.044c-2.405-2.196-5.531-3.442-8.906-3.855v10.913
						c6.222,1.44,12.808,3.363,12.808,9.875C859.419,853.106,855.932,857.776,846.611,858.356z"/>
					<path fill="#A1B53A" d="M846.611,843.232v11.427c5.715-0.518,7.652-3.353,7.652-5.764
						C854.264,845.629,850.828,844.291,846.611,843.232z"/>
					<path fill="#A1B53A" d="M835.649,832.933c0,2.741,3.189,3.964,7.285,4.954v-10.189
						C838.664,827.938,835.649,830.042,835.649,832.933z"/>
				</g>
			</g>
		</g>
		<g>
			<g>
				<rect x="720.827" y="776.872" fill="#C1D54B" width="238.705" height="120.476"/>
				<rect x="726.202" y="781.659" fill="#A1B53A" width="226.186" height="110.899"/>
				<path fill="#C1D54B" d="M944.089,802.335c-11.552,0-17.278-6.383-17.187-15.34H751.214c-0.122,8.699-5.732,14.646-16.84,14.834
					v69.491c0.046,0,0.093-0.005,0.133-0.005c11.809,0,17.519,6.769,17.17,15.911h175.711c-0.126-8.883,5.481-15.211,16.829-15.403
					v-69.498C944.173,802.325,944.13,802.335,944.089,802.335z"/>
			</g>
			<g>
				<path fill="#A1B53A" d="M786.992,835.524c0.018,3.816-3.041,6.915-6.85,6.949c-3.808,0.013-6.9-3.06-6.93-6.862
					c-0.024-3.804,3.048-6.916,6.84-6.931C783.866,828.656,786.97,831.723,786.992,835.524z"/>
				<path fill="#A1B53A" d="M907.14,834.842c0.02,3.806-3.047,6.918-6.854,6.94c-3.793,0.008-6.907-3.058-6.938-6.864
					c-0.015-3.804,3.048-6.897,6.847-6.933C904.014,827.971,907.118,831.039,907.14,834.842z"/>
				<g>
					<path fill="#A1B53A" d="M840.173,802.542c-19.689,0-35.664,15.468-35.664,34.568c0,19.088,15.975,34.565,35.664,34.565
						c19.702,0,35.674-15.478,35.674-34.565C875.847,818.01,859.875,802.542,840.173,802.542z M842.458,854.374v4.425h-3.67v-4.425
						c-6.077-0.319-10.704-2.43-13.705-5.25l3.001-3.226c2.277,2.266,5.944,4.263,10.704,4.722v-12.155
						c-6.124-1.401-12.445-3.11-12.445-9.251c0-5.168,5.229-8.815,12.445-9.248v-4.545h3.67v4.598
						c4.996,0.334,8.977,2.055,11.919,4.59l-3.011,3.047c-2.405-2.199-5.532-3.444-8.908-3.856v10.912
						c6.222,1.44,12.808,3.361,12.808,9.876C855.266,849.124,851.777,853.796,842.458,854.374z"/>
					<path fill="#A1B53A" d="M842.458,839.254v11.428c5.718-0.521,7.659-3.354,7.659-5.764
						C850.117,841.648,846.679,840.31,842.458,839.254z"/>
					<path fill="#A1B53A" d="M831.497,828.954c0,2.742,3.195,3.961,7.291,4.954v-10.191
						C834.51,823.957,831.497,826.062,831.497,828.954z"/>
				</g>
			</g>
		</g>
	</g>
	<g>
		<polygon fill="#FFFFFF" points="983.083,1201 1183.085,1082.992 1164.254,1051.074 948.852,1178.169 962.325,1201 		"/>
		<polygon fill="#214751" points="1201.002,1201 1201.002,1113.357 1176.017,1071.01 960.603,1198.095 962.317,1201 		"/>
	</g>
</g>
</svg>
