<?xml version="1.0" encoding="utf-8"?>
<!-- Generator: Adobe Illustrator 17.0.0, SVG Export Plug-In . SVG Version: 6.00 Build 0)  -->
<!DOCTYPE svg PUBLIC "-//W3C//DTD SVG 1.1//EN" "http://www.w3.org/Graphics/SVG/1.1/DTD/svg11.dtd">
<svg version="1.1" xmlns="http://www.w3.org/2000/svg" xmlns:xlink="http://www.w3.org/1999/xlink" x="0px" y="0px"
	 width="320.588px" height="297.66px" viewBox="0 0 320.588 297.66" enable-background="new 0 0 320.588 297.66"
	 xml:space="preserve">
<g id="Layer_1" display="none">
	<g display="inline">
		<path fill="#9D9EB1" d="M314.53,170.76c-0.8-2.1-1.9-4-3.4-5.7c0,0,0,0-0.1,0.1c0-0.1,0-0.1,0.1-0.2c-0.2-0.5-0.4-1.2-0.7-1.8l0,0
			c-0.5-1.4-0.2-2.9,0.3-4.2c3.1-8.2,2.2-15.9-1.7-23.5l0,0c-1.8-4.6-5.2-7.9-8.8-11c-1.8-1.6-3.7-0.7-3.9,1.5
			c5.4,2.4,9,6.4,11.3,11.7c-0.3,1.5,0.8,2.6,1.1,4c1.5,6.9-0.9,13.3-1.8,19.9h-0.1c-1.2,2.7-3.5,5.4,0.9,7.3l0,0v0.1
			c1.6,1.9,3.1,3.8,4.6,5.7c0.9-1.7,5.8,23.3,6.9,21.3C321.43,184.26,315.03,172.06,314.53,170.76z"/>
		<path fill="#9D9EB1" d="M320.13,213.46c-1.5-1.7-0.8-3.6-1-5.4c-2.3,1.5-1.6,4-2,6.1v0.1c-1.2,1.2-2.4,1.9-4,0.5
			c-0.2,0.5-0.7,0.5-1.2,0.6c0.3,0.6,0.6,1.2,0.5,1.9c-1.1,6.1-2.2,12.3-3.3,18.4h0.1c0,0.5,0.1,1.1-0.1,1.6
			c-3,9.2-6.5,11.2-10.4,20.1c-2.2,5-4.9,7.8-6.5,13c-3,5.2-5.6,8.7-8.1,14.4c-0.8,4-1.5,4.3,3.5,3.6c0.2-0.1,0.4-0.2,0.6-0.3
			c0.8-0.4,1.2-1.1,1.5-1.8c2.5-5.3,4.8-8.7,7.6-13.8c2.8-5.1,5.4-8.1,7.9-13.3c0.8-1.8,2.3-3.4,1.9-5.6l0,0l0,0
			c0.8-1.6,1.6-0.3,2.1-2.1c3.3-11.2,6.3-18.5,8.6-29.9h-0.1c0.2-1.7,1.8-2.9,1.4-4.7c0,0,0,0,0-0.1
			C320.13,215.86,321.23,214.66,320.13,213.46z"/>
		<path fill="#B1B3C6" d="M225.33,191.06c-1.6-1.6-2.2-1.5-4-1.5c-1.4,0-2.8-0.3-4,0.4c4,0.4,2.4,3.7,2.9,5.8c0.1,0,0.2,0,0.3,0
			c-0.1,0-0.1,0.1-0.2,0.1c-0.7,3.1-2.3,6.2-2,9.5c-0.8,5.4-4.6,44.2-4.4,52.5c-0.8-0.4-0.2-1.8-0.7-2.6c-0.5,2.5-0.9,5.1-0.8,7.6
			c0-0.1,0-0.2,0-0.3c-0.9,0.4-6,0.7-6.9,1.1c0,0-0.1,0-0.1,0.1c0-0.1,0.1-0.1,0.1-0.2c-3.6-1.7-7.2-0.1-10.8-0.2
			c-8.6-0.3-17.4,0.1-25.3-4.6c-2.4-1.5-3.9-0.4-5.5,1.7c-2,2.7,2.6,3.8,1.7,3.9c11,2.9,19.4,3.3,30.8,4.2c0.7,0.2,1.4,0.2,2,0.2
			c2.3,0.3,4.6,0.6,6.8,0.9c1.7,0.3,8.1-0.5,9.3-1.8c2.3-0.2,4.4-1.1,5.2-3.2l0,0l0,0c0.1-0.4,0.3-0.8,0.3-1.2c0-0.1,0-0.2,0-0.2
			c0.5-2.4,1.1-6.9,1.3-7.9c4-14.5,3.6-42.5,4.2-47.8c0,0-0.5-4.4,0.1-8c0.2-1.2,0.1-2.9,0.4-4.1
			C226.73,193.66,226.83,192.56,225.33,191.06z"/>
		<path fill="#353535" d="M210.53,253.96c1.8-19.4,3.1-38.8,3.8-58.2c0.1-2.8-1-3.6-3.6-3.8c-4.6-0.4-9.2-1.2-13.9-1.7
			c-2-0.2-3.6-0.7-2.9-3.2c7.9-0.2,15.5,2.4,23.3,3c5-0.8,3.7,3.1,4.1,5.7c-0.9,3.2,0,6.8-2.3,9.7c-0.9,13.7-1.7,27.4-2.6,41.2
			c-0.1,1.8-0.2,3.5-0.3,5.3c-1.2,3,1.3,5.7,0.7,8.7c-0.2,1.3,0.5,2.8-0.8,3.9c-5.5,2.1-11.1,0.4-16.6,0c-9.9-0.8-19.7-1.9-29.5-2.9
			c-2.3-0.6-4.6-1-6.8-1.7c-1.4-0.5-3.4-1-3-3c0.5-2.5,2.5-2.4,4.4-1.8c11.3,0.6,22.3,2.9,33.6,3.7c0.8,0.1,1.5,0.5,2.3,0.6
			C206.73,260.06,207.73,259.56,210.53,253.96z"/>
		<path fill="#353535" d="M194.13,187.16c-3.2,1.5-6.2,2.4-8.8-1.1c-0.2-0.1-0.4-0.2-0.5-0.4c-0.7-1.1-1.6-2.1-0.3-3.4v0.1
			c0.8-2.6,2.1-3.9,4.7-1.8c1.3,1.1-1.9,2.4-0.1,3c2.2,0.7,0.5-1.5,1.1-2.1c1.1-1,2.4-0.6,3.6-0.3c1.3,0.2,1.8,1.4,1.7,2.5
			C195.33,184.86,194.63,185.96,194.13,187.16z"/>
		<path fill="#B6B8CD" d="M294.63,37.76c1.8,10.3,0.8,22.2-5.5,30.2c-1.8,2.3-3.2,4.7-4.8,7.1c-3.7,4.2-9,7.1-10.5,13
			c0,0.1-0.1,0.1-0.1,0.2c-1.2,3.9-2.3,7.8-3.5,11.6c-1,3-2.7,5.1-6.4,3.9c1.4,1.9,4.7,3.3,5.7,4.1c3.6,2.8,6.4-2.9,8.3-6.4
			c1.8-3.3-0.8-7.1,1.7-9.8s3-6.2,4.5-9.3h0.1c1-1.6,2.1-3.1,3.1-4.7c2.6-1.7,3.4-4.9,5.5-7.1
			C301.43,61.66,299.23,48.46,294.63,37.76z"/>
		<path fill="#B6B8CD" d="M260.73,98.26c-8.4,5.1-18,7.5-26.9,11.4c-3.5,1.1-8-0.2-10.4,3.7c0.1,0,0.2,0.1,0.2,0.1
			c-0.1,0-0.1,0.1-0.2,0.1c-1.9,15-2.8,30-1.9,45.1c0.1,3.1-14.1,8-16.7,9.2c1.8-0.6,13.7-0.5,15.4-1.2c2.4-1,5.4-1.5,4.9-5.4
			c-0.3-2.5-0.4-5.2,0.1-7.7c2.3-12.7,3-25.4,2.6-38.2c-0.1,0-0.1,0-0.2,0c0.1-0.1,0.1-0.1,0.2-0.2c-0.1-4.2,3.3-3.9,5.9-4.7
			c0,0,0,0.1,0.1,0.1c6.2-0.5,12-2.7,18-4.1c4-1,7.4-4.5,12-2.7c0-1.1-0.2-2.2,0-3.3C264.43,97.16,262.93,96.96,260.73,98.26z"/>
		<path fill="#353535" d="M88.63,185.36c5.9-0.7,12.2,0.8,17.8-2.8c1.9-1.2,4.6-1.2,7.1-0.8c1.7,0.3,2.6,1.1,2.8,2.8
			c0.3,1.8-0.3,3.1-2,3.9c-2.3,1.1-4.7,1.2-7.1,0.6c-5.3-1.4-10.6-0.7-15.9-0.7c-3.3,0-4.5,1-4.7,4.7c-1.3,17.7-2.4,35.4-1.8,53.7
			c-2-1.8-2-3.6-2.1-5.4c-0.8-16.3,0.2-32.5,1.3-48.7c0-0.5,0.3-1.1,0.1-1.4C81.53,185.86,85.43,185.86,88.63,185.36
			C88.63,185.26,88.63,185.36,88.63,185.36z"/>
		<path fill="#353535" d="M161.03,239.36c0.1-1.2,0.2-2.3,0.3-3.5c0.6-2.7,0.7-5.4-0.1-8.1c-0.4-1.3-0.5-2.5-0.1-3.8
			c2.8-9.1,1.2-18.5,1.6-27.7c0.1-1.9-0.4-3.9,1.4-5.4c0-0.6,0.1-1.3,0.1-1.9c0.3-3.2,2.7-4.3,5.3-4.4c4.5-0.2,9,0.3,13.4-0.3
			c1.2-0.1,2,0.9,2.6,1.8l-0.1-0.2c-0.2,2-1.4,2.5-3.3,2.3c-2.7-0.2-5.5,0.1-8.2,0c-5.4-0.3-7.2,2.8-7.8,7.5
			c-0.8,5.8-0.5,11.6-0.8,17.4c-0.7,12.7-1.4,25.4-2.1,38.1c-0.1,1.1,0.2,2.8-1.3,2.7c-1.4-0.1-1.8-1.7-1.6-3.1
			C160.83,247.16,161.33,243.26,161.03,239.36z"/>
		<path fill="#353535" d="M129.03,217.36c-0.3,0.9-0.5,1.8-0.8,2.7c-3.9-0.1-2.2-3.1-2.3-4.9c-0.3-7-2-8.7-8.8-8.4
			c-4.6,5.3-14,7.6-20.2,5c-2-0.8-3.6-2.1-3.5-4.6c0.2-0.5,0.4-1.1,0.7-1.6c0-4.1,3.2-4.9,6.1-5.9c4.5-1.6,9-2.1,13.4-0.1
			c2.3,1.1,3.9,3.4,6.6,3.7C128.63,204.76,128.33,211.36,129.03,217.36z"/>
		<path fill="#353535" d="M127.83,245.76c-1.3,0-2.6,0.1-3.9,0c-9.4-0.6-11.9-4.4-9.2-13.4c0.7-2.2,2.3-2.6,4.1-2.7
			c4.3-0.3,8.8-1,13-0.4c3.8,0.5,4.8,4,4.5,7.7c-0.2,2.3-2.3,4.9,2,6.7c2.1,0.9-1,2.2-1.8,2.3c-2.9,0.3-5.8,0.1-8.7,0.1
			C127.83,245.96,127.83,245.86,127.83,245.76z"/>
		<path fill="#353535" d="M101.13,223.86c-1-1.5-1.9-2.9-3.2-4.9c-1.4,2.7-2.7,5-3.6,7.4c-2.3,6.1,0.7,10.5,7.3,10.9
			c2.9,0.2,5.8,0.1,8.5-1.2c0.9-0.4,2.1-1.6,2.8,0.1c0.6,1.4-0.3,2.4-1.6,3.1c-7.4,4.2-17.5,0.3-20.6-7.9c-1.4-1.5-1.5-3,0-4.5
			c0.6-1.4,1.2-2.9,1.9-4.3c0.8-1.6,2.1-3-0.5-4.5c-1.4-0.8,0.4-1.8,0.8-2.7c3.9-4.2,5.5-4.3,7.4-0.4c-1.1,3.2,3.6,5.2,1.8,8.6
			c-0.2,0.2-0.4,0.3-0.7,0.2C101.23,224.06,101.13,223.96,101.13,223.86z"/>
		<path fill="#B6B8CD" d="M153.43,256.56c-0.1-0.3-0.1-0.6-0.1-0.9c0.1-1.2,0-2.3-0.3-3.1c0-2.1,0-5.2,0.1-6.4
			c0.5-9-1.4-29.8-0.7-34.9c0.1-4.2-0.5-8.4,1-12.5c0.1-2,0.1-3.9,0.2-6c0.7-1,0.7-1.9,0-2.9c-0.7-2,1.3-4,0.1-5.9
			c-3.1-4.7-6-1.6-8.9,0.3c3-0.2,5.8-0.2,4.9,4.1c-1.6,7-1.8,13.9-2,20.9c0,4.1-0.3,34,0.6,39.9c-0.2,0-0.5-0.1-0.8-0.1
			c-2.5,4.1-1.7,8.3-0.3,12.5c0.7,1.9,0.7,3.2-1.6,3.5c-8,1.1-16.1,2.2-24,1.1c-7.6-1.1-15.3-2.1-22.9-3.5c-1.9-0.4-8.2-4.7-9.8-3.2
			c-0.4,0.7,0.3,1.4-0.5,1.5c-1.2,0-0.2,3.2-0.2,4.9c0,1.5,2,1.2,3.1,1.6c10.3,4,21.1,4.5,32,4.7c7.1-0.6,14.2-1.2,21.3-1.8
			c0.5-0.3,0.9-0.5,1.3-0.7C155.33,266.26,155.33,266.26,153.43,256.56z"/>
		<path fill="#00ADBC" d="M100.23,215.26c-2.7-4.2-4.9,0.6-7.4,0.4c-0.6-2.9-1-5.7,0.6-8.4c1.3,3.3,4,4.2,7.2,4.4
			c6.1,0.4,11.4-1.4,16.4-4.8c0.9,6.1-1,8.4-6.9,8.3C106.93,215.16,103.63,215.26,100.23,215.26z"/>
		<path fill="#353535" d="M128.23,219.96c0.7-0.3,1.3-0.7,2-1c1.4-0.2,3.1-0.8,3.6,1.1c0.5,1.7-1.6,1.6-2.3,2.5
			c-3.1,4.6-6.3,2.9-9.6,0.3c-0.7-0.6-1.9-1.1-1.4-2.2c0.6-1.5,1.9-0.3,2.9-0.4C124.93,220.26,126.93,223.96,128.23,219.96z"/>
		<path fill="#00ADBC" d="M100.33,199.76c-2.5,1.5-4.9,3.1-6.1,5.9c-2.6-0.7-1.8-2.8-1.6-4.4c0.2-2,2.1-1.7,3.4-1.7
			C97.43,199.56,98.83,199.66,100.33,199.76z"/>
		<path fill="#FEFEFE" d="M153.53,192.86c0-1,0-1.9,0-2.9c2.2-0.2,3.6-1.6,4.5-3.7C159.83,191.06,158.63,192.76,153.53,192.86z"/>
		<path fill="#00ADBC" d="M120.43,203.36c-3.4,0.9-4.8-1.8-6.6-3.7C117.13,198.76,118.23,202.06,120.43,203.36z"/>
		<path fill="#FEFEFE" d="M111.03,219.46c-1.1,1.1-2.1,2-3.6,1c-0.6-0.4-0.6-1.2-0.1-1.6C108.83,217.46,109.83,218.56,111.03,219.46
			z"/>
		<path fill="#353535" d="M295.93,41.06c-1.6-4.1-3.2-8.2-5.8-11.7c-3.6-9-10.3-14.5-19.4-17.3c-1.5-0.4-3.2-0.7-4.6-1.4
			c-20.5-9.8-41.9-12.3-64.3-9.7c-22.1,2.6-40.2,12.1-53.9,29.4c-10.7,13.4-16.5,28.2-10,45.6c4.3,7.6,10.7,13.4,17.2,19.1
			c3.4,3,5.2,7.7,9.5,10c0.3,0.2,0.2,1.2,0.2,1.8c-0.2,3.5-0.4,7-0.6,10.5c0.6,11.4,1.5,22.8-0.3,34.5c-0.4,2.8-0.5,5.9-2.8,7.9
			c-0.8,0.6-2.2,0.5-2.1,2.1c0.2,1.8,1.7,1.6,2.9,2c8,2.4,16.3,1.1,24.4,2.3c4.8,0.7,9.5,0.8,14.3,1.6c5.4,0.9,11-1.6,16.5-2.8
			c4.4-0.5,4.6-3.8,4.6-7.1c-0.2-14.1,0.4-28.2,1.9-42.2c1.4-4.6,5.8-4.1,9.2-5.3c8.1-1.9,16-4.8,23.3-8.8c3.7-2,5.7-1.6,6.8,2.5
			c4.2,1.6,6.2-1.1,7.6-4.2c1.5-3.3,2.6-6.8,3.3-10.4c0.1-2.6,1.6-4.5,3.3-6.2c2.6-2.5,5.1-5.2,7.5-8c2.2-2.9,4.1-5.8,6.2-8.7
			C296.53,58.86,298.63,50.46,295.93,41.06z M279.23,72.66c-2,2-3.5,4.5-6.5,5.6c-1.4,0.5-1.9,2-2.3,3.5c-1.2,4.5-2.5,8.9-3.9,13.8
			c-1.2-1.4-2-2.4-2.9-3.2c-1.4-1.2-2.9-3.1-3.9,0.4c-0.2,0.6-1.2,1-1.9,1.3c-19.3,7.4-38.8,13.9-60.1,11.4
			c-16.6-1.9-31.9-6.4-45.1-17.4c-19-15.7-17-34.1-5.2-51.2c15.2-22.1,37.3-31.5,63.2-33.6c19.5-1.6,37.7,2.9,55.3,10.9
			c2,0.9,3.8,2.2,5.6,3.3c1.3,0,0.6,3.5,3,1.7c0.9,0.8,1.9,1.6,2.8,2.3c0.9,2.3,2.1,4,4.7,3.9
			C295.03,40.46,294.03,57.46,279.23,72.66z"/>
		<path fill="#FCFCFC" d="M195.13,127.26c2.6-0.6,3.1-1.8,2.3-4.5c-2.2-8.1-1-9.5,7.5-9.7c3.4-0.1,6.8,0,10.1-0.2
			c2.6-0.2,3.9,0.4,3.5,3.4c-0.4,3.2-0.7,6.4-0.6,9.6c0.2,4.6-2.2,6.3-6.3,6.5c-9.7,0.5-19.3,0.8-29-0.5c-1.4-0.2-3.6-1.4-4,0.9
			c-0.4,2.3,1.8,2.2,3.3,2.4c10.8,1.6,21.5,0.9,32.3-0.2c2.6-0.3,3,0.2,2.8,2.6c-0.3,4-0.4,8-0.5,12.1c-0.1,5.6-3.9,10.3-9.4,10.6
			c-12.4,0.9-24.8,0.4-37.2,0c-2.4-0.1-3.8-1.1-3.2-3.6c3.2-14.4,0.7-28.9,1.4-43.4c0.1-1-0.2-2,0.1-2.9c0.3-1.5-0.4-4.5,1.9-3.8
			c2.1,0.7,7.1,0.2,5.2,5.3c-2.1,4.6-0.5,9.1,0.5,13.5c0.3,1.4,0.9,2.7,2.3,2.7C183.83,128.36,189.63,129.86,195.13,127.26z"/>
		<path fill="#00ADBC" d="M195.13,127.26c0.1,2.2-1.2,2.7-3.1,2.7c-4.5-0.1-9,0.1-13.5-0.1c-2.9-0.1-4.4-1.3-4.1-4.8
			c0.3-4.3-1.8-8.8,0.9-13c-1,16.1,2.8,13.7,14.5,14.9C191.63,127.16,193.33,127.16,195.13,127.26z"/>
		<path fill="#00ADBC" d="M182.13,122.76c4.3-4.4,7.1-0.7,10.1,0.7C189.03,124.36,186.03,123.56,182.13,122.76z"/>
		<path fill="#00ADBC" d="M194.03,118.36c0,1,0.1,2.3-1.4,1.9c-1.3-0.4-3.2-0.9-3.4-2.3c-0.2-1.6,1.7-2.3,3.1-2.4
			C194.33,115.36,193.73,117.26,194.03,118.36z"/>
		<path fill="#00ADBC" d="M181.13,118.26c-0.3,1.2-1,2.2-2.2,2.2c-1.7,0.1-1.3-1.5-1.3-2.5c0-0.8-0.4-2.2,1.2-1.9
			C179.93,116.26,180.83,117.06,181.13,118.26z"/>
		<path fill="#353535" d="M195.83,204.56c-3.4,0.8-7-2.9-11.1-0.2c-1.1,0.7-1.8-1.7-1.9-3.2c0-1.2-0.6-2.5,1.8-2.3
			c5.1,0.4,9.6,3.2,14.8,2.9c0.4,0,1.2,0.8,1.3,1.3c0.1,0.8-0.6,1.4-1.5,1.5C198.13,204.56,197.23,204.56,195.83,204.56z"/>
		<path fill="#353535" d="M185.33,239.26c-1.4,0.2-2.8,0.3-4.2,0.5c-0.4,2,3.4,1,2.3,3.1c-0.8,1.5-2.6,0.8-4,1
			c-1.8,0.2-3-0.8-2.7-2.5s-2.7-3.6-0.2-4.6C179.63,235.56,182.73,236.46,185.33,239.26z"/>
		<path fill="#353535" d="M197.23,241.46c0.5,1.2,1.7,0.6,2.4,0.9c0.9,0.4,2.4,0.6,2.1,2.1c-0.2,1.2-1.6,1.2-2.3,1
			c-1.8-0.5-3.1,2.7-5.1,0.4c-2-2.3,0.5-3.6,0.8-5.4C196.23,240.06,196.93,240.56,197.23,241.46z"/>
		<path fill="#353535" d="M197.23,241.46c-0.7-0.4-1.3-0.7-2-1.1c0.8-3.2,3.6-3.4,7.5-0.4
			C201.13,241.26,199.03,240.96,197.23,241.46z"/>
		<path fill="#353535" d="M313.13,214.86c2.7-11.3,1.6-22.3-2.8-33c-1.4-3.3-2.9-6.5-5.9-8.7c-1.6-0.7-2.8,0.1-3.8,1.2
			s-2.2,1.7-3.5,2.2c-1.2,1-2.4,0.9-3.6,0.1c-1.1-0.8-1.8-1.4-0.2-2.7c10.3-8.2,13.1-19.3,11.7-31.7c-1.1-9-9.6-15.8-18.6-16.2
			c-10.3-0.4-19.6,2.4-28.3,7.6c-10.7,6.4-18,25.2-8.3,38.5c1.4,1.9,2.3,2.9,4.1,0.6c0.8-1,2.1-1.8,3.1-0.6s-0.7,1.6-1.3,2.2
			c-1.8,1.6-2.7,3.1,0.2,4.5c1,0.5,1.8,1.2,2.7,1.9c0.2,0.6,0.1,0.9-0.6,0.6c-0.5-0.2-1-0.4-1.5-0.7c-4.4-2.6-4.5-2.7-6.6,2.2
			c-3.7,8.5-5.6,17.3-4,26.9c-2.7-1.1-2.5-3.4-2.5-5.2c-0.3-9.2,1.6-18,6.1-26c1.1-2.1,1.2-3.3-0.3-5.2c-11.2-14.9-4.5-37.1,13-44.7
			c8.9-3.8,18.1-5.2,27.7-4.6c2.3,0.1,4.5,1.3,6.7,2c4.2,0.5,6.9,3.2,9.2,6.4c1.2,1.7,2.1,3.6,3,5.5c3,7.7,0.8,15.3-0.6,23
			c-0.2,0.7-0.5,1.5-0.9,2.1c-1.4,2.3-1.2,4.1,1.3,5.4c1.7,1.9,3.6,3.6,4,6.2c5.7,10.5,7.5,21.7,6.9,33.5c-1.3,1.9-0.8,4.2-1.7,6.2
			C316.13,215.86,314.83,217.06,313.13,214.86z"/>
		<path fill="#353535" d="M280.03,260.46c-0.3,8,1.5,11.8,2.1,20c1.6-3.2,3.2-4.4,4.8-7.6c7.4-15.8,14.6-22.7,18.4-39.8
			c1.1-4.9,1.9-9.9,2.6-14.9c0.4-2.7,1.5-3.5,4-2.7c1.5,1,1.2,2.5,1,3.9c-0.7,5.4-1.8,10.7-2.8,16c-1,4.8-2.4,5.5-4.2,10.1
			c-3.7,9.3-7.5,13.4-11.9,22.4c-0.4,0.8-0.6,1.7-0.9,2.5c-2.9,5.4-5.6,9-8.3,14.5c-0.7,1.3-1.2,2.6-1.6,4c-0.9,3.4-4.1,4.5-6.7,6.1
			c-1,0.6-2.5,0.2-2.3-1.6c2.2-0.8,2.5-2.6,2.3-4.6c-1.2-16.4-1-25.9-0.5-42.3c0.3-8.8,1.6-13.6,2.5-22.4c0.1-1.1,0.6-2.1,1-3.2
			c3.1-0.7,5.2,0.8,4.3,3.7c-2.8,9.9-1.9,16.2-3.8,26.2C279.13,254.86,279.53,256.26,280.03,260.46z"/>
		<path fill="#353535" d="M285.43,196.86c-0.7-0.9-1.4-1.9-2.1-2.8c-1.3-1.1-1.5-2.6-1.9-4.1c-3.3-5.7-6.5-11.4-8.5-17.7
			c-0.7-2.3-0.2-3.7,2.4-3.8c1.8,2.1,2.2,4.8,2.7,7.4c5.5,11.1,10.7,22.4,19.2,31.7c0.8,0.9,0.6,1-1.8,1.3c-1.8-0.8-4.1-0.8-5.2-2.9
			c-1.2-1.6-2.6-1.4-4.2-0.7c-1.2,0.5-2.5,1-3.7,1.7c-9,3.9-18.3,6.9-28,8.7c-1.4,0.3-2.8-0.9-4.2-0.2c-1.3,0.1-2.7,0.2-4,0.3
			c-0.9,0-1.9,0.1-2-1.1s0.4-1.6,1.7-1.9c5.7-1.1,11.4-1.7,17-3.3c6.8-1.9,13.2-4.5,19.7-7.3c1.2-0.5,2.3-1.3,2.9-2.6
			C285.93,198.56,285.73,197.76,285.43,196.86z"/>
		<path fill="#353535" d="M255.23,220.16c-1.2,6.6,0.4,12.9,1.6,19.2c3.7,18.6,8.5,25.9,15.4,43.6c0.5,1.4,1.2,2.7,1.5,4.2
			c-3-3.4-4.8-7.5-6.4-11.7c-6.4-17-10.2-23.8-14.1-41.5c-0.8-3.6-0.9-7.3-1.2-11c-0.1-1.9-0.1-3.8,1.1-5.5
			C255.93,216.86,255.73,218.46,255.23,220.16z"/>
		<path fill="#9D9EB1" d="M279.53,255.46c-0.9-9.5,0.2-7,1.2-16.4c0.5-5.1,0.4-10.2,2.6-15.1c0.8-1.8-1.3-3.5-3.8-3.1
			c1-2.1,2.5-2,4.4-1.4c2.3,0.8,0.9,2.3,1,3.6c0.1,2.1-0.5,4.1-0.1,6.3c0.3,1.8-0.1,3.6-0.9,5.4c-1.9,4-0.6,4.4-1.1,8.7
			c-0.2,2.5,1.4,5.7-2.3,7.2c-0.3,0.1-0.2,1.5-0.2,2.2C280.13,256.36,279.63,251.96,279.53,255.46z"/>
		<path fill="#353535" d="M276.83,169.06c1.6-0.3,3.1,0.3,4.5,1c9,5.2,17.2,11.3,24.3,19c0.4,0.5,1,0.9,0.7,2.2
			c-8.5-6.5-16-14.1-25.5-18.9C279.23,171.56,275.63,173.16,276.83,169.06z"/>
		<path fill="#353535" d="M278.13,192.66c-5.1-1.2-10,0.2-14.9,1c-1.3,0.2-2.6,0.6-4,0.2c2.6-3,15.7-5,21.6-3.4
			C281.93,193.86,279.73,192.86,278.13,192.66z"/>
		<path fill="#9D9EB1" d="M297.03,176.46c1.3-1.2,2.8-2.4,3.9-3.8c1.5-1.8,2.4-1.3,3.4,0.3c-1.2,1.3-2.4,2.5-3.5,3.8
			C299.43,178.66,298.03,179.26,297.03,176.46z"/>
		<path fill="#030303" d="M279.53,156.96c0.8,0.1,1.3,0.7,1.3,1.7c0,0.9-0.5,1.1-1.3,1c-1-0.2-1.5-0.7-1.6-1.7
			C278.03,157.06,278.63,156.86,279.53,156.96z"/>
		<path fill="#252525" d="M270.23,156.76c0.8,0.1,1.3,0.6,1.4,1.5c0,0.7-0.3,1.3-1.1,1.1c-0.8-0.1-1.5-0.6-1.6-1.4
			C268.83,157.26,269.43,156.86,270.23,156.76z"/>
		<path fill="#9D9EB1" d="M290.03,205.36c-0.6-1.3-1.3-2.5-3-1.7s-3.3,1.7-5,2.5l0,0c-9.3,3.4-18.6,6.6-28.3,8.7
			c-1.1,0-2.3,0-3.3,0.4c1.3,0.3,2.1,1.1,2.8,2.2c2-0.1,2.1,1.2,2,2.7c0.8-0.5,0.7-1.5,0.7-2.3c0.9,0.3,1.9,0.4,2.8,0.2
			c8.2-2.1,16.5-4,24-8.1c1.6-0.9,2.6-1.5,3.6,0.6c0.6,1.3,1.6,1.4,3.1,1c2-0.5,3.6-1.6,5.2-2.8
			C293.13,207.56,291.03,207.26,290.03,205.36z M282.63,206.36c-0.2-0.1-0.4-0.1-0.6-0.2C282.63,205.96,282.73,206.06,282.63,206.36
			z"/>
		<path fill="#353535" d="M144.33,124.16c0,1.2-0.1,2.3-0.1,3.5c-0.7,9.2,0.9,18.3,1.3,27.5c-0.2,5.7-5.5,6.4-8.8,9
			c-4.5,2.9-9.4,4.1-14.7,4.1c-4.2,0-8.4-0.2-12.6,0.3c-2,0.2-3.5-0.5-4.7-1.9c-0.5-1-0.4-2.4-1.9-2.7c-1-0.5-1.5-1.2-0.9-2.2
			c0.7-1.1,1.6-1.5,2.8-0.7c6.4,1,12.8,0,19.2-0.8c3.5-0.5,5-3.3,6.8-5.7c1.8-2.3,3.2-3.2,4.6,0.3c0.3,0.8,0.2,2.7,2,2.1
			c1.5-0.5,2-1.8,2.1-3.4c0.1-12.7,0.1-25.4,0.3-38.1c0.1-7.2,0.4-14.5,0.7-21.7c0-1.3,0-2.6,1.1-3.5c4-1.2,4,1.8,4.4,4.3
			c0.3,8.3,0.1,16.6,0.1,24.9C145.83,120.96,145.73,122.76,144.33,124.16z"/>
		<path fill="#00ADBC" d="M115.03,118.06c0.1-0.8,0.3-1.6,0.4-2.4c4.4,3,9.1,1.9,13.8,1.1c1,0.8,2.5-0.4,3.5,0.6c0,1,0,1.9,0,2.9
			c-2.9,3,1.2,2.7,1.9,4c0,5.2,0,10.4,0,15.6c-3.9,2.2-8.1,0.7-12.1,1.1c-1.7,0.2-3.7-0.3-3.5,2.5c-0.2,1.6-0.6,3-2,4
			c-2.2-0.2-1.7-2-1.7-3.2c0-2.5-0.6-4.6-2-6.7C115.43,131.16,112.43,124.36,115.03,118.06z"/>
		<path fill="#353535" d="M86.13,108.26c0-1.1,0-1.3,0-1.4c0.2-14.7,0.2-14.7,14.8-16.7c11.8-1.5,23.7-1.6,35.5-2.1
			c1.2,0,3-0.7,3,1.3c-0.1,1.8-1.9,1.1-3.1,1.2c-13.9,1-28,0.3-41.8,3.6c-4.4,1-6.3,2.5-6,7.6c0.5,8.2,0.3,16.4,1.5,24.5
			c0.1,0.9,0.8,2.5-1.1,2.6c-1.7,0-1.8-1.4-1.9-2.8C86.63,119.86,85.63,113.66,86.13,108.26z"/>
		<path fill="#353535" d="M129.73,117.26c-1.5,0.4-3,0.9-4.5,1.3c-3.9,1.1-7.5,1.3-9.9-2.9c-0.9-1.1-1.6-2.3-1-3.8
			c4.8-3.3,10.1-2.2,15.3-2c1,0,1.8,0.8,1.9,1.9c0.1,1.2-0.9,1.7-1.7,2c-2.4,0.9-4.9,1-7.2,1
			C124.73,115.86,128.83,112.16,129.73,117.26z"/>
		<path fill="#00ADBC" d="M129.73,117.26c-2.3-3.4-5.9-1.2-8.8-2.3c3.3-1.5,7.2-1.1,10.9-3.3c-6.2-2.2-11.8-0.7-17.4,0.1
			c0.4-1.8,0.9-3.7,3.3-3.2c5.1,1.1,10.8-2.4,15.3,1.6c2.3,2,2.2,4.8-0.4,7.1C131.73,117.06,130.73,118.46,129.73,117.26z"/>
		<path fill="#00ADBC" d="M134.63,142.36c0.3,6-0.5,7-6.7,6.8c-3-0.1-6,0.9-8.9-0.5c0.1-0.5,0.6-0.8,0.7-1.2c1.1-4.9,5-5.5,9-5.9
			C130.83,141.26,132.83,140.86,134.63,142.36z"/>
		<path fill="#353535" d="M120.13,103.46c-4.1-0.8-7.9-0.7-11.6,0.3c-1.6,0.4-2.9-0.4-3.2-2.1c-0.3-1.6,0.2-2.8,1.9-3.4
			c2.9-1,6-2,9-1.4C119.53,97.46,118.73,101.16,120.13,103.46z"/>
		<path fill="#353535" d="M106.33,109.86c0.4,1.9-5.7,1.2-1,4c-0.2,0.4-0.4,1-0.7,1.1c-2,0.6-3.9,1.1-5.9,1.7
			c-3.2,0.9-2.6-2.1-3.7-3.5c-2.4-3-1.4-3.7,1.8-3.8C100.03,109.16,103.33,107.86,106.33,109.86z"/>
		<path fill="#353535" d="M134.63,142.36c-2.2,0.1-4.4,0.2-6.6,0.3c-3.3,0.4-6.6,0.6-9.9,0.8c-1.4-2-2.5-3.9,1.5-3.9
			c5,0,10-0.7,14.9,0.2C135.73,140.66,135.63,141.46,134.63,142.36z"/>
		<path fill="#353535" d="M118.13,143.46c3.2-1.5,6.6-1.1,9.9-0.8c-1.5,0.3-3.1,0.5-4.6,0.8c-0.4,0.1-1.1-0.3-1.1,0.9
			c0.2,3.1,0.1,3.1-3.4,4.3c-0.7-0.4-1.3-0.7-2-1.1C116.83,145.96,116.83,144.56,118.13,143.46z"/>
		<path fill="#00ADBC" d="M135.53,122.26c-1.7-0.1-3.5-0.2-5.7-0.3c1.1-1.9,1.9-3.4,3.8-3.7
			C134.23,119.56,134.93,120.96,135.53,122.26z"/>
		<path fill="#B6B8CD" d="M148.53,120.96c0-9.9,0.6-19.1,0.6-29c-1.1,1.8-3.6,0.3-4.8,2c0,10,0,20.1-0.1,30c-0.1,1.3-0.1,3-0.2,4.8
			c-0.9,9.1-1.8,18.1,0.3,27.2c-0.7,4.4-5.4,4.3-7.8,6.8c-10.1,5.9-21.1,4.1-31.8,3.6c0.2,3.2,0.4,0.8,2.8,3.7
			c2.4,1.4,4.4,1,6.8,0.3c5.7-1.6,11.4-0.5,17.3-1c3.4-2.3,7.8-0.5,10.7-3.7l0,0c2.3-0.2,3.3-2.8,5.5-3.1c0.9-4.2-1.4-8.1-0.8-12.3
			l0.1-0.1c0-3.8,0-7.7,0-11.5c0-0.3,0-0.6,0-1c0.7-3.2,0.8-9.3,0.9-10C148.63,125.86,148.53,123.06,148.53,120.96z"/>
		<path fill="#353535" d="M120.13,124.66c2.8,1.1,5.9,0.9,8.9,1.1c1.1,0,2.1,0.5,2.1,1.6s-1.1,1.3-2,1.6c-3.1,0.7-6.4,0-9.6,0.8
			c-1.6,0.4-2.6-1.6-2.4-3.5C117.33,124.26,118.73,124.56,120.13,124.66z"/>
		<path fill="#353535" d="M133.43,134.06c-4.4,2.5-8.5,1.9-12.3,2.8c-1,0.2-1.9-0.4-2.1-1.5s0.3-2.1,1.3-2.2
			C124.43,132.56,128.63,131.76,133.43,134.06z"/>
		<path fill="#353535" d="M150.83,263.06c-4.1-4.4-1.7-9.3-2.2-14c-0.1-13.2-1.2-26.5-0.3-39.8c1-6.9,1.6-13.7,2-20.6
			c0.2-4.4-1.3-5.4-5.9-4.5c-8.1,0.8-16.3,1.7-24.4,2.5c-1.1,0.1-3-0.6-2.9,1.4s1.7,1.8,3.3,1.6c5.9-0.6,11.9-1.1,17.8-1.8
			c6.1-0.7,5.9-0.8,5.8,4.9c-0.4,17.8-2.2,35.7-0.4,53.6c0.5,4.2,0,8.4-0.1,12.6c0,1.1-0.2,2.3-1.6,2.7c-1.1,0.3-1.7-0.3-2.2-1.3
			c-1.1-2.1-1-5.5-3.2-6.2c-2.5-0.7-3.4,2.8-5.3,4.2c-6.7,4.9-14.1,3.6-21.4,2.6c-5.5-0.7-11-2.6-16.5-3.1c-3.8-0.3-7.4,0.9-9-5
			c-1.8,4.6,0.2,6.5,2.8,7.9c2.3,1.2,4.8,1.9,7.2,2.8c7.1,1,14.4,1.5,21.4,3.1c11,2.6,21.8,0.3,32.6,0.1
			C150.83,266.66,152.53,264.86,150.83,263.06z M137.23,261.56c-1.3,1.8-3.4,1-5.7,1.3c1.3-2,2.7-3.3,4.6-3.6
			C137.03,259.06,137.63,260.86,137.23,261.56z"/>
		<path fill="#00ADBC" d="M101.33,209.16c-0.7-0.2-2.2-0.4-3.5-0.9c-2.6-1-2.3-2.8-0.3-3.8c3.6-1.8,7.3-3.6,11.5-3.1
			c1.4,0.2,3.6,0.4,3.5,1.7c-0.1,1.6-0.6,3.8-3,4.4C107.13,208.26,104.73,209.16,101.33,209.16z"/>
		<path fill="#00ADBC" d="M124.13,232.86c1.5,0,2.1,0,2.8,0c7.2,0,7.1,0,6.1,7.1c-0.3,2.5-1.3,3.3-3.6,3.1c-2.1-0.2-4.2-0.1-6.2-0.2
			c-6-0.5-6.8-1.8-5.8-7.7c0.4-2.3,1.1-3,3.3-2.6C122.03,232.76,123.53,232.76,124.13,232.86z"/>
		<path fill="#353535" d="M189.83,60.06c12.7-0.4,26.3,1.4,40,1.9c7.6,0.2,15.1-0.2,22.6-1.3c1.5-0.2,3.5-1.2,3.7,1.3
			c0.2,2.5-2,1.9-3.5,2.1c-16.3,1.8-32.5,0.1-48.7-0.7c-11.4-0.5-22.9-0.6-34.3,0.6c-1.3,0.1-3.6,1.4-3.7-1.3
			c-0.1-2.5,2.1-1.8,3.6-2C175.83,59.86,182.33,60.06,189.83,60.06z"/>
		<path fill="#353535" d="M242.13,56.56c-13.8-0.8-27.7-1.5-41.5-2.5c-8.7-0.6-17.3-1.5-26-2.3c-1.4-0.1-3.5,0.3-3.5-1.6
			c0-2.3,2.2-1.9,3.7-1.7c10.2,1,20.5,2.3,30.7,3c17.5,1.2,35,3.9,52.3-0.9c1.1-0.3,2.7-1,3.1,1c0.4,2.1-1.2,2.2-2.6,2.6
			C253.03,55.46,247.53,55.96,242.13,56.56z"/>
		<path fill="#353535" d="M187.03,33.36c1.7,1.1,1.4,2.2,1.7,3c0.7,2.2,2.3,2.8,3.2,0.7c1.5-3.3,3.6-2.7,6.2-2.2
			c18.5,2.8,37.1,4,55.8,1.8c1.6-0.2,3.7-0.7,3.9,1.3c0.2,2.1-2.1,2-3.6,2.1c-18.7,0.7-37.4,0.8-55.9-1.9c-1.5-0.2-3-1.2-4.3,0.7
			c-1.1,1.6-2.6,4-4.9,2.6C186.43,39.66,186.23,36.76,187.03,33.36z"/>
		<path fill="#353535" d="M186.93,72.66c10.8-0.2,21.5,3,32.3,1.1c1.3-0.2,2.2,0.2,2.3,1.7c0.2,2-0.9,2.4-2.6,2.4
			c-10-0.4-20-0.8-30-1.1c-6-0.2-11.9-0.3-17.9-0.6c-1.5-0.1-3.9,0.4-3.9-1.8c0-2.3,2.3-1.6,3.8-1.6
			C176.23,72.66,181.63,72.66,186.93,72.66z"/>
		<path fill="#353535" d="M235.23,70.76c1.6,0,2.1,1,2.1,1.9c0.1,1.6-0.4,3.3-2.1,3.9c-1.3,0.4-1.6-0.7-1.4-1.7
			C234.13,73.36,234.03,71.66,235.23,70.76z"/>
		<path fill="#353535" d="M172.33,41.26c-2.9-1.9-1.1-3.9-0.1-5.7c0.2-0.4,1.2-0.6,1.6-0.4c1.3,0.6,0.3,1.6,0,2.4
			C173.53,38.76,172.83,39.96,172.33,41.26z"/>
		<path fill="#353535" d="M230.93,77.76c-0.6-0.5-0.8-0.6-0.8-0.7c-0.6-2-0.8-4.1,0.5-5.9c0.1-0.2,1.1-0.1,1.2,0.1
			C232.93,73.46,232.13,75.46,230.93,77.76z"/>
		<path fill="#353535" d="M166.73,41.36c-1.5-3-1.4-5.6,2-7.4C169.93,36.96,166.23,38.66,166.73,41.36z"/>
		<path fill="#353535" d="M197.33,139.56c4.6,0,9.3,0,13.9,0c1.3,0,3.1-1,3.1,1.5c0,2.4-1.9,1.7-3.2,1.8c-9.4,0.6-18.9,1.2-28.3,1.7
			c-1.7,0.1-3.4,0.1-3.5-2.2c-0.2-2.4,1.7-1.9,3-1.9c5,0,10,0,14.9,0C197.33,140.16,197.33,139.86,197.33,139.56z"/>
		<path fill="#353535" d="M209.43,148.86c-1.4,2.5-4,1.6-6.1,1.9c-6.9,0.7-13.8,1-20.7,0.8c-1.9-0.1-3.8-0.8-3.2-3.1
			c0.5-2.1,2.3-0.8,3.6-0.6c7.4,0.8,14.7,0.1,22.1-0.1C206.83,147.56,208.33,147.26,209.43,148.86z"/>
		<path fill="#353535" d="M46.03,276.86c-0.6,7.7-1.1,11.4-1.7,19.1c0,0.6,0.4,1.7-0.8,1.7c-1.1,0-1.2-0.8-1.5-1.7
			c-1.2-4.2-0.1-8.4,0-12.6c0.7-18.3,1.4-32.5,2.2-50.8c0.2-3.8-0.1-7.7,2.9-10.8c2.5-0.4,3.4,0.3,3,2.6c-0.3,1.5-1,2.9-0.7,4.5
			c0,0.6,0,1.1,0,1.7c-0.7,13.4-0.7,26.9-2,40.3C47.23,273.06,47.13,275.06,46.03,276.86z"/>
		<path fill="#353535" d="M54.23,265.96c-1.1,3-2.2,5.9-3.3,8.9c-0.9,1.6-2,2.9-4.1,1.8c-1-2,0.1-4,0.6-5.8
			c1.2-4.7,2.9-9.2,4.2-13.9c0.2-0.7,0.7-1.3,1.3-1.8c5.1-14.7,7.6-29.9,9.3-45.3c0.2-1.6,0.5-3.4-1.4-4.4c-0.5-0.3-0.3-1.2,0.3-1.6
			c1.5-0.5,2.9-1,4.5-0.2c1.5,0.9,1.5,2.4,1.6,3.9c0.1,3.4-0.3,6.8-1,10.1c-2.7,13.1-4.6,26.4-8.6,39.2
			C56.83,259.96,56.63,263.36,54.23,265.96z"/>
		<path fill="#9FA0B5" d="M63.23,161.86c-1.8,1.1-3.5,2.1-5.8,3.5c0.9-14.3-2.7-25.7-16.6-31.7c1.8-2.3,3.7-1,5.3,0.1
			c9.1,6.7,16,14.7,16.4,26.8C62.53,161.16,62.63,161.66,63.23,161.86z"/>
		<path fill="#9E9FB4" d="M68.93,195.06c-0.8,0.4-1.4,0.3-1.3-0.8c8.7-12.7,19.5-36.1,25.4-50.4c0.9-0.7,0.8,2.8,1.2,3.6
			c-0.1,2.3-2.7,13.4-6,19.5C82.43,176.86,75.63,185.76,68.93,195.06z"/>
		<path fill="#9E9FB4" d="M21.73,223.86c1.5-4.2,2.7-8.5,4.4-12.5c0.8-1.9-0.5-2.1-1.3-2.8c0.8-0.2,1.6-0.5,2.5-0.6
			c2.3-0.3,4.5,1.7,3.8,3.4c-2.8,6.7-4.8,9.7-7.8,16.3c-0.4,1-1.8,5.9-2.9,5.2c-1.7,1.2-3.4-1-2.8-2.4
			C18.43,228.66,20.03,225.86,21.73,223.86z"/>
		<path fill="#A2A4B8" d="M49.73,182.36c3-4,5.9-8.1,6.7-13.1c0.3-1.7,1.8-1.1,2.6-1.8c1.1-0.9,2.3-1.5,3.5-2.2
			c-1,3.2-1.1,6.6-2.7,9.7c-1.6,2.9-3.6,5.5-6.2,7.5C52.33,183.16,51.03,184.06,49.73,182.36z"/>
		<path fill="#9E9FB4" d="M7.13,253.86c0.8-4,3.3-7.3,5-10.9c1.1-2.4,2.4-4.7,3.9-7.7c0.5,2.8,0.8,5,1.2,7.1
			c-2.9,2.3-4.6,5.5-6.9,8.3C9.23,251.86,8.33,253.06,7.13,253.86z"/>
		<path fill="#9D9EB1" d="M51.13,226.96c0-0.9,0.5-4.2,0-4.8c-0.1-1.9-4.7-1.8-4.2-0.3c1.4,0.1,2.2,0.8,1.4,3.1
			c-0.3,1-0.5,2-0.5,3.1c0,0.1,0,0.2-0.1,0.3c-0.1,0.4-0.1,0.9-0.1,1.3c0.1,0.1,0.1,0.2,0.2,0.4c-0.1-0.1-0.1-0.2-0.2-0.4
			c-0.6,15.5-0.6,31.1-1.6,46.7c0.2,0.3,0.5,0.5,0.7,0.7c0.2-0.1,0.2-0.3,0.1-0.6c-0.1-1.2,0.1-2.3,0.3-3.4c1-6.3,2.9-12.1,3.6-18.4
			c-0.1,0-0.2,0-0.3,0c-0.1-2.6,0.7-5.1,0.8-7.6C51.13,240.36,51.13,233.66,51.13,226.96z"/>
		<path fill="#9E9FB4" d="M68.13,197.66c0.2-0.8,0.5-1.7,0.7-2.5c-0.5,0-1-0.3-1.3-0.8c-1.1,0.5-1.4,1.8-2.3,2.5
			c-1.8,1.5-3.5,3.1-6.1,2.7c-0.5,0.6-0.5,1.3,0.4,1.2c3.1-0.2,2.5,1.4,1.6,3.1c1.5,0.6,3,0.2,4.5,0.3c0-0.1,0.1-0.2,0.1-0.2v0.1
			c0.6,0.9,0.8,1.9,0.8,3c0.2,8.1-2.3,15.8-3.7,23.7c-1.6,8.9-3.5,17.7-5.9,26.3c-0.9,3-1.8,6-2.6,9c-0.9,1.3-0.5,1-0.7,1.7
			c-0.5,1.8-2.2,3.8-2.7,5.6c-0.4,1.4,0.8,0.8,2,1.3c1.5,0.6,2.6-3,3.1-3.8c2.9-4.7,3.5-6.5,5.3-11.5c1-2.8,2.1-5.6,1.9-8.6h-0.1
			l0.1-0.1c0.2-0.5,0.5-0.9,0.6-1.4c0.9-3.9,0-8.2,1.9-12C67.63,224.06,69.03,210.86,68.13,197.66
			C68.23,197.56,68.13,197.56,68.13,197.66z"/>
		<path fill="#353535" d="M92.43,135.76c-1,3.5-3.6,5.8-6.2,8.1c-1.2,1-2.4,2.1-3.6,3.1c-6.3,5.2-12.3,10.9-19.5,15
			c-1.7-0.3-3.3,2.1-4.6,0.7c-1-1.2-0.2-3.3-0.3-5c0-0.2,0-0.4,0-0.6c-0.9-9.9-5.3-17.6-13.9-22.7c-1.1-0.6-2.2-1.3-3.6-0.7
			c-3,2.3-6.7,1.1-10.1,1.9c-13.4,3.2-24.3,9.8-28.9,23.5c-3.3,9.8-2.2,19.2,6.1,26.7c0.9,0.8,2.3,1.1,2.7,2.6
			c-2.6,0.9-4.2,2.8-5.3,5.2c-2,4.5-3.2,9.2-3.5,14.1c-0.8,10.8-0.2,21.6,0.5,32.4c0.3,3.8,1.5,7.7,0.4,11.4
			c-0.8,2.6,3.7,3.5,4.4,2.4c2.9-5.3,5.7-10.6,8.5-16c0.4,1.6,0.4,3.3,1.6,4.5c0.9,3.3,1.7,6.5,2.6,9.8c3.9,14.1,9.1,23.7,14.4,37.3
			c0.6,1.5,1,3.5,3.4,4c-0.7-1.7-1.3-3.1-1.8-4.5c-2.9-7.8-5.9-11.6-8.6-19.5c-4-11.4-7.7-22.9-8.4-35.1c0-1.4-1.6-2.4-0.4-4.1
			c1.4-1.9,2.3-4.2,3.4-6.4c3.1-3.8,3.5-8.7,5.2-13.2c0.6-1.6-1.1-1.8-2-2.3c-0.9,0-1.5,0.5-1.8,1.2c-3.7,7.7-7.8,15.1-10.6,23.1
			c-1.8,5.3-3.6,10.6-7.6,15.4c-1.1-14.4-2.3-28.3-0.8-42.3c0.4-4.2,1.5-8.4,3.7-12.1c1.2-2.1,3.1-4,5.5-3.4
			c6.5,1.7,13,1.6,19.6,0.9c2.2-0.5,4.8,0.1,6.6-1.8c0.5-0.2,0.9-0.4,1.4-0.6c3.7-1.1,6.6-3.5,9.3-6.1c1.9-1.8,3.6-3.9,4.4-6.2
			c1.5-4.7,4.1-8.4,8-11.3c9.6-6.8,18.5-14.4,27.4-22.5c-0.1,0.9,0,1.5-0.2,2.1c-3.6,10.3-7.9,20.2-13.5,29.5
			c-5.2,8.8-11.1,17.1-17.1,25.3c0.4,1.8,1.6,0.7,2.4,0.5c2.8-0.8,4.7-2.9,6.4-5.2c2.8-3.7,5.1-7.7,7.7-11.6
			c6-9.1,10.8-18.9,15.1-28.9c1.6-4,2.9-8.1,3.9-12.3C95.43,138.86,94.53,136.76,92.43,135.76z M30.53,187.16
			c-5.1,0.7-10.3,1.8-15.5,0.4c-9.6-2.6-14.9-12.3-12.9-23.1c2-10.7,8.3-17.9,17.9-22.7c4.9-2.4,9.8-4.1,15.3-4.9
			c6.3-0.9,10,2.1,13.5,6.4c3.9,4.9,5.5,10.5,5.3,15.8C54.43,174.26,44.73,185.46,30.53,187.16z"/>
		<path fill="#171717" d="M42.83,162.16c0.1-0.7,0.5-1.2,1.2-1.3c0.9-0.2,1.3,0.5,1.4,1.3c0.1,0.7-0.1,1.3-0.9,1.2
			C43.73,163.26,43.03,162.96,42.83,162.16z"/>
		<path fill="#020202" d="M37.63,162.96c0,0.9-0.6,1.1-1.2,1c-0.7-0.1-1.5-0.1-1.4-1.2c0-0.8,0.4-1.1,1.1-1.1
			C36.93,161.86,37.43,162.26,37.63,162.96z"/>
		<path fill="#353535" d="M205.93,215.96c-1.2-3.9-5.4-4.2-9-4.2c-5,0.1-9.9,2.1-14.9,0.4c-4.5-0.7-7.5,1.2-9.5,4.9
			c-2.7,5-2.2,10,1.2,13.3c4.1,4,12.1,5.8,16,3.1c2.2-1.4,3.8-1.4,6.2-0.9c3.4,0.8,7.2,1.6,9.8-1.9
			C209.23,225.96,207.43,220.66,205.93,215.96z M174.73,228.06c-2.6-2.3-1.5-5.3-0.7-8.1c1.7-5.5,6.9-3.1,10.8-5
			c-5.7,7.2-2.8,11.8,3.8,15.8C183.03,232.46,178.53,231.36,174.73,228.06z M189.43,227.76c-2.6-0.5-5-2.3-5.3-5
			c-0.2-2.3,2-5.1,3.9-4.8c3,0.6,2.7,4.2,3.2,6.7C190.83,225.86,191.93,228.26,189.43,227.76z M202.53,229.86
			c-2.6,1.3-5.3,0.4-8-0.3c-0.4-0.1-1-0.6-1-0.9c0.2-4.2-0.4-8.2-2.2-12.1c-0.3-0.7,0.9-1.1,1.7-1.3c6.3-1.5,11.9-0.5,11.8,8.3
			C204.93,225.96,205.13,228.56,202.53,229.86z"/>
		<path fill="#353535" d="M104.33,203.56c0.8,0,1.7,0.1,1.7,1.1c0,1.4-1.2,1.7-2.3,1.9c-0.9,0.1-1.7-0.2-1.7-1.2
			C102.03,203.86,103.23,203.66,104.33,203.56z"/>
		<path fill="#353535" d="M128.63,237.56c-0.8,0.5-1.2,0.9-1.5,0.9c-2.3,0.1-4.8,1-6.8-0.9c-0.5-0.5-0.5-1.4,0.2-1.6
			C123.33,234.86,125.83,235.76,128.63,237.56z"/>
		<path fill="#353535" d="M201.73,223.56c-2.7,0.7-4.5,2-6.5,0.7c-0.6-0.4-0.8-1.6,0-2.1C197.13,221.06,199.03,221.46,201.73,223.56
			z"/>
		<path fill="#353535" d="M177.13,223.16c1.5,0.1,2.6,0.3,2.5,1.9c-0.1,1.3-1.3,1.2-2.2,1.2c-1.1,0-2.5,0.2-2.5-1.4
			C174.83,223.26,176.33,223.46,177.13,223.16z"/>
	</g>
</g>
<g id="Layer_2">
	<g>
		<path fill="#FEFEFE" d="M160.222,184.777c-47.906,0-95.811-0.001-143.717,0.013c-0.541,0-0.664-0.122-0.663-0.663
			c0.016-23.532,0.016-47.063,0-70.595c0-0.541,0.122-0.663,0.663-0.663c95.859,0.014,191.718,0.014,287.577,0
			c0.541,0,0.664,0.122,0.663,0.663c-0.016,23.532-0.016,47.063,0,70.595c0,0.541-0.122,0.663-0.663,0.663
			C256.129,184.776,208.176,184.777,160.222,184.777z M218.416,169.387c0,1.471,0.029,2.768-0.013,4.062
			c-0.019,0.582,0.124,0.776,0.743,0.771c3.681-0.03,7.362-0.029,11.043,0c0.619,0.005,0.749-0.194,0.748-0.776
			c-0.014-19.008-0.014-38.015,0-57.023c0-0.581-0.128-0.782-0.748-0.777c-3.681,0.029-7.362,0.029-11.043,0
			c-0.618-0.005-0.744,0.19-0.743,0.77c0.019,7.483,0.013,14.965,0.008,22.448c0,0.251,0.071,0.516-0.061,0.764
			c-0.227-0.028-0.327-0.21-0.465-0.329c-6.034-5.204-14.527-5.722-20.977-1.276c-9.044,6.235-11.228,19.379-4.727,28.449
			c4.899,6.835,13.137,9.415,20.652,6.461C214.865,172.133,216.664,170.953,218.416,169.387z M277.188,158.637
			c4.643,0,9.286-0.015,13.929,0.018c0.619,0.004,0.819-0.191,0.913-0.761c1.007-6.161-0.64-11.546-4.857-16.093
			c-7.33-7.902-20.167-9.09-28.911-2.708c-5.189,3.787-8.137,8.856-8.216,15.354c-0.068,5.634,2.169,10.36,6.344,14.081
			c5.459,4.865,11.917,6.498,19.045,5.18c6.415-1.186,11.365-4.622,14.636-10.343c0.382-0.668,0.37-0.68-0.388-0.68
			c-3.079-0.002-6.159,0.038-9.237-0.025c-0.89-0.018-1.501,0.171-1.918,0.98c-0.172,0.334-0.47,0.607-0.732,0.889
			c-3.277,3.54-8.051,3.79-11.646,0.581c-1.733-1.547-2.778-3.526-3.458-5.729c-0.192-0.621-0.083-0.762,0.568-0.758
			C267.901,158.648,272.544,158.637,277.188,158.637z M90.072,161.756c0.001,0,0.002,0,0.002,0c0,3.897,0.007,7.795-0.01,11.692
			c-0.002,0.473,0.077,0.668,0.616,0.665c3.536-0.025,7.073-0.02,10.609-0.004c0.455,0.002,0.62-0.102,0.62-0.593
			c-0.012-7.506,0.009-15.012-0.01-22.517c-0.005-2.171-0.567-4.233-1.512-6.182c-4.857-10.013-18.619-12.763-27.21-5.432
			c-0.402,0.343-0.628,0.397-1.058,0.022c-1.592-1.389-3.426-2.38-5.412-3.096c-0.302-0.109-0.533-0.176-0.8,0.158
			c-1.752,2.188-3.286,4.502-4.323,7.121c-0.35,0.884-0.345,0.879,0.616,1.061c0.281,0.053,0.56,0.137,0.83,0.233
			c2.539,0.902,3.981,3.084,3.984,6.061c0.006,7.482,0.008,14.964-0.01,22.445c-0.001,0.561,0.137,0.727,0.714,0.721
			c3.175-0.029,6.351-0.04,9.526,0.006c0.723,0.01,0.848-0.204,0.845-0.876c-0.025-7.458-0.012-14.915-0.02-22.373
			c-0.001-0.976,0.135-1.914,0.537-2.807c1.166-2.595,3.97-3.998,6.79-3.399c2.671,0.568,4.65,2.973,4.669,5.761
			C90.092,154.202,90.072,157.979,90.072,161.756z M122.531,174.13c5.364-0.009,9.08-1.066,12.485-3.199
			c10.007-6.266,12.198-19.361,4.773-28.522c-6.533-8.062-18.799-9.786-27.57-3.875c-7.872,5.305-10.94,15.082-7.119,23.54
			C108.713,170.069,115.283,173.744,122.531,174.13z M166.199,174.12c4.413,0.01,8.486-1.258,12.049-3.75
			c8.07-5.647,10.695-16.202,6.135-24.672c-5.512-10.238-18.816-13.807-28.861-7.743c-8.186,4.942-11.64,14.437-8.439,23.202
			C149.904,168.881,157.599,174.099,166.199,174.12z M247.32,144.903c0-9.503-0.004-19.007,0.01-28.51
			c0.001-0.529-0.087-0.755-0.697-0.749c-3.32,0.032-6.64,0.025-9.96,0.004c-0.504-0.003-0.648,0.136-0.647,0.644
			c0.012,19.031,0.013,38.062-0.002,57.092c0,0.556,0.173,0.681,0.697,0.678c3.248-0.022,6.496-0.032,9.744,0.006
			c0.697,0.008,0.874-0.178,0.872-0.872C247.312,163.765,247.32,154.334,247.32,144.903z M43.409,161.776c-0.011,0-0.023,0-0.034,0
			c0,3.871,0.011,7.741-0.012,11.612c-0.003,0.551,0.125,0.73,0.707,0.725c3.39-0.029,6.78-0.036,10.169,0.005
			c0.67,0.008,0.77-0.204,0.768-0.805c-0.02-7.429-0.011-14.858-0.017-22.287c-0.001-0.824,0.047-1.644,0.349-2.409
			c0.17-0.432,0.094-0.682-0.222-0.994c-2.416-2.388-5.325-3.9-8.538-4.899c-0.39-0.121-0.511,0.052-0.674,0.307
			c-1.439,2.245-2.406,4.681-2.472,7.353C43.338,154.179,43.409,157.979,43.409,161.776z M30.644,138.06
			c0.012,0.047,0.023,0.093,0.035,0.14c0.09,0.005,0.179,0.016,0.269,0.016c7.889,0.001,15.778-0.001,23.667,0.007
			c0.364,0,0.638-0.135,0.921-0.332c5.553-3.883,11.111-7.761,16.663-11.645c0.14-0.098,0.362-0.14,0.368-0.383
			c-0.178-0.133-0.377-0.07-0.561-0.07c-7.312-0.004-14.623-0.001-21.935-0.01c-0.407-0.001-0.735,0.117-1.07,0.336
			c-3.782,2.469-7.57,4.928-11.357,7.39C35.311,135.026,32.977,136.543,30.644,138.06z M58.897,149.798
			c-0.2-2.503,0.231-4.693,1.079-6.816c1.596-3.997,4.154-7.335,7.101-10.409c0.165-0.172,0.41-0.303,0.447-0.602
			c-0.356-0.063-0.524,0.185-0.728,0.324c-3.438,2.334-6.871,4.675-10.301,7.022c-0.305,0.209-0.599,0.356-0.988,0.355
			c-5.118-0.01-10.235-0.007-15.269-0.007c0.224,0.052,0.529,0.155,0.841,0.188c1.651,0.174,3.281,0.467,4.88,0.907
			C51.257,142.216,55.831,144.73,58.897,149.798z M34.18,149.85c0,2.214,0.008,4.427-0.005,6.641
			c-0.003,0.583,0.168,1.008,0.8,1.072c0.53,0.054,0.868-0.359,0.869-1.079c0.007-4.403,0.004-8.806,0.003-13.209
			c0-0.58-0.131-1.102-0.843-1.094c-0.702,0.008-0.83,0.505-0.828,1.1C34.186,145.471,34.18,147.661,34.18,149.85z M35.939,140.272
			c0.002-0.537-0.419-0.965-0.949-0.968c-0.531-0.003-0.954,0.422-0.957,0.96c-0.003,0.54,0.412,0.962,0.948,0.964
			C35.518,141.229,35.937,140.811,35.939,140.272z"/>
		<path fill="#F6AE01" d="M218.416,169.387c-1.752,1.566-3.551,2.745-5.582,3.544c-7.515,2.954-15.753,0.374-20.652-6.461
			c-6.501-9.069-4.317-22.214,4.727-28.449c6.449-4.446,14.942-3.928,20.977,1.276c0.138,0.119,0.238,0.301,0.465,0.329
			c0.132-0.248,0.061-0.513,0.061-0.764c0.005-7.483,0.01-14.965-0.008-22.448c-0.001-0.58,0.125-0.775,0.743-0.77
			c3.681,0.03,7.362,0.03,11.043,0c0.62-0.005,0.748,0.195,0.748,0.777c-0.014,19.008-0.014,38.015,0,57.023
			c0,0.582-0.129,0.781-0.748,0.776c-3.681-0.029-7.362-0.029-11.043,0c-0.618,0.005-0.761-0.189-0.743-0.771
			C218.445,172.155,218.416,170.859,218.416,169.387z M200.056,154.958c0.025,2.67,0.708,5.008,2.231,7.068
			c3.504,4.74,9.762,5.052,13.704,0.693c3.757-4.154,3.685-11.299-0.155-15.381c-3.765-4.003-9.532-3.873-13.103,0.307
			C200.907,149.782,200.111,152.299,200.056,154.958z"/>
		<path fill="#F6AE01" d="M277.188,158.637c-4.643,0-9.286,0.012-13.929-0.014c-0.651-0.004-0.76,0.137-0.568,0.758
			c0.68,2.202,1.725,4.182,3.458,5.729c3.596,3.209,8.369,2.959,11.646-0.581c0.261-0.282,0.56-0.555,0.732-0.889
			c0.417-0.81,1.028-0.999,1.918-0.98c3.078,0.064,6.158,0.024,9.237,0.025c0.758,0,0.77,0.012,0.388,0.68
			c-3.271,5.721-8.221,9.157-14.636,10.343c-7.128,1.318-13.587-0.314-19.045-5.18c-4.175-3.721-6.412-8.447-6.344-14.081
			c0.079-6.498,3.028-11.566,8.216-15.354c8.744-6.383,21.581-5.195,28.911,2.708c4.217,4.547,5.864,9.932,4.857,16.093
			c-0.093,0.57-0.293,0.765-0.913,0.761C286.474,158.621,281.831,158.637,277.188,158.637z M271.595,151.573
			c2.861,0,5.722-0.009,8.582,0.008c0.498,0.003,0.677-0.051,0.506-0.627c-0.563-1.893-1.422-3.615-2.733-5.099
			c-3.439-3.894-8.705-4.011-12.307-0.268c-1.463,1.521-2.386,3.345-2.984,5.359c-0.164,0.553-0.021,0.64,0.497,0.636
			C265.97,151.563,268.782,151.573,271.595,151.573z"/>
		<path fill="#F6AE01" d="M90.072,161.756c0-3.777,0.02-7.554-0.007-11.331c-0.019-2.788-1.999-5.194-4.669-5.761
			c-2.82-0.599-5.624,0.804-6.79,3.399c-0.402,0.894-0.538,1.831-0.537,2.807c0.008,7.458-0.005,14.915,0.02,22.373
			c0.002,0.672-0.123,0.887-0.845,0.876c-3.175-0.046-6.351-0.035-9.526-0.006c-0.576,0.005-0.715-0.16-0.714-0.721
			c0.018-7.482,0.016-14.964,0.01-22.445c-0.002-2.977-1.445-5.16-3.984-6.061c-0.27-0.096-0.549-0.18-0.83-0.233
			c-0.961-0.182-0.966-0.178-0.616-1.061c1.037-2.619,2.572-4.933,4.323-7.121c0.267-0.334,0.498-0.268,0.8-0.158
			c1.985,0.716,3.819,1.707,5.412,3.096c0.429,0.375,0.655,0.321,1.058-0.022c8.59-7.332,22.352-4.581,27.21,5.432
			c0.945,1.949,1.507,4.011,1.512,6.182c0.019,7.506-0.002,15.012,0.01,22.517c0.001,0.492-0.164,0.595-0.62,0.593
			c-3.536-0.016-7.073-0.021-10.609,0.004c-0.539,0.004-0.618-0.191-0.616-0.665c0.017-3.897,0.01-7.794,0.01-11.692
			C90.074,161.756,90.073,161.756,90.072,161.756z"/>
		<path fill="#F6AE01" d="M122.531,174.13c-7.248-0.386-13.819-4.061-17.431-12.056c-3.821-8.458-0.753-18.236,7.119-23.54
			c8.771-5.911,21.037-4.187,27.57,3.875c7.424,9.161,5.234,22.256-4.773,28.522C131.611,173.064,127.896,174.121,122.531,174.13z
			 M132.541,154.784c0.022-2.081-0.613-4.337-1.931-6.396c-3.187-4.976-9.374-5.308-13.039-0.701
			c-3.243,4.076-3.242,10.77,0.001,14.851c3.524,4.434,9.361,4.333,12.704-0.234C131.83,160.179,132.538,157.771,132.541,154.784z"
			/>
		<path fill="#F6AE01" d="M166.199,174.12c-8.601-0.02-16.295-5.238-19.116-12.964c-3.201-8.765,0.253-18.261,8.439-23.202
			c10.045-6.064,23.349-2.494,28.861,7.743c4.56,8.47,1.935,19.025-6.135,24.672C174.686,172.862,170.612,174.13,166.199,174.12z
			 M174.955,155.3c-0.035-2.626-0.646-4.888-1.977-6.944c-3.001-4.638-8.698-5.258-12.431-1.351
			c-4.009,4.196-4.031,11.947-0.046,16.164c3.303,3.495,8.085,3.533,11.398,0.039C174.041,160.95,174.88,158.166,174.955,155.3z"/>
		<path fill="#F6AE01" d="M247.32,144.903c0,9.431-0.008,18.862,0.016,28.293c0.002,0.695-0.175,0.881-0.872,0.872
			c-3.247-0.039-6.496-0.028-9.744-0.006c-0.524,0.003-0.698-0.121-0.697-0.678c0.015-19.031,0.014-38.062,0.002-57.092
			c0-0.508,0.144-0.648,0.647-0.644c3.32,0.021,6.64,0.028,9.96-0.004c0.61-0.006,0.698,0.22,0.697,0.749
			C247.316,125.896,247.32,135.399,247.32,144.903z"/>
		<path fill="#F6AE01" d="M43.409,161.776c0-3.798-0.071-7.597,0.024-11.393c0.067-2.671,1.034-5.107,2.472-7.353
			c0.163-0.255,0.285-0.428,0.674-0.307c3.213,0.999,6.122,2.511,8.538,4.899c0.316,0.312,0.392,0.563,0.222,0.994
			c-0.302,0.765-0.35,1.585-0.349,2.409c0.006,7.429-0.004,14.858,0.017,22.287c0.002,0.601-0.098,0.813-0.768,0.805
			c-3.389-0.041-6.78-0.033-10.169-0.005c-0.582,0.005-0.71-0.173-0.707-0.725c0.023-3.871,0.012-7.741,0.012-11.612
			C43.386,161.776,43.398,161.776,43.409,161.776z"/>
		<path fill="#ED1C24" d="M30.644,138.06c2.334-1.517,4.667-3.034,7.001-4.551c3.787-2.462,7.575-4.921,11.357-7.39
			c0.335-0.218,0.662-0.336,1.07-0.336c7.312,0.01,14.623,0.006,21.935,0.01c0.184,0,0.382-0.063,0.561,0.07
			c-0.006,0.243-0.228,0.285-0.368,0.383c-5.553,3.884-11.11,7.762-16.663,11.645c-0.283,0.198-0.557,0.333-0.921,0.332
			c-7.889-0.009-15.778-0.007-23.667-0.007c-0.09,0-0.179-0.01-0.269-0.016C30.667,138.154,30.655,138.107,30.644,138.06z"/>
		<path fill="#ED1C24" d="M58.897,149.798c-3.066-5.068-7.64-7.582-12.938-9.038c-1.599-0.439-3.229-0.732-4.88-0.907
			c-0.312-0.033-0.617-0.136-0.841-0.188c5.034,0,10.152-0.003,15.269,0.007c0.389,0.001,0.683-0.146,0.988-0.355
			c3.429-2.347,6.863-4.688,10.301-7.022c0.204-0.138,0.371-0.387,0.728-0.324c-0.037,0.299-0.282,0.429-0.447,0.602
			c-2.947,3.074-5.505,6.412-7.101,10.409C59.128,145.105,58.697,147.294,58.897,149.798z"/>
		<path fill="#ED1C24" d="M34.18,149.85c0-2.189,0.006-4.379-0.004-6.568c-0.003-0.595,0.126-1.093,0.828-1.1
			c0.713-0.008,0.843,0.514,0.843,1.094c0.001,4.403,0.005,8.806-0.003,13.209c-0.001,0.72-0.34,1.133-0.869,1.079
			c-0.632-0.064-0.803-0.49-0.8-1.072C34.188,154.277,34.18,152.064,34.18,149.85z"/>
		<path fill="#ED1C24" d="M35.939,140.272c-0.002,0.54-0.421,0.957-0.958,0.955c-0.536-0.002-0.951-0.423-0.948-0.964
			c0.003-0.538,0.426-0.962,0.957-0.96C35.52,139.306,35.941,139.735,35.939,140.272z"/>
		<path fill="#FEFEFE" d="M200.056,154.958c0.055-2.659,0.851-5.176,2.677-7.313c3.572-4.18,9.338-4.31,13.103-0.307
			c3.84,4.082,3.912,11.227,0.155,15.381c-3.943,4.359-10.2,4.047-13.704-0.693C200.763,159.966,200.081,157.628,200.056,154.958z"
			/>
		<path fill="#FEFEFE" d="M271.595,151.573c-2.813,0-5.625-0.01-8.438,0.009c-0.518,0.004-0.662-0.083-0.497-0.636
			c0.598-2.013,1.52-3.838,2.984-5.359c3.602-3.744,8.868-3.627,12.307,0.268c1.311,1.484,2.17,3.206,2.733,5.099
			c0.171,0.576-0.008,0.63-0.506,0.627C277.316,151.564,274.456,151.573,271.595,151.573z"/>
		<path fill="#FEFEFE" d="M132.541,154.784c-0.003,2.987-0.711,5.395-2.266,7.519c-3.343,4.567-9.18,4.668-12.704,0.234
			c-3.243-4.08-3.243-10.775-0.001-14.851c3.665-4.606,9.852-4.275,13.039,0.701C131.928,150.447,132.563,152.703,132.541,154.784z"
			/>
		<path fill="#FEFEFE" d="M174.955,155.3c-0.075,2.866-0.915,5.65-3.056,7.908c-3.313,3.494-8.094,3.456-11.398-0.039
			c-3.985-4.217-3.963-11.968,0.046-16.164c3.733-3.907,9.431-3.287,12.431,1.351C174.309,150.412,174.92,152.674,174.955,155.3z"/>
	</g>
</g>
</svg>
